<?xml version="1.0" encoding="utf-8"?>
<!-- Generator: Adobe Illustrator 17.0.0, SVG Export Plug-In . SVG Version: 6.00 Build 0)  -->
<!DOCTYPE svg PUBLIC "-//W3C//DTD SVG 1.1//EN" "http://www.w3.org/Graphics/SVG/1.1/DTD/svg11.dtd">
<svg version="1.1" id="Layer_1" xmlns="http://www.w3.org/2000/svg" xmlns:xlink="http://www.w3.org/1999/xlink" x="0px" y="0px"
	 width="128px" height="128px" viewBox="0 0 128 128" enable-background="new 0 0 128 128" xml:space="preserve">
<g>
	<path fill="#03DDDD" d="M77.173,84.528c-11.337,7.459-26.575,4.315-34.034-7.022c-1.894-2.879-3.103-6.01-3.669-9.201
		c-0.006-0.031-0.011-0.063-0.016-0.094c-0.026-0.15-0.051-0.3-0.074-0.45c-0.015-0.097-0.029-0.194-0.043-0.292
		c-0.012-0.084-0.024-0.167-0.035-0.251c-0.023-0.171-0.043-0.341-0.062-0.512c-0.001-0.01-0.002-0.02-0.003-0.031
		c-0.349-3.16-0.081-6.357,0.779-9.405l7.468-54.597C20.422,9.945,0.5,34.644,0.5,64c0,35.07,28.43,63.5,63.5,63.5
		c35.07,0,63.5-28.43,63.5-63.5c0-5.568-0.719-10.968-2.066-16.115L79.8,82.537C78.98,83.249,78.105,83.915,77.173,84.528z"/>
	<path fill="#03DDDD" d="M48.8,44.388c0.677-0.514,1.372-0.988,2.082-1.421L95.676,8.953C86.352,3.577,75.536,0.5,64,0.5
		c-5.714,0-11.25,0.759-16.518,2.174l-7.468,54.597C41.413,52.31,44.378,47.746,48.8,44.388z"/>
	<path opacity="0.6" fill="#AE5FF9" d="M48.8,44.388c0.677-0.514,1.372-0.988,2.082-1.421L95.676,8.953
		C86.352,3.577,75.536,0.5,64,0.5c-5.714,0-11.25,0.759-16.518,2.174l-7.468,54.597C41.413,52.31,44.378,47.746,48.8,44.388z"/>
	<path fill="#03DDDD" d="M39.379,67.761c-0.015-0.097-0.029-0.194-0.043-0.292C39.351,67.567,39.364,67.664,39.379,67.761z"/>
	<path opacity="0.6" fill="#00FF12" d="M39.379,67.761c-0.015-0.097-0.029-0.194-0.043-0.292
		C39.351,67.567,39.364,67.664,39.379,67.761z"/>
	<path fill="#03DDDD" d="M39.995,57.411l0.019-0.14c-0.859,3.048-1.127,6.245-0.779,9.405
		C38.896,63.555,39.162,60.408,39.995,57.411z"/>
	<path opacity="0.6" fill="#00FF12" d="M39.995,57.411l0.019-0.14c-0.859,3.048-1.127,6.245-0.779,9.405
		C38.896,63.555,39.162,60.408,39.995,57.411z"/>
	<path fill="#03DDDD" d="M39.301,67.219c-0.022-0.171-0.043-0.341-0.062-0.512C39.258,66.878,39.279,67.048,39.301,67.219z"/>
	<path opacity="0.6" fill="#00FF12" d="M39.301,67.219c-0.022-0.171-0.043-0.341-0.062-0.512
		C39.258,66.878,39.279,67.048,39.301,67.219z"/>
	<path fill="#03DDDD" d="M96.052,9.176l-7.853,57.411c-0.023,0.205-0.04,0.409-0.068,0.615c-0.673,4.921-2.761,9.3-5.795,12.786
		c-0.07,0.082-0.141,0.162-0.212,0.243c-0.006,0.007-0.012,0.013-0.018,0.02c-0.71,0.805-1.479,1.569-2.305,2.287l45.634-34.652
		C121.129,31.425,110.383,17.572,96.052,9.176z"/>
	<path opacity="0.6" fill="#00FF12" d="M96.052,9.176l-7.853,57.411c-0.023,0.205-0.04,0.409-0.068,0.615
		c-0.673,4.921-2.761,9.3-5.795,12.786c-0.07,0.082-0.141,0.162-0.212,0.243c-0.006,0.007-0.012,0.013-0.018,0.02
		c-0.71,0.805-1.479,1.569-2.305,2.287l45.634-34.652C121.129,31.425,110.383,17.572,96.052,9.176z"/>
	<path fill="#03DDDD" d="M39.47,68.305c-0.006-0.031-0.011-0.063-0.016-0.094C39.459,68.243,39.464,68.274,39.47,68.305z"/>
	<path opacity="0.6" fill="#00FF12" d="M39.47,68.305c-0.006-0.031-0.011-0.063-0.016-0.094
		C39.459,68.243,39.464,68.274,39.47,68.305z"/>
	<path fill="#03DDDD" d="M82.123,80.23c-0.006,0.007-0.012,0.013-0.018,0.02C82.111,80.244,82.117,80.237,82.123,80.23z"/>
	<path opacity="0.6" fill="#AE5FF9" d="M82.123,80.23c-0.006,0.007-0.012,0.013-0.018,0.02
		C82.111,80.244,82.117,80.237,82.123,80.23z"/>
	<path opacity="0.6" fill="#00FF12" d="M82.123,80.23c-0.006,0.007-0.012,0.013-0.018,0.02
		C82.111,80.244,82.117,80.237,82.123,80.23z"/>
	<path fill="#03DDDD" d="M50.882,42.967c-0.71,0.434-1.405,0.907-2.082,1.421c-4.422,3.358-7.386,7.922-8.785,12.883l-0.019,0.14
		c1.535-5.525,4.999-10.54,10.166-13.939c11.337-7.459,26.575-4.315,34.034,7.022c6.161,9.364,5.088,21.388-1.86,29.493
		c3.034-3.486,5.122-7.865,5.795-12.786c0.028-0.205,0.045-0.41,0.068-0.615l7.853-57.411c-0.126-0.074-0.25-0.15-0.376-0.222
		L50.882,42.967z"/>
	<path opacity="0.6" fill="#AE5FF9" d="M50.882,42.967c-0.71,0.434-1.405,0.907-2.082,1.421c-4.422,3.358-7.386,7.922-8.785,12.883
		l-0.019,0.14c1.535-5.525,4.999-10.54,10.166-13.939c11.337-7.459,26.575-4.315,34.034,7.022c6.161,9.364,5.088,21.388-1.86,29.493
		c3.034-3.486,5.122-7.865,5.795-12.786c0.028-0.205,0.045-0.41,0.068-0.615l7.853-57.411c-0.126-0.074-0.25-0.15-0.376-0.222
		L50.882,42.967z"/>
	<path opacity="0.6" fill="#00FF12" d="M50.882,42.967c-0.71,0.434-1.405,0.907-2.082,1.421c-4.422,3.358-7.386,7.922-8.785,12.883
		l-0.019,0.14c1.535-5.525,4.999-10.54,10.166-13.939c11.337-7.459,26.575-4.315,34.034,7.022c6.161,9.364,5.088,21.388-1.86,29.493
		c3.034-3.486,5.122-7.865,5.795-12.786c0.028-0.205,0.045-0.41,0.068-0.615l7.853-57.411c-0.126-0.074-0.25-0.15-0.376-0.222
		L50.882,42.967z"/>
	<path fill="#FFFFFF" d="M39.239,66.707c-0.001-0.01-0.002-0.02-0.003-0.031C39.237,66.687,39.238,66.697,39.239,66.707z"/>
	<path fill="#FFFFFF" d="M39.454,68.211c-0.026-0.15-0.051-0.3-0.074-0.45C39.402,67.912,39.428,68.061,39.454,68.211z"/>
	<path fill="#FFFFFF" d="M39.337,67.47c-0.012-0.084-0.024-0.167-0.035-0.251C39.312,67.303,39.325,67.386,39.337,67.47z"/>
	<path fill="#FFFFFF" d="M82.335,79.987c-0.071,0.081-0.141,0.163-0.212,0.243C82.194,80.149,82.266,80.069,82.335,79.987z"/>
</g>
</svg>
