<?xml version="1.0" encoding="utf-8"?>
<!-- Generator: Adobe Illustrator 17.0.0, SVG Export Plug-In . SVG Version: 6.00 Build 0)  -->
<!DOCTYPE svg PUBLIC "-//W3C//DTD SVG 1.1//EN" "http://www.w3.org/Graphics/SVG/1.1/DTD/svg11.dtd">
<svg version="1.1" id="Layer_1" xmlns="http://www.w3.org/2000/svg" xmlns:xlink="http://www.w3.org/1999/xlink" x="0px" y="0px"
	 width="75px" height="75px" viewBox="0 0 75 75" enable-background="new 0 0 75 75" xml:space="preserve">
<g>
	<path fill="#FFFFFF" d="M45.094,48.815c-6.249,4.111-14.648,2.378-18.759-3.871c-1.044-1.587-1.71-3.313-2.023-5.071
		c-0.003-0.017-0.006-0.035-0.009-0.052c-0.014-0.083-0.028-0.165-0.041-0.248c-0.008-0.054-0.016-0.107-0.023-0.161
		c-0.007-0.046-0.013-0.092-0.019-0.138c-0.012-0.094-0.024-0.188-0.034-0.282c-0.001-0.006-0.001-0.011-0.002-0.017
		c-0.192-1.742-0.045-3.504,0.429-5.184l4.116-30.093C13.814,7.706,2.833,21.32,2.833,37.5c0,19.33,15.67,35,35,35
		c19.33,0,35-15.67,35-35c0-3.069-0.396-6.046-1.139-8.882L46.542,47.717C46.09,48.109,45.608,48.477,45.094,48.815z"/>
	<path opacity="0.5" fill="#FFFFFF" d="M29.455,26.69c0.373-0.283,0.756-0.544,1.148-0.783l24.69-18.748
		C50.154,4.196,44.192,2.5,37.833,2.5c-3.15,0-6.201,0.418-9.104,1.199l-4.116,30.093C25.384,31.057,27.018,28.541,29.455,26.69z"/>
	<path opacity="0.8" fill="#FFFFFF" d="M55.5,7.282l-4.329,31.644c-0.013,0.113-0.022,0.226-0.038,0.339
		c-0.371,2.712-1.522,5.126-3.194,7.047c-0.039,0.045-0.078,0.089-0.117,0.134c-0.003,0.004-0.006,0.007-0.01,0.011
		c-0.391,0.444-0.815,0.865-1.271,1.26l25.153-19.099C69.321,19.545,63.399,11.91,55.5,7.282z"/>
	<path opacity="0.6" fill="#FFFFFF" d="M30.603,25.907c-0.392,0.239-0.775,0.5-1.148,0.783c-2.437,1.851-4.071,4.366-4.842,7.101
		l-0.011,0.077c0.846-3.045,2.756-5.809,5.603-7.683c6.249-4.111,14.648-2.378,18.759,3.871c3.396,5.161,2.804,11.789-1.025,16.256
		c1.672-1.921,2.823-4.335,3.194-7.047c0.015-0.113,0.025-0.226,0.038-0.339L55.5,7.282c-0.069-0.041-0.138-0.082-0.207-0.123
		L30.603,25.907z"/>
</g>
</svg>
