<?xml version="1.0" encoding="utf-8"?>
<!-- Generator: Adobe Illustrator 17.0.0, SVG Export Plug-In . SVG Version: 6.00 Build 0)  -->
<!DOCTYPE svg PUBLIC "-//W3C//DTD SVG 1.1//EN" "http://www.w3.org/Graphics/SVG/1.1/DTD/svg11.dtd">
<svg version="1.1" id="Layer_1" xmlns="http://www.w3.org/2000/svg" xmlns:xlink="http://www.w3.org/1999/xlink" x="0px" y="0px"
	 width="80px" height="90px" viewBox="0 0 80 90" enable-background="new 0 0 80 90" xml:space="preserve">
<g>
	<path fill="#FFFFFF" d="M39.981,30.577c7.75-0.001,15.499,0.009,23.249-0.017c0.714-0.002,0.928,0.156,0.922,0.899
		c-0.055,6.241-0.083,12.482-0.085,18.722c-0.002,5.069,0.055,10.139,0.063,15.208c0.005,3.007-1.834,5.356-4.756,5.86
		c-1.303,0.225-2.67,0.069-4.008,0.09c-1.089,0.017-0.936-0.151-0.938,0.956c-0.008,3.707-0.002,7.415-0.007,11.122
		c-0.004,2.878-2.414,5.26-5.327,5.272c-2.99,0.013-5.432-2.304-5.45-5.22c-0.023-3.779-0.021-7.558,0.003-11.337
		c0.004-0.594-0.09-0.831-0.768-0.812c-1.96,0.054-3.922,0.035-5.883,0.008c-0.503-0.007-0.643,0.139-0.641,0.642
		c0.019,3.731,0.017,7.463,0.006,11.194c-0.009,2.916-2,5.197-4.789,5.515c-2.787,0.318-5.292-1.537-5.913-4.392
		c-0.07-0.323-0.081-0.663-0.082-0.995c-0.005-3.731-0.022-7.463,0.015-11.194c0.007-0.659-0.188-0.806-0.799-0.771
		c-0.906,0.051-1.822-0.05-2.725,0.025c-3.068,0.255-6.248-2.114-6.224-6.24c0.053-9.089,0.016-18.178,0.016-27.267
		c0-2.177,0.022-4.354-0.015-6.53c-0.01-0.593,0.14-0.753,0.744-0.751C24.386,30.585,32.184,30.577,39.981,30.577z"/>
	<path fill="#FFFFFF" d="M39.952,28.522c-7.772,0-15.545,0-23.317,0c-0.988,0-1.004-0.002-0.933-0.989
		c0.434-6.056,3.046-11.018,7.571-15.01c1.312-1.158,2.748-2.144,4.296-2.962c0.369-0.195,0.449-0.36,0.223-0.758
		c-1.058-1.872-2.078-3.765-3.111-5.651c-0.08-0.147-0.163-0.293-0.239-0.441C24.191,2.223,24.067,1.71,24.644,1.4
		c0.581-0.312,0.908,0.071,1.177,0.568c1.092,2.017,2.216,4.017,3.299,6.038c0.235,0.438,0.434,0.561,0.937,0.362
		c6.632-2.629,13.275-2.619,19.904,0.013c0.462,0.183,0.672,0.092,0.896-0.327c1.074-2,2.174-3.985,3.266-5.975
		c0.138-0.251,0.261-0.516,0.522-0.669c0.303-0.177,0.591-0.147,0.86,0.079c0.302,0.254,0.348,0.586,0.191,0.909
		c-0.325,0.665-0.686,1.312-1.041,1.961c-0.802,1.467-1.599,2.938-2.423,4.393c-0.238,0.421-0.196,0.602,0.259,0.856
		c4.907,2.742,8.523,6.636,10.524,11.944c0.773,2.051,1.139,4.183,1.292,6.364c0.046,0.656-0.322,0.611-0.751,0.61
		C55.688,28.521,47.82,28.522,39.952,28.522z M53.062,17.917c0.017-1.091-0.874-2.009-1.986-2.046
		c-1.065-0.036-1.996,0.879-2.028,1.995c-0.032,1.076,0.88,2.02,1.975,2.047C52.088,19.938,53.045,19.001,53.062,17.917z
		 M30.926,17.922c0.008-1.145-0.835-2.018-1.952-2.021c-1.149-0.003-2.047,0.891-2.039,2.032c0.007,1.025,0.938,1.956,1.98,1.978
		C29.994,19.933,30.918,19.02,30.926,17.922z"/>
	<path fill="#FFFFFF" d="M76.98,46.365c0,3.705,0.025,7.411-0.008,11.116c-0.026,2.978-1.972,5.099-4.917,5.453
		c-2.89,0.348-5.748-2.002-5.852-4.916c-0.085-2.388-0.035-4.78-0.036-7.171c-0.003-5.259-0.006-10.518,0.004-15.778
		c0.004-2.327,1.048-4.082,3.165-5.02c2.188-0.969,4.267-0.603,6.031,1.06c1.094,1.031,1.607,2.347,1.607,3.853
		c0.002,3.801,0.001,7.602,0.001,11.403C76.977,46.365,76.978,46.365,76.98,46.365z"/>
	<path fill="#FFFFFF" d="M13.804,46.334c-0.001,3.801,0.006,7.602-0.003,11.403c-0.007,2.839-2.36,5.149-5.296,5.226
		c-2.817,0.074-5.33-2.209-5.464-4.988c-0.043-0.883-0.026-1.768-0.026-2.653C3.014,48.581,3.013,41.84,3.018,35.098
		c0.002-2.293,1.001-4.041,3.075-5.008c2.084-0.971,4.109-0.704,5.889,0.805c1.189,1.009,1.815,2.321,1.819,3.892
		C13.812,38.636,13.805,42.485,13.804,46.334z"/>
</g>
</svg>
