<?xml version="1.0" encoding="utf-8"?>
<!-- Generator: Adobe Illustrator 17.0.0, SVG Export Plug-In . SVG Version: 6.00 Build 0)  -->
<!DOCTYPE svg PUBLIC "-//W3C//DTD SVG 1.1//EN" "http://www.w3.org/Graphics/SVG/1.1/DTD/svg11.dtd">
<svg version="1.1" id="Layer_1" xmlns="http://www.w3.org/2000/svg" xmlns:xlink="http://www.w3.org/1999/xlink" x="0px" y="0px"
	 width="61px" height="88px" viewBox="0 0 61 88" enable-background="new 0 0 61 88" xml:space="preserve">
<g>
	<path fill="#FFFFFF" d="M30.5,58.677c-3.487,0-5-1.886-5-4.211v-42.11c0-2.325,1.513-4.211,5-4.211s5,1.886,5,4.211v42.11
		C35.5,56.791,33.987,58.677,30.5,58.677z"/>
</g>
<g>
	<path fill="#FFFFFF" d="M5.734,79c0-3.487,1.886-5,4.211-5h42.11c2.325,0,4.211,1.513,4.211,5s-1.886,5-4.211,5H9.945
		C7.62,84,5.734,82.487,5.734,79z"/>
</g>
<g>
	<path fill="#FFFFFF" d="M31,63.934c-1.134,0-2.269-0.426-3.144-1.28L5.205,40.534c-1.778-1.736-1.812-4.585-0.076-6.364
		c1.737-1.778,4.587-1.811,6.363-0.076l22.651,22.12c1.778,1.736,1.812,4.585,0.076,6.364C33.338,63.48,32.169,63.934,31,63.934z"/>
</g>
<g>
	<path fill="#FFFFFF" d="M31.349,63.934c-1.169,0-2.338-0.453-3.22-1.356c-1.736-1.778-1.702-4.627,0.076-6.364l22.651-22.12
		c1.777-1.735,4.627-1.703,6.363,0.076s1.702,4.627-0.076,6.364l-22.651,22.12C33.617,63.508,32.482,63.934,31.349,63.934z"/>
</g>
</svg>
