<?xml version="1.0"?>
<svg width="100" height="100" xmlns="http://www.w3.org/2000/svg">

 <g>
  <title>background</title>
  <rect fill="none" id="canvas_background" height="402" width="582" y="-1" x="-1"/>
 </g>
 <g>
  <title>Layer 1</title>
  <g id="svg_1">
   <path id="svg_2" d="m56.844002,32.400002c0.994999,0.021999 1.813,-0.768999 1.823002,-1.767c0.009998,-1.059 -0.874001,-1.814999 -1.766003,-1.796999c-0.891998,-0.042 -1.806999,0.691 -1.807999,1.773998c-0.002003,1.008999 0.784996,1.767998 1.750999,1.790001z" fill="#e6e6e6"/>
   <path id="svg_3" d="m43.098999,32.323002c1.012001,0.026001 1.834,-0.823 1.813999,-1.764999c0.011002,-0.987 -0.773998,-1.793001 -1.757,-1.802c-0.983997,-0.009001 -1.800999,0.784 -1.809998,1.755999c-0.007999,0.992998 0.771,1.786999 1.752998,1.811001z" fill="#e6e6e6"/>
   <path id="svg_4" d="m50,1.5c-26.785999,0 -48.5,21.714001 -48.5,48.5s21.714001,48.5 48.5,48.5s48.5,-21.713997 48.5,-48.5s-21.713997,-48.5 -48.5,-48.5zm-15.778999,34.523998c0.328999,-2.394001 1.302002,-4.499001 2.871002,-6.33c1.190998,-1.391001 2.608997,-2.509001 4.186996,-3.429001c0.321003,-0.187 0.650002,-0.361 0.976002,-0.539999c0.159,-0.088001 0.164001,-0.093 0.056999,-0.246c-0.533001,-0.766001 -1.069,-1.531 -1.603001,-2.297001c-0.389,-0.557999 -0.775997,-1.118998 -1.167999,-1.674999c-0.127998,-0.181999 -0.142998,-0.369999 -0.035999,-0.556999c0.105,-0.183001 0.265999,-0.286001 0.487999,-0.283001c0.159,0.002001 0.271999,0.080999 0.360001,0.198002c0.158001,0.208 0.309002,0.421 0.459999,0.633999c0.845001,1.186001 1.689003,2.372999 2.534,3.559c0.152,0.213001 0.132,0.175001 0.319,0.096001c1.284,-0.541 2.621998,-0.878 4.002998,-1.047001c0.992001,-0.121 1.990002,-0.147999 2.987,-0.094999c1.964001,0.104 3.870003,0.507999 5.728001,1.146999c0.214001,0.073999 0.199001,0.109999 0.358002,-0.124001c0.925999,-1.361 1.854,-2.719999 2.778999,-4.080999c0.136002,-0.199999 0.295002,-0.345999 0.556999,-0.344c0.219002,0.002001 0.387001,0.088001 0.489002,0.278c0.110001,0.205 0.091,0.414 -0.036999,0.608c-0.214001,0.323 -0.433002,0.644001 -0.651001,0.964001c-0.687,1.007 -1.374001,2.013 -2.061001,3.02c-0.027,0.039 -0.051003,0.080999 -0.081001,0.116999c-0.065998,0.081001 -0.049999,0.131001 0.042,0.183001c0.290001,0.163 0.577999,0.328001 0.862,0.500999c1.582001,0.963001 3.063,2.054001 4.304001,3.444c1.441002,1.614 2.375,3.479 2.755997,5.614002c0.072006,0.404999 0.125,0.813999 0.151001,1.224998c0.012001,0.194 0.005005,0.196999 -0.193001,0.201c-0.118996,0.001999 -0.237999,0 -0.355995,0c-5.107002,0 -10.215,0 -15.322002,0c0.003002,-0.000999 0.003002,-0.000999 0.003002,0c-5.202,0 -10.405003,0 -15.607002,0c-0.032001,0 -0.063,-0.000999 -0.095001,0.000999c-0.093998,0.007 -0.128998,-0.039001 -0.119999,-0.127998c0.02,-0.205002 0.031002,-0.410999 0.059002,-0.614002zm-2.332001,21.256001c-0.002001,1.667999 -1.240999,3.112 -2.892,3.396999c-1.860001,0.322002 -3.639,-0.887001 -4.031,-2.737999c-0.021,-0.09 -0.035999,-0.184002 -0.027,-0.279999c0.003,-0.103001 0.008001,-0.206001 0.008001,-0.309002c0,-4.966 0,-9.931 0,-14.896999c0,-0.111 -0.009001,-0.221001 -0.014,-0.332001c0.041,-0.689999 0.310999,-1.292999 0.744999,-1.813999c0.794001,-0.955002 1.828001,-1.414001 3.064001,-1.281002c1.349998,0.145 2.312,0.877003 2.872999,2.119003c0.191999,0.424 0.276001,0.872997 0.276001,1.337997c-0.001001,4.932003 0.003,9.865002 -0.002001,14.797001zm33.908997,8.311005c-0.234001,1.136002 -0.944,1.789001 -2.060001,2.029999c-0.364998,0.079002 -0.734997,0.109001 -1.107998,0.109001c-0.792,0 -1.584,0 -2.375999,0c-0.195,0 -0.198002,0.000999 -0.199001,0.195c-0.003998,0.594002 0.001999,1.188004 -0.007999,1.781998c-0.034,2.035004 -0.018002,4.07 -0.030998,6.106003c-0.001003,0.143997 -0.014,0.282997 -0.052002,0.421997c-0.183998,0.660004 -0.426998,1.292 -0.846001,1.844002c-0.660999,0.871002 -1.530998,1.349998 -2.632,1.312004c-1.623001,-0.057007 -3.049,-1.242004 -3.452,-2.821007c-0.036999,-0.146996 -0.055,-0.293999 -0.055,-0.445c0.000999,-2.700996 0,-5.400993 0,-8.101997c0,-0.312996 0.019001,-0.291 -0.299,-0.291c-1.773998,0.000999 -3.548,0 -5.321999,0c-0.213001,0 -0.214001,0 -0.214001,0.224998c0,2.455002 0.001999,4.910004 0.001999,7.365005c0,0.189995 -0.014,0.380997 0.002998,0.57c0.042,0.466995 -0.087997,0.891998 -0.288998,1.302994c-0.539001,1.101006 -1.388,1.815002 -2.605,2.040001c-1.824001,0.338005 -3.77,-0.723 -4.233002,-2.806c-0.023998,-0.105995 -0.018997,-0.220001 -0.018997,-0.331001c-0.000999,-2.684998 0,-5.369995 -0.002003,-8.053993c0,-0.316002 0.067001,-0.315002 -0.321999,-0.313004c-1.029999,0.003998 -2.059002,0.003998 -3.089001,0.004997c-0.982998,0.002007 -1.674999,-0.455994 -2.082001,-1.339996c-0.285,-0.618004 -0.431999,-1.270004 -0.431999,-1.953003c0.000999,-8.323997 0,-16.646999 0.000999,-24.971001c0,-0.362 -0.037998,-0.315998 0.316002,-0.315998c5.196999,-0.002998 10.392998,-0.002998 15.587997,-0.002998c5.187,0 10.375,0 15.562004,0.000999c0.365997,0 0.324997,-0.053001 0.324997,0.330997c0.000999,8.379002 0,16.758003 0.000999,25.137001c0.000008,0.324997 -0.005997,0.649002 -0.070999,0.969002zm8.654007,-6.541004c-0.770996,1.084999 -1.834,1.625 -3.161003,1.526001c-1.815994,-0.135002 -3.024994,-1.552002 -3.205994,-3.054001c-0.027,-0.221001 -0.033005,-0.442001 -0.033005,-0.663002c0.001999,-2.377998 0.001999,-4.752998 0.001999,-7.128998c0,-2.415001 0.001999,-4.831001 -0.000999,-7.246002c-0.000999,-1.107998 0.391998,-2.040997 1.227005,-2.772999c0.556999,-0.487999 1.212997,-0.771999 1.952995,-0.834999c1.928001,-0.165001 3.451004,1.174 3.766998,2.841c0.044006,0.234001 0.064003,0.471001 0.064003,0.708c0.000999,4.831001 0,9.661999 0.001999,14.493c0,0.771999 -0.163002,1.497002 -0.613998,2.132z" fill="#e6e6e6"/>
  </g>
 </g>
</svg>