<?xml version="1.0" encoding="utf-8"?>
<!-- Generator: Adobe Illustrator 17.0.0, SVG Export Plug-In . SVG Version: 6.00 Build 0)  -->
<!DOCTYPE svg PUBLIC "-//W3C//DTD SVG 1.1//EN" "http://www.w3.org/Graphics/SVG/1.1/DTD/svg11.dtd">
<svg version="1.1" id="Layer_1" xmlns="http://www.w3.org/2000/svg" xmlns:xlink="http://www.w3.org/1999/xlink" x="0px" y="0px"
	 width="100px" height="100px" viewBox="0 0 100 100" enable-background="new 0 0 100 100" xml:space="preserve">
<g>
	<path fill="#FFFFFF" d="M56.844,32.4c0.995,0.022,1.813-0.769,1.823-1.767c0.01-1.059-0.874-1.815-1.766-1.797
		c-0.892-0.042-1.807,0.691-1.808,1.774C55.091,31.619,55.878,32.378,56.844,32.4z"/>
	<path fill="#FFFFFF" d="M43.099,32.323c1.012,0.026,1.834-0.823,1.814-1.765c0.011-0.987-0.774-1.793-1.757-1.802
		c-0.984-0.009-1.801,0.784-1.81,1.756C41.338,31.505,42.117,32.299,43.099,32.323z"/>
	<path fill="#FFFFFF" d="M50,1.5C23.214,1.5,1.5,23.214,1.5,50S23.214,98.5,50,98.5S98.5,76.786,98.5,50S76.786,1.5,50,1.5z
		 M34.221,36.024c0.329-2.394,1.302-4.499,2.871-6.33c1.191-1.391,2.609-2.509,4.187-3.429c0.321-0.187,0.65-0.361,0.976-0.54
		c0.159-0.088,0.164-0.093,0.057-0.246c-0.533-0.766-1.069-1.531-1.603-2.297c-0.389-0.558-0.776-1.119-1.168-1.675
		c-0.128-0.182-0.143-0.37-0.036-0.557c0.105-0.183,0.266-0.286,0.488-0.283c0.159,0.002,0.272,0.081,0.36,0.198
		c0.158,0.208,0.309,0.421,0.46,0.634c0.845,1.186,1.689,2.373,2.534,3.559c0.152,0.213,0.132,0.175,0.319,0.096
		c1.284-0.541,2.622-0.878,4.003-1.047c0.992-0.121,1.99-0.148,2.987-0.095c1.964,0.104,3.87,0.508,5.728,1.147
		c0.214,0.074,0.199,0.11,0.358-0.124c0.926-1.361,1.854-2.72,2.779-4.081c0.136-0.2,0.295-0.346,0.557-0.344
		c0.219,0.002,0.387,0.088,0.489,0.278c0.11,0.205,0.091,0.414-0.037,0.608c-0.214,0.323-0.433,0.644-0.651,0.964
		c-0.687,1.007-1.374,2.013-2.061,3.02c-0.027,0.039-0.051,0.081-0.081,0.117c-0.066,0.081-0.05,0.131,0.042,0.183
		c0.29,0.163,0.578,0.328,0.862,0.501c1.582,0.963,3.063,2.054,4.304,3.444c1.441,1.614,2.375,3.479,2.756,5.614
		c0.072,0.405,0.125,0.814,0.151,1.225c0.012,0.194,0.005,0.197-0.193,0.201c-0.119,0.002-0.238,0-0.356,0
		c-5.107,0-10.215,0-15.322,0c0.003-0.001,0.003-0.001,0.003,0c-5.202,0-10.405,0-15.607,0c-0.032,0-0.063-0.001-0.095,0.001
		c-0.094,0.007-0.129-0.039-0.12-0.128C34.182,36.433,34.193,36.227,34.221,36.024z M31.889,57.28
		c-0.002,1.668-1.241,3.112-2.892,3.397c-1.86,0.322-3.639-0.887-4.031-2.738c-0.021-0.09-0.036-0.184-0.027-0.28
		c0.003-0.103,0.008-0.206,0.008-0.309c0-4.966,0-9.931,0-14.897c0-0.111-0.009-0.221-0.014-0.332
		c0.041-0.69,0.311-1.293,0.745-1.814c0.794-0.955,1.828-1.414,3.064-1.281c1.35,0.145,2.312,0.877,2.873,2.119
		c0.192,0.424,0.276,0.873,0.276,1.338C31.89,47.415,31.894,52.348,31.889,57.28z M65.798,65.591
		c-0.234,1.136-0.944,1.789-2.06,2.03c-0.365,0.079-0.735,0.109-1.108,0.109c-0.792,0-1.584,0-2.376,0
		c-0.195,0-0.198,0.001-0.199,0.195c-0.004,0.594,0.002,1.188-0.008,1.782c-0.034,2.035-0.018,4.07-0.031,6.106
		c-0.001,0.144-0.014,0.283-0.052,0.422c-0.184,0.66-0.427,1.292-0.846,1.844c-0.661,0.871-1.531,1.35-2.632,1.312
		c-1.623-0.057-3.049-1.242-3.452-2.821c-0.037-0.147-0.055-0.294-0.055-0.445c0.001-2.701,0-5.401,0-8.102
		c0-0.313,0.019-0.291-0.299-0.291c-1.774,0.001-3.548,0-5.322,0c-0.213,0-0.214,0-0.214,0.225c0,2.455,0.002,4.91,0.002,7.365
		c0,0.19-0.014,0.381,0.003,0.57c0.042,0.467-0.088,0.892-0.289,1.303c-0.539,1.101-1.388,1.815-2.605,2.04
		c-1.824,0.338-3.77-0.723-4.233-2.806c-0.024-0.106-0.019-0.22-0.019-0.331c-0.001-2.685,0-5.37-0.002-8.054
		c0-0.316,0.067-0.315-0.322-0.313c-1.03,0.004-2.059,0.004-3.089,0.005c-0.983,0.002-1.675-0.456-2.082-1.34
		c-0.285-0.618-0.432-1.27-0.432-1.953c0.001-8.324,0-16.647,0.001-24.971c0-0.362-0.038-0.316,0.316-0.316
		c5.197-0.003,10.393-0.003,15.588-0.003c5.187,0,10.375,0,15.562,0.001c0.366,0,0.325-0.053,0.325,0.331
		c0.001,8.379,0,16.758,0.001,25.137C65.869,64.947,65.863,65.271,65.798,65.591z M74.452,59.05
		c-0.771,1.085-1.834,1.625-3.161,1.526c-1.816-0.135-3.025-1.552-3.206-3.054c-0.027-0.221-0.033-0.442-0.033-0.663
		c0.002-2.378,0.002-4.753,0.002-7.129c0-2.415,0.002-4.831-0.001-7.246c-0.001-1.108,0.392-2.041,1.227-2.773
		c0.557-0.488,1.213-0.772,1.953-0.835c1.928-0.165,3.451,1.174,3.767,2.841c0.044,0.234,0.064,0.471,0.064,0.708
		c0.001,4.831,0,9.662,0.002,14.493C75.066,57.69,74.903,58.415,74.452,59.05z"/>
</g>
</svg>
