<?xml version="1.0"?>
<svg width="100" height="100" xmlns="http://www.w3.org/2000/svg">

 <g>
  <title>background</title>
  <rect fill="none" id="canvas_background" height="402" width="582" y="-1" x="-1"/>
 </g>
 <g>
  <title>Layer 1</title>
  <g id="svg_1">
   <path id="svg_2" d="m60,31.534c0,-0.847 -0.687,-1.534 -1.534,-1.534l-17.931999,0c-0.847,0 -1.534,0.687 -1.534,1.534l0,27.931999c0,0.847 0.687,1.534 1.534,1.534l17.931999,0c0.847,0 1.534,-0.687 1.534,-1.534l0,-27.931999z" fill="#e6e6e6"/>
   <path id="svg_3" d="m65,23.826c0,-1.009001 -0.817001,-1.826 -1.826,-1.826l-27.348,0c-1.008999,0 -1.826,0.816999 -1.826,1.826l0,51.349003c0,1.007996 0.817001,1.824997 1.826,1.824997l27.348999,0c1.007999,0 1.825001,-0.817001 1.825001,-1.825996l0,-51.348003zm-11,49.174l-8,0c-0.827999,0 -1.5,-0.671997 -1.5,-1.5s0.672001,-1.5 1.5,-1.5l8,0c0.827999,0 1.5,0.671997 1.5,1.5s-0.672001,1.5 -1.5,1.5zm9,-13.534c0,2.504002 -2.029999,4.534 -4.534,4.534l-17.931999,0c-2.504002,0 -4.534,-2.029999 -4.534,-4.534l0,-27.931999c0,-2.504 2.029999,-4.534 4.534,-4.534l17.931999,0c2.504002,0 4.534,2.030001 4.534,4.534l0,27.931999z" fill="#e6e6e6"/>
   <path id="svg_4" d="m50,0.5c-26.785999,0 -48.5,21.714001 -48.5,48.5s21.714001,48.5 48.5,48.5c26.786003,0 48.5,-21.713997 48.5,-48.5s-21.713997,-48.5 -48.5,-48.5zm18,74.674004c0,2.664993 -2.161003,4.825996 -4.826,4.825996l-27.348,0c-2.665001,0 -4.826,-2.161003 -4.826,-4.825996l0,-51.348003c0,-2.665001 2.160999,-4.826 4.826,-4.826l27.348999,0c2.663998,0 4.825001,2.160999 4.825001,4.826l0,51.348003z" fill="#e6e6e6"/>
  </g>
 </g>
</svg>