<?xml version="1.0"?>
<svg width="100" height="100" xmlns="http://www.w3.org/2000/svg">

 <g>
  <title>background</title>
  <rect fill="none" id="canvas_background" height="402" width="582" y="-1" x="-1"/>
 </g>
 <g>
  <title>Layer 1</title>
  <g id="svg_1">
   <path id="svg_2" d="m82.934998,44.169666c0,0 0,0 0,0c-2.75,-5.634998 -9.554001,-9.381001 -14.544998,-10.875l-0.125,-0.035c-5.605003,-1.418999 -11.523003,-2.085999 -17.591,-1.981998c-6.067001,-0.181 -11.992001,0.41 -17.614002,1.757l-0.125,0.032997c-6.293001,1.799 -13.501999,6.361 -15.421,12.502003c-0.606001,1.935997 -1.799,6.882 0.190001,10.955997c1.045,2.141003 2.807999,3.652 5.098,4.371002c2.690001,0.843998 6.879999,0.07 8.1,-0.188c5.427999,-1.145 6.684,-2.881001 7.156,-4.087002c0.557999,-1.423 0.382999,-3.027 0.198002,-4.724998c-0.09,-0.816002 -0.252003,-2.299 -0.114002,-2.854c0.294003,-0.275002 1.133999,-0.881001 2.478001,-1.248001c2.478001,-0.677002 7.318001,-1.299999 9.959,-1.283001c2.640999,0.016003 7.471001,0.702 9.939999,1.410999c1.350002,0.388 2.186001,1.011002 2.461002,1.276001c0.132,0.555 -0.049999,2.039001 -0.150002,2.855999c-0.208,1.694 -0.403,3.296001 0.137001,4.727001l0.140999,0.327c1.798,3.683002 11.578999,5.186001 15.059002,4.140999c6.365997,-1.907997 7.339996,-9.037998 5.484001,-15.257999c-0.182999,-0.610001 -0.423004,-1.222 -0.716003,-1.821999zm-6.491997,11.333c-1.456001,0.438 -6.056999,-0.434002 -7.812996,-1.246002c0.029999,-0.447998 0.101997,-1.032997 0.155998,-1.473c0.247002,-2.022999 0.528,-4.314999 -0.427002,-6.271c0,0 0,0 0,-0.000999c-0.160004,-0.327999 -0.351997,-0.638 -0.569,-0.917c-0.879997,-1.134998 -2.817001,-2.634998 -5.615002,-3.438c-2.981998,-0.855 -8.382999,-1.624001 -11.557999,-1.643002c-3.175999,-0.019997 -8.586998,0.679001 -11.579998,1.495003c-2.810001,0.769001 -4.766003,2.244999 -5.658001,3.368c-1.646,2.066998 -1.336002,4.899998 -1.088001,7.174999c0.049,0.439999 0.112999,1.026001 0.137001,1.476002c-1.766001,0.788998 -6.377001,1.601997 -7.828001,1.146999c-0.717999,-0.227001 -1.181999,-0.621002 -1.503,-1.279003c-0.702,-1.438999 -0.644999,-4.106998 0.146002,-6.636997c1.029999,-3.294003 5.873999,-7.046001 11.282999,-8.609001c5.105999,-1.217999 10.502998,-1.841999 16.042,-1.783001l0.146999,0.002003c5.535999,0.058998 10.924,0.704998 16.016003,1.987999c5.343002,1.617001 10.184998,5.537998 11.169998,8.854c0.019997,0.064999 1.976997,6.761997 -1.458,7.792z" fill="none"/>
   <path id="svg_3" d="m66.731003,38.853664c-5.091999,-1.283001 -10.480999,-1.929001 -16.016003,-1.987999l-0.146999,-0.002003c-5.538998,-0.058998 -10.935997,0.566002 -16.042,1.783001c-5.408998,1.563 -10.252998,5.313999 -11.282999,8.609001c-0.791,2.529999 -0.848,5.197998 -0.146,6.637001c0.320999,0.658001 0.785,1.051998 1.503,1.278999c1.451,0.455002 6.062,-0.358002 7.827999,-1.146999c-0.023998,-0.450001 -0.088001,-1.035999 -0.137001,-1.476002c-0.247997,-2.275002 -0.557999,-5.107998 1.088001,-7.174999c0.892002,-1.123001 2.848,-2.598 5.658001,-3.368c2.993,-0.816002 8.403999,-1.514999 11.579998,-1.494999c3.175003,0.019997 8.576004,0.787998 11.558002,1.642998c2.797997,0.803001 4.735001,2.303001 5.614998,3.438c0.217003,0.280003 0.409004,0.589001 0.569,0.917c0,0.000999 0,0.000999 0,0.000999c0.955002,1.956001 0.674004,4.248001 0.427002,6.271c-0.054001,0.440002 -0.125999,1.025002 -0.155998,1.473003c1.755997,0.811996 6.356995,1.683998 7.812996,1.245998c3.433998,-1.029999 1.477005,-7.727001 1.458,-7.793999c-0.985001,-3.313999 -5.827003,-7.235001 -11.169998,-8.852001z" fill="#e6e6e6"/>
   <path id="svg_4" d="m52,63.439667l0,-5.747002l-3,0l0,5.747002c0,1.058998 -0.886002,1.252998 -2.209,1.252998l-1.082001,0l4.875,6.754997l4.874001,-6.754997l-1.480999,0c-1.324001,0 -1.977001,-0.194 -1.977001,-1.252998z" fill="#e6e6e6"/>
   <path id="svg_5" d="m93.585999,28.113331c-11.748001,-24.071999 -40.785999,-34.061999 -64.857998,-22.313999c-24.072001,11.748001 -34.062001,40.785999 -22.314001,64.858001c11.748001,24.071999 40.786001,34.061996 64.858003,22.313995c24.071999,-11.748001 34.061996,-40.785999 22.313995,-64.857998zm-31.904999,36.061001l-9.023998,12.460999c-0.427002,0.593002 -1.218002,0.916 -2.074001,0.916s-1.646999,-0.365997 -2.073997,-0.958l-9.023003,-12.502998c-0.427998,-0.593002 -0.427998,-1.239002 0,-1.832001c0.426998,-0.592003 1.217999,-0.873001 2.074001,-0.873001l3.439999,0l0,-5.917c0,-1.059002 0.467999,-2.083 1.791,-2.083l7.186001,0c1.322998,0 3.022999,1.023998 3.022999,2.083l0,5.917l2.606998,0c0.856003,0 1.647003,0.280998 2.074001,0.874001c0.428001,0.591999 0.428001,1.322998 0,1.915001zm16.486,-3.232002c-3.480003,1.044998 -13.261002,-0.458 -15.058998,-4.140999l-0.141003,-0.327c-0.540001,-1.432003 -0.344997,-3.033001 -0.136997,-4.727001c0.099998,-0.817001 0.281998,-2.300999 0.149998,-2.855999c-0.274998,-0.266003 -1.112,-0.889 -2.460999,-1.276001c-2.469002,-0.709 -7.299999,-1.395 -9.940002,-1.410999c-2.640999,-0.017002 -7.480999,0.605999 -9.959,1.282997c-1.343998,0.368 -2.183998,0.974003 -2.478001,1.248001c-0.137997,0.555 0.025002,2.039001 0.114002,2.854c0.185001,1.698002 0.360001,3.300999 -0.198002,4.725002c-0.472,1.205997 -1.729,2.941998 -7.155998,4.086998c-1.220001,0.257 -5.41,1.032001 -8.100002,0.188c-2.289999,-0.718998 -4.052999,-2.230999 -5.098,-4.370998c-1.988,-4.074001 -0.795,-9.019001 -0.189999,-10.956001c1.918999,-6.140999 9.127998,-10.702999 15.420998,-12.501999l0.125,-0.033001c5.621002,-1.346998 11.546001,-1.938 17.614002,-1.757c6.068001,-0.104996 11.986,0.563002 17.591,1.981998l0.125,0.035c4.990997,1.494003 11.794998,5.240002 14.544998,10.875c0,0.001003 0,0.001003 0,0.001003c0.292999,0.598999 0.533005,1.211998 0.715004,1.821999c1.857002,6.218002 0.881996,13.348999 -5.483002,15.257z" fill="#e6e6e6"/>
  </g>
 </g>
</svg>