<?xml version="1.0" encoding="utf-8"?>
<!-- Generator: Adobe Illustrator 17.0.0, SVG Export Plug-In . SVG Version: 6.00 Build 0)  -->
<!DOCTYPE svg PUBLIC "-//W3C//DTD SVG 1.1//EN" "http://www.w3.org/Graphics/SVG/1.1/DTD/svg11.dtd">
<svg version="1.1" id="Layer_1" xmlns="http://www.w3.org/2000/svg" xmlns:xlink="http://www.w3.org/1999/xlink" x="0px" y="0px"
	 width="100px" height="100px" viewBox="0 0 100 100" enable-background="new 0 0 100 100" xml:space="preserve">
<g>
	<path fill="none" d="M82.935,44.477C82.935,44.477,82.935,44.477,82.935,44.477c-2.75-5.635-9.554-9.381-14.545-10.875
		l-0.125-0.035c-5.605-1.419-11.523-2.086-17.591-1.982c-6.067-0.181-11.992,0.41-17.614,1.757l-0.125,0.033
		c-6.293,1.799-13.502,6.361-15.421,12.502c-0.606,1.936-1.799,6.882,0.19,10.956c1.045,2.141,2.808,3.652,5.098,4.371
		c2.69,0.844,6.88,0.07,8.1-0.188c5.428-1.145,6.684-2.881,7.156-4.087c0.558-1.423,0.383-3.027,0.198-4.725
		c-0.09-0.816-0.252-2.299-0.114-2.854c0.294-0.275,1.134-0.881,2.478-1.248c2.478-0.677,7.318-1.3,9.959-1.283
		c2.641,0.016,7.471,0.702,9.94,1.411c1.35,0.388,2.186,1.011,2.461,1.276c0.132,0.555-0.05,2.039-0.15,2.856
		c-0.208,1.694-0.403,3.296,0.137,4.727l0.141,0.327c1.798,3.683,11.579,5.186,15.059,4.141c6.366-1.908,7.34-9.038,5.484-15.258
		C83.468,45.689,83.228,45.077,82.935,44.477z M76.443,55.81c-1.456,0.438-6.057-0.434-7.813-1.246
		c0.03-0.448,0.102-1.033,0.156-1.473c0.247-2.023,0.528-4.315-0.427-6.271c0,0,0,0,0-0.001c-0.16-0.328-0.352-0.638-0.569-0.917
		c-0.88-1.135-2.817-2.635-5.615-3.438c-2.982-0.855-8.383-1.624-11.558-1.643c-3.176-0.02-8.587,0.679-11.58,1.495
		c-2.81,0.769-4.766,2.245-5.658,3.368c-1.646,2.067-1.336,4.9-1.088,7.175c0.049,0.44,0.113,1.026,0.137,1.476
		c-1.766,0.789-6.377,1.602-7.828,1.147c-0.718-0.227-1.182-0.621-1.503-1.279c-0.702-1.439-0.645-4.107,0.146-6.637
		c1.03-3.294,5.874-7.046,11.283-8.609c5.106-1.218,10.503-1.842,16.042-1.783l0.147,0.002c5.536,0.059,10.924,0.705,16.016,1.988
		c5.343,1.617,10.185,5.538,11.17,8.854C77.921,48.083,79.878,54.78,76.443,55.81z"/>
	<path fill="#FFFFFF" d="M66.731,39.161c-5.092-1.283-10.481-1.929-16.016-1.988l-0.147-0.002
		c-5.539-0.059-10.936,0.566-16.042,1.783c-5.409,1.563-10.253,5.314-11.283,8.609c-0.791,2.53-0.848,5.198-0.146,6.637
		c0.321,0.658,0.785,1.052,1.503,1.279c1.451,0.455,6.062-0.358,7.828-1.147c-0.024-0.45-0.088-1.036-0.137-1.476
		c-0.248-2.275-0.558-5.108,1.088-7.175c0.892-1.123,2.848-2.598,5.658-3.368c2.993-0.816,8.404-1.515,11.58-1.495
		c3.175,0.02,8.576,0.788,11.558,1.643c2.798,0.803,4.735,2.303,5.615,3.438c0.217,0.28,0.409,0.589,0.569,0.917
		c0,0.001,0,0.001,0,0.001c0.955,1.956,0.674,4.248,0.427,6.271c-0.054,0.44-0.126,1.025-0.156,1.473
		c1.756,0.812,6.357,1.684,7.813,1.246c3.434-1.03,1.477-7.727,1.458-7.794C76.916,44.699,72.074,40.778,66.731,39.161z"/>
	<path fill="#FFFFFF" d="M52,63.747V58h-3v5.747C49,64.806,48.114,65,46.791,65h-1.082l4.875,6.755L55.458,65h-1.481
		C52.653,65,52,64.806,52,63.747z"/>
	<path fill="#FFFFFF" d="M93.586,28.728C81.838,4.656,52.8-5.334,28.728,6.414C4.656,18.162-5.334,47.2,6.414,71.272
		C18.162,95.344,47.2,105.334,71.272,93.586C95.344,81.838,105.334,52.8,93.586,28.728z M61.681,64.789L52.657,77.25
		c-0.427,0.593-1.218,0.916-2.074,0.916s-1.647-0.366-2.074-0.958l-9.023-12.503c-0.428-0.593-0.428-1.239,0-1.832
		C39.913,62.281,40.704,62,41.56,62H45v-5.917C45,55.024,45.468,54,46.791,54h7.186C55.3,54,57,55.024,57,56.083V62h2.607
		c0.856,0,1.647,0.281,2.074,0.874C62.109,63.466,62.109,64.197,61.681,64.789z M78.167,61.557
		c-3.48,1.045-13.261-0.458-15.059-4.141l-0.141-0.327c-0.54-1.432-0.345-3.033-0.137-4.727c0.1-0.817,0.282-2.301,0.15-2.856
		c-0.275-0.266-1.112-0.889-2.461-1.276c-2.469-0.709-7.3-1.395-9.94-1.411c-2.641-0.017-7.481,0.606-9.959,1.283
		c-1.344,0.368-2.184,0.974-2.478,1.248c-0.138,0.555,0.025,2.039,0.114,2.854c0.185,1.698,0.36,3.301-0.198,4.725
		c-0.472,1.206-1.729,2.942-7.156,4.087c-1.22,0.257-5.41,1.032-8.1,0.188c-2.29-0.719-4.053-2.231-5.098-4.371
		c-1.988-4.074-0.795-9.019-0.19-10.956c1.919-6.141,9.128-10.703,15.421-12.502l0.125-0.033c5.621-1.347,11.546-1.938,17.614-1.757
		c6.068-0.105,11.986,0.563,17.591,1.982l0.125,0.035c4.991,1.494,11.795,5.24,14.545,10.875c0,0.001,0,0.001,0,0.001
		c0.293,0.599,0.533,1.212,0.715,1.822C85.507,52.518,84.532,59.649,78.167,61.557z"/>
</g>
</svg>
