<?xml version="1.0" encoding="utf-8"?>
<!-- Generator: Adobe Illustrator 17.0.0, SVG Export Plug-In . SVG Version: 6.00 Build 0)  -->
<!DOCTYPE svg PUBLIC "-//W3C//DTD SVG 1.1//EN" "http://www.w3.org/Graphics/SVG/1.1/DTD/svg11.dtd">
<svg version="1.1" id="Layer_1" xmlns="http://www.w3.org/2000/svg" xmlns:xlink="http://www.w3.org/1999/xlink" x="0px" y="0px"
	 width="47.205px" height="57.375px" viewBox="0 0 47.205 57.375" enable-background="new 0 0 47.205 57.375" xml:space="preserve">
<g>
	<path fill="#FFFFFF" d="M14.426,56.214C14.426,56.214,14.426,56.214,14.426,56.214c-1.03,0-2.013-0.128-2.922-0.38
		C6.083,54.331,1.296,50.34,2.821,44.811c0.774-2.809,6.151-9.175,9.597-9.175c0.231,0,0.449,0.022,0.655,0.064
		c1.282,0.26,2.367,1.142,3.517,2.074c0.581,0.473,1.644,1.336,2.121,1.476c0.232-0.057,1.139-0.324,2.194-1.27
		c1.68-1.505,4.452-4.786,5.704-6.751c1.249-1.962,3.049-5.862,3.703-8.023c0.406-1.346,0.271-2.276,0.221-2.525
		c-0.331-0.374-1.561-0.971-2.234-1.297c-1.331-0.646-2.589-1.257-3.366-2.309c-0.419-0.566-1.531-2.071,0.317-7.097
		c0.375-1.019,1.742-4.465,3.599-6.048c1.352-1.152,2.978-1.762,4.702-1.762c4.373,0,7.964,3.8,8.96,4.965
		c3.633,4.251,3.656,11.68,2.068,17.157l-0.032,0.103c-1.616,4.79-3.935,9.456-6.893,13.869c-2.747,4.548-5.993,8.623-9.649,12.113
		l-0.08,0.073C24.741,53.236,19.524,56.214,14.426,56.214z M12.337,40.797c-1.423,0.885-4.325,4.002-4.695,5.344
		c-0.87,3.153,5.138,4.858,5.198,4.875c0.474,0.131,1.007,0.198,1.586,0.198c2.998,0,7.077-1.804,10.166-4.491
		c3.333-3.19,6.298-6.922,8.812-11.094l0.065-0.103c2.716-4.044,4.843-8.31,6.321-12.679c1.373-4.783,0.911-10.134-1.081-12.465
		c-1.644-1.922-3.718-3.214-5.159-3.214c-0.542,0-1.005,0.18-1.458,0.566c-1.06,0.903-2.655,4.853-2.854,6.517
		c0.354,0.202,0.865,0.449,1.243,0.633c1.784,0.866,4.005,1.943,4.755,4.079c0.411,1.167,0.591,3.275-0.14,5.689
		c-0.784,2.591-2.779,6.919-4.271,9.263c-1.495,2.346-4.572,5.984-6.586,7.789c-1.879,1.684-3.866,2.413-5.099,2.534
		c-0.14,0.014-0.285,0.021-0.43,0.021c-0.001,0-0.001,0-0.001,0c-2.069,0-3.772-1.384-5.275-2.604
		C13.112,41.391,12.671,41.033,12.337,40.797z"/>
</g>
</svg>
