<?xml version="1.0"?>
<svg width="47.205" height="57.375" xmlns="http://www.w3.org/2000/svg">

 <g>
  <title>background</title>
  <rect fill="none" id="canvas_background" height="32.733394" width="32.733394" y="-1" x="-1"/>
 </g>
 <g>
  <title>Layer 1</title>
  <g id="svg_1">
   <path id="svg_2" d="m14.426,56.214001c0,0 0,0 0,0c-1.03,0 -2.013,-0.127998 -2.922,-0.380001c-5.421,-1.502998 -10.208,-5.493999 -8.683,-11.022999c0.774,-2.808998 6.151,-9.174999 9.597,-9.174999c0.231,0 0.448999,0.021999 0.655,0.063999c1.282,0.260002 2.367,1.142002 3.517,2.074001c0.580999,0.473 1.643999,1.335999 2.121,1.475998c0.232,-0.056999 1.139,-0.323997 2.194,-1.27c1.679998,-1.504997 4.452,-4.785999 5.703999,-6.750999c1.249001,-1.962 3.049002,-5.862 3.703001,-8.022999c0.406,-1.346001 0.271,-2.276001 0.221001,-2.525c-0.331001,-0.374001 -1.561001,-0.971001 -2.234001,-1.297001c-1.330999,-0.646 -2.589001,-1.257 -3.365999,-2.309c-0.419001,-0.566 -1.531,-2.071 0.316999,-7.097c0.375,-1.018998 1.742001,-4.465 3.599001,-6.048c1.351999,-1.152 2.978001,-1.762 4.702002,-1.762c4.372997,0 7.963997,3.8 8.959999,4.965c3.632999,4.251 3.655998,11.680001 2.068001,17.157l-0.032001,0.103001c-1.616001,4.789999 -3.935001,9.456001 -6.893002,13.868999c-2.746998,4.548 -5.992998,8.623001 -9.649,12.112999l-0.08,0.073002c-3.184,2.787998 -8.400999,5.765999 -13.499,5.765999zm-2.089,-15.417c-1.423,0.884998 -4.325,4.001999 -4.695,5.344002c-0.87,3.153 5.138,4.857998 5.198,4.875c0.474,0.130997 1.007,0.197998 1.585999,0.197998c2.998,0 7.077001,-1.804001 10.165999,-4.491001c3.333,-3.189999 6.298,-6.921997 8.812,-11.093998l0.065002,-0.103001c2.716,-4.044001 4.842999,-8.310001 6.320999,-12.679001c1.372997,-4.782999 0.910999,-10.133999 -1.081001,-12.464999c-1.644001,-1.922 -3.717999,-3.214 -5.159,-3.214c-0.542,0 -1.004997,0.18 -1.457996,0.566c-1.060001,0.903 -2.655003,4.853 -2.854002,6.517c0.353998,0.202 0.865,0.448999 1.243,0.632999c1.783998,0.866 4.004999,1.943001 4.754999,4.079c0.410999,1.167 0.591,3.275 -0.139999,5.688999c-0.784,2.591002 -2.778999,6.919001 -4.271,9.263c-1.494999,2.346001 -4.572001,5.984001 -6.586,7.789001c-1.879,1.683998 -3.865999,2.412998 -5.098999,2.534c-0.139999,0.014 -0.285,0.021 -0.43,0.021c-0.000999,0 -0.000999,0 -0.000999,0c-2.069,0 -3.772,-1.384003 -5.275001,-2.604c-0.322001,-0.264004 -0.763001,-0.622002 -1.097001,-0.858002z" fill="#e6e6e6"/>
  </g>
 </g>
</svg>