<?xml version="1.0" encoding="utf-8"?>
<!-- Generator: Adobe Illustrator 17.0.0, SVG Export Plug-In . SVG Version: 6.00 Build 0)  -->
<!DOCTYPE svg PUBLIC "-//W3C//DTD SVG 1.1//EN" "http://www.w3.org/Graphics/SVG/1.1/DTD/svg11.dtd">
<svg version="1.1" id="Layer_1" xmlns="http://www.w3.org/2000/svg" xmlns:xlink="http://www.w3.org/1999/xlink" x="0px" y="0px"
	 width="100px" height="100px" viewBox="0 0 100 100" enable-background="new 0 0 100 100" xml:space="preserve">
<g>
	<path fill="#FFFFFF" d="M60.628,24.93c-0.728-0.075-1.308,0.112-1.88,0.602c-1.152,0.992-2.895,5.339-3.156,7.255
		c0.395,0.217,0.926,0.472,1.326,0.662c2.063,0.99,4.633,2.221,5.521,4.71c0.483,1.35,0.704,3.79-0.125,6.583
		c-0.886,2.973-3.148,7.938-4.84,10.626c-1.692,2.686-5.195,6.869-7.494,8.951c-2.159,1.953-4.455,2.807-5.883,2.956
		c-0.352,0.037-0.716,0.037-1.079-0.001c-0.001-0.001-0.001-0.001-0.001-0.001c-2.165-0.221-3.964-1.669-5.552-2.946
		c-0.345-0.278-0.804-0.648-1.169-0.91c-1.616,1.063-4.785,4.511-5.181,5.979c-0.937,3.461,5.784,5.333,5.851,5.351
		c3.337,0.913,9.222-1.13,13.415-4.816c3.777-3.648,7.169-7.885,10.14-12.556l0.079-0.124c2.973-4.674,5.29-9.588,6.95-14.568
		c1.526-5.419,0.896-11.513-1.358-14.127C64.457,26.549,62.221,25.093,60.628,24.93z"/>
	<path fill="#FFFFFF" d="M75.683,8.859C52.962-5.326,23.044,1.595,8.859,24.317s-7.264,52.64,15.458,66.825
		s52.64,7.264,66.825-15.458S98.405,23.044,75.683,8.859z M73.127,44.277L73.089,44.4c-1.822,5.486-4.446,10.83-7.802,15.889
		c-3.113,5.21-6.803,9.884-10.965,13.897l-0.096,0.088c-3.903,3.451-10.675,7.254-16.913,6.617
		c-0.001-0.001-0.001-0.001-0.001-0.001c-0.663-0.067-1.311-0.187-1.925-0.354c-6.262-1.705-11.806-6.295-10.067-12.71
		c0.949-3.508,7.386-11.023,11.464-10.607l0.352,0.053c1.501,0.297,2.758,1.307,4.088,2.378c0.641,0.516,1.806,1.454,2.347,1.634
		c0.371-0.093,1.342-0.475,2.383-1.418c1.905-1.723,5.037-5.465,6.444-7.699c1.408-2.234,3.433-6.675,4.165-9.137
		c0.397-1.336,0.325-2.369,0.247-2.763c-0.399-0.41-1.745-1.055-2.484-1.409c-1.54-0.739-2.994-1.436-3.909-2.661
		c-0.775-1.037-1.587-3.021,0.304-8.235c0.425-1.172,1.978-5.14,4.114-6.98c1.819-1.566,4.034-2.266,6.403-2.024
		c4.51,0.461,8.081,4.084,9.407,5.62C74.847,29.452,74.919,37.982,73.127,44.277z"/>
</g>
</svg>
