<?xml version="1.0"?>
<svg width="100" height="100" xmlns="http://www.w3.org/2000/svg">

 <g>
  <title>background</title>
  <rect fill="none" id="canvas_background" height="402" width="582" y="-1" x="-1"/>
 </g>
 <g>
  <title>Layer 1</title>
  <g id="svg_1">
   <path id="svg_2" d="m60.627998,24.771271c-0.728001,-0.075001 -1.307999,0.112 -1.880001,0.601999c-1.152,0.992001 -2.895,5.339001 -3.155998,7.254999c0.395,0.217003 0.925999,0.472 1.326,0.662003c2.063,0.989998 4.632999,2.220997 5.521,4.709999c0.482998,1.349998 0.703999,3.790001 -0.125,6.583c-0.886002,2.973 -3.148003,7.938 -4.84,10.625999c-1.692001,2.686001 -5.195,6.868999 -7.493999,8.951c-2.159,1.953003 -4.455002,2.806999 -5.883003,2.956001c-0.351997,0.037003 -0.716,0.037003 -1.078999,-0.000999c-0.000999,-0.000999 -0.000999,-0.000999 -0.000999,-0.000999c-2.165001,-0.221001 -3.964001,-1.668999 -5.552002,-2.945999c-0.344997,-0.278 -0.803997,-0.648003 -1.168999,-0.910004c-1.616001,1.063004 -4.785,4.511002 -5.181,5.979004c-0.937,3.460999 5.784,5.333 5.851002,5.350998c3.336998,0.913002 9.222,-1.129997 13.414997,-4.816002c3.777,-3.647995 7.169003,-7.884998 10.139999,-12.556l0.079002,-0.124001c2.973,-4.673996 5.290001,-9.587997 6.949997,-14.567997c1.526001,-5.419003 0.896004,-11.513002 -1.357994,-14.127001c-1.735001,-2.007002 -3.971001,-3.463001 -5.564003,-3.626001z" fill="#e6e6e6"/>
   <path id="svg_3" d="m75.682999,8.541541c-22.720997,-14.185001 -52.638998,-7.264001 -66.823998,15.457999s-7.264,52.640001 15.457999,66.824999s52.640001,7.264 66.824999,-15.458s7.263,-52.639997 -15.459,-66.824998zm-2.556,35.418l-0.038002,0.123001c-1.821999,5.486 -4.445999,10.829998 -7.802002,15.889c-3.112999,5.209999 -6.802998,9.884003 -10.964996,13.897003l-0.096001,0.087997c-3.903,3.450996 -10.675003,7.253998 -16.913002,6.616997c-0.000999,-0.000999 -0.000999,-0.000999 -0.000999,-0.000999c-0.662998,-0.066994 -1.311001,-0.186996 -1.924999,-0.353996c-6.262001,-1.705002 -11.806,-6.294998 -10.067001,-12.709999c0.948999,-3.508003 7.386002,-11.023003 11.464001,-10.607002l0.352001,0.052998c1.500999,0.297001 2.757999,1.307003 4.087997,2.378002c0.641003,0.515999 1.806,1.453999 2.347,1.633999c0.371002,-0.092999 1.341999,-0.474998 2.382999,-1.417999c1.905003,-1.723 5.037003,-5.465 6.444,-7.698997c1.408001,-2.234001 3.433002,-6.675003 4.165001,-9.137001c0.396999,-1.336002 0.325001,-2.368999 0.247002,-2.763c-0.399002,-0.41 -1.745003,-1.055 -2.484001,-1.409c-1.540001,-0.738998 -2.993999,-1.436001 -3.909,-2.660999c-0.775002,-1.036999 -1.587002,-3.021 0.304001,-8.235001c0.424999,-1.171999 1.978001,-5.139999 4.113998,-6.98c1.819,-1.566 4.034,-2.266001 6.403,-2.024c4.509998,0.461 8.080997,4.084 9.407001,5.620001c4.202003,4.873997 4.274002,13.403996 2.482002,19.698997z" fill="#e6e6e6"/>
  </g>
 </g>
</svg>