<?xml version="1.0"?>
<svg width="100" height="100" xmlns="http://www.w3.org/2000/svg">

 <g>
  <title>background</title>
  <rect fill="none" id="canvas_background" height="402" width="582" y="-1" x="-1"/>
 </g>
 <g>
  <title>Layer 1</title>
  <g id="svg_1">
   <path id="svg_2" d="m37.256001,35.574001c-0.663002,0.778999 -0.987999,1.672001 -0.969002,2.737c0.096001,1.487 0.797001,2.656002 2.179001,3.327999c1.418999,0.690002 2.797001,0.507 4.064999,-0.43c1.080002,-0.799 1.168003,-0.805 2.223003,0.014c1.542,1.195 3.779999,1.056 5.121998,-0.317997c1.413002,-1.447002 1.528,-3.637001 0.27,-5.190002c-3.039001,-3.755001 -9.750999,-3.826 -12.889999,-0.140999z" fill="none"/>
   <path id="svg_3" d="m49.953999,1.5c-27.001999,0.045 -48.464998,21.735001 -48.453999,48.966c0.011,26.365002 21.848,48.005001 48.470001,48.034c26.848,0.028999 48.530998,-21.676003 48.529999,-48.583c-0.000999,-26.75 -21.771004,-48.462 -48.546001,-48.417zm23.597004,71.551003c-1.548004,1.832001 -4.115997,1.878998 -5.93,0.071999c-4.793999,-4.776001 -9.577,-9.563999 -14.352001,-14.359997c-0.237,-0.238003 -0.351997,-0.599003 -0.482998,-0.830002c-9.688,6.214001 -21.1,3.473999 -27.101002,-4.468998c-5.942999,-7.865002 -5.137999,-18.984001 1.934,-26.016003c7.039999,-7 18.216002,-7.667999 26.106001,-1.549999c7.801003,6.049999 10.337002,17.345001 4.362,26.645c0.243,0.254002 0.456001,0.485001 0.677002,0.706001c4.682999,4.683998 9.368,9.365997 14.049,14.050999c0.305,0.305 0.609001,0.615997 0.870003,0.958c1.077995,1.411995 1.013992,3.437996 -0.132004,4.792999z" fill="#e6e6e6"/>
   <path id="svg_4" d="m41.620998,27.611c-7.778999,-0.011999 -14.000999,6.172001 -14.014,13.926998c-0.013,7.685001 6.196999,13.942001 13.883999,13.988003c7.672001,0.045998 14.012001,-6.255001 14.038002,-13.956001c0.025002,-7.653999 -6.244999,-13.948 -13.908001,-13.959zm6.107002,10.688c-1.325001,1.015999 -3.336998,0.913002 -4.605,-0.237c-0.868,-0.786999 -0.946999,-0.791 -1.985001,-0.229c-1.217999,0.659 -2.466999,0.675999 -3.670998,-0.039001c-1.173,-0.696999 -1.692001,-1.742001 -1.642002,-2.993999c0.081001,-0.891998 0.452999,-1.605999 1.117001,-2.191998c3.143002,-2.770002 9.132,-2.053001 11.503998,1.382c0.98,1.419998 0.677002,3.237999 -0.717999,4.308998z" fill="#e6e6e6"/>
  </g>
 </g>
</svg>