<?xml version="1.0"?>
<svg width="100" height="100" xmlns="http://www.w3.org/2000/svg">

 <g>
  <title>background</title>
  <rect fill="none" id="canvas_background" height="402" width="582" y="-1" x="-1"/>
 </g>
 <g>
  <title>Layer 1</title>
  <g id="svg_1">
   <path id="svg_2" d="m50.643002,45.849998c-1.854,0.011002 -3.335003,1.492001 -3.342003,3.341003c-0.007,1.856998 1.467003,3.346996 3.32,3.356998c1.857002,0.009998 3.345001,-1.445 3.379002,-3.304001c0.033001,-1.848999 -1.506001,-3.404999 -3.356998,-3.394001z" fill="none"/>
   <path id="svg_3" d="m40.535,45.786999c-1.869999,-0.014 -3.395,1.493 -3.397999,3.357002c-0.002003,1.821999 1.511997,3.334999 3.348999,3.344997c1.827999,0.010002 3.345001,-1.486 3.374001,-3.326c0.028999,-1.806 -1.505001,-3.362999 -3.325001,-3.375999z" fill="none"/>
   <path id="svg_4" d="m60.860001,45.91c-1.825001,-0.043999 -3.354,1.431999 -3.397999,3.279999c-0.045002,1.868999 1.432999,3.409 3.302998,3.443001c1.788002,0.032001 3.322998,-1.449001 3.375999,-3.258999c0.055,-1.878002 -1.403999,-3.418999 -3.280998,-3.464001z" fill="none"/>
   <g id="svg_5">
    <g id="svg_6">
     <path id="svg_7" d="m50,1.5c-26.785999,0 -48.5,21.714001 -48.5,48.5c0,26.786003 21.714001,48.5 48.5,48.5s48.5,-21.713997 48.5,-48.5c0,-26.785999 -21.713997,-48.5 -48.5,-48.5zm26.199997,39.403999c-0.067993,1.209999 -0.061996,2.424 -0.057999,3.638l-0.042,13.191002c-0.031998,5.667999 -3.709,10.247002 -9.149002,11.394997c-0.731995,0.154999 -1.500999,0.234001 -2.279999,0.234001c-3.690998,-0.010002 -7.360996,-0.037003 -11.028999,-0.072998c-2.711998,2.740997 -5.438999,5.473 -8.165997,8.203995c-1.472,1.474007 -2.988003,1.783005 -4.001003,1.783005c-0.862,0 -1.702,-0.216003 -2.501999,-0.641998c-1.812,-0.967003 -2.853001,-2.722 -2.853001,-4.815002l0,-4.68c-5.535,-0.357002 -10.273998,-5.188999 -10.391998,-10.647999c-0.068001,-3.131001 -0.039001,-6.296001 -0.013,-9.355l0.028,-4.445c0.006001,-1.929001 0.011,-3.859001 0.098,-5.784c0.255001,-5.689003 5.238001,-10.517002 10.880001,-10.544001l3.187,-0.008001c3.783001,0 7.563,0.028 11.346001,0.055l6.215,0.039l3.265999,-0.01c1.352001,0 2.956001,0.013 4.607002,0.107c6.565994,0.376001 11.231995,5.689001 10.857994,12.358z" fill="#e6e6e6"/>
    </g>
   </g>
   <g id="svg_8">
    <g id="svg_9">
     <path id="svg_10" d="m65.015999,34.306c-1.424,-0.081001 -2.848999,-0.098 -4.278,-0.098l-3.265999,0.009998l-6.257999,-0.038998c-3.768002,-0.027 -7.535,-0.055 -11.303001,-0.055l-3.160999,0.007999c-2.573002,0.012001 -5.026001,2.411999 -5.143999,5.034c-0.083,1.842999 -0.085001,3.692001 -0.09,5.537998l-0.028,4.483002c-0.026001,3.014999 -0.054001,6.134998 0.012999,9.179001c0.054001,2.508999 2.475002,4.902 5.080002,5.02c0.260998,0.011997 0.521999,0.014999 0.788998,0.014999l1.638,-0.012001l2.885002,0l0,9.528999c2.702999,-2.706001 5.401997,-5.410995 8.088997,-8.128998c0.838001,-0.847 1.867001,-1.275002 3.061001,-1.275002c3.91,0.039001 7.765999,0.068001 11.622002,0.078999c0.380997,0 0.756996,-0.037998 1.095001,-0.108997c2.804001,-0.592003 4.555,-2.806999 4.570999,-5.781002l0.041,-13.140999c-0.006004,-1.327999 -0.008003,-2.656002 0.066002,-3.979c0.196999,-3.501999 -2.032005,-6.082001 -5.422005,-6.277zm-24.528999,18.182999c-1.836998,-0.009998 -3.350998,-1.522999 -3.348999,-3.344997c0.001999,-1.864002 1.527,-3.371002 3.397999,-3.357002c1.82,0.014 3.354,1.57 3.326,3.375999c-0.029999,1.84 -1.548,3.336002 -3.375,3.326zm10.133999,0.059002c-1.854,-0.010002 -3.327,-1.5 -3.32,-3.356998c0.007,-1.849003 1.489002,-3.330002 3.342003,-3.341003c1.850998,-0.010998 3.389999,1.545002 3.356998,3.394001c-0.034,1.858002 -1.521999,3.313 -3.379002,3.304001zm10.143002,0.084999c-1.869999,-0.034 -3.347,-1.572998 -3.303001,-3.443001c0.044003,-1.848 1.573002,-3.323997 3.398003,-3.279999c1.876999,0.045002 3.335999,1.585999 3.279999,3.464001c-0.052002,1.808998 -1.587002,3.291 -3.375,3.258999z" fill="#e6e6e6"/>
    </g>
   </g>
  </g>
 </g>
</svg>