<?xml version="1.0" encoding="utf-8"?>
<!-- Generator: Adobe Illustrator 17.0.0, SVG Export Plug-In . SVG Version: 6.00 Build 0)  -->
<!DOCTYPE svg PUBLIC "-//W3C//DTD SVG 1.1//EN" "http://www.w3.org/Graphics/SVG/1.1/DTD/svg11.dtd">
<svg version="1.1" id="Layer_1" xmlns="http://www.w3.org/2000/svg" xmlns:xlink="http://www.w3.org/1999/xlink" x="0px" y="0px"
	 width="100px" height="100px" viewBox="0 0 100 100" enable-background="new 0 0 100 100" xml:space="preserve">
<g>
	<path fill="none" d="M50.643,45.85c-1.854,0.011-3.335,1.492-3.342,3.341c-0.007,1.857,1.467,3.347,3.32,3.357
		c1.857,0.01,3.345-1.445,3.379-3.304C54.033,47.395,52.494,45.839,50.643,45.85z"/>
	<path fill="none" d="M40.535,45.787c-1.87-0.014-3.395,1.493-3.398,3.357c-0.002,1.822,1.512,3.335,3.349,3.345
		c1.828,0.01,3.345-1.486,3.374-3.326C43.889,47.357,42.355,45.8,40.535,45.787z"/>
	<path fill="none" d="M60.86,45.91c-1.825-0.044-3.354,1.432-3.398,3.28c-0.045,1.869,1.433,3.409,3.303,3.443
		c1.788,0.032,3.323-1.449,3.376-3.259C64.196,47.496,62.737,45.955,60.86,45.91z"/>
	<g>
		<g>
			<path fill="#FFFFFF" d="M50,1.5C23.214,1.5,1.5,23.214,1.5,50c0,26.786,21.714,48.5,48.5,48.5S98.5,76.786,98.5,50
				C98.5,23.214,76.786,1.5,50,1.5z M76.2,40.904c-0.068,1.21-0.062,2.424-0.058,3.638L76.1,57.733
				c-0.032,5.668-3.709,10.247-9.149,11.395c-0.732,0.155-1.501,0.234-2.28,0.234c-3.691-0.01-7.361-0.037-11.029-0.073
				c-2.712,2.741-5.439,5.473-8.166,8.204c-1.472,1.474-2.988,1.783-4.001,1.783c-0.862,0-1.702-0.216-2.502-0.642
				c-1.812-0.967-2.853-2.722-2.853-4.815v-4.68c-5.535-0.357-10.274-5.189-10.392-10.648c-0.068-3.131-0.039-6.296-0.013-9.355
				l0.028-4.445c0.006-1.929,0.011-3.859,0.098-5.784c0.255-5.689,5.238-10.517,10.88-10.544l3.187-0.008
				c3.783,0,7.563,0.028,11.346,0.055l6.215,0.039l3.266-0.01c1.352,0,2.956,0.013,4.607,0.107
				C71.908,28.922,76.574,34.235,76.2,40.904z"/>
		</g>
	</g>
	<g>
		<g>
			<path fill="#FFFFFF" d="M65.016,34.306c-1.424-0.081-2.849-0.098-4.278-0.098l-3.266,0.01l-6.258-0.039
				c-3.768-0.027-7.535-0.055-11.303-0.055l-3.161,0.008c-2.573,0.012-5.026,2.412-5.144,5.034c-0.083,1.843-0.085,3.692-0.09,5.538
				l-0.028,4.483c-0.026,3.015-0.054,6.135,0.013,9.179c0.054,2.509,2.475,4.902,5.08,5.02c0.261,0.012,0.522,0.015,0.789,0.015
				l1.638-0.012h2.885v9.529c2.703-2.706,5.402-5.411,8.089-8.129c0.838-0.847,1.867-1.275,3.061-1.275
				c3.91,0.039,7.766,0.068,11.622,0.079c0.381,0,0.757-0.038,1.095-0.109c2.804-0.592,4.555-2.807,4.571-5.781l0.041-13.141
				c-0.006-1.328-0.008-2.656,0.066-3.979C70.635,37.081,68.406,34.501,65.016,34.306z M40.487,52.489
				c-1.837-0.01-3.351-1.523-3.349-3.345c0.002-1.864,1.527-3.371,3.398-3.357c1.82,0.014,3.354,1.57,3.326,3.376
				C43.832,51.003,42.314,52.499,40.487,52.489z M50.621,52.548c-1.854-0.01-3.327-1.5-3.32-3.357
				c0.007-1.849,1.489-3.33,3.342-3.341c1.851-0.011,3.39,1.545,3.357,3.394C53.966,51.102,52.478,52.557,50.621,52.548z
				 M60.764,52.633c-1.87-0.034-3.347-1.573-3.303-3.443c0.044-1.848,1.573-3.324,3.398-3.28c1.877,0.045,3.336,1.586,3.28,3.464
				C64.087,51.183,62.552,52.665,60.764,52.633z"/>
		</g>
	</g>
</g>
</svg>
