<?xml version="1.0" encoding="utf-8"?>
<!-- Generator: Adobe Illustrator 17.0.0, SVG Export Plug-In . SVG Version: 6.00 Build 0)  -->
<!DOCTYPE svg PUBLIC "-//W3C//DTD SVG 1.1//EN" "http://www.w3.org/Graphics/SVG/1.1/DTD/svg11.dtd">
<svg version="1.1" xmlns="http://www.w3.org/2000/svg" xmlns:xlink="http://www.w3.org/1999/xlink" x="0px" y="0px" width="100px"
	 height="100px" viewBox="0 0 100 100" enable-background="new 0 0 100 100" xml:space="preserve">
<g id="Layer_2" display="none">
	<rect display="inline" fill="#B3B3B3" width="100" height="100"/>
</g>
<g id="Layer_1">
	<g>
		<path fill-rule="evenodd" clip-rule="evenodd" fill="#FFFFFF" d="M55.5,43.7c0,4.5,0.1,8.3-2.2,12.3c-1.9,3.3-4.8,5.3-8.1,5.3
			c-4.5,0-7.1-3.4-7.1-8.4c0-9.9,8.9-11.7,17.3-11.7V43.7z M67.2,72.1c-0.8,0.7-1.9,0.7-2.8,0.3c-3.9-3.2-4.6-4.7-6.7-7.8
			C51.4,71.1,46.9,73,38.6,73c-9.8,0-17.4-6-17.4-18.1c0-9.4,5.1-15.9,12.4-19c6.3-2.8,15.1-3.3,21.9-4v-1.5c0-2.8,0.2-6-1.4-8.4
			c-1.4-2.1-4.1-3-6.5-3c-4.4,0-8.4,2.3-9.4,7c-0.2,1-1,2.1-2,2.1l-11.3-1.2c-1-0.2-2-1-1.7-2.4c2.6-13.7,15-17.8,26-17.8
			c5.7,0,13.1,1.5,17.5,5.8c5.7,5.3,5.1,12.3,5.1,20v18.1c0,5.5,2.3,7.8,4.4,10.8c0.7,1.1,0.9,2.3,0,3.1
			C73.8,66.3,69.6,70,67.2,72.1L67.2,72.1z"/>
		<g>
			<path fill-rule="evenodd" clip-rule="evenodd" fill="#FFFFFF" d="M86.7,79.4c-9.9,7.3-19.2,14.1-37.1,14.1
				c-21.7,0-37.2-12.6-44.5-21.3c-0.9-0.8-0.1-2,1-1.3c12.3,7.5,25.1,14.5,44.5,14.5c10.9,0,22.9-3.6,34-8.3
				C86.3,76.4,87.3,77.6,86.7,79.4z"/>
			<path fill-rule="evenodd" clip-rule="evenodd" fill="#FFFFFF" d="M90,74.4c-1.3-1.7-8.6-0.8-11.8-0.4c-1,0.1-1.1-0.7-0.3-1.4
				c5.8-4.1,15.3-2.9,16.4-1.5c1.1,1.4-0.3,10.9-5.7,15.4c-0.8,0.7-1.6,0.3-1.3-0.6C88.6,82.8,91.3,76,90,74.4z"/>
		</g>
	</g>
</g>
</svg>
