<?xml version="1.0" encoding="utf-8"?>
<!-- Generator: Adobe Illustrator 17.0.0, SVG Export Plug-In . SVG Version: 6.00 Build 0)  -->
<!DOCTYPE svg PUBLIC "-//W3C//DTD SVG 1.1//EN" "http://www.w3.org/Graphics/SVG/1.1/DTD/svg11.dtd">
<svg version="1.1" xmlns="http://www.w3.org/2000/svg" xmlns:xlink="http://www.w3.org/1999/xlink" x="0px" y="0px" width="100px"
	 height="100px" viewBox="0 0 100 100" enable-background="new 0 0 100 100" xml:space="preserve">
<g id="Layer_2" display="none">
	<rect display="inline" fill="#B3B3B3" width="100" height="100"/>
</g>
<g id="Layer_1">
	<g>
		<path fill-rule="evenodd" clip-rule="evenodd" fill="#FFFFFF" d="M31.1,54.6c0.2-1.6-3.3-1.3-3.3-1.3l-0.2,2.2
			C27.6,55.5,30.9,56.2,31.1,54.6z"/>
		<path fill-rule="evenodd" clip-rule="evenodd" fill="#FFFFFF" d="M29.9,42c0.1-1.9-4.2-1.7-4.2-1.7L25.5,43
			C25.5,43,29.8,43.8,29.9,42z"/>
		<path fill-rule="evenodd" clip-rule="evenodd" fill="#FFFFFF" d="M27.3,58.9l-0.2,2.7c0,0,4.2,0.9,4.4-1
			C31.6,58.8,27.3,58.9,27.3,58.9z"/>
		<path fill-rule="evenodd" clip-rule="evenodd" fill="#FFFFFF" d="M29.5,35.9c0.2-1.6-3.3-1.3-3.3-1.3L26,36.8
			C26,36.8,29.3,37.6,29.5,35.9z"/>
		<path fill-rule="evenodd" clip-rule="evenodd" fill="#FFFFFF" d="M26,19L7.1,33.8L5,56.2l15.7,18.3L89.8,81L95,25.6L26,19z
			 M55.7,38.8c0.3-2.5,4.1-5.1,9.4-4.8c5.3,0.3,8.1,2.4,8.1,2.4l-2.7,3.8c0,0-0.4-0.4-2-1c-1.5-0.6-4.1-0.8-4.5,0
			c-0.4,0.8,3.6,1.6,6,2.4c2.3,0.8,3.7,3.5,2.6,5.9c-1.2,2.4-4.9,3.8-9.9,3.4c-5-0.4-8.7-2.4-8.7-2.4l2.9-4.3
			c1.1,1.1,4.9,2.5,6.7,2.1c1.8-0.4,0.9-1.4-0.7-1.7c-1.5-0.3-3.6-1-3.6-1C57,42.8,55.4,41.3,55.7,38.8z M39.4,31.8l15.3,1.5
			l-0.4,4.6l-6.9-0.7l-0.1,1.5l6.3,0.6l-0.4,4.2l-6.2-0.6l-0.2,1.7l7,0.7l-0.4,4.3l-15.4-1.5L39.4,31.8z M15,46.2
			c-0.2,1.7-1.7,2.9-3.3,2.8c-1.7-0.2-2.9-1.7-2.8-3.3c0.2-1.7,1.7-2.9,3.3-2.8C13.9,43.1,15.2,44.6,15,46.2z M19,29.8l11.3,1.1
			c0,0,6.8,0.9,6.9,4.3c0.1,3.4-3.3,4.1-3.3,4.1s4.1,1.2,3.6,4.6c-0.5,3.4-5.8,3.6-8.4,3.4c-2.6-0.2-11.6-1.2-11.6-1.2L19,29.8z
			 M39.1,62.6c-0.5,3.4-5.8,3.6-8.4,3.4c-2.6-0.2-11.6-1.2-11.6-1.2l1.5-16.3l11.3,1.1c0,0,6.8,0.8,6.9,4.3c0.1,3.4-3.3,4.1-3.3,4.1
			S39.6,59.2,39.1,62.6z M76,63.2l-0.7,7l-8.1-0.8l0.7-6.9l-6.9-10l-1,10.6c0,0-0.9,5.9-10.7,4.9c-9.8-0.9-9.6-7.1-9.6-7.1l1-10.5
			l7.9,0.7l-0.8,9.2c0,0-0.8,2.2,1.9,2.5c2.6,0.3,2.5-2.1,2.5-2.1l0.9-9.1l8,0.8l0,0l9.2,0.8l2.3,4.5l2.9-4l9.3,0.9L76,63.2z
			 M86.2,41.7l-1,11L77,51.9l0.9-11l-4.5-0.4l0.5-5.3l17.3,1.7l-0.5,5.3L86.2,41.7z"/>
	</g>
</g>
</svg>
