<?xml version="1.0" encoding="utf-8"?>
<!-- Generator: Adobe Illustrator 17.0.0, SVG Export Plug-In . SVG Version: 6.00 Build 0)  -->
<!DOCTYPE svg PUBLIC "-//W3C//DTD SVG 1.1//EN" "http://www.w3.org/Graphics/SVG/1.1/DTD/svg11.dtd">
<svg version="1.1" xmlns="http://www.w3.org/2000/svg" xmlns:xlink="http://www.w3.org/1999/xlink" x="0px" y="0px" width="100px"
	 height="100px" viewBox="0 0 100 100" enable-background="new 0 0 100 100" xml:space="preserve">
<g id="Layer_2" display="none">
	<rect display="inline" fill="#B3B3B3" width="100" height="100"/>
</g>
<g id="Layer_1">
	<g>
		<polygon fill-rule="evenodd" clip-rule="evenodd" fill="#FFFFFF" points="7.4,5 37,5 37,18.5 50.5,5 92.6,5 59,38.6 92.6,72.2 
			50.5,72.2 37,58.7 37,72.2 7.4,72.2 7.4,5 		"/>
		<polygon fill-rule="evenodd" clip-rule="evenodd" fill="#FFFFFF" points="12.3,86.8 18.4,81 24.4,81 18.2,86.9 18.3,86.9 
			25.2,94.6 18.4,94.6 12.3,87.5 12.3,94.6 7.4,94.6 7.4,76.4 12.3,76.4 12.3,86.8 		"/>
		<path fill-rule="evenodd" clip-rule="evenodd" fill="#FFFFFF" d="M25.8,81h4.8v2.5c1.5-2.5,3.5-2.9,5.3-2.9c2.1,0,3.5,1.3,4.3,3.1
			c1.3-2.1,3.5-3.1,5.4-3.1c3.1,0,5.7,1.8,5.7,5.8v8.3h-4.7v-7.7c0-1.9-1.4-2.9-2.6-2.9c-1.4,0-3,1.4-3,3.1v7.5h-4.8v-7.7
			c0-1.5-0.7-2.9-2.5-2.9c-1.2,0-3,1.1-3,3.9v6.8h-4.9V81L25.8,81z"/>
		<path fill-rule="evenodd" clip-rule="evenodd" fill="#FFFFFF" d="M70.8,81h4.7v2.9c0.9-2.8,3.5-3.3,6.7-3.1V85
			c-1.8-0.1-3.2-0.1-4.4,0.4c-1.2,0.5-2.2,1.7-2.2,3.1v6.1h-4.9V81L70.8,81z"/>
		<path fill-rule="evenodd" clip-rule="evenodd" fill="#FFFFFF" d="M83.3,76.4h4.9v4.3h4V85h-4v4.7c0,1.8,1.3,2,4,1.5v3.2
			c-5,1-8.9,0.4-8.9-4.9V76.4L83.3,76.4z"/>
		<path fill-rule="evenodd" clip-rule="evenodd" fill="#FFFFFF" d="M68.7,94.6H64v-2.1c-1.1,1.4-2.8,2.5-5.3,2.5
			c-2.8,0-5.9-0.9-5.8-4.4c0-5.2,7.5-4.5,11-4.6c0-1.7-0.9-2.7-2.6-2.7c-1.4,0-2.5,0.7-2.5,1.5h-4.9c0-2.8,3.5-4.3,7.5-4.3
			c4.9,0,7.4,1.8,7.4,5.2V94.6L68.7,94.6z M63.9,88.6c-1.5,0.1-6.5-0.6-6.5,1.9c0,1,0.8,1.5,2.2,1.5C61.5,92,63.8,90.8,63.9,88.6
			L63.9,88.6z"/>
	</g>
</g>
</svg>
