<?xml version="1.0" encoding="utf-8"?>
<!-- Generator: Adobe Illustrator 17.0.0, SVG Export Plug-In . SVG Version: 6.00 Build 0)  -->
<!DOCTYPE svg PUBLIC "-//W3C//DTD SVG 1.1//EN" "http://www.w3.org/Graphics/SVG/1.1/DTD/svg11.dtd">
<svg version="1.1" xmlns="http://www.w3.org/2000/svg" xmlns:xlink="http://www.w3.org/1999/xlink" x="0px" y="0px" width="100px"
	 height="100px" viewBox="0 0 100 100" enable-background="new 0 0 100 100" xml:space="preserve">
<g id="Layer_2" display="none">
	<rect display="inline" fill="#B3B3B3" width="100" height="100"/>
</g>
<g id="Layer_1">
	<g>
		<path fill="#FFFFFF" d="M44.6,37.6c1.4-1.5,3-2.8,4.6-4.1c1.6-1.2,3.3-2.2,5-3.1c-0.3-0.3-0.7-0.6-1.1-0.8
			c-1.1-0.7-2.2-1.2-3.5-1.5c-0.9-0.2-1.8-0.3-2.7-0.4h-0.8c-2,0.2-4.1,0.6-6.2,1.4c-2.2,0.8-4.2,1.9-6.3,3.2
			c-2,1.3-3.9,2.8-5.6,4.5c-1.7,1.7-3.2,3.4-4.3,5.3c-1.2,2-2.2,4.1-2.8,6.2c-0.6,2.1-0.9,4.2-0.9,6.3c0,2.1,0.3,4.1,1,6
			c0.6,1.9,1.5,3.7,2.7,5.3c1.2,1.6,2.7,3,4.4,4.1c1.3,0.8,2.6,1.4,4,1.8c0.2,0.1,0.4,0.1,0.6,0.2c2.6,0.5,5.2,0.4,7.9-0.1
			c1.7-0.3,3.3-1,4.8-1.8c0,0-0.1,0-0.1-0.1c-1.8-1.1-3.2-2.5-4.4-4.1c-1.2-1.6-2.1-3.4-2.7-5.3c-0.4-1.2-0.6-2.4-0.8-3.6l-1.7,0
			L39,44.5l0.7,0c0.4-0.8,0.8-1.5,1.2-2.2C41.9,40.6,43.2,39.1,44.6,37.6z"/>
		<g>
			<path fill="#FFFFFF" d="M21.9,66.1c-1.2-1.6-2.1-3.4-2.7-5.3c-0.6-1.9-1-3.9-1-6c0-2.1,0.3-4.2,0.9-6.3c0.6-2.1,1.5-4.2,2.8-6.2
				c1-1.6,2.2-3.1,3.7-4.6c1.4-1.5,3-2.8,4.6-4.1c1.7-1.2,3.4-2.3,5.3-3.2c0.7-0.4,1.5-0.7,2.2-1c-0.1,0-0.1-0.1-0.2-0.1
				c-1-0.7-2.1-1.1-3.2-1.5c-0.9-0.3-1.8-0.4-2.7-0.4h-0.7c-3.3,0.1-6.4,1.2-9.4,2.7c-1.8,1-3.6,2.1-5.2,3.4
				c-2.4,1.9-4.5,4.2-6.4,6.6c-1.3,1.8-2.4,3.7-3.3,5.8C5.3,49.2,4.8,53,5.1,56.4c0.2,1.6,0.5,3,0.9,4.4c0.3,1,0.8,2,1.2,2.8
				c0.3,0.5,0.5,0.9,0.9,1.4c0.4,0.6,0.8,1.2,1.3,1.8c1.7,1.9,3.9,3.5,6.3,4.5c3.5,1.4,7.4,1.5,11,0.5c0.5-0.1,1.1-0.3,1.6-0.5
				c-0.7-0.3-1.5-0.7-2.2-1.1C24.5,69,23.1,67.7,21.9,66.1z"/>
		</g>
		<path fill="#FFFFFF" d="M74.2,56.5c-0.4,0.3-0.9,0.6-1.3,0.8c-0.7,0.3-1.5,0.4-2.4,0.4l-0.1,0c-0.8,0-1.6-0.1-2.2-0.4
			c-0.7-0.3-1.3-0.8-1.7-1.4c-0.2-0.3-0.3-0.6-0.4-1l-1,2.5l-5.9,0.1l0,0l-5.2,0.1l0.2-1.8c-0.1,0.1-0.2,0.2-0.3,0.3
			c-0.6,0.6-1.2,1-1.9,1.2c-0.7,0.3-1.5,0.4-2.4,0.4l-0.1,0c-0.8,0-1.6-0.1-2.2-0.4c-0.7-0.3-1.3-0.8-1.7-1.4c0,0,0,0,0,0l-0.3,1.1
			l-6.2,0.1c0.2,1.2,0.4,2.4,0.8,3.6c0.6,1.9,1.5,3.7,2.7,5.3c1.2,1.6,2.7,3,4.4,4.1c1.3,0.8,2.6,1.4,4,1.8c1.2,0.4,2.5,0.6,3.8,0.7
			c1.9,0,3.7-0.3,5.5-0.8c2.3-0.8,4.6-1.8,6.5-3.3c2.1-1.6,4-3.6,5.5-5.8c1-1.4,1.8-3,2.4-4.6C74.6,57.9,74.3,57.3,74.2,56.5z"/>
		<path fill-rule="evenodd" clip-rule="evenodd" fill="#FFFFFF" d="M43.2,47.3c-0.2,0-0.4,0.1-0.5,0.3c-0.1,0.2-0.3,0.7-0.5,1.4
			L40.5,56l-3.1,0L40,45.7l3.2,0l-0.3,0.9c0.3-0.4,0.7-0.7,1.1-0.8c0.4-0.2,0.8-0.3,1.2-0.3c0.5,0,0.9,0.1,1.2,0.4
			c0.3,0.3,0.4,0.6,0.4,1c0,0.4-0.1,1-0.3,1.9l-1.8,7.2l-3.1,0l1.8-7.1c0.2-0.7,0.3-1.1,0.3-1.3C43.5,47.4,43.4,47.3,43.2,47.3"/>
		<path fill-rule="evenodd" clip-rule="evenodd" fill="#FFFFFF" d="M52.5,47.2c0-0.2-0.1-0.3-0.3-0.3c-0.2,0-0.4,0.1-0.5,0.2
			c-0.1,0.1-0.2,0.5-0.4,1.2l-0.2,0.8l1,0l0.2-0.8C52.4,47.7,52.5,47.4,52.5,47.2 M55,50.9l-4.4,0L50,53.4c-0.1,0.5-0.2,0.8-0.1,1
			c0,0.2,0.1,0.2,0.3,0.2c0.3,0,0.4-0.1,0.6-0.3c0.1-0.2,0.3-0.6,0.4-1.1l0.4-1.5l3.2,0l-0.2,0.8c-0.2,0.7-0.4,1.2-0.5,1.6
			c-0.2,0.4-0.5,0.8-0.9,1.2c-0.4,0.4-0.9,0.7-1.5,1c-0.5,0.2-1.2,0.3-1.9,0.3c-0.7,0-1.3-0.1-1.8-0.3c-0.5-0.2-0.9-0.5-1.1-0.8
			c-0.2-0.4-0.3-0.8-0.3-1.2c0-0.4,0.1-1.1,0.3-1.9l0.8-3.3c0.3-1,0.6-1.7,1-2.3c0.4-0.6,1-1,1.6-1.3c0.7-0.3,1.4-0.5,2.2-0.5
			c0.9,0,1.7,0.2,2.2,0.5c0.5,0.4,0.8,0.8,0.9,1.4c0.1,0.6,0,1.4-0.3,2.5L55,50.9z"/>
		<path fill-rule="evenodd" clip-rule="evenodd" fill="#FFFFFF" d="M65.6,45.1l2.9,0l-4.3,11.2l-3.7,0c0.2-1.4,0.4-3.2,0.7-5.4
			l-1.2,3l-1,2.4l-3.7,0L57,45.1l2.9,0L59,51.5l2.4-6.4l2.8,0l-1,6.4C63.8,49.6,64.6,47.5,65.6,45.1"/>
		<path fill-rule="evenodd" clip-rule="evenodd" fill="#FFFFFF" d="M73.2,47.1c0-0.2-0.1-0.3-0.3-0.3c-0.2,0-0.4,0.1-0.5,0.2
			c-0.1,0.1-0.2,0.5-0.4,1.2l-0.2,0.8l1,0l0.2-0.8C73.1,47.7,73.2,47.3,73.2,47.1 M75.7,50.8l-4.4,0l-0.6,2.4
			c-0.1,0.5-0.2,0.8-0.1,1c0,0.2,0.1,0.2,0.3,0.2c0.3,0,0.4-0.1,0.6-0.3c0.1-0.2,0.3-0.6,0.4-1.1l0.4-1.5l3.2,0l-0.2,0.8
			c-0.2,0.7-0.4,1.2-0.5,1.6c-0.2,0.4-0.5,0.8-0.9,1.2c-0.4,0.4-0.9,0.7-1.5,1c-0.5,0.2-1.2,0.3-1.9,0.3c-0.7,0-1.3-0.1-1.8-0.3
			c-0.5-0.2-0.9-0.5-1.1-0.8c-0.2-0.4-0.3-0.8-0.3-1.2c0-0.4,0.1-1.1,0.3-1.9l0.8-3.3c0.3-1,0.6-1.7,1-2.3c0.4-0.6,1-1,1.6-1.3
			c0.7-0.3,1.4-0.5,2.2-0.5c0.9,0,1.7,0.2,2.2,0.5c0.5,0.4,0.8,0.8,0.9,1.4c0.1,0.6,0,1.4-0.3,2.5L75.7,50.8z"/>
		<path fill-rule="evenodd" clip-rule="evenodd" fill="#FFFFFF" d="M86.1,44.9l-2.2,8.6c-0.3,1.2-0.5,1.9-0.7,2.3
			c-0.1,0.4-0.4,0.7-0.9,1.1c-0.4,0.4-0.9,0.7-1.6,0.9c-0.6,0.2-1.4,0.3-2.3,0.3c-1.1,0-1.9-0.2-2.5-0.5c-0.6-0.4-0.7-1.1-0.4-2.2
			l3.3,0c-0.1,0.5,0,0.7,0.3,0.7c0.3,0,0.4-0.1,0.6-0.2c0.1-0.2,0.3-0.5,0.4-1l0.2-0.9c-0.4,0.3-0.7,0.5-1.1,0.6
			c-0.4,0.1-0.7,0.2-1.1,0.2c-0.6,0-1.1-0.1-1.4-0.4c-0.3-0.3-0.5-0.6-0.6-1c0-0.4,0-1,0.2-1.7l1.1-4c0.3-1.1,0.7-1.8,1.2-2.3
			c0.5-0.5,1.1-0.7,1.9-0.7c0.4,0,0.8,0.1,1.1,0.3c0.3,0.2,0.6,0.4,0.7,0.8l0.4-0.8L86.1,44.9 M82.1,46.9c0-0.1-0.1-0.2-0.3-0.2
			c-0.2,0-0.3,0.1-0.5,0.2c-0.1,0.2-0.2,0.5-0.4,1l-1,3.8c-0.1,0.5-0.2,0.8-0.2,1c0,0.2,0.1,0.2,0.3,0.2c0.2,0,0.4-0.1,0.5-0.3
			c0.1-0.2,0.3-0.6,0.4-1.2l0.9-3.5C82,47.4,82.1,47,82.1,46.9z"/>
		<path fill-rule="evenodd" clip-rule="evenodd" fill="#FFFFFF" d="M95,44.8l-2.2,8.6c-0.3,1.2-0.5,1.9-0.7,2.3
			c-0.1,0.3-0.4,0.7-0.9,1.1c-0.4,0.4-0.9,0.7-1.6,0.9c-0.6,0.2-1.4,0.3-2.3,0.3c-1.1,0-1.9-0.2-2.5-0.5c-0.6-0.4-0.7-1.1-0.4-2.2
			l3.3,0c-0.1,0.5,0,0.7,0.3,0.7c0.3,0,0.4-0.1,0.6-0.2c0.1-0.2,0.3-0.5,0.4-1l0.2-0.9c-0.3,0.3-0.7,0.5-1.1,0.6
			c-0.4,0.1-0.7,0.2-1.1,0.2c-0.6,0-1.1-0.1-1.4-0.3c-0.3-0.3-0.5-0.6-0.6-1c0-0.4,0-1,0.2-1.7l1.1-4c0.3-1.1,0.7-1.8,1.2-2.3
			c0.5-0.5,1.1-0.7,1.9-0.7c0.4,0,0.8,0.1,1.1,0.3c0.3,0.2,0.6,0.4,0.7,0.8l0.4-0.8L95,44.8 M91,46.8c0-0.1-0.1-0.2-0.3-0.2
			c-0.2,0-0.4,0.1-0.5,0.2c-0.1,0.2-0.2,0.5-0.4,1l-1,3.8c-0.1,0.5-0.2,0.8-0.2,1c0,0.2,0.1,0.2,0.3,0.2c0.2,0,0.4-0.1,0.5-0.3
			c0.1-0.2,0.3-0.6,0.4-1.2l0.9-3.5C91,47.3,91,46.9,91,46.8z"/>
		<path fill="#FFFFFF" d="M45.1,44.3l0.1,0c1,0,1.6,0.4,2,0.7c0.3,0.3,0.5,0.6,0.6,0.9c0.5-0.7,1.2-1.2,2-1.6
			c0.8-0.4,1.7-0.6,2.7-0.6l0.1,0c1.2,0,2.1,0.3,2.8,0.8c0.1,0.1,0.2,0.2,0.3,0.3l0.1-0.8l5.4-0.1v0l9.1-0.1l-0.3,0.7
			c0.1-0.1,0.3-0.2,0.4-0.2c0.8-0.4,1.7-0.6,2.7-0.6l0.1,0c1.2,0,2.1,0.3,2.8,0.8c0.4,0.3,0.7,0.6,1,1c0.2-0.3,0.3-0.5,0.5-0.7
			c0-1,0-1.9-0.1-2.8c-0.1-0.6-0.2-1.2-0.2-1.7c0-0.7-0.3-1.5-0.5-2.1c-0.3-1-0.6-2.1-1.1-2.9c-0.2-0.5-0.5-0.9-0.8-1.4
			c-0.3-0.6-0.7-1.1-1.2-1.7c-1.8-2.1-4.3-3.3-7.1-3.7c-0.8-0.1-1.5-0.1-2.3-0.1c-2.3,0.1-4.5,0.6-6.6,1.4c-1.7,0.7-3.4,1.6-5.1,2.7
			c-2,1.3-3.9,2.8-5.6,4.5c-1.7,1.7-3.2,3.4-4.3,5.3c-0.5,0.7-0.9,1.5-1.2,2.2l2.4,0C44.3,44.3,44.7,44.3,45.1,44.3z"/>
	</g>
</g>
</svg>
