<?xml version="1.0" encoding="utf-8"?>
<!-- Generator: Adobe Illustrator 17.0.0, SVG Export Plug-In . SVG Version: 6.00 Build 0)  -->
<!DOCTYPE svg PUBLIC "-//W3C//DTD SVG 1.1//EN" "http://www.w3.org/Graphics/SVG/1.1/DTD/svg11.dtd">
<svg version="1.1" xmlns="http://www.w3.org/2000/svg" xmlns:xlink="http://www.w3.org/1999/xlink" x="0px" y="0px" width="100px"
	 height="100px" viewBox="0 0 100 100" enable-background="new 0 0 100 100" xml:space="preserve">
<g id="Layer_2" display="none">
	<rect display="inline" fill="#B3B3B3" width="100" height="100"/>
</g>
<g id="Layer_1">
	<g>
		<g>
			<path fill-rule="evenodd" clip-rule="evenodd" fill="#FFFFFF" d="M5,6v48.7c3-7.5,6.9-14.4,13.4-20.5c10.1-9.6,22-14.3,35.7-14.3
				c8.5,0,15.4,2.8,20.7,8.4c5.3,5.6,7.9,12.9,7.9,21.9c0,13.1-5,24.3-15.1,33.8c-4.7,4.4-9.7,8-15.2,10H95V6H5z"/>
		</g>
		<path fill="#FFFFFF" d="M22.5,84.9C18,79,15.7,71.5,15.7,62.5c0-10.9,2.9-19.9,8.8-27.2c5.9-7.3,13.2-10.9,22-10.9
			c6.9,0,12.7,3,17.3,8.9c4.6,5.9,6.9,13.4,6.9,22.5c0,10.8-2.9,19.8-8.8,27.1C56,90.2,48.7,93.8,40,93.8
			C32.9,93.8,27.1,90.9,22.5,84.9z"/>
	</g>
</g>
</svg>
