<?xml version="1.0" encoding="utf-8"?>
<!-- Generator: Adobe Illustrator 17.0.0, SVG Export Plug-In . SVG Version: 6.00 Build 0)  -->
<!DOCTYPE svg PUBLIC "-//W3C//DTD SVG 1.1//EN" "http://www.w3.org/Graphics/SVG/1.1/DTD/svg11.dtd">
<svg version="1.1" xmlns="http://www.w3.org/2000/svg" xmlns:xlink="http://www.w3.org/1999/xlink" x="0px" y="0px" width="100px"
	 height="100px" viewBox="0 0 100 100" enable-background="new 0 0 100 100" xml:space="preserve">
<g id="Layer_2" display="none">
	<rect display="inline" fill="#B3B3B3" width="100" height="100"/>
</g>
<g id="Layer_1">
	<path fill-rule="evenodd" clip-rule="evenodd" fill="#FFFFFF" d="M94.6,42.4c-0.6-4-7.6-6.5-18.2-7.1c-13.2-0.7-39.8,2.5-57.1,9.8
		c0.4-0.1,0.8-0.1,1.2-0.1c1.3,0,3.2,0.3,3.2,2.4V48h-2.3c0,0,0-0.4,0-0.6c0-0.5-0.3-0.9-0.9-0.9c-0.6,0-0.8,0.3-0.9,0.6
		c0,0.1,0,0.3,0,0.5c0.3,1.1,3.8,1.7,4.2,3.7c0,0.2,0.1,0.7,0,1.5c-0.2,1.6-1.6,2.1-3.3,2.1c-1.8,0-3.4-0.6-3.4-2.7v-0.7h2.5l0,0.9
		c0,0.5,0.4,0.9,0.9,0.9c0.6,0,0.8-0.3,0.9-0.6c0-0.2,0.1-0.5,0-0.7c-0.5-1.2-3.8-1.8-4.2-3.7c-0.1-0.5-0.1-0.8,0-1.3
		c0.1-0.6,0.4-1.1,0.8-1.4c-4.3,1.9-8,4.1-10.6,6.6c-2,1.9-3.1,3.7-2.8,5.4c0.5,3.1,4,4.8,9.1,5.9c8.4,1.8,22.5,1.6,36.7-0.7
		c10.8-1.7,21.7-4.5,30-8.2c-0.3,0.1-0.7,0.1-1.1,0.1c-1.7,0-3.1-0.6-3.3-2.3c0-0.3,0-0.4,0-0.6V48c0-0.2,0-0.5,0-0.6
		c0.2-1.8,1.6-2.3,3.3-2.3c1.7,0,3.1,0.6,3.3,2.3c0,0.3,0,0.6,0,0.6v0.3h-2.4v-0.5c0,0,0-0.2,0-0.4c0-0.2-0.2-0.7-0.9-0.7
		c-0.7,0-0.9,0.5-0.9,0.7c0,0.1,0,0.3,0,0.4v4.3c0,0.1,0,0.3,0,0.4c0,0.3,0.3,0.7,1,0.7c0.7,0,0.9-0.4,1-0.7c0-0.1,0-0.2,0-0.4v-1.4
		h-1v-1.4h3.3v2.5c0,0.2,0,0.3,0,0.6c-0.1,0.7-0.3,1.2-0.8,1.6c3.5-1.6,6.5-3.4,8.7-5.3C93.2,46.8,95,44.5,94.6,42.4L94.6,42.4z
		 M63.2,45.3h-2.4v6.9c0,0.1,0,0.3,0,0.4c-0.1,0.2-0.2,0.7-0.9,0.7c-0.6,0-0.8-0.4-0.9-0.7c0-0.1,0-0.2,0-0.4v-6.9h-2.4V52
		c0,0.2,0,0.5,0,0.6c0.2,1.8,1.5,2.3,3.3,2.3c1.7,0,3.1-0.6,3.3-2.3c0-0.1,0-0.4,0-0.6V45.3L63.2,45.3z M41.4,45.3l-1.2,7.3L39,45.3
		h-3.8L35,54.7h2.3l0.1-8.7l1.6,8.7h2.4L43,46l0.1,8.7h2.3l-0.2-9.4H41.4L41.4,45.3z M27.2,45.3l-1.7,9.4H28l1.3-8.7l1.3,8.7h2.5
		l-1.7-9.4H27.2L27.2,45.3z M71.5,52.9l-2.2-7.5h-3.5v9.3h2.3L68,46.8l2.4,7.8h3.3v-9.3h-2.3L71.5,52.9L71.5,52.9z M50.2,47.7
		c0-0.2,0-0.4,0-0.5c0.1-0.3,0.3-0.6,0.8-0.6c0.5,0,0.9,0.3,0.9,0.8c0,0.2,0,0.6,0,0.6h2.3v-0.7c0-2-1.8-2.3-3.1-2.3
		c-1.7,0-3,0.5-3.2,2.1c-0.1,0.4-0.1,0.8,0,1.2c0.4,1.9,3.7,2.4,4.2,3.6c0.1,0.2,0.1,0.5,0,0.7c-0.1,0.3-0.3,0.6-0.9,0.6
		c-0.6,0-0.9-0.3-0.9-0.8l0-0.9h-2.5v0.7c0,2.1,1.6,2.7,3.4,2.7c1.7,0,3.1-0.6,3.3-2.1c0.1-0.8,0-1.3,0-1.5
		C54,49.4,50.5,48.8,50.2,47.7L50.2,47.7z"/>
</g>
</svg>
