<?xml version="1.0" encoding="utf-8"?>
<!-- Generator: Adobe Illustrator 17.0.0, SVG Export Plug-In . SVG Version: 6.00 Build 0)  -->
<!DOCTYPE svg PUBLIC "-//W3C//DTD SVG 1.1//EN" "http://www.w3.org/Graphics/SVG/1.1/DTD/svg11.dtd">
<svg version="1.1" xmlns="http://www.w3.org/2000/svg" xmlns:xlink="http://www.w3.org/1999/xlink" x="0px" y="0px" width="100px"
	 height="100px" viewBox="0 0 100 100" enable-background="new 0 0 100 100" xml:space="preserve">
<g id="Layer_2" display="none">
	<rect display="inline" fill="#B3B3B3" width="100" height="100"/>
</g>
<g id="Layer_1">
	<g>
		<path fill="#FFFFFF" d="M50,65.2c8.6,0,15.5-7,15.5-15.5c0-8.6-6.9-15.5-15.5-15.5c-8.6,0-15.5,7-15.5,15.5
			C34.5,58.3,41.4,65.2,50,65.2L50,65.2z M50,79.9c16.5,0,29.9-13.4,29.9-29.9c0-16.5-13.4-29.9-29.9-29.9
			c-16.5,0-29.9,13.4-29.9,29.9C20.1,66.5,33.5,79.9,50,79.9L50,79.9z M5,50C5,25.1,25.1,5,50,5c24.9,0,45,20.1,45,45
			c0,24.9-20.2,45-45,45C25.1,95,5,74.9,5,50L5,50z"/>
	</g>
</g>
</svg>
