<?xml version="1.0"?>
<!--Icons from directory ""-->
<svg xmlns="http://www.w3.org/2000/svg" width="94" height="1694" viewBox="0 0 94 1694"><svg xmlns:xlink="http://www.w3.org/1999/xlink" id="200" xml:space="preserve" height="77" viewBox="0 0 93.543 76.535" width="94" version="1.1" y="0" x="0px" enable-background="new 0 0 93.543 76.535"><rect y=".282" x="-.228" height="75.971" width="94" fill="none"/>			<path d="m50.671 61.238c-0.336 0-0.642-0.229-0.726-0.57-0.098-0.401 0.148-0.806 0.549-0.904l6.626-1.623-2.237-6.444c-0.069-0.199-0.051-0.418 0.05-0.603s0.275-0.319 0.479-0.369l6.624-1.62-2.238-6.442c-0.069-0.199-0.051-0.418 0.05-0.603s0.275-0.319 0.479-0.369l7.422-1.815c0.404-0.099 0.806 0.148 0.904 0.549s-0.148 0.806-0.549 0.904l-6.624 1.62 2.238 6.442c0.069 0.199 0.051 0.418-0.05 0.603-0.1 0.185-0.275 0.319-0.479 0.369l-6.624 1.62 2.237 6.443c0.069 0.199 0.051 0.418-0.05 0.603-0.1 0.185-0.275 0.319-0.479 0.369l-7.424 1.818c-0.059 0.014-0.119 0.022-0.178 0.022z" fill="#FAB611"/>			<path d="m28.451 61.321c-0.145 0-0.292-0.035-0.429-0.107-0.447-0.237-0.617-0.792-0.379-1.239l11.11-20.919c0.237-0.447 0.791-0.617 1.239-0.379 0.447 0.237 0.617 0.792 0.379 1.239l-11.11 20.919c-0.164 0.31-0.481 0.486-0.81 0.486z" fill="#fff"/>			<path d="m35.566 61.321c-0.145 0-0.292-0.035-0.429-0.107-0.447-0.237-0.617-0.792-0.379-1.239l10.47-19.717c0.237-0.447 0.791-0.617 1.239-0.38 0.447 0.237 0.617 0.792 0.379 1.239l-10.47 19.717c-0.164 0.311-0.482 0.487-0.81 0.487z" fill="#fff"/>				<path d="m42.681 61.321c-0.145 0-0.292-0.035-0.429-0.107-0.447-0.237-0.617-0.792-0.379-1.239l13.52-25.457c0.237-0.447 0.79-0.617 1.239-0.379 0.447 0.237 0.617 0.792 0.379 1.239l-13.52 25.457c-0.165 0.31-0.482 0.486-0.81 0.486z" fill="#fff"/>			<path d="m66.772 41.385c-3.977 0-7.711-1.837-10.165-4.855-2.013 2.487-4.887 4.179-8.108 4.691-0.675 0.109-1.371 0.164-2.066 0.164-1.963 0-3.853-0.425-5.618-1.263-1.626-0.775-3.053-1.857-4.219-3.189-2.458 2.795-6.028 4.451-9.83 4.451-7.216 0-13.086-5.869-13.086-13.084 0-7.216 5.87-13.087 13.086-13.087 3.803 0 7.375 1.658 9.832 4.456 2.458-2.798 6.031-4.456 9.835-4.456 3.976 0 7.713 1.839 10.17 4.86 2.454-3.021 6.19-4.86 10.168-4.86 7.218 0 13.09 5.871 13.09 13.087 0.001 7.216-5.871 13.085-13.089 13.085zm-10.166-10.099h0.001c0.707 0 1.352 0.408 1.654 1.048 1.551 3.272 4.892 5.387 8.511 5.387 5.197 0 9.425-4.225 9.425-9.419 0-5.195-4.228-9.422-9.425-9.422-3.619 0-6.959 2.115-8.51 5.388-0.303 0.639-0.947 1.047-1.655 1.048h-0.001c-0.707 0-1.352-0.407-1.655-1.046-1.556-3.275-4.899-5.39-8.516-5.39-3.414 0-6.569 1.856-8.234 4.844-0.324 0.58-0.936 0.94-1.601 0.94s-1.277-0.36-1.601-0.94c-1.665-2.988-4.819-4.843-8.232-4.843-5.195 0-9.421 4.227-9.421 9.422 0 5.194 4.226 9.419 9.421 9.419 3.412 0 6.567-1.855 8.232-4.841 0.323-0.58 0.936-0.94 1.6-0.94s1.277 0.359 1.6 0.94c0.963 1.726 2.412 3.086 4.19 3.934 1.268 0.602 2.629 0.907 4.044 0.907 0.5 0 1-0.04 1.487-0.118 3.064-0.487 5.691-2.457 7.03-5.271 0.305-0.641 0.949-1.047 1.656-1.047z" fill="#fff"/></svg><svg xmlns:xlink="http://www.w3.org/1999/xlink" id="201" xml:space="preserve" height="77" viewBox="0 0 93.543 76.535" width="94" version="1.1" y="77" x="0px" enable-background="new 0 0 93.543 76.535"><rect y=".282" x="-.228" height="75.971" width="94" fill="none"/>			<path d="m50.671 61.238c-0.336 0-0.642-0.229-0.726-0.57-0.098-0.401 0.148-0.806 0.549-0.904l6.626-1.622-2.237-6.444c-0.069-0.199-0.051-0.418 0.05-0.603s0.275-0.319 0.479-0.369l6.624-1.62-2.238-6.442c-0.069-0.199-0.051-0.418 0.05-0.603s0.275-0.319 0.479-0.369l7.422-1.814c0.402-0.097 0.806 0.148 0.904 0.549s-0.148 0.806-0.549 0.904l-6.624 1.619 2.238 6.442c0.069 0.199 0.051 0.418-0.05 0.603s-0.275 0.319-0.479 0.369l-6.624 1.62 2.237 6.444c0.069 0.199 0.051 0.418-0.05 0.603-0.1 0.185-0.275 0.319-0.479 0.369l-7.424 1.818c-0.059 0.012-0.119 0.02-0.178 0.02z" fill="#FAB611"/>			<path d="m15.72 61.321c-0.145 0-0.292-0.035-0.429-0.107-0.447-0.237-0.617-0.792-0.379-1.239l10.594-19.943c0.237-0.446 0.792-0.617 1.239-0.379 0.447 0.237 0.617 0.792 0.379 1.239l-10.594 19.943c-0.165 0.31-0.482 0.486-0.81 0.486z" fill="#fff"/>			<path d="m22.834 61.321c-0.145 0-0.292-0.035-0.429-0.107-0.447-0.237-0.617-0.792-0.379-1.239l12.646-23.81c0.237-0.446 0.791-0.617 1.239-0.379 0.447 0.237 0.617 0.792 0.379 1.239l-12.646 23.81c-0.164 0.31-0.482 0.486-0.81 0.486z" fill="#fff"/>			<path d="m29.947 61.321c-0.145 0-0.292-0.035-0.429-0.107-0.447-0.237-0.617-0.792-0.379-1.239l11.11-20.919c0.237-0.446 0.791-0.618 1.239-0.379 0.447 0.237 0.617 0.792 0.379 1.239l-11.11 20.919c-0.164 0.31-0.482 0.486-0.81 0.486z" fill="#fff"/>			<path d="m37.062 61.321c-0.145 0-0.292-0.035-0.429-0.107-0.447-0.237-0.617-0.792-0.379-1.239l10.47-19.717c0.237-0.447 0.79-0.617 1.239-0.38 0.447 0.237 0.617 0.792 0.379 1.239l-10.47 19.717c-0.165 0.311-0.482 0.487-0.81 0.487z" fill="#fff"/>				<path d="m44.176 61.321c-0.145 0-0.292-0.035-0.429-0.107-0.447-0.237-0.617-0.792-0.379-1.239l13.52-25.457c0.237-0.446 0.79-0.618 1.239-0.379 0.447 0.237 0.617 0.792 0.379 1.239l-13.52 25.457c-0.164 0.31-0.482 0.486-0.81 0.486z" fill="#fff"/>			<path d="m66.772 41.385c-3.977 0-7.711-1.837-10.165-4.855-2.013 2.487-4.887 4.179-8.108 4.691-0.675 0.109-1.371 0.164-2.066 0.164-1.963 0-3.853-0.425-5.618-1.263-1.626-0.775-3.053-1.857-4.219-3.189-2.458 2.795-6.028 4.451-9.83 4.451-7.216 0-13.086-5.869-13.086-13.084 0-7.216 5.87-13.087 13.086-13.087 3.803 0 7.375 1.658 9.832 4.456 2.458-2.798 6.031-4.456 9.835-4.456 3.976 0 7.713 1.839 10.17 4.86 2.454-3.021 6.19-4.86 10.168-4.86 7.218 0 13.09 5.871 13.09 13.087 0.001 7.216-5.871 13.085-13.089 13.085zm-10.166-10.099h0.001c0.707 0 1.352 0.408 1.654 1.048 1.551 3.272 4.892 5.387 8.511 5.387 5.197 0 9.425-4.225 9.425-9.419 0-5.195-4.228-9.422-9.425-9.422-3.619 0-6.959 2.115-8.51 5.388-0.303 0.639-0.947 1.047-1.655 1.048h-0.001c-0.707 0-1.352-0.407-1.655-1.046-1.556-3.275-4.899-5.39-8.516-5.39-3.414 0-6.569 1.856-8.234 4.844-0.324 0.58-0.936 0.94-1.601 0.94s-1.277-0.36-1.601-0.94c-1.665-2.988-4.819-4.843-8.232-4.843-5.195 0-9.421 4.227-9.421 9.422 0 5.194 4.226 9.419 9.421 9.419 3.412 0 6.567-1.855 8.232-4.841 0.323-0.58 0.936-0.94 1.6-0.94s1.277 0.359 1.6 0.94c0.963 1.726 2.412 3.086 4.19 3.934 1.268 0.602 2.629 0.907 4.044 0.907 0.5 0 1-0.04 1.487-0.118 3.064-0.487 5.691-2.457 7.03-5.271 0.305-0.641 0.949-1.047 1.656-1.047z" fill="#fff"/></svg><svg xmlns:xlink="http://www.w3.org/1999/xlink" id="210" xml:space="preserve" height="77" viewBox="0 0 93.543 76.535" width="94" version="1.1" y="154" x="0px" enable-background="new 0 0 93.543 76.535"><rect y=".282" x="-.228" height="75.971" width="94" fill="none"/>			<path d="m27.264 61.349c-0.336 0-0.642-0.229-0.726-0.57-0.098-0.401 0.148-0.806 0.549-0.904l6.626-1.622-2.238-6.444c-0.069-0.199-0.051-0.418 0.05-0.603s0.275-0.319 0.479-0.369l6.624-1.62-2.238-6.442c-0.069-0.199-0.051-0.418 0.05-0.603s0.275-0.319 0.479-0.369l7.422-1.815c0.401-0.098 0.806 0.148 0.904 0.549s-0.148 0.806-0.549 0.904l-6.624 1.62 2.238 6.442c0.069 0.199 0.051 0.418-0.05 0.603s-0.275 0.319-0.479 0.369l-6.624 1.62 2.238 6.444c0.069 0.199 0.051 0.418-0.05 0.603-0.1 0.185-0.275 0.319-0.479 0.369l-7.424 1.818c-0.059 0.013-0.119 0.02-0.178 0.02z" fill="#FAB611"/>			<path d="m66.775 41.358c-3.979 0-7.716-1.839-10.171-4.859-2.455 3.02-6.192 4.859-10.17 4.859-3.802 0-7.375-1.658-9.834-4.454-2.457 2.796-6.029 4.454-9.834 4.454-7.215 0-13.085-5.87-13.085-13.085 0-7.216 5.869-13.087 13.085-13.087 3.806 0 7.378 1.658 9.834 4.455 2.459-2.797 6.031-4.455 9.834-4.455 3.978 0 7.715 1.839 10.17 4.859 2.455-3.02 6.192-4.859 10.171-4.859 7.216 0 13.087 5.871 13.087 13.087 0 7.215-5.871 13.085-13.087 13.085zm-10.17-10.1c0.708 0 1.352 0.408 1.656 1.047 1.553 3.273 4.895 5.388 8.515 5.388 5.195 0 9.422-4.226 9.422-9.42 0-5.195-4.226-9.422-9.422-9.422-3.619 0-6.962 2.115-8.515 5.388-0.303 0.639-0.948 1.047-1.656 1.047-0.707 0-1.352-0.407-1.655-1.046-1.554-3.273-4.896-5.388-8.515-5.388-3.412 0-6.568 1.856-8.235 4.844-0.324 0.58-0.936 0.94-1.6 0.94h-0.001c-0.665 0-1.277-0.361-1.6-0.941-1.662-2.987-4.816-4.842-8.231-4.842-5.194 0-9.42 4.227-9.42 9.422 0 5.194 4.226 9.42 9.42 9.42 3.414 0 6.569-1.855 8.232-4.841 0.323-0.581 0.935-0.941 1.6-0.941h0.001c0.664 0 1.276 0.359 1.6 0.939 1.667 2.987 4.823 4.842 8.235 4.842 3.619 0 6.961-2.115 8.515-5.388 0.302-0.641 0.946-1.048 1.654-1.048z" fill="#fff"/></svg><svg xmlns:xlink="http://www.w3.org/1999/xlink" id="212" xml:space="preserve" height="77" viewBox="0 0 93.543 76.535" width="94" version="1.1" y="231" x="0px" enable-background="new 0 0 93.543 76.535"><rect y=".282" x="-.228" height="75.971" width="94" fill="none"/>			<path d="m27.264 61.048c-0.336 0-0.642-0.229-0.726-0.57-0.098-0.401 0.148-0.806 0.549-0.904l6.626-1.622-2.237-6.444c-0.069-0.199-0.051-0.418 0.05-0.603s0.275-0.319 0.479-0.369l6.624-1.62-2.239-6.442c-0.069-0.199-0.051-0.418 0.05-0.603s0.275-0.319 0.479-0.369l7.423-1.814c0.403-0.098 0.806 0.147 0.904 0.549 0.098 0.401-0.148 0.806-0.549 0.904l-6.624 1.619 2.239 6.442c0.069 0.199 0.051 0.418-0.05 0.603s-0.275 0.319-0.479 0.369l-6.624 1.62 2.237 6.444c0.069 0.199 0.051 0.418-0.05 0.603-0.1 0.185-0.275 0.319-0.479 0.369l-7.424 1.818c-0.06 0.013-0.12 0.02-0.179 0.02z" fill="#FAB611"/>		<defs>			<rect id="212-SVGID_19_" y="39.224" x="18.111" height="22.427" width="21.188"/>		</defs>		<clipPath id="212-SVGID_2_">			<use overflow="visible" xlink:href="#212-SVGID_19_"/>		</clipPath>		<g clip-path="url(#212-SVGID_2_)">				<path d="m21.303 57.558c-0.336 0-0.642-0.229-0.726-0.57-0.098-0.401 0.148-0.806 0.549-0.904l6.626-1.622-2.237-6.444c-0.069-0.199-0.051-0.418 0.05-0.603s0.275-0.319 0.479-0.369l6.624-1.62-2.238-6.442c-0.069-0.199-0.051-0.418 0.05-0.603s0.275-0.319 0.479-0.369l7.422-1.814c0.401-0.099 0.806 0.147 0.904 0.549 0.098 0.401-0.148 0.806-0.549 0.904l-6.624 1.619 2.238 6.442c0.069 0.199 0.051 0.418-0.05 0.603s-0.275 0.319-0.479 0.369l-6.624 1.62 2.237 6.444c0.069 0.199 0.051 0.418-0.05 0.603-0.1 0.185-0.275 0.319-0.479 0.369l-7.424 1.818c-0.059 0.013-0.119 0.02-0.178 0.02z" fill="#FAB611"/>		</g>			<path d="m66.775 41.056c-3.979 0-7.716-1.839-10.171-4.859-2.455 3.02-6.192 4.859-10.17 4.859-3.802 0-7.375-1.658-9.834-4.454-2.457 2.796-6.029 4.454-9.834 4.454-7.215 0-13.085-5.87-13.085-13.085 0-7.216 5.869-13.087 13.085-13.087 3.806 0 7.378 1.658 9.834 4.455 2.459-2.797 6.031-4.455 9.834-4.455 3.978 0 7.715 1.839 10.17 4.859 2.455-3.02 6.192-4.859 10.171-4.859 7.216 0 13.087 5.871 13.087 13.087s-5.871 13.085-13.087 13.085zm-10.17-10.1c0.708 0 1.352 0.408 1.656 1.047 1.553 3.273 4.895 5.388 8.515 5.388 5.195 0 9.422-4.226 9.422-9.42 0-5.195-4.226-9.422-9.422-9.422-3.619 0-6.962 2.115-8.515 5.388-0.303 0.639-0.948 1.047-1.656 1.047-0.707 0-1.352-0.407-1.655-1.046-1.554-3.273-4.896-5.388-8.515-5.388-3.412 0-6.568 1.856-8.235 4.844-0.324 0.58-0.936 0.94-1.6 0.94h-0.001c-0.665 0-1.277-0.361-1.6-0.941-1.662-2.987-4.816-4.842-8.231-4.842-5.194 0-9.42 4.227-9.42 9.422 0 5.194 4.226 9.42 9.42 9.42 3.414 0 6.569-1.855 8.232-4.841 0.323-0.581 0.935-0.941 1.6-0.941h0.001c0.664 0 1.276 0.359 1.6 0.939 1.667 2.987 4.823 4.842 8.235 4.842 3.619 0 6.961-2.115 8.515-5.388 0.302-0.64 0.946-1.048 1.654-1.048z" fill="#fff"/></svg><svg xmlns:xlink="http://www.w3.org/1999/xlink" id="230" xml:space="preserve" height="77" viewBox="0 0 93.543 76.535" width="94" version="1.1" y="308" x="0px" enable-background="new 0 0 93.543 76.535"><rect y=".282" x="-.228" height="75.971" width="94" fill="none"/>					<path d="m50.672 61.333c-0.336 0-0.642-0.229-0.726-0.57-0.098-0.401 0.148-0.806 0.549-0.904l6.626-1.622-2.237-6.444c-0.069-0.199-0.051-0.418 0.05-0.603s0.275-0.319 0.479-0.369l6.624-1.62-2.238-6.442c-0.069-0.199-0.051-0.418 0.05-0.603s0.275-0.319 0.479-0.369l7.422-1.815c0.404-0.099 0.806 0.148 0.904 0.549s-0.148 0.806-0.549 0.904l-6.624 1.62 2.238 6.442c0.069 0.199 0.051 0.418-0.05 0.603s-0.275 0.319-0.479 0.369l-6.624 1.62 2.237 6.444c0.069 0.199 0.051 0.418-0.05 0.603-0.1 0.185-0.275 0.319-0.479 0.369l-7.424 1.818c-0.06 0.013-0.12 0.02-0.178 0.02z" fill="#FAB611"/>			<path d="m66.777 41.373c-3.627 0-6.999-1.45-9.494-4.084-0.237-0.25-0.463-0.508-0.679-0.775-2.456 3.02-6.193 4.859-10.171 4.859-3.801 0-7.372-1.658-9.831-4.455-2.473 2.812-6.055 4.455-9.833 4.455-7.216 0-13.087-5.87-13.087-13.087 0-7.215 5.87-13.085 13.087-13.085 3.803 0 7.375 1.658 9.833 4.454 2.458-2.796 6.03-4.454 9.831-4.454 3.98 0 7.718 1.839 10.173 4.859 2.455-3.02 6.192-4.859 10.171-4.859 7.214 0 13.084 5.87 13.084 13.085 0 7.217-5.87 13.087-13.084 13.087zm-10.171-10.103c0.707 0 1.352 0.407 1.655 1.046 0.428 0.902 0.994 1.726 1.681 2.451 1.797 1.897 4.224 2.941 6.834 2.941 5.193 0 9.419-4.227 9.419-9.422 0-5.194-4.225-9.42-9.419-9.42-3.62 0-6.963 2.115-8.515 5.389-0.303 0.64-0.948 1.047-1.656 1.047s-1.352-0.407-1.656-1.047c-1.553-3.274-4.896-5.389-8.517-5.389-3.41 0-6.564 1.855-8.231 4.841-0.324 0.58-0.936 0.939-1.6 0.939s-1.276-0.36-1.6-0.94c-1.666-2.986-4.82-4.84-8.232-4.84-5.195 0-9.422 4.226-9.422 9.42 0 5.195 4.226 9.422 9.422 9.422 3.061 0 5.945-1.5 7.714-4.014 0.175-0.249 0.345-0.52 0.519-0.833 0.324-0.579 0.936-0.937 1.599-0.937h0.001c0.664 0 1.276 0.36 1.599 0.94 1.666 2.988 4.82 4.844 8.231 4.844 3.62 0 6.963-2.116 8.517-5.391 0.305-0.639 0.949-1.047 1.657-1.047z" fill="#fff"/>		<path d="m36.167 54.621c-2.406 0-4.363-1.956-4.363-4.36 0-1.968 2.863-6.771 4.363-6.771 1.267 0 4.359 4.443 4.359 6.771 0 2.404-1.956 4.36-4.359 4.36zm-0.001-9.4c-0.818 0.769-2.755 3.645-2.755 5.04 0 1.518 1.236 2.753 2.756 2.753 1.518 0 2.752-1.235 2.752-2.753-0.001-1.394-1.935-4.27-2.753-5.04z" fill="#fff"/></svg><svg xmlns:xlink="http://www.w3.org/1999/xlink" id="231" xml:space="preserve" height="77" viewBox="0 0 93.543 76.535" width="94" version="1.1" y="385" x="0px" enable-background="new 0 0 93.543 76.535"><rect y=".282" x="-.228" height="75.971" width="94" fill="none"/>		<path d="m18.752 61.122c-0.116 0-0.234-0.028-0.343-0.086-0.358-0.19-0.494-0.634-0.304-0.991l1.871-3.522c0.19-0.358 0.634-0.494 0.991-0.303 0.358 0.19 0.494 0.634 0.304 0.991l-1.871 3.522c-0.132 0.247-0.385 0.389-0.648 0.389zm3.743-7.044c-0.116 0-0.234-0.028-0.343-0.086-0.358-0.19-0.494-0.634-0.304-0.991l1.871-3.522c0.19-0.358 0.634-0.494 0.991-0.303 0.358 0.19 0.494 0.634 0.304 0.991l-1.871 3.522c-0.132 0.247-0.386 0.389-0.648 0.389zm3.741-7.045c-0.116 0-0.234-0.028-0.343-0.086-0.358-0.19-0.494-0.634-0.304-0.991l1.709-3.216c0.19-0.358 0.634-0.493 0.991-0.303 0.358 0.19 0.494 0.634 0.304 0.991l-1.709 3.216c-0.131 0.248-0.385 0.389-0.648 0.389z" fill="#fff"/>		<path d="m25.683 61.122c-0.116 0-0.234-0.028-0.343-0.086-0.358-0.19-0.494-0.634-0.304-0.991l1.871-3.522c0.19-0.358 0.633-0.494 0.991-0.303 0.358 0.19 0.494 0.634 0.304 0.991l-1.871 3.522c-0.132 0.247-0.385 0.389-0.648 0.389zm3.743-7.044c-0.116 0-0.234-0.028-0.343-0.086-0.358-0.19-0.494-0.634-0.304-0.991l1.871-3.522c0.19-0.358 0.634-0.494 0.991-0.303 0.358 0.19 0.494 0.634 0.304 0.991l-1.871 3.522c-0.132 0.247-0.386 0.389-0.648 0.389zm3.742-7.045c-0.116 0-0.234-0.028-0.343-0.086-0.358-0.19-0.494-0.634-0.304-0.991l1.709-3.216c0.19-0.358 0.634-0.493 0.991-0.303 0.358 0.19 0.494 0.634 0.304 0.991l-1.709 3.216c-0.132 0.248-0.386 0.389-0.648 0.389z" fill="#fff"/>		<path d="m32.615 61.122c-0.116 0-0.234-0.028-0.343-0.086-0.358-0.19-0.494-0.634-0.304-0.991l1.871-3.522c0.19-0.358 0.634-0.494 0.991-0.303 0.358 0.19 0.494 0.634 0.304 0.991l-1.871 3.522c-0.132 0.247-0.386 0.389-0.648 0.389zm3.742-7.044c-0.116 0-0.234-0.028-0.343-0.086-0.358-0.19-0.494-0.634-0.304-0.991l1.871-3.522c0.19-0.358 0.633-0.494 0.991-0.303 0.358 0.19 0.494 0.634 0.304 0.991l-1.871 3.522c-0.132 0.247-0.385 0.389-0.648 0.389zm3.742-7.045c-0.116 0-0.234-0.028-0.343-0.086-0.358-0.19-0.494-0.634-0.304-0.991l1.709-3.216c0.19-0.358 0.634-0.493 0.991-0.303 0.358 0.19 0.494 0.634 0.304 0.991l-1.709 3.216c-0.132 0.248-0.385 0.389-0.648 0.389z" fill="#fff"/>		<path d="m39.546 61.122c-0.116 0-0.234-0.028-0.343-0.086-0.358-0.19-0.494-0.634-0.304-0.991l1.871-3.522c0.19-0.358 0.635-0.494 0.991-0.303 0.358 0.19 0.494 0.634 0.304 0.991l-1.871 3.522c-0.132 0.247-0.386 0.389-0.648 0.389zm3.742-7.044c-0.116 0-0.234-0.028-0.343-0.086-0.358-0.19-0.494-0.634-0.304-0.991l1.871-3.522c0.19-0.358 0.634-0.494 0.991-0.303 0.358 0.19 0.494 0.634 0.304 0.991l-1.871 3.522c-0.131 0.247-0.385 0.389-0.648 0.389zm3.742-7.045c-0.116 0-0.234-0.028-0.343-0.086-0.358-0.19-0.494-0.634-0.304-0.991l1.709-3.216c0.19-0.358 0.634-0.493 0.991-0.303 0.358 0.19 0.494 0.634 0.304 0.991l-1.709 3.216c-0.132 0.248-0.385 0.389-0.648 0.389z" fill="#fff"/>		<path d="m46.477 61.122c-0.116 0-0.234-0.028-0.343-0.086-0.358-0.19-0.494-0.634-0.304-0.991l1.871-3.522c0.19-0.358 0.634-0.494 0.991-0.303 0.358 0.19 0.494 0.634 0.304 0.991l-1.871 3.522c-0.132 0.247-0.385 0.389-0.648 0.389zm3.743-7.044c-0.116 0-0.234-0.028-0.343-0.086-0.358-0.19-0.494-0.634-0.304-0.991l1.871-3.522c0.19-0.358 0.635-0.494 0.991-0.303 0.358 0.19 0.494 0.634 0.304 0.991l-1.871 3.522c-0.132 0.247-0.386 0.389-0.648 0.389zm3.742-7.045c-0.116 0-0.234-0.028-0.343-0.086-0.358-0.19-0.494-0.634-0.304-0.991l1.709-3.216c0.19-0.358 0.633-0.493 0.991-0.303s0.494 0.634 0.304 0.991l-1.709 3.216c-0.132 0.248-0.386 0.389-0.648 0.389z" fill="#fff"/>				<path d="m50.671 61.333c-0.336 0-0.642-0.229-0.726-0.57-0.098-0.401 0.148-0.806 0.549-0.904l6.626-1.622-2.237-6.444c-0.069-0.199-0.051-0.418 0.05-0.603s0.275-0.319 0.479-0.369l6.624-1.62-2.238-6.442c-0.069-0.199-0.051-0.418 0.05-0.603s0.275-0.319 0.479-0.369l7.423-1.815c0.401-0.099 0.806 0.148 0.904 0.549s-0.148 0.806-0.549 0.904l-6.624 1.62 2.238 6.442c0.069 0.199 0.051 0.418-0.05 0.603s-0.275 0.319-0.479 0.369l-6.624 1.62 2.237 6.444c0.069 0.199 0.051 0.418-0.05 0.603-0.1 0.185-0.275 0.319-0.479 0.369l-7.424 1.818c-0.06 0.013-0.12 0.02-0.179 0.02z" fill="#FAB611"/>		<path d="m66.777 41.373c-3.627 0-6.999-1.45-9.494-4.084-0.237-0.25-0.463-0.508-0.679-0.774-2.456 3.02-6.193 4.859-10.171 4.859-3.802 0-7.373-1.658-9.831-4.455-2.473 2.812-6.054 4.455-9.833 4.455-7.216 0-13.087-5.87-13.087-13.087 0-7.215 5.87-13.085 13.087-13.085 3.803 0 7.375 1.657 9.832 4.454 2.459-2.796 6.03-4.454 9.831-4.454 3.98 0 7.718 1.839 10.173 4.859 2.455-3.02 6.192-4.859 10.171-4.859 7.214 0 13.084 5.87 13.084 13.085 0.001 7.216-5.869 13.086-13.083 13.086zm-10.171-10.103c0.707 0 1.352 0.407 1.655 1.046 0.428 0.901 0.994 1.726 1.681 2.451 1.797 1.896 4.224 2.941 6.834 2.941 5.193 0 9.419-4.227 9.419-9.422 0-5.194-4.225-9.42-9.419-9.42-3.62 0-6.963 2.115-8.515 5.389-0.303 0.64-0.948 1.047-1.656 1.047s-1.352-0.407-1.656-1.047c-1.553-3.274-4.896-5.389-8.517-5.389-3.41 0-6.565 1.855-8.232 4.841-0.324 0.58-0.936 0.939-1.6 0.939s-1.277-0.36-1.6-0.94c-1.666-2.985-4.819-4.84-8.232-4.84-5.195 0-9.422 4.226-9.422 9.42 0 5.195 4.226 9.422 9.422 9.422 3.061 0 5.944-1.5 7.713-4.014 0.178-0.252 0.347-0.523 0.518-0.831 0.324-0.58 0.936-0.939 1.6-0.939s1.277 0.36 1.6 0.94c1.666 2.988 4.821 4.844 8.232 4.844 3.62 0 6.963-2.116 8.517-5.391 0.306-0.639 0.95-1.047 1.658-1.047z" fill="#fff"/></svg><svg xmlns:xlink="http://www.w3.org/1999/xlink" id="300" xml:space="preserve" height="77" viewBox="0 0 93.543 76.535" width="94" version="1.1" y="462" x="0px" enable-background="new 0 0 93.543 76.535"><rect y=".282" x="-.228" height="75.971" width="94" fill="none"/>		<path d="m66.775 44.729c-3.979 0-7.716-1.84-10.17-4.86-2.457 3.02-6.194 4.86-10.172 4.86-3.802 0-7.374-1.658-9.833-4.456-2.457 2.798-6.029 4.456-9.832 4.456-7.215 0-13.084-5.87-13.084-13.085s5.869-13.086 13.084-13.086c3.803 0 7.375 1.658 9.832 4.455 2.459-2.797 6.031-4.455 9.833-4.455 3.978 0 7.716 1.839 10.172 4.859 2.454-3.02 6.191-4.859 10.17-4.859 7.215 0 13.085 5.87 13.085 13.086 0 7.215-5.87 13.085-13.085 13.085zm-10.169-10.102c0.708 0 1.352 0.408 1.656 1.047 1.553 3.274 4.894 5.389 8.514 5.389 5.194 0 9.42-4.226 9.42-9.42s-4.226-9.421-9.42-9.421c-3.62 0-6.962 2.115-8.514 5.388-0.303 0.639-0.947 1.047-1.655 1.047-0.707 0-1.352-0.407-1.655-1.046-1.555-3.273-4.898-5.388-8.517-5.388-3.411 0-6.566 1.855-8.233 4.842-0.324 0.58-0.936 0.939-1.6 0.939-0.665 0-1.277-0.36-1.6-0.94-1.665-2.986-4.818-4.842-8.231-4.842-5.194 0-9.419 4.226-9.419 9.421 0 5.194 4.225 9.42 9.419 9.42 3.413 0 6.567-1.856 8.231-4.843 0.323-0.58 0.936-0.94 1.6-0.94 0.665 0 1.277 0.36 1.6 0.94 1.667 2.988 4.822 4.843 8.233 4.843 3.619 0 6.962-2.116 8.517-5.39 0.302-0.638 0.946-1.046 1.654-1.046z" fill="#fff"/>		<path d="m36.165 57.977c-2.406 0-4.364-1.956-4.364-4.36 0-1.968 2.863-6.771 4.364-6.771 1.267 0 4.359 4.443 4.359 6.771 0 2.404-1.956 4.36-4.359 4.36zm0-9.4c-0.818 0.769-2.756 3.645-2.756 5.04 0 1.518 1.236 2.753 2.756 2.753 1.517 0 2.751-1.235 2.751-2.753 0-1.394-1.934-4.27-2.751-5.04z" fill="#fff"/></svg><svg xmlns:xlink="http://www.w3.org/1999/xlink" id="302" xml:space="preserve" height="77" viewBox="0 0 93.543 76.535" width="94" version="1.1" y="539" x="0px" enable-background="new 0 0 93.543 76.535"><rect y=".282" x="-.228" height="75.971" width="94" fill="none"/>		<path d="m66.777 41.479c-3.627 0-6.999-1.45-9.494-4.084-0.237-0.25-0.464-0.509-0.68-0.775-2.456 3.02-6.193 4.859-10.171 4.859-3.801 0-7.372-1.658-9.831-4.455-2.472 2.812-6.054 4.455-9.833 4.455-7.216 0-13.087-5.87-13.087-13.087 0-7.215 5.87-13.085 13.087-13.085 3.803 0 7.375 1.658 9.833 4.454 2.458-2.796 6.03-4.454 9.831-4.454 3.98 0 7.718 1.839 10.173 4.859 2.455-3.02 6.192-4.859 10.171-4.859 7.215 0 13.084 5.87 13.084 13.085 0.001 7.217-5.868 13.087-13.083 13.087zm-10.171-10.104c0.708 0 1.352 0.407 1.656 1.047 0.427 0.901 0.993 1.726 1.682 2.452 1.796 1.896 4.223 2.94 6.833 2.94 5.194 0 9.419-4.227 9.419-9.422 0-5.194-4.225-9.42-9.419-9.42-3.62 0-6.962 2.115-8.515 5.388-0.303 0.639-0.948 1.047-1.656 1.047-0.707 0-1.352-0.407-1.656-1.047-1.553-3.273-4.897-5.389-8.517-5.389-3.41 0-6.564 1.855-8.231 4.841-0.324 0.58-0.936 0.939-1.6 0.939s-1.276-0.36-1.6-0.94c-1.666-2.986-4.82-4.84-8.232-4.84-5.195 0-9.422 4.226-9.422 9.42 0 5.195 4.226 9.422 9.422 9.422 3.061 0 5.945-1.5 7.714-4.014 0.176-0.25 0.345-0.521 0.52-0.833 0.324-0.579 0.936-0.937 1.599-0.937h0.001c0.664 0 1.276 0.36 1.599 0.94 1.666 2.988 4.82 4.844 8.231 4.844 3.62 0 6.963-2.116 8.517-5.392 0.303-0.638 0.947-1.046 1.655-1.046z" fill="#fff"/>		<path d="m18.752 61.228c-0.116 0-0.234-0.028-0.343-0.086-0.358-0.19-0.494-0.634-0.304-0.991l1.871-3.522c0.19-0.358 0.633-0.493 0.991-0.303s0.494 0.634 0.304 0.991l-1.871 3.521c-0.132 0.248-0.386 0.39-0.648 0.39zm3.742-7.045c-0.116 0-0.234-0.028-0.344-0.086-0.357-0.19-0.493-0.634-0.303-0.991l1.871-3.522c0.19-0.358 0.633-0.493 0.992-0.303 0.357 0.19 0.493 0.634 0.303 0.991l-1.871 3.522c-0.132 0.248-0.385 0.389-0.648 0.389zm3.743-7.044c-0.116 0-0.234-0.028-0.343-0.086-0.358-0.19-0.494-0.634-0.304-0.991l1.709-3.216c0.19-0.358 0.635-0.494 0.991-0.303 0.358 0.19 0.494 0.634 0.304 0.991l-1.709 3.216c-0.132 0.248-0.386 0.389-0.648 0.389z" fill="#fff"/>		<path d="m25.683 61.228c-0.116 0-0.234-0.028-0.343-0.086-0.358-0.19-0.494-0.634-0.304-0.991l1.871-3.522c0.19-0.358 0.634-0.493 0.991-0.303 0.358 0.19 0.494 0.634 0.304 0.991l-1.871 3.522c-0.132 0.247-0.385 0.389-0.648 0.389zm3.743-7.045c-0.116 0-0.234-0.028-0.344-0.086-0.357-0.19-0.493-0.634-0.303-0.991l1.871-3.522c0.19-0.358 0.633-0.493 0.992-0.303 0.357 0.19 0.493 0.634 0.303 0.991l-1.871 3.522c-0.132 0.248-0.386 0.389-0.648 0.389zm3.742-7.044c-0.116 0-0.234-0.028-0.343-0.086-0.358-0.19-0.494-0.634-0.304-0.991l1.709-3.216c0.19-0.358 0.634-0.494 0.991-0.303 0.358 0.19 0.494 0.634 0.304 0.991l-1.709 3.216c-0.132 0.248-0.386 0.389-0.648 0.389z" fill="#fff"/>		<path d="m32.614 61.228c-0.116 0-0.234-0.028-0.343-0.086-0.358-0.19-0.494-0.634-0.304-0.991l1.871-3.522c0.19-0.358 0.633-0.493 0.991-0.303s0.494 0.634 0.304 0.991l-1.871 3.522c-0.131 0.247-0.385 0.389-0.648 0.389zm3.743-7.045c-0.116 0-0.234-0.028-0.344-0.086-0.357-0.19-0.493-0.634-0.303-0.991l1.871-3.522c0.19-0.358 0.632-0.493 0.992-0.303 0.357 0.19 0.493 0.634 0.303 0.991l-1.871 3.522c-0.132 0.248-0.386 0.389-0.648 0.389zm3.742-7.044c-0.116 0-0.234-0.028-0.343-0.086-0.358-0.19-0.494-0.634-0.304-0.991l1.709-3.216c0.19-0.358 0.634-0.494 0.991-0.303 0.358 0.19 0.494 0.634 0.304 0.991l-1.709 3.216c-0.132 0.248-0.385 0.389-0.648 0.389z" fill="#fff"/>		<path d="m39.546 61.228c-0.116 0-0.234-0.028-0.343-0.086-0.358-0.19-0.494-0.634-0.304-0.991l1.871-3.522c0.19-0.358 0.634-0.493 0.991-0.303 0.358 0.19 0.494 0.634 0.304 0.991l-1.871 3.522c-0.132 0.247-0.386 0.389-0.648 0.389zm3.742-7.045c-0.116 0-0.234-0.028-0.344-0.086-0.357-0.19-0.493-0.634-0.303-0.991l1.871-3.522c0.19-0.358 0.633-0.493 0.992-0.303 0.357 0.19 0.493 0.634 0.303 0.991l-1.871 3.522c-0.132 0.248-0.385 0.389-0.648 0.389zm3.743-7.044c-0.116 0-0.234-0.028-0.343-0.086-0.358-0.19-0.494-0.634-0.304-0.991l1.709-3.216c0.19-0.358 0.633-0.494 0.991-0.303 0.358 0.19 0.494 0.634 0.304 0.991l-1.709 3.216c-0.132 0.248-0.386 0.389-0.648 0.389z" fill="#fff"/>		<path d="m46.477 61.228c-0.116 0-0.234-0.028-0.343-0.086-0.358-0.19-0.494-0.634-0.304-0.991l1.871-3.522c0.19-0.358 0.635-0.493 0.991-0.303 0.358 0.19 0.494 0.634 0.304 0.991l-1.871 3.522c-0.132 0.247-0.385 0.389-0.648 0.389zm3.743-7.045c-0.116 0-0.234-0.028-0.344-0.086-0.357-0.19-0.493-0.634-0.303-0.991l1.871-3.522c0.19-0.358 0.632-0.493 0.992-0.303 0.357 0.19 0.493 0.634 0.303 0.991l-1.871 3.522c-0.132 0.248-0.386 0.389-0.648 0.389zm3.742-7.044c-0.116 0-0.234-0.028-0.343-0.086-0.358-0.19-0.494-0.634-0.304-0.991l1.709-3.216c0.19-0.358 0.634-0.494 0.991-0.303 0.358 0.19 0.494 0.634 0.304 0.991l-1.709 3.216c-0.132 0.248-0.386 0.389-0.648 0.389z" fill="#fff"/>		<path d="m53.408 61.228c-0.116 0-0.234-0.028-0.343-0.086-0.358-0.19-0.494-0.634-0.304-0.991l1.871-3.522c0.19-0.358 0.634-0.493 0.991-0.303 0.358 0.19 0.494 0.634 0.304 0.991l-1.871 3.522c-0.132 0.247-0.385 0.389-0.648 0.389zm3.743-7.045c-0.116 0-0.234-0.028-0.344-0.086-0.357-0.19-0.493-0.634-0.303-0.991l1.871-3.522c0.19-0.358 0.633-0.493 0.992-0.303 0.357 0.19 0.493 0.634 0.303 0.991l-1.871 3.522c-0.132 0.248-0.386 0.389-0.648 0.389zm3.742-7.044c-0.116 0-0.234-0.028-0.343-0.086-0.358-0.19-0.494-0.634-0.304-0.991l1.709-3.216c0.19-0.358 0.633-0.494 0.991-0.303 0.358 0.19 0.494 0.634 0.304 0.991l-1.709 3.216c-0.132 0.248-0.385 0.389-0.648 0.389z" fill="#fff"/></svg><svg xmlns:xlink="http://www.w3.org/1999/xlink" id="312" xml:space="preserve" height="77" viewBox="0 0 93.543 76.535" width="94" version="1.1" y="616" x="0px" enable-background="new 0 0 93.543 76.535"><rect y=".282" x="-.228" height="75.971" width="94" fill="none"/>		<path d="m18.003 61.106c-0.116 0-0.234-0.028-0.343-0.086-0.358-0.19-0.494-0.634-0.304-0.991l11.527-21.699c0.19-0.358 0.634-0.493 0.991-0.303 0.358 0.19 0.494 0.634 0.304 0.991l-11.527 21.699c-0.132 0.247-0.386 0.389-0.648 0.389z" fill="#fff"/>		<path d="m25.117 61.106c-0.116 0-0.234-0.028-0.343-0.086-0.358-0.19-0.494-0.634-0.304-0.991l12.938-24.36c0.19-0.358 0.634-0.494 0.991-0.304 0.358 0.19 0.494 0.634 0.304 0.991l-12.938 24.36c-0.132 0.248-0.385 0.39-0.648 0.39z" fill="#fff"/>		<path d="m32.233 61.106c-0.116 0-0.234-0.028-0.343-0.086-0.358-0.19-0.494-0.634-0.304-0.991l11.35-21.37c0.19-0.358 0.634-0.494 0.991-0.303 0.358 0.19 0.494 0.634 0.304 0.991l-11.35 21.37c-0.132 0.247-0.386 0.389-0.648 0.389z" fill="#fff"/>		<path d="m39.344 61.106c-0.116 0-0.234-0.028-0.343-0.086-0.358-0.19-0.494-0.634-0.304-0.991l10.765-20.265c0.19-0.358 0.635-0.494 0.991-0.303 0.358 0.19 0.494 0.634 0.304 0.991l-10.765 20.265c-0.132 0.247-0.386 0.389-0.648 0.389z" fill="#fff"/>			<path d="m46.458 61.106c-0.116 0-0.234-0.028-0.343-0.086-0.358-0.19-0.494-0.634-0.304-0.991l12.676-23.863c0.19-0.358 0.634-0.494 0.991-0.303 0.358 0.19 0.494 0.634 0.304 0.991l-12.676 23.863c-0.132 0.247-0.385 0.389-0.648 0.389z" fill="#fff"/>			<path d="m53.572 61.349c-0.111 0-0.223-0.025-0.329-0.078-0.362-0.182-0.507-0.623-0.325-0.984l10.629-21.116c0.182-0.362 0.623-0.506 0.984-0.325 0.362 0.182 0.507 0.623 0.325 0.984l-10.628 21.116c-0.129 0.256-0.387 0.403-0.656 0.403z" fill="#fff"/>		<path d="m66.777 41.357c-3.627 0-6.999-1.45-9.494-4.084-0.237-0.25-0.463-0.509-0.679-0.775-2.456 3.02-6.193 4.859-10.171 4.859-3.802 0-7.373-1.658-9.831-4.455-2.472 2.812-6.054 4.455-9.833 4.455-7.216 0-13.087-5.87-13.087-13.087 0-7.215 5.87-13.085 13.087-13.085 3.803 0 7.375 1.657 9.832 4.454 2.459-2.796 6.03-4.454 9.831-4.454 3.98 0 7.718 1.839 10.173 4.859 2.455-3.02 6.192-4.859 10.171-4.859 7.214 0 13.084 5.87 13.084 13.085 0.001 7.217-5.869 13.087-13.083 13.087zm-10.171-10.103c0.708 0 1.352 0.407 1.656 1.047 0.427 0.901 0.993 1.725 1.681 2.452 1.796 1.896 4.223 2.94 6.834 2.94 5.193 0 9.419-4.227 9.419-9.422 0-5.194-4.225-9.42-9.419-9.42-3.62 0-6.962 2.115-8.515 5.388-0.303 0.639-0.948 1.047-1.656 1.047-0.707 0-1.352-0.407-1.656-1.047-1.553-3.273-4.897-5.389-8.517-5.389-3.41 0-6.565 1.855-8.232 4.841-0.324 0.58-0.936 0.939-1.6 0.939s-1.277-0.36-1.6-0.94c-1.666-2.985-4.819-4.84-8.232-4.84-5.195 0-9.422 4.226-9.422 9.42 0 5.195 4.226 9.422 9.422 9.422 3.061 0 5.944-1.5 7.713-4.014 0.178-0.252 0.347-0.524 0.519-0.831 0.324-0.58 0.936-0.939 1.6-0.939 0.665 0 1.277 0.36 1.6 0.94 1.666 2.988 4.821 4.844 8.232 4.844 3.62 0 6.963-2.116 8.517-5.392 0.304-0.639 0.948-1.046 1.656-1.046z" fill="#fff"/></svg><svg xmlns:xlink="http://www.w3.org/1999/xlink" id="600" xml:space="preserve" height="77" viewBox="0 0 93.543 76.535" width="94" version="1.1" y="693" x="0px" enable-background="new 0 0 93.543 76.535"><rect y=".282" x="-.228" height="75.971" width="94" fill="none"/>		<path d="m66.777 42.279c-3.98 0-7.718-1.84-10.172-4.86-2.457 3.02-6.195 4.86-10.171 4.86-3.804 0-7.376-1.658-9.832-4.456-2.459 2.798-6.031 4.456-9.833 4.456-7.216 0-13.087-5.87-13.087-13.085s5.87-13.085 13.087-13.085c3.802 0 7.374 1.658 9.833 4.455 2.457-2.797 6.028-4.455 9.832-4.455 3.977 0 7.714 1.839 10.171 4.86 2.454-3.02 6.192-4.86 10.172-4.86 7.215 0 13.084 5.87 13.084 13.085s-5.869 13.085-13.084 13.085zm-10.17-10.1c0.708 0 1.353 0.408 1.656 1.047 1.552 3.273 4.894 5.388 8.515 5.388 5.194 0 9.419-4.226 9.419-9.42s-4.225-9.42-9.419-9.42c-3.621 0-6.963 2.115-8.515 5.388-0.303 0.639-0.947 1.047-1.655 1.047h-0.001c-0.707 0-1.352-0.407-1.655-1.046-1.557-3.274-4.9-5.389-8.518-5.389-3.413 0-6.567 1.855-8.23 4.842-0.324 0.581-0.936 0.941-1.6 0.941h-0.001c-0.664 0-1.277-0.359-1.6-0.939-1.667-2.988-4.822-4.844-8.234-4.844-5.195 0-9.422 4.226-9.422 9.42s4.226 9.42 9.422 9.42c3.411 0 6.566-1.856 8.234-4.844 0.324-0.58 0.936-0.939 1.6-0.939h0.001c0.665 0 1.277 0.36 1.6 0.941 1.663 2.987 4.817 4.842 8.23 4.842 3.617 0 6.961-2.116 8.518-5.39 0.304-0.638 0.948-1.045 1.655-1.045z" fill="#fff"/>				<path d="m40.807 58.652c-0.235 0-0.469-0.089-0.648-0.268l-8.904-8.904c-0.358-0.358-0.358-0.938 0-1.296s0.938-0.358 1.296 0l8.904 8.904c0.358 0.358 0.358 0.938 0 1.296-0.179 0.178-0.413 0.268-0.648 0.268z" fill="#fff"/>				<path d="m31.903 58.652c-0.235 0-0.469-0.089-0.648-0.268-0.358-0.358-0.358-0.938 0-1.296l8.904-8.904c0.358-0.358 0.938-0.358 1.296 0s0.358 0.938 0 1.296l-8.904 8.904c-0.179 0.178-0.413 0.268-0.648 0.268z" fill="#fff"/>			<path d="m42.5 54.134h-12.771c-0.506 0-0.916-0.41-0.916-0.916s0.41-0.916 0.916-0.916h12.771c0.506 0 0.916 0.41 0.916 0.916s-0.41 0.916-0.916 0.916z" fill="#fff"/>			<path d="m36.216 60.427c-0.506 0-0.916-0.41-0.916-0.916v-12.587c0-0.506 0.41-0.916 0.916-0.916s0.916 0.41 0.916 0.916v12.586c0 0.507-0.41 0.917-0.916 0.917z" fill="#fff"/></svg><svg xmlns:xlink="http://www.w3.org/1999/xlink" id="601" xml:space="preserve" height="77" viewBox="0 0 93.543 76.535" width="94" version="1.1" y="770" x="0px" enable-background="new 0 0 93.543 76.535"><rect y=".282" x="-.228" height="75.971" width="94" fill="none"/>		<path d="m66.776 39.296c-3.979 0-7.716-1.839-10.171-4.858-2.454 3.019-6.191 4.858-10.17 4.858-3.803 0-7.376-1.658-9.834-4.454-2.457 2.797-6.03 4.454-9.835 4.454-7.215 0-13.085-5.87-13.085-13.085 0-7.216 5.869-13.087 13.085-13.087 3.805 0 7.378 1.658 9.835 4.455 2.458-2.797 6.03-4.455 9.834-4.455 3.979 0 7.715 1.839 10.17 4.858 2.455-3.02 6.192-4.858 10.171-4.858 7.216 0 13.086 5.871 13.086 13.087s-5.87 13.085-13.086 13.085zm-10.171-10.1c0.708 0 1.352 0.408 1.656 1.047 1.552 3.273 4.895 5.388 8.516 5.388 5.195 0 9.421-4.226 9.421-9.42 0-5.195-4.226-9.422-9.421-9.422-3.62 0-6.962 2.115-8.516 5.388-0.303 0.639-0.948 1.047-1.656 1.047s-1.352-0.408-1.656-1.047c-1.552-3.273-4.894-5.388-8.514-5.388-3.413 0-6.569 1.856-8.234 4.843-0.324 0.58-0.936 0.94-1.601 0.94s-1.277-0.36-1.601-0.941c-1.663-2.987-4.818-4.842-8.233-4.842-5.194 0-9.42 4.227-9.42 9.422 0 5.194 4.226 9.42 9.42 9.42 3.415 0 6.57-1.855 8.234-4.841 0.324-0.58 0.936-0.94 1.6-0.94 0.665 0 1.277 0.359 1.601 0.94 1.666 2.986 4.821 4.841 8.234 4.841 3.621 0 6.962-2.115 8.513-5.388 0.304-0.639 0.948-1.047 1.657-1.047z" fill="#fff"/>						<rect y="59.457" x="50.069" height="3.954" width="4.004" fill="none"/>								<path d="m53.365 62.921c-0.062 0-0.124-0.024-0.171-0.071l-2.455-2.455c-0.094-0.094-0.094-0.248 0-0.342s0.247-0.094 0.342 0l2.455 2.455c0.094 0.094 0.094 0.248 0 0.342-0.047 0.047-0.109 0.071-0.171 0.071z" fill="#fff"/>								<path d="m50.91 62.921c-0.062 0-0.124-0.024-0.171-0.071-0.094-0.094-0.094-0.248 0-0.342l2.455-2.455c0.094-0.094 0.247-0.094 0.342 0 0.094 0.094 0.094 0.248 0 0.342l-2.455 2.455c-0.047 0.047-0.109 0.071-0.171 0.071z" fill="#fff"/>							<path d="m53.831 61.676h-3.52c-0.133 0-0.242-0.108-0.242-0.242s0.109-0.242 0.242-0.242h3.52c0.133 0 0.242 0.108 0.242 0.242s-0.108 0.242-0.242 0.242z" fill="#fff"/>							<path d="m52.1 63.411c-0.133 0-0.242-0.108-0.242-0.242v-3.47c0-0.134 0.109-0.242 0.242-0.242s0.242 0.108 0.242 0.242v3.47c0 0.133-0.109 0.242-0.242 0.242z" fill="#fff"/>						<rect y="54.904" x="52.36" height="3.954" width="4.004" fill="none"/>								<path d="m55.656 58.368c-0.062 0-0.124-0.024-0.171-0.071l-2.455-2.455c-0.094-0.094-0.094-0.248 0-0.342s0.247-0.094 0.342 0l2.455 2.455c0.094 0.094 0.094 0.248 0 0.342-0.047 0.048-0.109 0.071-0.171 0.071z" fill="#fff"/>								<path d="m53.202 58.368c-0.062 0-0.124-0.024-0.171-0.071-0.094-0.094-0.094-0.248 0-0.342l2.455-2.455c0.094-0.094 0.247-0.094 0.342 0 0.094 0.094 0.094 0.248 0 0.342l-2.455 2.455c-0.048 0.048-0.11 0.071-0.171 0.071z" fill="#fff"/>							<path d="m56.123 57.123h-3.52c-0.133 0-0.242-0.108-0.242-0.242s0.109-0.242 0.242-0.242h3.52c0.133 0 0.242 0.108 0.242 0.242s-0.109 0.242-0.242 0.242z" fill="#fff"/>							<path d="m54.391 58.858c-0.133 0-0.242-0.108-0.242-0.242v-3.47c0-0.134 0.109-0.242 0.242-0.242s0.242 0.108 0.242 0.242v3.47c0 0.134-0.109 0.242-0.242 0.242z" fill="#fff"/>						<rect y="50.352" x="54.651" height="3.954" width="4.004" fill="none"/>								<path d="m57.947 53.816c-0.062 0-0.124-0.024-0.171-0.071l-2.455-2.455c-0.094-0.094-0.094-0.248 0-0.342s0.247-0.094 0.342 0l2.455 2.455c0.094 0.094 0.094 0.248 0 0.342-0.047 0.048-0.109 0.071-0.171 0.071z" fill="#fff"/>								<path d="m55.493 53.816c-0.062 0-0.124-0.024-0.171-0.071-0.094-0.094-0.094-0.248 0-0.342l2.455-2.455c0.094-0.094 0.247-0.094 0.342 0 0.094 0.094 0.094 0.248 0 0.342l-2.455 2.455c-0.048 0.048-0.11 0.071-0.171 0.071z" fill="#fff"/>							<path d="m58.414 52.571h-3.52c-0.133 0-0.242-0.108-0.242-0.242s0.109-0.242 0.242-0.242h3.52c0.133 0 0.242 0.108 0.242 0.242s-0.109 0.242-0.242 0.242z" fill="#fff"/>							<path d="m56.682 54.306c-0.133 0-0.242-0.108-0.242-0.242v-3.47c0-0.134 0.109-0.242 0.242-0.242s0.242 0.108 0.242 0.242v3.47c0 0.134-0.109 0.242-0.242 0.242z" fill="#fff"/>						<rect y="45.8" x="56.943" height="3.954" width="4.004" fill="none"/>								<path d="m60.238 49.264c-0.062 0-0.124-0.024-0.171-0.071l-2.455-2.455c-0.094-0.094-0.094-0.248 0-0.342s0.247-0.094 0.342 0l2.455 2.455c0.094 0.094 0.094 0.248 0 0.342-0.047 0.047-0.109 0.071-0.171 0.071z" fill="#fff"/>								<path d="m57.784 49.264c-0.062 0-0.124-0.024-0.171-0.071-0.094-0.094-0.094-0.248 0-0.342l2.455-2.455c0.094-0.094 0.247-0.094 0.342 0 0.094 0.094 0.094 0.248 0 0.342l-2.455 2.455c-0.048 0.047-0.109 0.071-0.171 0.071z" fill="#fff"/>							<path d="m60.705 48.019h-3.52c-0.133 0-0.242-0.108-0.242-0.242s0.109-0.242 0.242-0.242h3.52c0.133 0 0.242 0.108 0.242 0.242s-0.109 0.242-0.242 0.242z" fill="#fff"/>							<path d="m58.973 49.754c-0.133 0-0.242-0.108-0.242-0.242v-3.47c0-0.134 0.109-0.242 0.242-0.242s0.242 0.108 0.242 0.242v3.47c0 0.134-0.108 0.242-0.242 0.242z" fill="#fff"/>						<rect y="41.248" x="59.234" height="3.954" width="4.004" fill="none"/>								<path d="m62.53 44.712c-0.062 0-0.124-0.024-0.171-0.071l-2.455-2.455c-0.094-0.094-0.094-0.248 0-0.342s0.247-0.094 0.342 0l2.455 2.455c0.094 0.094 0.094 0.248 0 0.342-0.048 0.047-0.11 0.071-0.171 0.071z" fill="#fff"/>								<path d="m60.075 44.712c-0.062 0-0.124-0.024-0.171-0.071-0.094-0.094-0.094-0.248 0-0.342l2.455-2.455c0.094-0.094 0.247-0.094 0.342 0 0.094 0.094 0.094 0.248 0 0.342l-2.455 2.455c-0.047 0.047-0.109 0.071-0.171 0.071z" fill="#fff"/>							<path d="m62.996 43.466h-3.52c-0.133 0-0.242-0.108-0.242-0.242s0.109-0.242 0.242-0.242h3.52c0.133 0 0.242 0.108 0.242 0.242s-0.109 0.242-0.242 0.242z" fill="#fff"/>							<path d="m61.264 45.202c-0.133 0-0.242-0.108-0.242-0.242v-3.47c0-0.134 0.109-0.242 0.242-0.242s0.242 0.108 0.242 0.242v3.47c0 0.133-0.108 0.242-0.242 0.242z" fill="#fff"/>						<rect y="59.457" x="41.989" height="3.954" width="4.004" fill="none"/>								<path d="m45.285 62.921c-0.062 0-0.124-0.024-0.171-0.071l-2.455-2.455c-0.094-0.094-0.094-0.248 0-0.342s0.247-0.094 0.342 0l2.455 2.455c0.094 0.094 0.094 0.248 0 0.342-0.047 0.047-0.109 0.071-0.171 0.071z" fill="#fff"/>								<path d="m42.831 62.921c-0.062 0-0.124-0.024-0.171-0.071-0.094-0.094-0.094-0.248 0-0.342l2.455-2.455c0.094-0.094 0.247-0.094 0.342 0 0.094 0.094 0.094 0.248 0 0.342l-2.455 2.455c-0.048 0.047-0.11 0.071-0.171 0.071z" fill="#fff"/>							<path d="m45.752 61.676h-3.52c-0.133 0-0.242-0.108-0.242-0.242s0.109-0.242 0.242-0.242h3.52c0.133 0 0.242 0.108 0.242 0.242s-0.109 0.242-0.242 0.242z" fill="#fff"/>							<path d="m44.02 63.411c-0.133 0-0.242-0.108-0.242-0.242v-3.47c0-0.134 0.109-0.242 0.242-0.242s0.242 0.108 0.242 0.242v3.47c0 0.133-0.109 0.242-0.242 0.242z" fill="#fff"/>						<rect y="54.904" x="44.281" height="3.954" width="4.004" fill="none"/>								<path d="m47.576 58.368c-0.062 0-0.124-0.024-0.171-0.071l-2.455-2.455c-0.094-0.094-0.094-0.248 0-0.342s0.247-0.094 0.342 0l2.455 2.455c0.094 0.094 0.094 0.248 0 0.342-0.047 0.048-0.109 0.071-0.171 0.071z" fill="#fff"/>								<path d="m45.122 58.368c-0.062 0-0.124-0.024-0.171-0.071-0.094-0.094-0.094-0.248 0-0.342l2.455-2.455c0.094-0.094 0.247-0.094 0.342 0 0.094 0.094 0.094 0.248 0 0.342l-2.455 2.455c-0.048 0.048-0.109 0.071-0.171 0.071z" fill="#fff"/>							<path d="m48.043 57.123h-3.52c-0.133 0-0.242-0.108-0.242-0.242s0.109-0.242 0.242-0.242h3.52c0.133 0 0.242 0.108 0.242 0.242s-0.109 0.242-0.242 0.242z" fill="#fff"/>							<path d="m46.311 58.858c-0.133 0-0.242-0.108-0.242-0.242v-3.47c0-0.134 0.109-0.242 0.242-0.242s0.242 0.108 0.242 0.242v3.47c0 0.134-0.109 0.242-0.242 0.242z" fill="#fff"/>						<rect y="50.352" x="46.572" height="3.954" width="4.004" fill="none"/>								<path d="m49.868 53.816c-0.062 0-0.124-0.024-0.171-0.071l-2.455-2.455c-0.094-0.094-0.094-0.248 0-0.342s0.247-0.094 0.342 0l2.455 2.455c0.094 0.094 0.094 0.248 0 0.342-0.048 0.048-0.11 0.071-0.171 0.071z" fill="#fff"/>								<path d="m47.413 53.816c-0.062 0-0.124-0.024-0.171-0.071-0.094-0.094-0.094-0.248 0-0.342l2.455-2.455c0.094-0.094 0.247-0.094 0.342 0 0.094 0.094 0.094 0.248 0 0.342l-2.455 2.455c-0.048 0.048-0.109 0.071-0.171 0.071z" fill="#fff"/>							<path d="m50.334 52.571h-3.52c-0.133 0-0.242-0.108-0.242-0.242s0.109-0.242 0.242-0.242h3.52c0.133 0 0.242 0.108 0.242 0.242s-0.109 0.242-0.242 0.242z" fill="#fff"/>							<path d="m48.602 54.306c-0.133 0-0.242-0.108-0.242-0.242v-3.47c0-0.134 0.109-0.242 0.242-0.242s0.242 0.108 0.242 0.242v3.47c0 0.134-0.108 0.242-0.242 0.242z" fill="#fff"/>						<rect y="45.8" x="48.863" height="3.954" width="4.004" fill="none"/>								<path d="m52.159 49.264c-0.062 0-0.124-0.024-0.171-0.071l-2.455-2.455c-0.094-0.094-0.094-0.248 0-0.342s0.247-0.094 0.342 0l2.455 2.455c0.094 0.094 0.094 0.248 0 0.342-0.048 0.047-0.109 0.071-0.171 0.071z" fill="#fff"/>								<path d="m49.704 49.264c-0.062 0-0.124-0.024-0.171-0.071-0.094-0.094-0.094-0.248 0-0.342l2.455-2.455c0.094-0.094 0.247-0.094 0.342 0 0.094 0.094 0.094 0.248 0 0.342l-2.455 2.455c-0.047 0.047-0.109 0.071-0.171 0.071z" fill="#fff"/>							<path d="m52.625 48.019h-3.52c-0.133 0-0.242-0.108-0.242-0.242s0.109-0.242 0.242-0.242h3.52c0.133 0 0.242 0.108 0.242 0.242s-0.109 0.242-0.242 0.242z" fill="#fff"/>							<path d="m50.893 49.754c-0.133 0-0.242-0.108-0.242-0.242v-3.47c0-0.134 0.109-0.242 0.242-0.242s0.242 0.108 0.242 0.242v3.47c0 0.134-0.108 0.242-0.242 0.242z" fill="#fff"/>						<rect y="41.248" x="51.154" height="3.954" width="4.004" fill="none"/>								<path d="m54.45 44.712c-0.062 0-0.124-0.024-0.171-0.071l-2.455-2.455c-0.094-0.094-0.094-0.248 0-0.342s0.247-0.094 0.342 0l2.455 2.455c0.094 0.094 0.094 0.248 0 0.342-0.048 0.047-0.109 0.071-0.171 0.071z" fill="#fff"/>								<path d="m51.995 44.712c-0.062 0-0.124-0.024-0.171-0.071-0.094-0.094-0.094-0.248 0-0.342l2.455-2.455c0.094-0.094 0.247-0.094 0.342 0 0.094 0.094 0.094 0.248 0 0.342l-2.455 2.455c-0.047 0.047-0.109 0.071-0.171 0.071z" fill="#fff"/>							<path d="m54.916 43.466h-3.52c-0.133 0-0.242-0.108-0.242-0.242s0.109-0.242 0.242-0.242h3.52c0.133 0 0.242 0.108 0.242 0.242s-0.108 0.242-0.242 0.242z" fill="#fff"/>							<path d="m53.184 45.202c-0.133 0-0.242-0.108-0.242-0.242v-3.47c0-0.134 0.109-0.242 0.242-0.242s0.242 0.108 0.242 0.242v3.47c0 0.133-0.108 0.242-0.242 0.242z" fill="#fff"/>						<rect y="59.457" x="33.911" height="3.954" width="4.004" fill="none"/>								<path d="m37.206 62.921c-0.062 0-0.124-0.024-0.171-0.071l-2.455-2.455c-0.094-0.094-0.094-0.248 0-0.342s0.247-0.094 0.342 0l2.455 2.455c0.094 0.094 0.094 0.248 0 0.342-0.047 0.047-0.109 0.071-0.171 0.071z" fill="#fff"/>								<path d="m34.752 62.921c-0.062 0-0.124-0.024-0.171-0.071-0.094-0.094-0.094-0.248 0-0.342l2.455-2.455c0.094-0.094 0.247-0.094 0.342 0 0.094 0.094 0.094 0.248 0 0.342l-2.455 2.455c-0.048 0.047-0.109 0.071-0.171 0.071z" fill="#fff"/>							<path d="m37.673 61.676h-3.52c-0.133 0-0.242-0.108-0.242-0.242s0.109-0.242 0.242-0.242h3.52c0.133 0 0.242 0.108 0.242 0.242s-0.109 0.242-0.242 0.242z" fill="#fff"/>							<path d="m35.941 63.411c-0.133 0-0.242-0.108-0.242-0.242v-3.47c0-0.134 0.109-0.242 0.242-0.242s0.242 0.108 0.242 0.242v3.47c0 0.133-0.108 0.242-0.242 0.242z" fill="#fff"/>						<rect y="54.904" x="36.202" height="3.954" width="4.004" fill="none"/>								<path d="m39.498 58.368c-0.062 0-0.124-0.024-0.171-0.071l-2.455-2.455c-0.094-0.094-0.094-0.248 0-0.342s0.247-0.094 0.342 0l2.455 2.455c0.094 0.094 0.094 0.248 0 0.342-0.048 0.048-0.11 0.071-0.171 0.071z" fill="#fff"/>								<path d="m37.043 58.368c-0.062 0-0.124-0.024-0.171-0.071-0.094-0.094-0.094-0.248 0-0.342l2.455-2.455c0.094-0.094 0.247-0.094 0.342 0 0.094 0.094 0.094 0.248 0 0.342l-2.455 2.455c-0.047 0.048-0.109 0.071-0.171 0.071z" fill="#fff"/>							<path d="m39.964 57.123h-3.52c-0.133 0-0.242-0.108-0.242-0.242s0.109-0.242 0.242-0.242h3.52c0.133 0 0.242 0.108 0.242 0.242s-0.109 0.242-0.242 0.242z" fill="#fff"/>							<path d="m38.232 58.858c-0.133 0-0.242-0.108-0.242-0.242v-3.47c0-0.134 0.109-0.242 0.242-0.242s0.242 0.108 0.242 0.242v3.47c0 0.134-0.108 0.242-0.242 0.242z" fill="#fff"/>						<rect y="50.352" x="38.493" height="3.954" width="4.004" fill="none"/>								<path d="m41.789 53.816c-0.062 0-0.124-0.024-0.171-0.071l-2.455-2.455c-0.094-0.094-0.094-0.248 0-0.342s0.247-0.094 0.342 0l2.455 2.455c0.094 0.094 0.094 0.248 0 0.342-0.048 0.048-0.109 0.071-0.171 0.071z" fill="#fff"/>								<path d="m39.334 53.816c-0.062 0-0.124-0.024-0.171-0.071-0.094-0.094-0.094-0.248 0-0.342l2.455-2.455c0.094-0.094 0.247-0.094 0.342 0 0.094 0.094 0.094 0.248 0 0.342l-2.455 2.455c-0.047 0.048-0.109 0.071-0.171 0.071z" fill="#fff"/>							<path d="m42.255 52.571h-3.52c-0.133 0-0.242-0.108-0.242-0.242s0.109-0.242 0.242-0.242h3.52c0.133 0 0.242 0.108 0.242 0.242s-0.108 0.242-0.242 0.242z" fill="#fff"/>							<path d="m40.523 54.306c-0.133 0-0.242-0.108-0.242-0.242v-3.47c0-0.134 0.109-0.242 0.242-0.242s0.242 0.108 0.242 0.242v3.47c0 0.134-0.108 0.242-0.242 0.242z" fill="#fff"/>						<rect y="45.8" x="40.784" height="3.954" width="4.004" fill="none"/>								<path d="m44.08 49.264c-0.062 0-0.124-0.024-0.171-0.071l-2.455-2.455c-0.094-0.094-0.094-0.248 0-0.342s0.247-0.094 0.342 0l2.455 2.455c0.094 0.094 0.094 0.248 0 0.342-0.047 0.047-0.109 0.071-0.171 0.071z" fill="#fff"/>								<path d="m41.625 49.264c-0.062 0-0.124-0.024-0.171-0.071-0.094-0.094-0.094-0.248 0-0.342l2.455-2.455c0.094-0.094 0.247-0.094 0.342 0 0.094 0.094 0.094 0.248 0 0.342l-2.455 2.455c-0.047 0.047-0.109 0.071-0.171 0.071z" fill="#fff"/>							<path d="m44.546 48.019h-3.52c-0.133 0-0.242-0.108-0.242-0.242s0.109-0.242 0.242-0.242h3.52c0.133 0 0.242 0.108 0.242 0.242s-0.108 0.242-0.242 0.242z" fill="#fff"/>							<path d="m42.815 49.754c-0.133 0-0.242-0.108-0.242-0.242v-3.47c0-0.134 0.109-0.242 0.242-0.242s0.242 0.108 0.242 0.242v3.47c-0.001 0.134-0.109 0.242-0.242 0.242z" fill="#fff"/>						<rect y="41.248" x="43.075" height="3.954" width="4.004" fill="none"/>								<path d="m46.371 44.712c-0.062 0-0.124-0.024-0.171-0.071l-2.455-2.455c-0.094-0.094-0.094-0.248 0-0.342s0.247-0.094 0.342 0l2.455 2.455c0.094 0.094 0.094 0.248 0 0.342-0.047 0.047-0.109 0.071-0.171 0.071z" fill="#fff"/>								<path d="m43.916 44.712c-0.062 0-0.124-0.024-0.171-0.071-0.094-0.094-0.094-0.248 0-0.342l2.455-2.455c0.094-0.094 0.247-0.094 0.342 0 0.094 0.094 0.094 0.248 0 0.342l-2.455 2.455c-0.047 0.047-0.109 0.071-0.171 0.071z" fill="#fff"/>							<path d="m46.837 43.466h-3.52c-0.133 0-0.242-0.108-0.242-0.242s0.109-0.242 0.242-0.242h3.52c0.133 0 0.242 0.108 0.242 0.242s-0.108 0.242-0.242 0.242z" fill="#fff"/>							<path d="m45.106 45.202c-0.133 0-0.242-0.108-0.242-0.242v-3.47c0-0.134 0.109-0.242 0.242-0.242s0.242 0.108 0.242 0.242v3.47c0 0.133-0.109 0.242-0.242 0.242z" fill="#fff"/>						<rect y="59.457" x="25.831" height="3.954" width="4.004" fill="none"/>								<path d="m29.127 62.921c-0.062 0-0.124-0.024-0.171-0.071l-2.455-2.455c-0.094-0.094-0.094-0.248 0-0.342s0.247-0.094 0.342 0l2.455 2.455c0.094 0.094 0.094 0.248 0 0.342-0.048 0.047-0.109 0.071-0.171 0.071z" fill="#fff"/>								<path d="m26.672 62.921c-0.062 0-0.124-0.024-0.171-0.071-0.094-0.094-0.094-0.248 0-0.342l2.455-2.455c0.094-0.094 0.247-0.094 0.342 0 0.094 0.094 0.094 0.248 0 0.342l-2.455 2.455c-0.047 0.047-0.109 0.071-0.171 0.071z" fill="#fff"/>							<path d="m29.593 61.676h-3.52c-0.133 0-0.242-0.108-0.242-0.242s0.109-0.242 0.242-0.242h3.52c0.133 0 0.242 0.108 0.242 0.242s-0.109 0.242-0.242 0.242z" fill="#fff"/>							<path d="m27.861 63.411c-0.133 0-0.242-0.108-0.242-0.242v-3.47c0-0.134 0.109-0.242 0.242-0.242s0.242 0.108 0.242 0.242v3.47c0 0.133-0.108 0.242-0.242 0.242z" fill="#fff"/>						<rect y="54.904" x="28.122" height="3.954" width="4.004" fill="none"/>								<path d="m31.418 58.368c-0.062 0-0.124-0.024-0.171-0.071l-2.455-2.455c-0.094-0.094-0.094-0.248 0-0.342s0.247-0.094 0.342 0l2.455 2.455c0.094 0.094 0.094 0.248 0 0.342-0.048 0.048-0.109 0.071-0.171 0.071z" fill="#fff"/>								<path d="m28.963 58.368c-0.062 0-0.124-0.024-0.171-0.071-0.094-0.094-0.094-0.248 0-0.342l2.455-2.455c0.094-0.094 0.247-0.094 0.342 0 0.094 0.094 0.094 0.248 0 0.342l-2.455 2.455c-0.047 0.048-0.109 0.071-0.171 0.071z" fill="#fff"/>							<path d="m31.884 57.123h-3.52c-0.133 0-0.242-0.108-0.242-0.242s0.109-0.242 0.242-0.242h3.52c0.133 0 0.242 0.108 0.242 0.242s-0.108 0.242-0.242 0.242z" fill="#fff"/>							<path d="m30.152 58.858c-0.133 0-0.242-0.108-0.242-0.242v-3.47c0-0.134 0.109-0.242 0.242-0.242s0.242 0.108 0.242 0.242v3.47c0 0.134-0.108 0.242-0.242 0.242z" fill="#fff"/>						<rect y="50.352" x="30.413" height="3.954" width="4.004" fill="none"/>								<path d="m33.709 53.816c-0.062 0-0.124-0.024-0.171-0.071l-2.455-2.455c-0.094-0.094-0.094-0.248 0-0.342s0.247-0.094 0.342 0l2.455 2.455c0.094 0.094 0.094 0.248 0 0.342-0.047 0.048-0.109 0.071-0.171 0.071z" fill="#fff"/>								<path d="m31.254 53.816c-0.062 0-0.124-0.024-0.171-0.071-0.094-0.094-0.094-0.248 0-0.342l2.455-2.455c0.094-0.094 0.247-0.094 0.342 0 0.094 0.094 0.094 0.248 0 0.342l-2.455 2.455c-0.047 0.048-0.109 0.071-0.171 0.071z" fill="#fff"/>							<path d="m34.175 52.571h-3.52c-0.133 0-0.242-0.108-0.242-0.242s0.109-0.242 0.242-0.242h3.52c0.133 0 0.242 0.108 0.242 0.242s-0.108 0.242-0.242 0.242z" fill="#fff"/>							<path d="m32.444 54.306c-0.133 0-0.242-0.108-0.242-0.242v-3.47c0-0.134 0.109-0.242 0.242-0.242s0.242 0.108 0.242 0.242v3.47c0 0.134-0.109 0.242-0.242 0.242z" fill="#fff"/>						<rect y="45.8" x="32.704" height="3.954" width="4.004" fill="none"/>								<path d="m36 49.264c-0.062 0-0.124-0.024-0.171-0.071l-2.455-2.455c-0.094-0.094-0.094-0.248 0-0.342s0.247-0.094 0.342 0l2.455 2.455c0.094 0.094 0.094 0.248 0 0.342-0.047 0.047-0.109 0.071-0.171 0.071z" fill="#fff"/>								<path d="m33.545 49.264c-0.062 0-0.124-0.024-0.171-0.071-0.094-0.094-0.094-0.248 0-0.342l2.455-2.455c0.094-0.094 0.247-0.094 0.342 0 0.094 0.094 0.094 0.248 0 0.342l-2.455 2.455c-0.047 0.047-0.109 0.071-0.171 0.071z" fill="#fff"/>							<path d="m36.466 48.019h-3.52c-0.133 0-0.242-0.108-0.242-0.242s0.109-0.242 0.242-0.242h3.52c0.133 0 0.242 0.108 0.242 0.242s-0.108 0.242-0.242 0.242z" fill="#fff"/>							<path d="m34.735 49.754c-0.133 0-0.242-0.108-0.242-0.242v-3.47c0-0.134 0.109-0.242 0.242-0.242s0.242 0.108 0.242 0.242v3.47c0 0.134-0.109 0.242-0.242 0.242z" fill="#fff"/>						<rect y="41.248" x="34.995" height="3.954" width="4.004" fill="none"/>								<path d="m38.291 44.712c-0.062 0-0.124-0.024-0.171-0.071l-2.455-2.455c-0.094-0.094-0.094-0.248 0-0.342s0.247-0.094 0.342 0l2.455 2.455c0.094 0.094 0.094 0.248 0 0.342-0.047 0.047-0.109 0.071-0.171 0.071z" fill="#fff"/>								<path d="m35.836 44.712c-0.062 0-0.124-0.024-0.171-0.071-0.094-0.094-0.094-0.248 0-0.342l2.455-2.455c0.094-0.094 0.247-0.094 0.342 0 0.094 0.094 0.094 0.248 0 0.342l-2.455 2.455c-0.047 0.047-0.109 0.071-0.171 0.071z" fill="#fff"/>							<path d="m38.758 43.466h-3.52c-0.133 0-0.242-0.108-0.242-0.242s0.109-0.242 0.242-0.242h3.52c0.133 0 0.242 0.108 0.242 0.242s-0.109 0.242-0.242 0.242z" fill="#fff"/>							<path d="m37.026 45.202c-0.133 0-0.242-0.108-0.242-0.242v-3.47c0-0.134 0.109-0.242 0.242-0.242s0.242 0.108 0.242 0.242v3.47c0 0.133-0.109 0.242-0.242 0.242z" fill="#fff"/>						<rect y="59.456" x="17.75" height="3.954" width="4.004" fill="none"/>								<path d="m21.046 62.92c-0.062 0-0.124-0.024-0.171-0.071l-2.455-2.455c-0.094-0.094-0.094-0.248 0-0.342s0.247-0.094 0.342 0l2.455 2.455c0.094 0.094 0.094 0.248 0 0.342-0.047 0.047-0.109 0.071-0.171 0.071z" fill="#fff"/>								<path d="m18.592 62.92c-0.062 0-0.124-0.024-0.171-0.071-0.094-0.094-0.094-0.248 0-0.342l2.455-2.455c0.094-0.094 0.247-0.094 0.342 0 0.094 0.094 0.094 0.248 0 0.342l-2.455 2.455c-0.048 0.047-0.109 0.071-0.171 0.071z" fill="#fff"/>							<path d="m21.513 61.675h-3.52c-0.133 0-0.242-0.108-0.242-0.242s0.109-0.242 0.242-0.242h3.52c0.133 0 0.242 0.108 0.242 0.242s-0.109 0.242-0.242 0.242z" fill="#fff"/>							<path d="m19.781 63.41c-0.133 0-0.242-0.108-0.242-0.242v-3.47c0-0.134 0.109-0.242 0.242-0.242s0.242 0.108 0.242 0.242v3.47c0 0.134-0.109 0.242-0.242 0.242z" fill="#fff"/>						<rect y="54.904" x="20.042" height="3.954" width="4.004" fill="none"/>								<path d="m23.338 58.368c-0.062 0-0.124-0.024-0.171-0.071l-2.455-2.455c-0.094-0.094-0.094-0.248 0-0.342s0.247-0.094 0.342 0l2.455 2.455c0.094 0.094 0.094 0.248 0 0.342-0.047 0.047-0.109 0.071-0.171 0.071z" fill="#fff"/>								<path d="m20.883 58.368c-0.062 0-0.124-0.024-0.171-0.071-0.094-0.094-0.094-0.248 0-0.342l2.455-2.455c0.094-0.094 0.247-0.094 0.342 0 0.094 0.094 0.094 0.248 0 0.342l-2.455 2.455c-0.047 0.047-0.109 0.071-0.171 0.071z" fill="#fff"/>							<path d="m23.804 57.123h-3.52c-0.133 0-0.242-0.108-0.242-0.242s0.109-0.242 0.242-0.242h3.52c0.133 0 0.242 0.108 0.242 0.242s-0.108 0.242-0.242 0.242z" fill="#fff"/>							<path d="m22.073 58.858c-0.133 0-0.242-0.108-0.242-0.242v-3.47c0-0.134 0.109-0.242 0.242-0.242s0.242 0.108 0.242 0.242v3.47c0 0.133-0.109 0.242-0.242 0.242z" fill="#fff"/>						<rect y="50.352" x="22.333" height="3.954" width="4.004" fill="none"/>								<path d="m25.629 53.816c-0.062 0-0.124-0.024-0.171-0.071l-2.454-2.455c-0.094-0.095-0.094-0.248 0-0.342s0.247-0.094 0.342 0l2.454 2.455c0.094 0.095 0.094 0.248 0 0.342-0.047 0.047-0.109 0.071-0.171 0.071z" fill="#fff"/>								<path d="m23.175 53.816c-0.062 0-0.124-0.024-0.171-0.071-0.094-0.094-0.094-0.248 0-0.342l2.454-2.455c0.094-0.094 0.247-0.094 0.342 0 0.094 0.094 0.094 0.248 0 0.342l-2.454 2.455c-0.047 0.047-0.109 0.071-0.171 0.071z" fill="#fff"/>							<path d="m26.096 52.571h-3.52c-0.133 0-0.242-0.108-0.242-0.242s0.109-0.242 0.242-0.242h3.52c0.133 0 0.242 0.108 0.242 0.242s-0.109 0.242-0.242 0.242z" fill="#fff"/>							<path d="m24.364 54.306c-0.133 0-0.242-0.108-0.242-0.242v-3.47c0-0.134 0.109-0.242 0.242-0.242s0.242 0.108 0.242 0.242v3.47c0 0.133-0.109 0.242-0.242 0.242z" fill="#fff"/>						<rect y="45.8" x="24.625" height="3.954" width="4.004" fill="none"/>								<path d="m27.921 49.264c-0.062 0-0.124-0.024-0.171-0.071l-2.455-2.455c-0.094-0.094-0.094-0.248 0-0.342s0.247-0.094 0.342 0l2.455 2.455c0.094 0.094 0.094 0.248 0 0.342-0.048 0.047-0.109 0.071-0.171 0.071z" fill="#fff"/>								<path d="m25.466 49.264c-0.062 0-0.124-0.024-0.171-0.071-0.094-0.094-0.094-0.248 0-0.342l2.455-2.455c0.094-0.094 0.247-0.094 0.342 0 0.094 0.094 0.094 0.248 0 0.342l-2.455 2.455c-0.047 0.047-0.109 0.071-0.171 0.071z" fill="#fff"/>							<path d="m28.387 48.019h-3.52c-0.133 0-0.242-0.108-0.242-0.242s0.109-0.242 0.242-0.242h3.52c0.133 0 0.242 0.108 0.242 0.242s-0.108 0.242-0.242 0.242z" fill="#fff"/>							<path d="m26.655 49.754c-0.133 0-0.242-0.108-0.242-0.242v-3.47c0-0.134 0.109-0.242 0.242-0.242s0.242 0.108 0.242 0.242v3.47c0 0.133-0.108 0.242-0.242 0.242z" fill="#fff"/>						<rect y="41.248" x="26.917" height="3.954" width="4.004" fill="none"/>								<path d="m30.212 44.712c-0.062 0-0.124-0.024-0.171-0.071l-2.455-2.455c-0.094-0.094-0.094-0.248 0-0.342s0.247-0.094 0.342 0l2.455 2.455c0.094 0.094 0.094 0.248 0 0.342-0.047 0.047-0.109 0.071-0.171 0.071z" fill="#fff"/>								<path d="m27.758 44.712c-0.062 0-0.124-0.024-0.171-0.071-0.094-0.094-0.094-0.248 0-0.342l2.455-2.455c0.094-0.094 0.247-0.094 0.342 0 0.094 0.094 0.094 0.248 0 0.342l-2.455 2.455c-0.048 0.047-0.11 0.071-0.171 0.071z" fill="#fff"/>							<path d="m30.679 43.466h-3.52c-0.133 0-0.242-0.108-0.242-0.242s0.109-0.242 0.242-0.242h3.52c0.133 0 0.242 0.108 0.242 0.242s-0.109 0.242-0.242 0.242z" fill="#fff"/>							<path d="m28.947 45.202c-0.133 0-0.242-0.108-0.242-0.242v-3.47c0-0.134 0.109-0.242 0.242-0.242s0.242 0.108 0.242 0.242v3.47c0 0.133-0.109 0.242-0.242 0.242z" fill="#fff"/></svg><svg xmlns:xlink="http://www.w3.org/1999/xlink" id="701" xml:space="preserve" height="77" viewBox="0 0 93.543 76.535" width="94" version="1.1" y="847" x="0px" enable-background="new 0 0 93.543 76.535"><rect y=".282" x="-.228" height="75.971" width="94" fill="none"/>				<path d="m71.828 43.809c-1.747 0-2.668-0.382-3.481-0.719-0.752-0.312-1.401-0.581-2.788-0.581-1.386 0-2.035 0.269-2.786 0.581-0.812 0.337-1.732 0.719-3.479 0.719s-2.667-0.382-3.479-0.719c-0.751-0.312-1.4-0.581-2.787-0.581-1.386 0-2.035 0.269-2.786 0.581-0.812 0.337-1.732 0.719-3.478 0.719-1.745 0-2.666-0.382-3.477-0.719-0.751-0.312-1.4-0.581-2.785-0.581-1.386 0-2.035 0.269-2.786 0.581-0.812 0.337-1.732 0.719-3.479 0.719-1.746 0-2.666-0.382-3.478-0.719-0.751-0.312-1.4-0.581-2.786-0.581s-2.035 0.269-2.786 0.581c-0.812 0.337-1.732 0.719-3.478 0.719s-2.666-0.382-3.479-0.719c-0.751-0.312-1.4-0.581-2.786-0.581-0.499 0-0.903-0.404-0.903-0.903s0.405-0.903 0.903-0.903c1.746 0 2.666 0.382 3.479 0.719 0.751 0.312 1.4 0.581 2.786 0.581s2.034-0.269 2.785-0.581c0.812-0.337 1.732-0.719 3.478-0.719s2.666 0.382 3.478 0.719c0.751 0.312 1.4 0.581 2.786 0.581s2.035-0.269 2.786-0.581c0.812-0.337 1.732-0.719 3.478-0.719s2.666 0.382 3.478 0.719c0.751 0.312 1.399 0.581 2.785 0.581s2.035-0.269 2.786-0.581c0.812-0.337 1.732-0.719 3.478-0.719s2.667 0.382 3.479 0.719c0.751 0.312 1.4 0.581 2.787 0.581 1.386 0 2.035-0.269 2.786-0.581 0.812-0.337 1.732-0.719 3.478-0.719 1.747 0 2.667 0.382 3.48 0.719 0.752 0.312 1.401 0.581 2.788 0.581 1.388 0 2.036-0.269 2.788-0.581 0.813-0.337 1.733-0.719 3.48-0.719 0.499 0 0.903 0.404 0.903 0.903s-0.405 0.903-0.903 0.903c-1.387 0-2.036 0.269-2.788 0.581-0.809 0.337-1.73 0.719-3.477 0.719z" fill="#fff"/>				<path d="m71.828 49.504c-1.747 0-2.668-0.382-3.481-0.719-0.752-0.312-1.401-0.581-2.788-0.581-1.386 0-2.035 0.269-2.786 0.581-0.812 0.337-1.732 0.719-3.479 0.719s-2.667-0.382-3.479-0.719c-0.751-0.312-1.4-0.581-2.787-0.581-1.386 0-2.035 0.269-2.786 0.581-0.812 0.337-1.732 0.719-3.478 0.719-1.745 0-2.666-0.382-3.477-0.719-0.751-0.312-1.4-0.581-2.785-0.581-1.386 0-2.035 0.269-2.786 0.581-0.812 0.337-1.732 0.719-3.479 0.719-1.746 0-2.666-0.382-3.478-0.719-0.751-0.312-1.4-0.581-2.786-0.581s-2.035 0.269-2.786 0.581c-0.812 0.337-1.732 0.719-3.478 0.719s-2.666-0.382-3.479-0.719c-0.751-0.312-1.4-0.581-2.786-0.581-0.499 0-0.903-0.404-0.903-0.903s0.405-0.903 0.903-0.903c1.746 0 2.666 0.382 3.479 0.719 0.751 0.312 1.4 0.581 2.786 0.581s2.034-0.269 2.785-0.581c0.812-0.337 1.732-0.719 3.478-0.719s2.666 0.382 3.478 0.719c0.751 0.312 1.4 0.581 2.786 0.581s2.035-0.269 2.786-0.581c0.812-0.337 1.732-0.719 3.478-0.719s2.666 0.382 3.478 0.719c0.751 0.312 1.399 0.581 2.785 0.581s2.035-0.269 2.786-0.581c0.812-0.337 1.732-0.719 3.478-0.719s2.667 0.382 3.479 0.719c0.751 0.312 1.4 0.581 2.787 0.581 1.386 0 2.035-0.269 2.786-0.581 0.812-0.337 1.732-0.719 3.478-0.719 1.747 0 2.667 0.382 3.48 0.719 0.752 0.312 1.401 0.581 2.788 0.581 1.388 0 2.036-0.269 2.788-0.581 0.813-0.337 1.733-0.719 3.48-0.719 0.499 0 0.903 0.404 0.903 0.903s-0.405 0.903-0.903 0.903c-1.387 0-2.036 0.269-2.788 0.581-0.809 0.336-1.73 0.719-3.477 0.719z" fill="#fff"/>				<path d="m71.828 55.383c-1.747 0-2.668-0.382-3.481-0.719-0.752-0.312-1.401-0.581-2.788-0.581-1.386 0-2.035 0.269-2.786 0.581-0.812 0.337-1.732 0.719-3.479 0.719s-2.667-0.382-3.479-0.719c-0.751-0.312-1.4-0.581-2.787-0.581-1.386 0-2.035 0.269-2.786 0.581-0.812 0.337-1.732 0.719-3.478 0.719-1.745 0-2.666-0.382-3.477-0.719-0.751-0.312-1.4-0.581-2.785-0.581-1.386 0-2.035 0.269-2.786 0.581-0.812 0.337-1.732 0.719-3.479 0.719-1.746 0-2.666-0.382-3.478-0.719-0.751-0.312-1.4-0.581-2.786-0.581s-2.035 0.269-2.786 0.581c-0.812 0.337-1.732 0.719-3.478 0.719s-2.666-0.382-3.479-0.719c-0.751-0.312-1.4-0.581-2.786-0.581-0.499 0-0.903-0.404-0.903-0.903s0.405-0.903 0.903-0.903c1.746 0 2.666 0.382 3.479 0.719 0.751 0.312 1.4 0.581 2.786 0.581s2.034-0.269 2.785-0.581c0.812-0.337 1.732-0.719 3.478-0.719s2.666 0.382 3.478 0.719c0.751 0.312 1.4 0.581 2.786 0.581s2.035-0.269 2.786-0.581c0.812-0.337 1.732-0.719 3.478-0.719s2.666 0.382 3.478 0.719c0.751 0.312 1.399 0.581 2.785 0.581s2.035-0.269 2.786-0.581c0.812-0.337 1.732-0.719 3.478-0.719s2.667 0.382 3.479 0.719c0.751 0.312 1.4 0.581 2.787 0.581 1.386 0 2.035-0.269 2.786-0.581 0.812-0.337 1.732-0.719 3.478-0.719 1.747 0 2.667 0.382 3.48 0.719 0.752 0.312 1.401 0.581 2.788 0.581 1.388 0 2.036-0.269 2.788-0.581 0.813-0.337 1.733-0.719 3.48-0.719 0.499 0 0.903 0.404 0.903 0.903s-0.405 0.903-0.903 0.903c-1.387 0-2.036 0.269-2.788 0.581-0.809 0.337-1.73 0.719-3.477 0.719z" fill="#fff"/>			<path d="m77.8 38.338h-0.004l-62.086-0.151c-0.91-0.002-1.681-0.672-1.81-1.573-0.022-0.156-0.218-1.546-0.218-2.376 0-7.215 5.87-13.085 13.087-13.085 3.803 0 7.375 1.658 9.833 4.454 2.458-2.796 6.03-4.454 9.831-4.454 3.98 0 7.718 1.839 10.173 4.859 2.455-3.02 6.192-4.859 10.171-4.859 7.214 0 13.084 5.87 13.084 13.085 0 0.891-0.224 2.379-0.249 2.546-0.138 0.894-0.907 1.554-1.812 1.554zm-60.442-3.813l58.817 0.143c0.013-0.167 0.021-0.316 0.021-0.432 0-5.194-4.225-9.42-9.419-9.42-3.62 0-6.962 2.115-8.515 5.388-0.303 0.639-0.948 1.047-1.656 1.047-0.707 0-1.352-0.407-1.656-1.047-1.553-3.274-4.897-5.389-8.517-5.389-3.41 0-6.564 1.855-8.231 4.841-0.324 0.58-0.936 0.939-1.6 0.939s-1.276-0.36-1.6-0.94c-1.666-2.986-4.82-4.84-8.232-4.84-5.195 0-9.422 4.226-9.422 9.42 0 0.083 0.003 0.181 0.01 0.29z" fill="#fff"/></svg><svg xmlns:xlink="http://www.w3.org/1999/xlink" id="711" xml:space="preserve" height="77" viewBox="0 0 93.543 76.535" width="94" version="1.1" y="924" x="0px" enable-background="new 0 0 93.543 76.535"><rect y=".282" x="-.228" height="75.971" width="94" fill="none"/>			<path d="m77.83 45.703h-10.469c-0.506 0-0.916-0.41-0.916-0.916s0.41-0.916 0.916-0.916h10.469c0.506 0 0.916 0.41 0.916 0.916s-0.41 0.916-0.916 0.916zm-12.962 0h-10.469c-0.506 0-0.916-0.41-0.916-0.916s0.41-0.916 0.916-0.916h10.469c0.506 0 0.916 0.41 0.916 0.916s-0.41 0.916-0.916 0.916zm-12.962 0h-10.469c-0.506 0-0.916-0.41-0.916-0.916s0.41-0.916 0.916-0.916h10.469c0.506 0 0.916 0.41 0.916 0.916s-0.41 0.916-0.916 0.916zm-12.962 0h-10.469c-0.506 0-0.916-0.41-0.916-0.916s0.41-0.916 0.916-0.916h10.469c0.506 0 0.916 0.41 0.916 0.916s-0.41 0.916-0.916 0.916zm-12.962 0h-10.469c-0.506 0-0.916-0.41-0.916-0.916s0.41-0.916 0.916-0.916h10.469c0.506 0 0.916 0.41 0.916 0.916s-0.41 0.916-0.916 0.916z" fill="#fff"/>			<path d="m77.83 50.725h-10.469c-0.506 0-0.916-0.41-0.916-0.916s0.41-0.916 0.916-0.916h10.469c0.506 0 0.916 0.41 0.916 0.916s-0.41 0.916-0.916 0.916zm-12.962 0h-10.469c-0.506 0-0.916-0.41-0.916-0.916s0.41-0.916 0.916-0.916h10.469c0.506 0 0.916 0.41 0.916 0.916s-0.41 0.916-0.916 0.916zm-12.962 0h-10.469c-0.506 0-0.916-0.41-0.916-0.916s0.41-0.916 0.916-0.916h10.469c0.506 0 0.916 0.41 0.916 0.916s-0.41 0.916-0.916 0.916zm-12.962 0h-10.469c-0.506 0-0.916-0.41-0.916-0.916s0.41-0.916 0.916-0.916h10.469c0.506 0 0.916 0.41 0.916 0.916s-0.41 0.916-0.916 0.916zm-12.962 0h-10.469c-0.506 0-0.916-0.41-0.916-0.916s0.41-0.916 0.916-0.916h10.469c0.506 0 0.916 0.41 0.916 0.916s-0.41 0.916-0.916 0.916z" fill="#fff"/>			<path d="m77.83 55.747h-10.469c-0.506 0-0.916-0.41-0.916-0.916s0.41-0.916 0.916-0.916h10.469c0.506 0 0.916 0.41 0.916 0.916s-0.41 0.916-0.916 0.916zm-12.962 0h-10.469c-0.506 0-0.916-0.41-0.916-0.916s0.41-0.916 0.916-0.916h10.469c0.506 0 0.916 0.41 0.916 0.916s-0.41 0.916-0.916 0.916zm-12.962 0h-10.469c-0.506 0-0.916-0.41-0.916-0.916s0.41-0.916 0.916-0.916h10.469c0.506 0 0.916 0.41 0.916 0.916s-0.41 0.916-0.916 0.916zm-12.962 0h-10.469c-0.506 0-0.916-0.41-0.916-0.916s0.41-0.916 0.916-0.916h10.469c0.506 0 0.916 0.41 0.916 0.916s-0.41 0.916-0.916 0.916zm-12.962 0h-10.469c-0.506 0-0.916-0.41-0.916-0.916s0.41-0.916 0.916-0.916h10.469c0.506 0 0.916 0.41 0.916 0.916s-0.41 0.916-0.916 0.916z" fill="#fff"/>		<path d="m76.982 40.442h-60.419c-0.712 0-1.359-0.412-1.66-1.057-0.812-1.737-1.223-3.591-1.223-5.511 0-7.215 5.872-13.086 13.09-13.086 3.801 0 7.373 1.658 9.832 4.455 2.456-2.797 6.028-4.455 9.833-4.455 3.978 0 7.715 1.839 10.17 4.859 2.455-3.02 6.192-4.859 10.171-4.859 7.216 0 13.087 5.87 13.087 13.086 0 1.92-0.41 3.774-1.221 5.51-0.3 0.645-0.948 1.058-1.66 1.058zm-59.177-3.665h57.934c0.305-0.933 0.459-1.905 0.459-2.903 0-5.194-4.226-9.421-9.422-9.421-3.619 0-6.961 2.115-8.515 5.388-0.303 0.639-0.948 1.047-1.656 1.047-0.707 0-1.352-0.407-1.655-1.046-1.555-3.274-4.897-5.389-8.515-5.389-3.415 0-6.569 1.855-8.23 4.841-0.323 0.581-0.935 0.941-1.6 0.941h-0.001c-0.664 0-1.276-0.359-1.6-0.939-1.668-2.987-4.824-4.843-8.235-4.843-5.197 0-9.424 4.226-9.424 9.421 0 0.997 0.155 1.969 0.46 2.903z" fill="#fff"/></svg><svg xmlns:xlink="http://www.w3.org/1999/xlink" id="721" xml:space="preserve" height="77" viewBox="0 0 93.543 76.535" width="94" version="1.1" y="1001" x="0px" enable-background="new 0 0 93.543 76.535"><rect y=".282" x="-.228" height="75.971" width="94" fill="none"/>		<path d="m45.376 53.021c-8.133 0-14.751-6.618-14.751-14.754 0-8.135 6.617-14.753 14.751-14.753 8.137 0 14.756 6.618 14.756 14.753 0 8.136-6.619 14.754-14.756 14.754zm0-25.841c-6.112 0-11.086 4.974-11.086 11.088s4.973 11.089 11.086 11.089c6.116 0 11.091-4.974 11.091-11.089 0-6.114-4.975-11.088-11.091-11.088z" fill="#FAB611"/>			<path d="m64.589 39.44h-24.527c-0.506 0-0.916-0.41-0.916-0.916s0.41-0.916 0.916-0.916h24.527c0.506 0 0.916 0.41 0.916 0.916 0 0.505-0.41 0.916-0.916 0.916z" fill="#fff"/>			<path d="m61.865 45.408h-32.91c-0.506 0-0.916-0.41-0.916-0.916s0.41-0.916 0.916-0.916h32.91c0.506 0 0.916 0.41 0.916 0.916s-0.411 0.916-0.916 0.916z" fill="#fff"/>			<path d="m61.865 33.473h-32.91c-0.506 0-0.916-0.41-0.916-0.916s0.41-0.916 0.916-0.916h32.91c0.506 0 0.916 0.41 0.916 0.916s-0.411 0.916-0.916 0.916z" fill="#fff"/></svg><svg xmlns:xlink="http://www.w3.org/1999/xlink" id="800" xml:space="preserve" height="77" viewBox="0 0 93.543 76.535" width="94" version="1.1" y="1078" x="0px" enable-background="new 0 0 93.543 76.535"><rect y=".282" x="-.228" height="75.971" width="94" fill="none"/>		<path d="m46.772 53.021c-8.134 0-14.751-6.618-14.751-14.753 0-8.136 6.617-14.755 14.751-14.755 8.135 0 14.754 6.619 14.754 14.755 0 8.135-6.619 14.753-14.754 14.753zm0-25.842c-6.113 0-11.086 4.975-11.086 11.09 0 6.114 4.973 11.088 11.086 11.088 6.114 0 11.089-4.974 11.089-11.088 0-6.116-4.975-11.09-11.089-11.09z" fill="#FAB611"/>		<path d="m46.772 57.551c-10.633 0-19.283-8.65-19.283-19.283s8.65-19.284 19.283-19.284 19.283 8.651 19.283 19.284-8.65 19.283-19.283 19.283zm0-37.153c-9.853 0-17.869 8.017-17.869 17.87s8.016 17.869 17.869 17.869 17.869-8.016 17.869-17.869c0-9.854-8.016-17.87-17.869-17.87z" fill="#FAB611"/></svg><svg xmlns:xlink="http://www.w3.org/1999/xlink" id="801" xml:space="preserve" height="77" viewBox="0 0 93.543 76.535" width="94" version="1.1" y="1155" x="0px" enable-background="new 0 0 93.543 76.535"><rect y=".282" x="-.228" height="75.971" width="94" fill="none"/>		<path d="m74.584 39.623c-0.186 0-0.375-0.025-0.564-0.077-1.129-0.311-1.793-1.479-1.481-2.608 0.308-1.117 0.463-2.283 0.463-3.463 0-7.167-5.831-12.998-12.998-12.998-7.168 0-13 5.831-13 12.998 0 0.381 0.019 0.774 0.055 1.169 0.108 1.166-0.751 2.2-1.917 2.307-1.161 0.111-2.199-0.751-2.307-1.917-0.048-0.524-0.073-1.048-0.073-1.558 0-9.506 7.735-17.24 17.243-17.24 9.506 0 17.24 7.734 17.24 17.24 0 1.561-0.207 3.105-0.616 4.59-0.261 0.939-1.115 1.557-2.045 1.557z" fill="#FAB611"/>		<path d="m66.774 60.301c-3.945 0-7.66-1.771-10.17-4.698-2.508 2.926-6.223 4.698-10.171 4.698-3.777 0-7.33-1.599-9.833-4.312-2.501 2.712-6.056 4.312-9.835 4.312-7.373 0-13.372-5.999-13.372-13.373 0-7.375 5.999-13.375 13.372-13.375 3.779 0 7.333 1.6 9.835 4.312 2.503-2.712 6.057-4.312 9.833-4.312 3.948 0 7.663 1.771 10.171 4.699 2.511-2.927 6.225-4.699 10.17-4.699 7.375 0 13.375 6 13.375 13.375 0.001 7.374-6 13.373-13.375 13.373zm-10.17-10.678c0.819 0 1.565 0.471 1.916 1.211 1.508 3.174 4.748 5.224 8.255 5.224 5.036 0 9.133-4.096 9.133-9.13 0-5.036-4.097-9.132-9.133-9.132-3.507 0-6.747 2.051-8.255 5.225-0.351 0.74-1.097 1.211-1.916 1.211h-0.001c-0.819 0-1.565-0.473-1.916-1.213-1.504-3.173-4.744-5.223-8.254-5.223-3.308 0-6.366 1.799-7.981 4.694-0.375 0.672-1.084 1.088-1.852 1.088h-0.001c-0.769 0-1.478-0.417-1.852-1.09-1.612-2.895-4.67-4.693-7.981-4.693-5.034 0-9.129 4.097-9.129 9.132s4.095 9.13 9.129 9.13c3.311 0 6.369-1.797 7.981-4.692 0.374-0.672 1.083-1.089 1.852-1.089h0.001c0.769 0 1.478 0.416 1.852 1.088 1.615 2.895 4.673 4.693 7.981 4.693 3.51 0 6.75-2.05 8.254-5.223 0.351-0.739 1.097-1.211 1.917-1.211-0.001 0-0.001 0 0 0z" fill="#fff"/><rect y="-1134.7" x="-116.19" height="2537.4" width="137.97" fill="none"/></svg><svg xmlns:xlink="http://www.w3.org/1999/xlink" id="803" xml:space="preserve" height="77" viewBox="0 0 93.543 76.535" width="94" version="1.1" y="1232" x="0px" enable-background="new 0 0 93.543 76.535"><rect y=".282" x="-.228" height="75.971" width="94" fill="none"/>		<path d="m73.354 46.695c-0.919 0-1.712-0.69-1.818-1.626-0.114-1.006 0.608-1.914 1.613-2.028 4.94-0.563 8.665-4.742 8.665-9.722 0-5.395-4.39-9.785-9.786-9.785-3.37 0-6.462 1.705-8.269 4.56-0.336 0.531-0.92 0.852-1.548 0.852s-1.213-0.321-1.549-0.852c-1.809-2.855-4.901-4.56-8.271-4.56-4.446 0-8.338 2.999-9.465 7.292-0.257 0.979-1.254 1.566-2.238 1.307-0.979-0.257-1.564-1.259-1.307-2.238 1.55-5.903 6.9-10.026 13.011-10.026 3.777 0 7.3 1.556 9.819 4.258 2.518-2.701 6.04-4.258 9.818-4.258 7.417 0 13.451 6.034 13.451 13.45 0 6.845-5.123 12.59-11.916 13.364-0.071 0.007-0.141 0.012-0.21 0.012z" fill="#fff"/>		<path d="m61.157 56.667c-3.979 0-7.716-1.839-10.171-4.86-2.455 3.02-6.193 4.86-10.172 4.86-3.805 0-7.376-1.658-9.833-4.456-2.459 2.797-6.031 4.456-9.831 4.456-7.215 0-13.085-5.87-13.085-13.086 0-7.215 5.869-13.085 13.085-13.085 3.8 0 7.372 1.658 9.831 4.455 2.457-2.797 6.029-4.455 9.833-4.455 3.979 0 7.717 1.839 10.172 4.859 2.456-3.02 6.193-4.859 10.171-4.859 7.215 0 13.084 5.869 13.084 13.085s-5.869 13.086-13.084 13.086zm-10.172-10.101c0.707 0 1.352 0.407 1.656 1.047 1.554 3.274 4.896 5.389 8.516 5.389 5.194 0 9.419-4.226 9.419-9.421 0-5.194-4.225-9.42-9.419-9.42-3.619 0-6.962 2.115-8.517 5.388-0.303 0.639-0.948 1.047-1.655 1.047-0.708 0-1.352-0.407-1.656-1.047-1.553-3.274-4.896-5.388-8.516-5.388-3.413 0-6.567 1.855-8.231 4.841-0.323 0.58-0.935 0.94-1.6 0.941h-0.001c-0.664 0-1.276-0.359-1.6-0.939-1.669-2.987-4.824-4.843-8.233-4.843-5.194 0-9.42 4.226-9.42 9.42 0 5.195 4.226 9.421 9.42 9.421 3.409 0 6.564-1.856 8.233-4.844 0.324-0.58 0.936-0.939 1.6-0.939h0.001c0.665 0 1.277 0.36 1.6 0.941 1.663 2.987 4.817 4.842 8.23 4.842 3.62 0 6.963-2.115 8.516-5.388 0.305-0.64 0.949-1.048 1.657-1.048z" fill="#fff"/><rect y="-1294.7" x="-123.64" height="2537.4" width="137.97" fill="none"/></svg><svg xmlns:xlink="http://www.w3.org/1999/xlink" id="900" xml:space="preserve" height="77" viewBox="0 0 93.543 76.535" width="94" version="1.1" y="1309" x="0px" enable-background="new 0 0 93.543 76.535"><rect y=".282" x="-.228" height="75.971" width="94" fill="none"/>			<path d="m66.777 37.773c-3.627 0-6.998-1.45-9.494-4.084-0.237-0.25-0.464-0.509-0.68-0.775-2.456 3.02-6.193 4.859-10.171 4.859-3.802 0-7.373-1.658-9.831-4.456-2.472 2.812-6.054 4.456-9.832 4.456-7.216 0-13.087-5.87-13.087-13.087 0-7.215 5.871-13.085 13.087-13.085 3.803 0 7.375 1.658 9.832 4.454 2.459-2.796 6.03-4.454 9.831-4.454 3.98 0 7.718 1.839 10.173 4.859 2.455-3.019 6.192-4.859 10.171-4.859 7.214 0 13.084 5.869 13.084 13.085 0.001 7.216-5.869 13.087-13.083 13.087zm-10.17-10.105c0.708 0 1.352 0.407 1.656 1.047 0.427 0.901 0.993 1.725 1.681 2.452 1.796 1.896 4.223 2.94 6.833 2.94 5.193 0 9.419-4.226 9.419-9.422 0-5.194-4.225-9.42-9.419-9.42-3.62 0-6.962 2.115-8.515 5.388-0.303 0.64-0.948 1.047-1.655 1.047-0.708 0-1.352-0.407-1.656-1.047-1.554-3.273-4.898-5.388-8.518-5.388-3.41 0-6.564 1.855-8.231 4.841-0.324 0.58-0.936 0.939-1.6 0.939s-1.277-0.36-1.6-0.94c-1.666-2.986-4.819-4.84-8.232-4.84-5.195 0-9.422 4.226-9.422 9.42 0 5.195 4.227 9.422 9.422 9.422 3.061 0 5.944-1.501 7.713-4.015 0.18-0.255 0.349-0.525 0.519-0.83 0.324-0.58 0.936-0.939 1.6-0.939s1.277 0.36 1.6 0.94c1.666 2.987 4.82 4.844 8.231 4.844 3.62 0 6.963-2.117 8.518-5.392 0.304-0.639 0.948-1.047 1.656-1.047z" fill="#fff"/>		<path d="m37.014 64.934c-0.139 0-0.279-0.038-0.405-0.119-0.347-0.223-0.447-0.686-0.223-1.034 0.277-0.43 0.603-0.82 0.966-1.173-0.352-0.172-0.684-0.36-0.988-0.563-2.047-1.368-2.137-3.222-1.538-4.501 0.193-0.446 0.462-0.853 0.791-1.225-2.486-1.121-3.757-2.647-3.637-4.438 0.059-0.873 0.43-1.625 1.03-2.271-1.589-0.925-3-2.299-2.978-4.118 0-0.017 0.001-0.035 0.002-0.052 0.092-1.13 0.683-2.074 1.613-2.86-2.141-1.069-4.046-2.599-5.442-4.783-0.222-0.348-0.121-0.811 0.227-1.033 0.347-0.222 0.81-0.121 1.033 0.227 1.391 2.178 3.39 3.637 5.644 4.61 5.099-2.754 14.964-2.955 17.446-2.961h0.139c3.141 0 6.546 0.22 9.137 0.592 3.73 0.535 5.255 1.231 5.26 2.402 0.001 0.243-0.072 0.609-0.429 0.967-1.928 1.937-11.937 2.361-15.642 2.361h-0.013c-0.443 0-0.95 0.009-1.511 0.019-3.683 0.064-9.383 0.165-14.271-1.71-1.028 0.675-1.621 1.437-1.699 2.263 0.002 1.278 1.353 2.342 2.744 3.047 4.297-2.726 13.311-2.951 15.534-2.963 8.297 0 12.502 0.967 12.502 2.874 0 1.129-1.304 1.969-3.986 2.571-2.245 0.503-5.22 0.78-8.376 0.78-3.002 0.148-8.85 0.217-13.879-0.985-0.465-0.117-1.02-0.295-1.602-0.535-0.629 0.539-0.956 1.104-0.993 1.657-0.103 1.521 1.74 2.587 3.425 3.239 3.78-2.532 10.905-2.806 13.4-2.82 1.062 0 10.341 0.081 10.341 2.897 0 2.815-9.278 2.897-10.336 2.897-2.488 0.124-7.34 0.181-11.488-0.817-0.595-0.143-1.155-0.301-1.676-0.472-0.422 0.37-0.741 0.78-0.938 1.232-0.278 0.596-0.492 1.674 0.995 2.666 0.429 0.286 0.934 0.54 1.493 0.764 3.177-2.013 7.796-2.3 9.991-2.313 3.452 0 9.244 0.31 9.293 2.384 0.005 0.215-0.058 0.542-0.389 0.88-0.934 0.956-4.123 1.971-8.193 1.971-1.909 0.092-6.79-0.017-10.482-1.251-0.499 0.389-0.929 0.837-1.263 1.355-0.142 0.221-0.383 0.342-0.629 0.342zm3.671-2.74c2.935 0.727 6.488 0.906 8.668 0.799 3.604-0.001 6.087-0.827 6.909-1.328-0.824-0.389-3.361-0.917-7.579-0.917-1.403 0.008-5.112 0.161-7.998 1.446zm-1.856-6.357c0.125 0.033 0.238 0.061 0.335 0.084 3.965 0.954 8.657 0.895 11.102 0.777 5.03-0.001 8.197-0.854 8.814-1.402-0.616-0.548-3.781-1.401-8.777-1.401-3.939 0.022-8.567 0.574-11.474 1.942zm-2.747-6.527c0.121 0.037 0.236 0.068 0.343 0.095 3.533 0.845 8.451 1.188 13.486 0.944 6.549-0.001 10.404-1.153 10.878-1.842-0.493-0.56-3.793-1.392-10.977-1.392-6.637 0.037-11.155 0.962-13.73 2.195zm-0.984-6.988c4.324 1.305 9.16 1.221 12.374 1.164 0.571-0.01 1.087-0.019 1.537-0.019h0.019c7.09 0 13.303-0.938 14.454-1.801-1.145-0.746-6.702-1.518-12.922-1.53-6.626 0.014-12.108 0.836-15.462 2.186z" fill="#fff"/></svg><svg xmlns:xlink="http://www.w3.org/1999/xlink" id="903" xml:space="preserve" height="77" viewBox="0 0 93.543 76.535" width="94" version="1.1" y="1386" x="0px" enable-background="new 0 0 93.543 76.535"><rect y=".282" x="-.228" height="75.971" width="94" fill="none"/>		<path d="m66.775 47.635c-3.979 0-7.716-1.839-10.17-4.86-2.457 3.02-6.194 4.86-10.172 4.86-3.802 0-7.374-1.658-9.833-4.456-2.457 2.797-6.029 4.456-9.832 4.456-7.215 0-13.084-5.87-13.084-13.085 0-7.216 5.869-13.086 13.084-13.086 3.803 0 7.375 1.658 9.832 4.455 2.459-2.796 6.031-4.455 9.833-4.455 3.978 0 7.716 1.839 10.172 4.859 2.454-3.019 6.191-4.859 10.17-4.859 7.215 0 13.085 5.87 13.085 13.086 0 7.215-5.87 13.085-13.085 13.085zm-10.169-10.101c0.708 0 1.352 0.408 1.656 1.047 1.553 3.274 4.894 5.389 8.514 5.389 5.194 0 9.42-4.226 9.42-9.42 0-5.195-4.226-9.421-9.42-9.421-3.62 0-6.962 2.115-8.514 5.388-0.303 0.639-0.947 1.047-1.655 1.047-0.707 0-1.352-0.407-1.655-1.046-1.555-3.274-4.898-5.388-8.517-5.388-3.411 0-6.566 1.855-8.233 4.842-0.324 0.58-0.936 0.939-1.6 0.939-0.665 0-1.277-0.36-1.6-0.94-1.665-2.986-4.818-4.841-8.231-4.841-5.194 0-9.419 4.226-9.419 9.421 0 5.194 4.225 9.42 9.419 9.42 3.412 0 6.566-1.856 8.231-4.843 0.323-0.581 0.936-0.941 1.6-0.941 0.665 0 1.277 0.359 1.6 0.94 1.667 2.988 4.822 4.844 8.233 4.844 3.619 0 6.962-2.116 8.517-5.39 0.302-0.64 0.946-1.047 1.654-1.047z" fill="#fff"/>		<path d="m20.37 50.086c-0.444 0-0.804-0.36-0.804-0.804v-4.476c0-0.444 0.36-0.804 0.804-0.804s0.804 0.36 0.804 0.804v4.476c0 0.444-0.36 0.804-0.804 0.804z" fill="#fff"/>		<path d="m63.279 50.584c-0.444 0-0.804-0.36-0.804-0.804v-5.08c0-0.444 0.36-0.804 0.804-0.804s0.804 0.36 0.804 0.804v5.081c0 0.443-0.36 0.803-0.804 0.803z" fill="#fff"/>		<path d="m67.233 55.071c-0.444 0-0.804-0.36-0.804-0.804v-8.072c0-0.444 0.36-0.804 0.804-0.804s0.804 0.36 0.804 0.804v8.072c-0.001 0.444-0.36 0.804-0.804 0.804z" fill="#fff"/>		<path d="m71.088 52.08c-0.444 0-0.804-0.36-0.804-0.804v-5.972c0-0.444 0.36-0.804 0.804-0.804s0.804 0.36 0.804 0.804v5.972c0 0.444-0.36 0.804-0.804 0.804z" fill="#fff"/></svg><svg xmlns:xlink="http://www.w3.org/1999/xlink" id="905" xml:space="preserve" height="77" viewBox="0 0 93.543 76.535" width="94" version="1.1" y="1463" x="0px" enable-background="new 0 0 93.543 76.535"><rect y=".282" x="-.228" height="75.971" width="94" fill="none"/>			<path d="m63.619 39.673c-3.627 0-6.999-1.45-9.494-4.084-0.237-0.25-0.463-0.509-0.679-0.775-2.456 3.02-6.193 4.859-10.171 4.859-3.802 0-7.373-1.658-9.831-4.456-2.472 2.812-6.054 4.456-9.832 4.456-7.216 0-13.087-5.87-13.087-13.087 0-7.215 5.87-13.085 13.087-13.085 3.803 0 7.375 1.658 9.832 4.454 2.459-2.796 6.03-4.454 9.831-4.454 3.98 0 7.718 1.839 10.173 4.859 2.455-3.02 6.192-4.859 10.171-4.859 7.214 0 13.084 5.869 13.084 13.085s-5.87 13.087-13.084 13.087zm-10.171-10.105c0.708 0 1.352 0.407 1.656 1.047 0.427 0.9 0.993 1.724 1.682 2.452 1.796 1.896 4.223 2.94 6.833 2.94 5.193 0 9.419-4.226 9.419-9.422 0-5.194-4.225-9.42-9.419-9.42-3.62 0-6.962 2.115-8.515 5.388-0.303 0.64-0.948 1.047-1.656 1.047-0.707 0-1.352-0.407-1.656-1.047-1.553-3.274-4.897-5.388-8.517-5.388-3.41 0-6.565 1.855-8.232 4.841-0.324 0.58-0.936 0.939-1.6 0.939s-1.277-0.36-1.6-0.94c-1.666-2.986-4.819-4.84-8.232-4.84-5.195 0-9.422 4.226-9.422 9.42 0 5.195 4.226 9.422 9.422 9.422 3.061 0 5.944-1.501 7.713-4.015 0.18-0.255 0.349-0.525 0.519-0.83 0.324-0.58 0.936-0.939 1.6-0.939s1.277 0.36 1.6 0.94c1.666 2.987 4.821 4.844 8.232 4.844 3.62 0 6.963-2.117 8.517-5.392 0.304-0.639 0.948-1.047 1.656-1.047z" fill="#fff"/>			<path d="m63.727 58.262c-1.501 0-3.014-0.157-4.516-0.477-9.49-2.022-16.512-10.192-17.075-19.867-0.024-0.412 0.291-0.766 0.703-0.79 0.409-0.025 0.766 0.29 0.79 0.703 0.525 9.004 7.06 16.608 15.894 18.491 6.568 1.401 13.369-0.556 18.2-5.233 0.296-0.286 0.769-0.28 1.057 0.018 0.287 0.296 0.279 0.77-0.018 1.057-4.084 3.955-9.482 6.098-15.035 6.098z" fill="#fff"/>			<path d="m64.082 53.096c-1.223 0-2.459-0.128-3.687-0.39-7.48-1.594-12.907-7.671-13.197-14.777-0.017-0.413 0.304-0.761 0.717-0.778 0.431-0.02 0.761 0.304 0.778 0.717 0.262 6.424 5.203 11.924 12.014 13.376 4.887 1.039 9.903-0.225 13.422-3.387 0.308-0.276 0.78-0.25 1.056 0.056 0.276 0.307 0.251 0.78-0.056 1.056-2.986 2.682-6.941 4.127-11.047 4.127z" fill="#fff"/>			<path d="m64.489 63.034c-1.914 0-3.837-0.199-5.74-0.604-12.41-2.644-21.368-13.255-21.783-25.804-0.014-0.413 0.31-0.759 0.722-0.772 0.398-0.023 0.759 0.31 0.772 0.722 0.392 11.861 8.864 21.89 20.6 24.391 8.072 1.719 16.564-0.499 22.715-5.936 0.309-0.273 0.782-0.244 1.055 0.065 0.274 0.309 0.244 0.782-0.065 1.055-5.053 4.469-11.602 6.883-18.276 6.883z" fill="#fff"/></svg><svg xmlns:xlink="http://www.w3.org/1999/xlink" id="906" xml:space="preserve" height="77" viewBox="0 0 93.543 76.535" width="94" version="1.1" y="1540" x="0px" enable-background="new 0 0 93.543 76.535"><rect y=".282" x="-.228" height="75.971" width="94" fill="none"/>			<path d="m66.773 40.096c-3.978 0-7.714-1.839-10.169-4.859-2.455 3.02-6.192 4.859-10.171 4.859-3.804 0-7.376-1.658-9.833-4.455-2.457 2.797-6.029 4.455-9.833 4.455-7.215 0-13.085-5.87-13.085-13.086s5.869-13.086 13.085-13.086c3.804 0 7.376 1.658 9.833 4.455 2.457-2.797 6.028-4.455 9.833-4.455 3.979 0 7.717 1.839 10.171 4.86 2.455-3.02 6.192-4.86 10.169-4.86 7.217 0 13.089 5.87 13.089 13.086s-5.872 13.086-13.089 13.086zm-10.169-10.101c0.707 0 1.352 0.407 1.656 1.047 1.554 3.274 4.895 5.389 8.514 5.389 5.196 0 9.424-4.226 9.424-9.421s-4.227-9.421-9.424-9.421c-3.619 0-6.961 2.115-8.514 5.389-0.303 0.64-0.948 1.047-1.656 1.047s-1.352-0.408-1.656-1.047c-1.553-3.274-4.895-5.389-8.516-5.389-3.414 0-6.568 1.855-8.231 4.842-0.324 0.581-0.936 0.941-1.601 0.941s-1.278-0.36-1.601-0.941c-1.665-2.987-4.819-4.843-8.233-4.843-5.194 0-9.42 4.226-9.42 9.421s4.226 9.421 9.42 9.421c3.413 0 6.568-1.855 8.233-4.842 0.324-0.581 0.936-0.941 1.601-0.941s1.278 0.36 1.601 0.941c1.664 2.987 4.818 4.842 8.232 4.842 3.62 0 6.962-2.115 8.516-5.388 0.302-0.64 0.947-1.047 1.655-1.047z" fill="#fff"/>					<rect y="60.335" x="52.245" height="2.276" width="2.276" fill="none"/>					<circle cy="61.473" cx="53.383" r="1.138" fill="#fff"/>					<rect y="55.782" x="54.644" height="2.276" width="2.276" fill="none"/>					<circle cy="56.92" cx="55.782" r="1.138" fill="#fff"/>					<rect y="51.23" x="57.044" height="2.276" width="2.276" fill="none"/>					<circle cy="52.368" cx="58.182" r="1.138" fill="#fff"/>					<rect y="46.678" x="59.444" height="2.276" width="2.276" fill="none"/>					<circle cy="47.816" cx="60.582" r="1.138" fill="#fff"/>					<rect y="42.126" x="61.843" height="2.276" width="2.276" fill="none"/>					<circle cy="43.264" cx="62.982" r="1.138" fill="#fff"/>					<rect y="60.335" x="44.717" height="2.276" width="2.276" fill="none"/>					<circle cy="61.473" cx="45.855" r="1.138" fill="#fff"/>					<rect y="55.783" x="47.116" height="2.276" width="2.276" fill="none"/>					<circle cy="56.921" cx="48.254" r="1.138" fill="#fff"/>					<rect y="51.23" x="49.516" height="2.276" width="2.276" fill="none"/>					<circle cy="52.369" cx="50.654" r="1.138" fill="#fff"/>					<rect y="46.678" x="51.915" height="2.276" width="2.276" fill="none"/>					<circle cy="47.816" cx="53.053" r="1.138" fill="#fff"/>					<rect y="42.126" x="54.315" height="2.276" width="2.276" fill="none"/>					<circle cy="43.264" cx="55.453" r="1.138" fill="#fff"/>					<rect y="60.335" x="36.687" height="2.276" width="2.276" fill="none"/>					<circle cy="61.473" cx="37.826" r="1.138" fill="#fff"/>					<rect y="55.783" x="39.087" height="2.276" width="2.276" fill="none"/>					<circle cy="56.921" cx="40.225" r="1.138" fill="#fff"/>					<rect y="51.23" x="41.487" height="2.276" width="2.276" fill="none"/>					<circle cy="52.369" cx="42.625" r="1.138" fill="#fff"/>					<rect y="46.678" x="43.886" height="2.276" width="2.276" fill="none"/>					<circle cy="47.816" cx="45.024" r="1.138" fill="#fff"/>					<rect y="42.126" x="46.286" height="2.276" width="2.276" fill="none"/>					<circle cy="43.264" cx="47.424" r="1.138" fill="#fff"/>					<rect y="60.335" x="28.265" height="2.276" width="2.276" fill="none"/>					<circle cy="61.473" cx="29.403" r="1.138" fill="#fff"/>					<rect y="55.783" x="30.665" height="2.276" width="2.276" fill="none"/>					<circle cy="56.921" cx="31.803" r="1.138" fill="#fff"/>					<rect y="51.23" x="33.064" height="2.276" width="2.276" fill="none"/>					<circle cy="52.369" cx="34.202" r="1.138" fill="#fff"/>					<rect y="46.678" x="35.464" height="2.276" width="2.276" fill="none"/>					<circle cy="47.816" cx="36.602" r="1.138" fill="#fff"/>					<rect y="42.126" x="37.863" height="2.276" width="2.276" fill="none"/>					<circle cy="43.264" cx="39.001" r="1.138" fill="#fff"/>					<rect y="60.335" x="20.734" height="2.276" width="2.276" fill="none"/>					<circle cy="61.473" cx="21.872" r="1.138" fill="#fff"/>					<rect y="55.783" x="23.134" height="2.276" width="2.276" fill="none"/>					<circle cy="56.921" cx="24.272" r="1.138" fill="#fff"/>					<rect y="51.23" x="25.533" height="2.276" width="2.276" fill="none"/>					<circle cy="52.369" cx="26.671" r="1.138" fill="#fff"/>					<rect y="46.678" x="27.933" height="2.276" width="2.276" fill="none"/>					<circle cy="47.816" cx="29.071" r="1.138" fill="#fff"/>					<rect y="42.126" x="30.332" height="2.276" width="2.276" fill="none"/>					<circle cy="43.264" cx="31.47" r="1.138" fill="#fff"/></svg><svg xmlns:xlink="http://www.w3.org/1999/xlink" id="959" xml:space="preserve" height="77" viewBox="0 0 93.543 76.535" width="94" version="1.1" y="1617" x="0px" enable-background="new 0 0 93.543 76.535"><rect y=".282" x="-.228" height="75.971" width="94" fill="none"/>			<path d="m67.849 39.673c-3.627 0-6.999-1.45-9.494-4.084-0.237-0.25-0.463-0.509-0.679-0.775-2.456 3.02-6.193 4.859-10.171 4.859-3.802 0-7.373-1.658-9.831-4.456-2.472 2.812-6.054 4.456-9.832 4.456-7.216 0-13.087-5.87-13.087-13.087 0-7.215 5.871-13.085 13.087-13.085 3.803 0 7.374 1.658 9.832 4.454 2.458-2.796 6.03-4.454 9.831-4.454 3.98 0 7.718 1.839 10.173 4.859 2.455-3.02 6.192-4.859 10.171-4.859 7.214 0 13.084 5.869 13.084 13.085s-5.869 13.087-13.084 13.087zm-10.17-10.105c0.708 0 1.352 0.407 1.656 1.047 0.427 0.9 0.993 1.725 1.682 2.452 1.796 1.896 4.223 2.94 6.833 2.94 5.193 0 9.419-4.226 9.419-9.422 0-5.194-4.225-9.42-9.419-9.42-3.62 0-6.962 2.115-8.515 5.388-0.303 0.64-0.948 1.047-1.656 1.047-0.707 0-1.352-0.407-1.656-1.047-1.553-3.274-4.897-5.388-8.517-5.388-3.41 0-6.564 1.855-8.231 4.841-0.324 0.58-0.936 0.939-1.6 0.939s-1.276-0.36-1.6-0.94c-1.666-2.985-4.82-4.84-8.232-4.84-5.195 0-9.422 4.226-9.422 9.42 0 5.195 4.227 9.422 9.422 9.422 3.061 0 5.944-1.501 7.713-4.015 0.178-0.252 0.347-0.523 0.52-0.832 0.324-0.579 0.936-0.938 1.599-0.938h0.001c0.664 0 1.276 0.36 1.599 0.94 1.666 2.987 4.82 4.844 8.231 4.844 3.62 0 6.963-2.117 8.517-5.392 0.304-0.638 0.948-1.046 1.656-1.046z" fill="#fff"/>		<path d="m46.848 27.335h-40.382c-0.413 0-0.748-0.335-0.748-0.748s0.335-0.748 0.748-0.748h40.381c0.413 0 0.748 0.335 0.748 0.748s-0.335 0.748-0.747 0.748z" fill="#fff"/>		<path d="m87.077 33.131h-40.381c-0.413 0-0.748-0.335-0.748-0.748s0.335-0.748 0.748-0.748h40.381c0.413 0 0.748 0.335 0.748 0.748s-0.335 0.748-0.748 0.748z" fill="#fff"/>		<path d="m52.812 22.827h-34.63c-0.413 0-0.748-0.335-0.748-0.748s0.335-0.748 0.748-0.748h34.63c0.413 0 0.748 0.335 0.748 0.748s-0.335 0.748-0.748 0.748z" fill="#fff"/>			<path d="m68.533 58.262c-1.501 0-3.014-0.157-4.516-0.477-9.49-2.022-16.511-10.192-17.074-19.867-0.024-0.412 0.291-0.766 0.703-0.79 0.409-0.028 0.766 0.29 0.79 0.703 0.525 9.004 7.06 16.608 15.893 18.491 6.566 1.4 13.369-0.556 18.2-5.233 0.296-0.286 0.769-0.281 1.057 0.018 0.287 0.296 0.279 0.77-0.018 1.057-4.083 3.955-9.482 6.098-15.035 6.098z" fill="#fff"/>			<path d="m68.888 53.096c-1.223 0-2.459-0.128-3.687-0.39-7.48-1.594-12.906-7.671-13.197-14.777-0.017-0.413 0.304-0.761 0.717-0.778 0.433-0.013 0.761 0.304 0.778 0.717 0.262 6.424 5.203 11.924 12.014 13.376 4.886 1.039 9.904-0.225 13.423-3.387 0.308-0.276 0.78-0.25 1.056 0.056 0.276 0.307 0.251 0.78-0.056 1.056-2.986 2.682-6.942 4.127-11.048 4.127z" fill="#fff"/>			<path d="m69.296 63.034c-1.914 0-3.837-0.199-5.74-0.604-12.411-2.644-21.368-13.255-21.784-25.804-0.014-0.413 0.31-0.759 0.722-0.772h0.025c0.402 0 0.734 0.319 0.747 0.723 0.393 11.861 8.864 21.89 20.601 24.391 8.073 1.72 16.565-0.499 22.715-5.936 0.31-0.274 0.782-0.244 1.055 0.065 0.274 0.309 0.244 0.782-0.065 1.055-5.053 4.468-11.602 6.882-18.276 6.882z" fill="#fff"/></svg></svg>
