<?xml version="1.0" encoding="utf-8"?>
<!-- Generator: Adobe Illustrator 17.0.0, SVG Export Plug-In . SVG Version: 6.00 Build 0)  -->
<!DOCTYPE svg PUBLIC "-//W3C//DTD SVG 1.1//EN" "http://www.w3.org/Graphics/SVG/1.1/DTD/svg11.dtd">
<svg version="1.1" id="Layer_1" xmlns="http://www.w3.org/2000/svg" xmlns:xlink="http://www.w3.org/1999/xlink" x="0px" y="0px"
	 width="60px" height="60px" viewBox="0 0 60 60" enable-background="new 0 0 60 60" xml:space="preserve">
<g>
	<circle fill="#DBDBDD" cx="30" cy="30" r="28.5"/>
	<g id="Wr1Z4W_4_">
		<g>
			<path fill="#FFFFFF" d="M30.692,37.235c2.738-0.017,5.469,0.088,8.15,0.616c0.876,0.173,1.731,0.46,2.565,0.76
				c0.761,0.274,1.05,0.799,0.969,1.556c-0.309,2.885-2.011,4.964-4.742,6.436c-4.533,2.441-10.914,2.146-15.024-0.693
				c-2.216-1.531-3.491-3.521-3.614-6.042c-0.023-0.473,0.19-0.8,0.601-1.057c0.787-0.493,1.698-0.716,2.618-0.904
				c2.212-0.451,4.464-0.614,6.727-0.669C29.524,37.223,30.108,37.235,30.692,37.235z"/>
			<path fill="#FFFFFF" d="M38.036,25.143c-0.001,4.268-3.46,7.717-7.733,7.711c-4.288-0.006-7.695-3.458-7.693-7.796
				c0.002-4.199,3.472-7.639,7.708-7.643C34.588,17.412,38.037,20.865,38.036,25.143z"/>
		</g>
	</g>
</g>
</svg>
