<?xml version="1.0" encoding="utf-8"?>
<!-- Generator: Adobe Illustrator 17.0.0, SVG Export Plug-In . SVG Version: 6.00 Build 0)  -->
<!DOCTYPE svg PUBLIC "-//W3C//DTD SVG 1.1//EN" "http://www.w3.org/Graphics/SVG/1.1/DTD/svg11.dtd">
<svg version="1.1" id="Layer_1" xmlns="http://www.w3.org/2000/svg" xmlns:xlink="http://www.w3.org/1999/xlink" x="0px" y="0px"
	 width="22px" height="21px" viewBox="0 0 22 21" enable-background="new 0 0 22 21" xml:space="preserve">
<g>
	<path fill="#FFFFFF" d="M20.272,17.111l-4.488-4.488c0.677-1.113,1.067-2.417,1.067-3.815c0-4.058-3.517-7.574-7.576-7.574
		c-4.058,0-7.348,3.29-7.348,7.348c0,4.058,3.516,7.576,7.574,7.576c1.35,0,2.613-0.366,3.7-1.001l4.512,4.514
		c0.443,0.442,1.158,0.442,1.599,0l1.12-1.119C20.873,18.108,20.713,17.552,20.272,17.111L20.272,17.111z M4.188,8.58
		c0-2.809,2.277-5.087,5.086-5.087c2.811,0,5.314,2.504,5.314,5.314s-2.277,5.087-5.087,5.087S4.187,11.39,4.188,8.58L4.188,8.58z"
		/>
</g>
</svg>
