<?xml version="1.0"?>
<svg width="66" height="50" xmlns="http://www.w3.org/2000/svg">
 <g>
  <title>background</title>
  <rect x="-1" y="-1" width="68" height="52" id="canvas_background" fill="#4486f8"/>
 </g>

 <g>
  <title>Layer 1</title>
  <g id="svg_1">
   <path fill="#FFFFFF" d="m41.872002,31.4375l-4.487999,-4.487997c0.676998,-1.113001 1.066998,-2.417002 1.066998,-3.815002c0,-4.058001 -3.516998,-7.573999 -7.576,-7.573999c-4.058001,0 -7.348,3.290001 -7.348,7.348001c0,4.057997 3.515999,7.576 7.573999,7.576c1.35,0 2.613001,-0.366003 3.700003,-1.001001l4.511997,4.514c0.443001,0.441998 1.158001,0.441998 1.598999,0l1.120003,-1.118999c0.440998,-0.444 0.280998,-1 -0.16,-1.441002l0,0zm-16.084002,-8.530998c0,-2.809002 2.277,-5.087002 5.086,-5.087002c2.810997,0 5.313999,2.504002 5.313999,5.314001s-2.277,5.087 -5.087,5.087s-5.313999,-2.504002 -5.313,-5.313999l0,0z" id="svg_2"/>
  </g>
 </g>
</svg>