<?xml version="1.0" encoding="utf-8"?>
<!-- Generator: Adobe Illustrator 17.0.0, SVG Export Plug-In . SVG Version: 6.00 Build 0)  -->
<!DOCTYPE svg PUBLIC "-//W3C//DTD SVG 1.1//EN" "http://www.w3.org/Graphics/SVG/1.1/DTD/svg11.dtd">
<svg version="1.1" id="Layer_1" xmlns="http://www.w3.org/2000/svg" xmlns:xlink="http://www.w3.org/1999/xlink" x="0px" y="0px"
	 width="60px" height="60px" viewBox="0 0 60 60" enable-background="new 0 0 60 60" xml:space="preserve">
<g>
	<path fill="none" d="M30.78,27.963c-1.089,0.006-1.96,0.877-1.964,1.963c-0.004,1.091,0.862,1.967,1.951,1.973
		c1.091,0.006,1.966-0.849,1.985-1.941C32.771,28.871,31.867,27.957,30.78,27.963z"/>
	<path fill="none" d="M24.84,27.926c-1.099-0.008-1.995,0.877-1.997,1.973c-0.001,1.071,0.889,1.96,1.968,1.966
		c1.074,0.006,1.966-0.873,1.983-1.955C26.811,28.848,25.909,27.934,24.84,27.926z"/>
	<path fill="none" d="M36.783,27.998c-1.073-0.026-1.971,0.842-1.997,1.928c-0.026,1.098,0.842,2.003,1.941,2.023
		c1.051,0.019,1.953-0.852,1.984-1.915C38.743,28.93,37.886,28.025,36.783,27.998z"/>
	<g>
		<g>
			<path fill="#CCCCCC" d="M30.402,1.902c-15.74,0-28.5,12.76-28.5,28.5c0,15.74,12.76,28.5,28.5,28.5s28.5-12.76,28.5-28.5
				C58.902,14.661,46.142,1.902,30.402,1.902z M45.798,25.057c-0.04,0.711-0.036,1.424-0.034,2.138l-0.024,7.751
				c-0.019,3.331-2.18,6.022-5.376,6.696c-0.43,0.091-0.882,0.137-1.34,0.137c-2.169-0.006-4.325-0.022-6.481-0.043
				c-1.594,1.611-3.196,3.216-4.799,4.821c-0.865,0.866-1.756,1.048-2.351,1.048c-0.507,0-1-0.127-1.47-0.377
				c-1.065-0.568-1.676-1.6-1.676-2.829v-2.75c-3.253-0.21-6.037-3.049-6.107-6.257c-0.04-1.84-0.023-3.7-0.008-5.497l0.017-2.612
				c0.003-1.133,0.007-2.267,0.057-3.399c0.15-3.343,3.078-6.18,6.394-6.196l1.873-0.004c2.223,0,4.444,0.017,6.667,0.033
				l3.652,0.023l1.919-0.006c0.795,0,1.737,0.008,2.707,0.063C43.276,18.016,46.017,21.138,45.798,25.057z"/>
		</g>
	</g>
	<g>
		<g>
			<path fill="#CCCCCC" d="M39.225,21.179c-0.837-0.047-1.674-0.057-2.514-0.057l-1.919,0.006l-3.677-0.023
				c-2.214-0.016-4.428-0.033-6.642-0.033l-1.857,0.004c-1.512,0.007-2.953,1.417-3.023,2.958c-0.049,1.083-0.05,2.169-0.053,3.254
				l-0.017,2.634c-0.015,1.772-0.032,3.605,0.008,5.394c0.032,1.475,1.455,2.881,2.985,2.95c0.153,0.007,0.307,0.009,0.464,0.009
				l0.962-0.007h1.695v5.599c1.588-1.59,3.174-3.18,4.753-4.777c0.492-0.498,1.097-0.749,1.799-0.749
				c2.298,0.023,4.564,0.04,6.829,0.046c0.224,0,0.445-0.022,0.643-0.064c1.648-0.348,2.676-1.649,2.686-3.397l0.024-7.722
				c-0.003-0.78-0.004-1.561,0.039-2.338C42.527,22.81,41.217,21.294,39.225,21.179z M24.811,31.864
				c-1.08-0.006-1.969-0.895-1.968-1.966c0.001-1.095,0.898-1.981,1.997-1.973c1.07,0.008,1.971,0.923,1.954,1.984
				C26.777,30.991,25.885,31.87,24.811,31.864z M30.767,31.899c-1.089-0.006-1.955-0.882-1.951-1.973
				c0.004-1.087,0.875-1.957,1.964-1.963c1.088-0.006,1.992,0.908,1.972,1.994C32.732,31.049,31.858,31.904,30.767,31.899z
				 M36.727,31.949c-1.099-0.02-1.967-0.925-1.941-2.023c0.026-1.086,0.924-1.953,1.997-1.928c1.103,0.026,1.96,0.932,1.928,2.036
				C38.68,31.097,37.778,31.968,36.727,31.949z"/>
		</g>
	</g>
</g>
</svg>
