<?xml version="1.0" encoding="utf-8"?>
<!-- Generator: Adobe Illustrator 17.0.0, SVG Export Plug-In . SVG Version: 6.00 Build 0)  -->
<!DOCTYPE svg PUBLIC "-//W3C//DTD SVG 1.1//EN" "http://www.w3.org/Graphics/SVG/1.1/DTD/svg11.dtd">
<svg version="1.1" id="Layer_1" xmlns="http://www.w3.org/2000/svg" xmlns:xlink="http://www.w3.org/1999/xlink" x="0px" y="0px"
	 width="23px" height="22px" viewBox="0 0 23 22" enable-background="new 0 0 23 22" xml:space="preserve">
<g>
	<g>
		<path fill="#FFFFFF" d="M-791.407,140.828c-4.132,0-7.492,3.36-7.492,7.491s3.36,7.491,7.492,7.491
			c4.132,0,7.492-3.36,7.492-7.491S-787.275,140.828-791.407,140.828z"/>
	</g>
	<g>
		<g>
			<path fill="#FFFFFF" d="M-792.25,81.75c-26.786,0-48.5,21.714-48.5,48.5c0,26.786,21.714,48.5,48.5,48.5s48.5-21.714,48.5-48.5
				C-743.75,103.464-765.464,81.75-792.25,81.75z M-791.407,162.588c-7.868,0-14.27-6.401-14.27-14.269
				c0-7.046,5.14-12.9,11.864-14.05v-14.978h-7.901c-1.871,0-3.389-1.013-3.389-2.885s1.518-2.885,3.389-2.885h7.901v-3.847h-10.161
				c-1.871,0-3.388-1.013-3.388-2.885s1.518-2.885,3.388-2.885h10.161v-2.605c0-1.872,1.014-3.389,2.885-3.389
				s2.885,1.517,2.885,3.389v33.167c6.247,1.519,10.906,7.145,10.906,13.852C-777.138,156.187-783.54,162.588-791.407,162.588z"/>
		</g>
	</g>
</g>
<g>
	<path fill="#FFFFFF" d="M-674.75,81.25c-26.786,0-48.5,21.715-48.5,48.5c0,26.786,21.714,48.5,48.5,48.5s48.5-21.714,48.5-48.5
		C-626.25,102.965-647.964,81.25-674.75,81.25z M-652.669,134.75h-18.081v16.977c0,2.158-1.842,3.908-4,3.908s-4-1.75-4-3.908
		V134.75h-18.855c-2.158,0-3.908-1.842-3.908-4s1.75-4,3.908-4h18.855v-19.959c0-2.158,1.842-3.907,4-3.907s4,1.749,4,3.907v19.959
		h18.081c2.158,0,3.907,1.842,3.907,4S-650.511,134.75-652.669,134.75z"/>
</g>
<g>
	<path fill="none" d="M-576.494,115.324c-0.663,0.779-0.988,1.672-0.969,2.737c0.096,1.487,0.797,2.656,2.179,3.328
		c1.419,0.69,2.797,0.507,4.065-0.43c1.08-0.799,1.168-0.805,2.223,0.014c1.542,1.195,3.78,1.056,5.122-0.318
		c1.413-1.447,1.528-3.637,0.27-5.19C-566.643,111.71-573.355,111.639-576.494,115.324z"/>
	<path fill="#FFFFFF" d="M-563.796,81.25c-27.002,0.045-48.465,21.735-48.454,48.966c0.011,26.365,21.848,48.005,48.47,48.034
		c26.848,0.029,48.531-21.676,48.53-48.583C-515.251,102.917-537.021,81.205-563.796,81.25z M-540.199,152.801
		c-1.548,1.832-4.116,1.879-5.93,0.072c-4.794-4.776-9.577-9.564-14.352-14.36c-0.237-0.238-0.352-0.599-0.483-0.83
		c-9.688,6.214-21.1,3.474-27.101-4.469c-5.943-7.865-5.138-18.984,1.934-26.016c7.04-7,18.216-7.668,26.106-1.55
		c7.801,6.05,10.337,17.345,4.362,26.645c0.243,0.254,0.456,0.485,0.677,0.706c4.683,4.684,9.368,9.366,14.049,14.051
		c0.305,0.305,0.609,0.616,0.87,0.958C-538.989,149.42-539.053,151.446-540.199,152.801z"/>
	<path fill="#FFFFFF" d="M-572.129,107.361c-7.779-0.012-14.001,6.172-14.014,13.927c-0.013,7.685,6.197,13.942,13.884,13.988
		c7.672,0.046,14.012-6.255,14.038-13.956C-558.196,113.666-564.466,107.372-572.129,107.361z M-566.022,118.049
		c-1.325,1.016-3.337,0.913-4.605-0.237c-0.868-0.787-0.947-0.791-1.985-0.229c-1.218,0.659-2.467,0.676-3.671-0.039
		c-1.173-0.697-1.692-1.742-1.642-2.994c0.081-0.892,0.453-1.606,1.117-2.192c3.143-2.77,9.132-2.053,11.504,1.382
		C-564.324,115.16-564.627,116.978-566.022,118.049z"/>
</g>
<g>
	<path fill="none" d="M-450.107,125.6c-1.854,0.011-3.335,1.492-3.342,3.341c-0.007,1.857,1.467,3.347,3.32,3.357
		c1.857,0.01,3.345-1.445,3.379-3.304C-446.717,127.145-448.256,125.589-450.107,125.6z"/>
	<path fill="none" d="M-460.215,125.537c-1.87-0.014-3.395,1.493-3.398,3.357c-0.002,1.822,1.512,3.335,3.349,3.345
		c1.828,0.01,3.345-1.486,3.374-3.326C-456.861,127.107-458.395,125.55-460.215,125.537z"/>
	<path fill="none" d="M-439.89,125.66c-1.825-0.044-3.354,1.432-3.398,3.28c-0.045,1.869,1.433,3.409,3.303,3.443
		c1.788,0.032,3.323-1.449,3.376-3.259C-436.554,127.246-438.013,125.705-439.89,125.66z"/>
	<g>
		<g>
			<path fill="#FFFFFF" d="M-450.75,81.25c-26.786,0-48.5,21.714-48.5,48.5c0,26.786,21.714,48.5,48.5,48.5s48.5-21.714,48.5-48.5
				C-402.25,102.964-423.964,81.25-450.75,81.25z M-424.55,120.654c-0.068,1.21-0.062,2.424-0.058,3.638l-0.041,13.19
				c-0.032,5.668-3.709,10.247-9.149,11.395c-0.732,0.155-1.501,0.234-2.28,0.234c-3.691-0.01-7.361-0.037-11.029-0.073
				c-2.712,2.741-5.439,5.473-8.166,8.204c-1.472,1.474-2.988,1.783-4.001,1.783c-0.862,0-1.702-0.216-2.502-0.642
				c-1.812-0.967-2.853-2.722-2.853-4.815v-4.68c-5.535-0.357-10.274-5.189-10.392-10.648c-0.068-3.131-0.039-6.296-0.013-9.355
				l0.028-4.445c0.006-1.929,0.011-3.859,0.098-5.784c0.255-5.689,5.238-10.517,10.88-10.544l3.187-0.008
				c3.783,0,7.563,0.028,11.346,0.055l6.215,0.039l3.266-0.01c1.352,0,2.956,0.013,4.607,0.107
				C-428.842,108.672-424.176,113.985-424.55,120.654z"/>
		</g>
	</g>
	<g>
		<g>
			<path fill="#FFFFFF" d="M-435.734,114.056c-1.424-0.081-2.849-0.098-4.278-0.098l-3.266,0.01l-6.258-0.039
				c-3.768-0.027-7.535-0.055-11.303-0.055l-3.161,0.008c-2.573,0.012-5.026,2.412-5.144,5.034c-0.083,1.843-0.085,3.692-0.09,5.538
				l-0.028,4.483c-0.026,3.015-0.054,6.135,0.013,9.179c0.054,2.509,2.475,4.902,5.08,5.02c0.261,0.012,0.522,0.015,0.789,0.015
				l1.638-0.012h2.885v9.529c2.703-2.706,5.402-5.411,8.089-8.129c0.838-0.847,1.867-1.275,3.061-1.275
				c3.91,0.039,7.766,0.068,11.622,0.079c0.381,0,0.757-0.038,1.095-0.109c2.804-0.592,4.555-2.807,4.571-5.781l0.041-13.141
				c-0.006-1.328-0.008-2.656,0.066-3.979C-430.115,116.831-432.344,114.251-435.734,114.056z M-460.263,132.239
				c-1.837-0.01-3.351-1.523-3.349-3.345c0.002-1.864,1.527-3.371,3.398-3.357c1.82,0.014,3.354,1.57,3.326,3.376
				C-456.918,130.753-458.436,132.249-460.263,132.239z M-450.129,132.298c-1.854-0.01-3.327-1.5-3.32-3.357
				c0.007-1.849,1.489-3.33,3.342-3.341c1.851-0.011,3.39,1.545,3.357,3.394C-446.784,130.852-448.272,132.307-450.129,132.298z
				 M-439.986,132.383c-1.87-0.034-3.347-1.573-3.303-3.443c0.044-1.848,1.573-3.324,3.398-3.28c1.877,0.045,3.336,1.586,3.28,3.464
				C-436.663,130.933-438.198,132.415-439.986,132.383z"/>
		</g>
	</g>
</g>
<g>
	<path fill="none" d="M-235.107,29.6c-1.854,0.011-3.335,1.492-3.342,3.341c-0.007,1.857,1.467,3.347,3.32,3.357
		c1.857,0.01,3.345-1.445,3.379-3.304C-231.717,31.145-233.256,29.589-235.107,29.6z"/>
	<path fill="none" d="M-245.215,29.537c-1.87-0.014-3.395,1.493-3.398,3.357c-0.002,1.822,1.512,3.335,3.349,3.345
		c1.828,0.01,3.345-1.486,3.374-3.326C-241.861,31.107-243.395,29.55-245.215,29.537z"/>
	<path fill="none" d="M-224.89,29.66c-1.825-0.044-3.354,1.432-3.398,3.28c-0.045,1.869,1.433,3.409,3.303,3.443
		c1.788,0.032,3.323-1.449,3.376-3.259C-221.554,31.246-223.013,29.705-224.89,29.66z"/>
	<g>
		<g>
			<path fill="#FFFFFF" d="M-235.75-14.75c-26.786,0-48.5,21.714-48.5,48.5c0,26.786,21.714,48.5,48.5,48.5s48.5-21.714,48.5-48.5
				C-187.25,6.964-208.964-14.75-235.75-14.75z M-209.55,24.654c-0.068,1.21-0.062,2.424-0.058,3.638l-0.041,13.19
				c-0.032,5.668-3.709,10.247-9.149,11.395c-0.732,0.155-1.501,0.234-2.28,0.234c-3.691-0.01-7.361-0.037-11.029-0.073
				c-2.712,2.741-5.439,5.473-8.166,8.204c-1.472,1.474-2.988,1.783-4.001,1.783c-0.862,0-1.702-0.216-2.502-0.642
				c-1.812-0.967-2.853-2.722-2.853-4.815v-4.68c-5.535-0.357-10.274-5.189-10.392-10.648c-0.068-3.131-0.039-6.296-0.013-9.355
				l0.028-4.445c0.006-1.929,0.011-3.859,0.098-5.784c0.255-5.689,5.238-10.517,10.88-10.544l3.187-0.008
				c3.783,0,7.563,0.028,11.346,0.055l6.215,0.039l3.266-0.01c1.352,0,2.956,0.013,4.607,0.107
				C-213.842,12.672-209.176,17.985-209.55,24.654z"/>
		</g>
	</g>
	<g>
		<g>
			<path fill="#FFFFFF" d="M-220.734,18.056c-1.424-0.081-2.849-0.098-4.278-0.098l-3.266,0.01l-6.258-0.039
				c-3.768-0.027-7.535-0.055-11.303-0.055l-3.161,0.008c-2.573,0.012-5.026,2.412-5.144,5.034c-0.083,1.843-0.085,3.692-0.09,5.538
				l-0.028,4.483c-0.026,3.015-0.054,6.135,0.013,9.179c0.054,2.509,2.475,4.902,5.08,5.02c0.261,0.012,0.522,0.015,0.789,0.015
				l1.638-0.012h2.885v9.529c2.703-2.706,5.402-5.411,8.089-8.129c0.838-0.847,1.867-1.275,3.061-1.275
				c3.91,0.039,7.766,0.068,11.622,0.079c0.381,0,0.757-0.038,1.095-0.109c2.804-0.592,4.555-2.807,4.571-5.781l0.041-13.141
				c-0.006-1.328-0.008-2.656,0.066-3.979C-215.115,20.831-217.344,18.251-220.734,18.056z M-245.263,36.239
				c-1.837-0.01-3.351-1.523-3.349-3.345c0.002-1.864,1.527-3.371,3.398-3.357c1.82,0.014,3.354,1.57,3.326,3.376
				C-241.918,34.753-243.436,36.249-245.263,36.239z M-235.129,36.298c-1.854-0.01-3.327-1.5-3.32-3.357
				c0.007-1.849,1.489-3.33,3.342-3.341c1.851-0.011,3.39,1.545,3.357,3.394C-231.784,34.852-233.272,36.307-235.129,36.298z
				 M-224.986,36.383c-1.87-0.034-3.347-1.573-3.303-3.443c0.044-1.848,1.573-3.324,3.398-3.28c1.877,0.045,3.336,1.586,3.28,3.464
				C-221.663,34.933-223.198,36.415-224.986,36.383z"/>
		</g>
	</g>
</g>
<path fill="none" stroke="#FFFFFF" stroke-width="5" stroke-miterlimit="10" d="M-205.016,376.466
	c-1.688-5.525-8.748-10.13-15.041-11.972c-6.851-1.688-13.375-2.152-19.074-2.012c-5.699-0.14-12.224,0.324-19.074,2.012
	c-6.293,1.842-13.353,6.446-15.041,11.972c-1.397,4.572-1.594,11.379,3.837,13.046c3.195,0.981,12.279-0.921,13.046-2.916
	c0.767-1.995-1.228-7.214,0.46-9.362c0.541-0.688,2.119-1.973,4.618-2.674c2.953-0.827,8.749-1.648,12.154-1.648
	s9.201,0.82,12.154,1.648c2.499,0.7,4.077,1.985,4.618,2.674c1.688,2.149-0.307,7.367,0.46,9.362
	c0.767,1.995,9.851,3.897,13.046,2.916C-203.423,387.845-203.62,381.038-205.016,376.466z"/>
<polygon fill="none" stroke="#FFFFFF" stroke-width="5" stroke-linecap="round" stroke-linejoin="round" stroke-miterlimit="10" points="
	-236.25,394.25 -236.25,384.25 -245.25,384.25 -245.25,394.25 -250.584,394.25 -239.013,406.65 -227.441,394.25 "/>
<path fill="none" stroke="#FFFFFF" stroke-width="5" stroke-miterlimit="10" d="M-302.016,302.466
	c-1.688-5.525-8.748-10.13-15.041-11.972c-6.851-1.688-13.375-2.152-19.074-2.012c-5.699-0.14-12.224,0.324-19.074,2.012
	c-6.293,1.842-13.353,6.446-15.041,11.972c-1.397,4.572-1.594,11.379,3.837,13.046c3.195,0.981,12.279-0.921,13.046-2.916
	c0.767-1.995-1.228-7.214,0.46-9.362c0.541-0.688,2.119-1.973,4.618-2.674c2.953-0.827,8.749-1.648,12.154-1.648
	c3.405,0,9.201,0.82,12.154,1.648c2.499,0.7,4.077,1.985,4.618,2.674c1.688,2.149-0.307,7.367,0.46,9.362
	c0.767,1.995,9.851,3.897,13.046,2.916C-300.423,313.845-300.62,307.038-302.016,302.466z"/>
<polygon fill="none" stroke="#FFFFFF" stroke-width="5" stroke-linecap="round" stroke-linejoin="round" stroke-miterlimit="10" points="
	-331.25,321.25 -331.25,314.25 -340.25,314.25 -340.25,321.25 -348.608,321.25 -335.75,334.417 -322.892,321.25 "/>
<g>
	<g>
		<path fill="#FFFFFF" d="M-672.75,249.562v-4.812h-4v4.812c0,1.381-1.119,2.188-2.5,2.188h-2.423l6.923,7.089l6.923-7.089h-2.423
			C-671.631,251.75-672.75,250.942-672.75,249.562z"/>
	</g>
	<g>
		<path fill="#FFFFFF" d="M-656.709,221.22c-5.269-1.293-10.823-1.948-16.511-1.948c-0.627,0-1.243,0.008-1.851,0.022l-0.062,0.002
			l-0.062-0.002c-0.607-0.015-1.225-0.022-1.851-0.022c-5.688,0-11.242,0.655-16.511,1.948c-5.558,1.641-11.897,5.691-13.302,10.288
			c-0.105,0.346-2.532,8.479,2.18,9.926c0.153,0.047,0.613,0.156,1.585,0.156c3.202,0,7.21-1.074,8.42-1.83
			c0.014-0.532-0.106-1.569-0.19-2.296c-0.294-2.532-0.626-5.402,0.991-7.463c0.917-1.167,2.951-2.708,5.91-3.537
			c3.31-0.927,9.305-1.74,12.829-1.74s9.52,0.813,12.828,1.74c2.963,0.83,4.995,2.372,5.91,3.538c1.618,2.06,1.285,4.93,0.992,7.462
			c-0.083,0.719-0.201,1.74-0.183,2.3c1.219,0.756,5.217,1.826,8.412,1.826c0.972,0,1.432-0.109,1.584-0.156
			c4.713-1.446,2.286-9.58,2.181-9.926C-644.812,226.911-651.152,222.859-656.709,221.22z"/>
	</g>
	<g>
		<g>
			<path fill="#FFFFFF" d="M-674.75,188.25c-26.786,0-48.5,21.714-48.5,48.5c0,26.786,21.714,48.5,48.5,48.5s48.5-21.714,48.5-48.5
				C-626.25,209.964-647.964,188.25-674.75,188.25z M-660.103,251.231l-12.858,13.206c-0.471,0.481-1.116,0.792-1.789,0.792
				s-1.318-0.271-1.789-0.753l-12.858-13.167c-0.702-0.72-0.905-1.947-0.515-2.874c0.39-0.927,1.298-1.685,2.304-1.685h5.858v-4.188
				c0-1.381,1.119-2.812,2.5-2.812h9c1.381,0,2.5,1.431,2.5,2.812v4.188h5.858c1.006,0,1.914,0.758,2.304,1.685
				C-659.197,249.362-659.4,250.511-660.103,251.231z M-644.12,246.213c-0.824,0.254-1.822,0.377-3.052,0.377
				c-1.846,0-11.54-0.832-13.061-4.785c-0.542-1.408-0.345-3.111-0.136-4.916c0.123-1.064,0.38-3.281,0.037-3.806
				c-0.183-0.232-1.294-1.236-3.321-1.805c-2.853-0.799-8.432-1.555-11.479-1.555s-8.627,0.756-11.48,1.555
				c-2.026,0.568-3.14,1.573-3.326,1.812c-0.337,0.517-0.081,2.733,0.043,3.798c0.209,1.805,0.406,3.509-0.136,4.917
				c-1.521,3.953-11.215,4.785-13.061,4.785c-1.212,0-2.239-0.127-3.053-0.377c-6.59-2.022-7.507-9.577-5.493-16.166
				c2.025-6.633,9.862-11.631,16.729-13.641l0.104-0.028c5.676-1.397,11.65-2.106,17.76-2.106c0.646,0,1.284,0.008,1.912,0.022
				c0.628-0.015,1.265-0.022,1.912-0.022c6.109,0,12.084,0.709,17.76,2.106l0.104,0.028c6.866,2.01,14.702,7.007,16.729,13.641
				C-636.612,236.636-637.529,244.19-644.12,246.213z"/>
		</g>
	</g>
</g>
<g>
	<path fill="#FFFFFF" d="M-335.559,106.563c-0.732,0-1.29,0.244-1.809,0.79c-1.045,1.104-2.337,5.605-2.402,7.538
		c0.415,0.176,0.97,0.375,1.387,0.524c2.153,0.775,4.835,1.739,5.971,4.125c0.618,1.294,1.086,3.699,0.545,6.562
		c-0.579,3.048-2.324,8.217-3.735,11.062c-1.41,2.845-4.47,7.361-6.546,9.666c-1.949,2.162-4.146,3.245-5.553,3.538
		c-0.347,0.072-0.709,0.109-1.074,0.109c-0.001,0-0.001,0-0.001,0c-2.177,0-4.113-1.258-5.823-2.367
		c-0.372-0.241-0.866-0.562-1.256-0.786c-1.5,1.222-4.302,4.975-4.547,6.475c-0.581,3.538,6.296,4.717,6.365,4.729
		c3.412,0.569,8.875-2.154,12.672-6.247c3.387-4.014,6.289-8.594,8.627-13.614l0.065-0.132c2.583-4.901,4.473-9.983,5.618-15.106
		c0.968-5.546-0.187-11.499-2.695-13.869C-331.677,107.739-333.957,106.563-335.559,106.563z"/>
	<path fill="#FFFFFF" d="M-343.583,84.083c-26.786,0-48.5,21.714-48.5,48.5c0,26.786,21.714,48.5,48.5,48.5
		c26.786,0,48.5-21.714,48.5-48.5C-295.083,105.798-316.797,84.083-343.583,84.083z M-321.158,124.539l-0.025,0.127
		c-1.255,5.643-3.322,11.227-6.146,16.6c-2.567,5.499-5.763,10.524-9.496,14.939l-0.086,0.097c-3.532,3.83-9.883,8.302-16.152,8.302
		h-0.001c-0.667,0-1.323-0.053-1.951-0.156c-6.403-1.06-12.384-5.062-11.307-11.62c0.587-3.586,6.228-11.717,10.326-11.717
		l0.355,0.017c1.523,0.143,2.877,1.021,4.309,1.95c0.69,0.448,1.944,1.263,2.501,1.388c0.359-0.131,1.286-0.609,2.227-1.652
		c1.72-1.908,4.455-5.948,5.628-8.314c1.174-2.366,2.736-6.989,3.215-9.513c0.259-1.369,0.083-2.39-0.035-2.774
		c-0.438-0.367-1.843-0.872-2.615-1.149c-1.607-0.578-3.125-1.124-4.159-2.25c-0.877-0.953-1.886-2.844-0.534-8.224
		c0.304-1.209,1.445-5.314,3.384-7.361c1.65-1.742,3.782-2.664,6.164-2.664c4.533,0,8.454,3.241,9.929,4.635
		C-320.953,109.616-320.015,118.095-321.158,124.539z"/>
</g>
<polygon fill="#FFFFFF" stroke="#FFFFFF" stroke-linecap="round" stroke-linejoin="round" stroke-miterlimit="10" points="
	-209.25,252.25 -209.25,246.25 -213.25,246.25 -213.25,252.25 -219.133,252.25 -211.441,261.687 -203.75,252.25 "/>
<g>
	<path fill="#FFFFFF" d="M-95.654,275.951c0.321,0.658,0.785,1.052,1.503,1.279c1.451,0.455,6.062-0.358,7.828-1.147
		c-0.024-0.45-0.088-1.036-0.137-1.476c-0.248-2.275-0.558-5.108,1.088-7.175c0.892-1.123,2.848-2.598,5.658-3.368
		c2.993-0.816,8.404-1.515,11.58-1.495c3.175,0.02,8.576,0.788,11.558,1.643c2.798,0.803,4.735,2.303,5.615,3.438
		c0.217,0.28,0.409,0.589,0.569,0.917c0,0.001,0,0.001,0,0.001c0.955,1.956,0.674,4.248,0.427,6.272
		c-0.054,0.44-0.126,1.025-0.156,1.473c1.756,0.812,6.357,1.684,7.813,1.246c3.434-1.03,1.478-7.727,1.458-7.794
		c-0.985-3.316-5.826-7.237-11.17-8.854c-5.092-1.283-10.481-1.929-16.016-1.988l-0.147-0.002
		c-5.539-0.059-10.936,0.566-16.042,1.783c-5.408,1.563-10.253,5.314-11.283,8.608C-96.299,271.844-96.356,274.512-95.654,275.951z"
		/>
	<path fill="#FFFFFF" d="M-117.25,271.642c-0.06,26.786,21.606,48.548,48.392,48.608c26.786,0.06,48.548-21.606,48.608-48.392
		c0.06-26.786-21.606-48.548-48.392-48.608C-95.428,223.19-117.19,244.856-117.25,271.642z M-85.815,255.125l0.125-0.033
		c5.621-1.347,11.546-1.938,17.614-1.757c6.068-0.105,11.986,0.563,17.591,1.981l0.125,0.035c4.991,1.494,11.795,5.24,14.545,10.875
		c0,0.001,0,0.001,0,0.001c0.293,0.599,0.533,1.212,0.715,1.822c1.856,6.219,0.882,13.35-5.484,15.258
		c-3.48,1.045-13.261-0.458-15.059-4.141l-0.141-0.327c-0.54-1.432-0.345-3.033-0.137-4.727c0.1-0.817,0.282-2.301,0.15-2.856
		c-0.275-0.266-1.112-0.889-2.462-1.276c-2.469-0.709-7.3-1.395-9.94-1.411c-2.641-0.017-7.481,0.606-9.959,1.283
		c-1.344,0.368-2.184,0.974-2.478,1.248c-0.138,0.555,0.025,2.039,0.114,2.854c0.185,1.698,0.36,3.301-0.198,4.725
		c-0.472,1.206-1.729,2.942-7.156,4.087c-1.22,0.257-5.41,1.032-8.1,0.188c-2.29-0.719-4.053-2.231-5.098-4.371
		c-1.988-4.074-0.795-9.019-0.19-10.956C-99.316,261.486-92.108,256.924-85.815,255.125z"/>
</g>
<g>
	<path fill="none" d="M77.185,266.227C77.185,266.227,77.185,266.227,77.185,266.227c-2.75-5.635-9.554-9.381-14.545-10.876
		l-0.125-0.035c-5.605-1.419-11.523-2.086-17.591-1.982c-6.067-0.181-11.992,0.41-17.614,1.757l-0.125,0.033
		c-6.293,1.799-13.502,6.361-15.421,12.502c-0.606,1.936-1.799,6.882,0.19,10.956c1.045,2.141,2.808,3.652,5.098,4.371
		c2.69,0.844,6.88,0.07,8.1-0.188c5.428-1.145,6.684-2.881,7.156-4.087c0.558-1.423,0.383-3.027,0.198-4.725
		c-0.09-0.816-0.252-2.299-0.114-2.854c0.294-0.275,1.134-0.881,2.478-1.248c2.478-0.677,7.318-1.3,9.959-1.283
		c2.641,0.016,7.471,0.702,9.94,1.411c1.35,0.388,2.186,1.011,2.461,1.276c0.132,0.555-0.05,2.039-0.15,2.856
		c-0.208,1.694-0.403,3.296,0.137,4.727l0.141,0.327c1.798,3.683,11.579,5.186,15.059,4.141c6.366-1.908,7.34-9.038,5.484-15.258
		C77.718,267.439,77.478,266.827,77.185,266.227z M70.693,277.56c-1.456,0.438-6.057-0.434-7.813-1.246
		c0.03-0.448,0.102-1.033,0.156-1.473c0.247-2.023,0.528-4.315-0.427-6.271l0-0.001c-0.16-0.328-0.352-0.638-0.569-0.917
		c-0.88-1.135-2.817-2.635-5.615-3.438c-2.982-0.855-8.383-1.624-11.558-1.643c-3.176-0.02-8.587,0.679-11.58,1.495
		c-2.81,0.769-4.766,2.245-5.658,3.368c-1.646,2.067-1.336,4.9-1.088,7.175c0.049,0.44,0.113,1.026,0.137,1.476
		c-1.766,0.789-6.377,1.602-7.828,1.147c-0.718-0.227-1.182-0.621-1.503-1.279c-0.702-1.439-0.645-4.107,0.146-6.637
		c1.03-3.294,5.874-7.046,11.283-8.609c5.106-1.218,10.503-1.842,16.042-1.783l0.147,0.002c5.536,0.059,10.924,0.705,16.016,1.988
		c5.343,1.617,10.185,5.538,11.17,8.854C72.171,269.833,74.128,276.53,70.693,277.56z"/>
	<path fill="#FFFFFF" d="M60.981,260.911c-5.092-1.283-10.481-1.929-16.016-1.988l-0.147-0.002
		c-5.539-0.059-10.936,0.566-16.042,1.783c-5.409,1.563-10.253,5.314-11.283,8.609c-0.791,2.53-0.848,5.198-0.146,6.637
		c0.321,0.658,0.785,1.052,1.503,1.279c1.451,0.455,6.062-0.358,7.828-1.147c-0.024-0.45-0.088-1.036-0.137-1.476
		c-0.248-2.275-0.558-5.108,1.088-7.175c0.892-1.123,2.848-2.598,5.658-3.368c2.993-0.816,8.404-1.515,11.58-1.495
		c3.175,0.02,8.576,0.788,11.558,1.643c2.798,0.803,4.735,2.303,5.615,3.438c0.217,0.28,0.409,0.589,0.569,0.917l0,0.001
		c0.955,1.956,0.674,4.248,0.427,6.271c-0.054,0.44-0.126,1.025-0.156,1.473c1.756,0.812,6.357,1.684,7.813,1.246
		c3.434-1.03,1.477-7.727,1.458-7.794C71.166,266.449,66.324,262.528,60.981,260.911z"/>
	<path fill="#FFFFFF" d="M46.25,285.497v-5.747h-3v5.747c0,1.059-0.886,1.253-2.209,1.253h-1.082l4.875,6.755l4.875-6.755h-1.481
		C46.903,286.75,46.25,286.556,46.25,285.497z"/>
	<path fill="#FFFFFF" d="M87.836,250.478c-11.748-24.072-40.786-34.062-64.858-22.314c-24.072,11.748-34.062,40.786-22.314,64.858
		c11.748,24.072,40.786,34.062,64.858,22.314C89.594,303.588,99.584,274.55,87.836,250.478z M55.931,286.539L46.907,299
		c-0.427,0.593-1.218,0.916-2.074,0.916s-1.647-0.366-2.074-0.958l-9.023-12.503c-0.428-0.593-0.428-1.239,0-1.832
		c0.427-0.593,1.218-0.874,2.074-0.874h3.44v-5.917c0-1.058,0.468-2.083,1.791-2.083h7.186c1.323,0,3.023,1.024,3.023,2.083v5.917
		h2.607c0.856,0,1.647,0.281,2.074,0.874C56.359,285.216,56.359,285.947,55.931,286.539z M72.417,283.307
		c-3.48,1.045-13.261-0.458-15.059-4.141l-0.141-0.327c-0.54-1.432-0.345-3.033-0.137-4.727c0.1-0.817,0.282-2.301,0.15-2.856
		c-0.275-0.266-1.112-0.889-2.461-1.276c-2.469-0.709-7.3-1.395-9.94-1.411c-2.641-0.017-7.481,0.606-9.959,1.283
		c-1.344,0.368-2.184,0.974-2.478,1.248c-0.138,0.555,0.025,2.039,0.114,2.854c0.185,1.698,0.36,3.301-0.198,4.725
		c-0.472,1.206-1.729,2.942-7.156,4.087c-1.22,0.257-5.41,1.032-8.1,0.188c-2.29-0.719-4.053-2.231-5.098-4.371
		c-1.988-4.074-0.795-9.019-0.19-10.956c1.919-6.141,9.128-10.703,15.421-12.502l0.125-0.033c5.621-1.347,11.546-1.938,17.614-1.757
		c6.068-0.105,11.986,0.563,17.591,1.982l0.125,0.035c4.991,1.494,11.795,5.24,14.545,10.875c0,0.001,0,0.001,0,0.001
		c0.293,0.599,0.533,1.212,0.715,1.822C79.757,274.268,78.782,281.399,72.417,283.307z"/>
</g>
<g>
	<path fill="#FFFFFF" d="M-236.25,148.75c-1.381,0-2.5-1.119-2.5-2.5v-34c0-1.381,1.119-2.5,2.5-2.5s2.5,1.119,2.5,2.5v34
		C-233.75,147.631-234.869,148.75-236.25,148.75z"/>
</g>
<g>
	<path fill="#FFFFFF" d="M-219.25,131.75h-34c-1.381,0-2.5-1.119-2.5-2.5s1.119-2.5,2.5-2.5h34c1.381,0,2.5,1.119,2.5,2.5
		S-217.869,131.75-219.25,131.75z"/>
</g>
<g>
	<circle fill="#FFFFFF" cx="-155.75" cy="126.75" r="31.5"/>
</g>
<circle fill="#FD5B4B" cx="43.75" cy="-29.75" r="15.5"/>
<circle fill="#FD5B4B" cx="10.75" cy="-29.75" r="15.5"/>
<polyline fill="none" stroke="#FFFFFF" stroke-width="2" stroke-linecap="round" stroke-linejoin="round" stroke-miterlimit="10" points="
	54.435,-32.212 45.43,-23.737 35.889,-21.135 39.122,-31.326 47.296,-39.5 "/>
<polygon fill="none" stroke="#FFFFFF" stroke-width="2" stroke-linecap="round" stroke-miterlimit="10" points="37.545,-24.202 
	39.02,-22.717 37.545,-22.333 "/>
<line fill="none" stroke="#FFFFFF" stroke-width="2" stroke-miterlimit="10" x1="39.122" y1="-31.326" x2="46.006" y2="-24.442"/>
<g>
	<g>
		<path fill="#FFFFFF" d="M4.503-23.503c-0.442-0.442-0.442-1.159,0-1.602l10.893-10.893c0.442-0.442,1.159-0.442,1.602,0
			c0.442,0.442,0.442,1.159,0,1.602L6.105-23.503C5.662-23.06,4.945-23.06,4.503-23.503z"/>
	</g>
	<g>
		<path fill="#FFFFFF" d="M15.395-23.503L4.503-34.395c-0.442-0.442-0.442-1.159,0-1.602c0.442-0.442,1.159-0.442,1.602,0
			l10.893,10.893c0.442,0.442,0.442,1.159,0,1.602S15.838-23.06,15.395-23.503z"/>
	</g>
</g>
<circle fill="#FD5B4B" cx="-544.25" cy="276.235" r="15.5"/>
<g>
	<g>
		<path fill="#FFFFFF" d="M-550.497,282.482c-0.442-0.442-0.442-1.159,0-1.602l10.893-10.893c0.442-0.442,1.159-0.442,1.602,0
			s0.442,1.159,0,1.602l-10.893,10.893C-549.338,282.925-550.055,282.925-550.497,282.482z"/>
	</g>
	<g>
		<path fill="#FFFFFF" d="M-539.605,282.482l-10.893-10.893c-0.442-0.442-0.442-1.159,0-1.602s1.159-0.442,1.602,0l10.893,10.893
			c0.442,0.442,0.442,1.159,0,1.602S-539.162,282.925-539.605,282.482z"/>
	</g>
</g>
<circle fill="#FD5B4B" cx="-544.25" cy="232.235" r="15.5"/>
<g>
	
		<line fill="none" stroke="#FFFFFF" stroke-width="2" stroke-linejoin="round" stroke-miterlimit="10" x1="-545.604" y1="237.091" x2="-549.19" y2="233.505"/>
	<polyline fill="none" stroke="#FFFFFF" stroke-width="2" stroke-linejoin="round" stroke-miterlimit="10" points="-549.19,233.505 
		-549.675,233.02 -540.133,223.478 -535.64,227.97 -545.183,237.513 -545.604,237.091 	"/>
	<polyline fill="none" stroke="#FFFFFF" stroke-width="2" stroke-linejoin="round" stroke-miterlimit="10" points="-549.675,233.02 
		-550.86,238.992 -545.183,237.513 	"/>
</g>
<path fill="#FFFFFF" d="M12.352,55.235l4.645-4.645c0.442-0.442,0.442-1.159,0-1.602s-1.159-0.442-1.602,0l-4.645,4.645
	l-4.645-4.645c-0.442-0.442-1.159-0.442-1.602,0s-0.442,1.159,0,1.602l4.645,4.645L4.503,59.88c-0.442,0.442-0.442,1.159,0,1.602
	s1.159,0.442,1.602,0l4.645-4.645l4.645,4.645c0.442,0.442,1.159,0.442,1.602,0s0.442-1.159,0-1.602L12.352,55.235z"/>
<path fill="#FFFFFF" d="M20.066,7.264l-4.492-4.493c-0.375-0.375-1.039-0.375-1.414,0l-9.542,9.542
	c-0.146,0.146-0.219,0.328-0.256,0.516l-0.018-0.003L3.16,18.798c-0.067,0.338,0.044,0.686,0.295,0.922
	c0.188,0.177,0.434,0.272,0.686,0.272c0.084,0,0.169-0.011,0.252-0.032l5.677-1.479l-0.004-0.016
	c0.167-0.043,0.328-0.114,0.459-0.245l9.542-9.542C20.457,8.287,20.457,7.654,20.066,7.264z M5.942,15.051l1.934,1.934l-2.444,0.637
	L5.942,15.051z M9.817,16.099l-3.078-3.078l8.128-8.128l3.078,3.078L9.817,16.099z"/>
<path fill="#FFFFFF" d="M66.444,7.264l-4.492-4.493c-0.375-0.375-1.039-0.375-1.414,0l-9.542,9.542
	c-0.146,0.146-0.219,0.328-0.256,0.516l-0.018-0.003l-1.185,5.972c-0.067,0.338,0.044,0.686,0.295,0.922
	c0.188,0.177,0.434,0.272,0.686,0.272c0.084,0,0.169-0.011,0.252-0.032l5.677-1.479l-0.004-0.016
	c0.167-0.043,0.328-0.114,0.459-0.245l9.542-9.542C66.835,8.287,66.835,7.654,66.444,7.264z M52.319,15.051l1.934,1.934
	l-2.444,0.637L52.319,15.051z M56.195,16.099l-3.078-3.078l8.128-8.128l3.078,3.078L56.195,16.099z"/>
<circle fill="#FD5B4B" cx="-35.25" cy="55.235" r="15.5"/>
<g>
	<g>
		<path fill="#FFFFFF" d="M-41.497,61.482c-0.442-0.442-0.442-1.159,0-1.602l10.893-10.893c0.442-0.442,1.159-0.442,1.602,0
			c0.442,0.442,0.442,1.159,0,1.602l-10.893,10.893C-40.338,61.925-41.055,61.925-41.497,61.482z"/>
	</g>
	<g>
		<path fill="#FFFFFF" d="M-30.605,61.482L-41.497,50.59c-0.442-0.442-0.442-1.159,0-1.602c0.442-0.442,1.159-0.442,1.602,0
			l10.893,10.893c0.442,0.442,0.442,1.159,0,1.602C-29.445,61.925-30.162,61.925-30.605,61.482z"/>
	</g>
</g>
<circle fill="#FD5B4B" cx="-35.25" cy="11.235" r="15.5"/>
<g>
	
		<line fill="none" stroke="#FFFFFF" stroke-width="2" stroke-linejoin="round" stroke-miterlimit="10" x1="-35.604" y1="16.091" x2="-39.19" y2="12.505"/>
	<polyline fill="none" stroke="#FFFFFF" stroke-width="2" stroke-linejoin="round" stroke-miterlimit="10" points="-40.19,13.505 
		-40.675,13.02 -31.133,3.478 -26.64,7.97 -36.183,17.513 -36.604,17.091 	"/>
	<polyline fill="none" stroke="#FFFFFF" stroke-width="2" stroke-linejoin="round" stroke-miterlimit="10" points="-40.675,13.02 
		-41.86,18.992 -36.183,17.513 	"/>
</g>
<path fill="#FFFFFF" d="M20.066,7.264l-4.492-4.493c-0.375-0.375-1.039-0.375-1.414,0l-9.542,9.542
	c-0.146,0.146-0.219,0.328-0.256,0.516l-0.018-0.003L3.16,18.798c-0.067,0.338,0.044,0.686,0.295,0.922
	c0.188,0.177,0.434,0.272,0.686,0.272c0.084,0,0.169-0.011,0.252-0.032l5.677-1.479l-0.004-0.016
	c0.167-0.043,0.328-0.114,0.459-0.245l9.542-9.542C20.457,8.287,20.457,7.654,20.066,7.264z M6.246,13.513l0.079-0.079l3.078,3.078
	l-0.101,0.101l-3.871,1.009L6.246,13.513z M10.817,15.099l-3.078-3.078l7.128-7.128l3.078,3.078L10.817,15.099z"/>
</svg>
