<?xml version="1.0" encoding="utf-8"?>
<!-- Generator: Adobe Illustrator 17.0.0, SVG Export Plug-In . SVG Version: 6.00 Build 0)  -->
<!DOCTYPE svg PUBLIC "-//W3C//DTD SVG 1.1//EN" "http://www.w3.org/Graphics/SVG/1.1/DTD/svg11.dtd">
<svg version="1.1" id="Layer_1" xmlns="http://www.w3.org/2000/svg" xmlns:xlink="http://www.w3.org/1999/xlink" x="0px" y="0px"
	 width="23px" height="22px" viewBox="0 0 23 22" enable-background="new 0 0 23 22" xml:space="preserve">
<path fill="#FFFFFF" d="M13.102,11.485l4.645-4.645c0.442-0.442,0.442-1.159,0-1.602s-1.159-0.442-1.602,0L11.5,9.883L6.855,5.238
	c-0.442-0.442-1.159-0.442-1.602,0s-0.442,1.159,0,1.602l4.645,4.645L5.253,16.13c-0.442,0.442-0.442,1.159,0,1.602
	s1.159,0.442,1.602,0l4.645-4.645l4.645,4.645c0.442,0.442,1.159,0.442,1.602,0s0.442-1.159,0-1.602L13.102,11.485z"/>
</svg>
