<?xml version="1.0" encoding="utf-8"?>
<!-- Generator: Adobe Illustrator 17.0.0, SVG Export Plug-In . SVG Version: 6.00 Build 0)  -->
<!DOCTYPE svg PUBLIC "-//W3C//DTD SVG 1.1//EN" "http://www.w3.org/Graphics/SVG/1.1/DTD/svg11.dtd">
<svg version="1.1" id="Layer_1" xmlns="http://www.w3.org/2000/svg" xmlns:xlink="http://www.w3.org/1999/xlink" x="0px" y="0px"
	 width="100px" height="100px" viewBox="0 0 100 100" enable-background="new 0 0 100 100" xml:space="preserve">
<g>
	<path fill="#FFFFFF" d="M60,32.534C60,31.687,59.313,31,58.466,31H40.534C39.687,31,39,31.687,39,32.534v27.932
		C39,61.313,39.687,62,40.534,62h17.932C59.313,62,60,61.313,60,60.466V32.534z"/>
	<path fill="#FFFFFF" d="M65,24.826C65,23.817,64.183,23,63.174,23H35.826C34.817,23,34,23.817,34,24.826v51.349
		C34,77.183,34.817,78,35.826,78h27.349C64.183,78,65,77.183,65,76.174V24.826z M54,74h-8c-0.828,0-1.5-0.672-1.5-1.5
		S45.172,71,46,71h8c0.828,0,1.5,0.672,1.5,1.5S54.828,74,54,74z M63,60.466C63,62.97,60.97,65,58.466,65H40.534
		C38.03,65,36,62.97,36,60.466V32.534C36,30.03,38.03,28,40.534,28h17.932C60.97,28,63,30.03,63,32.534V60.466z"/>
	<path fill="#FFFFFF" d="M50,1.5C23.214,1.5,1.5,23.214,1.5,50S23.214,98.5,50,98.5c26.786,0,48.5-21.714,48.5-48.5
		S76.786,1.5,50,1.5z M68,76.174C68,78.839,65.839,81,63.174,81H35.826C33.161,81,31,78.839,31,76.174V24.826
		C31,22.161,33.161,20,35.826,20h27.349C65.839,20,68,22.161,68,24.826V76.174z"/>
</g>
</svg>
