<?xml version="1.0" encoding="utf-8"?>
<!-- Generator: Adobe Illustrator 17.0.0, SVG Export Plug-In . SVG Version: 6.00 Build 0)  -->
<!DOCTYPE svg PUBLIC "-//W3C//DTD SVG 1.1//EN" "http://www.w3.org/Graphics/SVG/1.1/DTD/svg11.dtd">
<svg version="1.1" id="Layer_1" xmlns="http://www.w3.org/2000/svg" xmlns:xlink="http://www.w3.org/1999/xlink" x="0px" y="0px"
	 width="100px" height="100px" viewBox="0 0 100 100" enable-background="new 0 0 100 100" xml:space="preserve">
<g>
	<path fill="none" d="M37.256,35.574c-0.663,0.779-0.988,1.672-0.969,2.737c0.096,1.487,0.797,2.656,2.179,3.328
		c1.419,0.69,2.797,0.507,4.065-0.43c1.08-0.799,1.168-0.805,2.223,0.014c1.542,1.195,3.78,1.056,5.122-0.318
		c1.413-1.447,1.528-3.637,0.27-5.19C47.107,31.96,40.395,31.889,37.256,35.574z"/>
	<path fill="#FFFFFF" d="M49.954,1.5C22.952,1.545,1.489,23.235,1.5,50.466C1.511,76.831,23.348,98.471,49.97,98.5
		c26.848,0.029,48.531-21.676,48.53-48.583C98.499,23.167,76.729,1.455,49.954,1.5z M73.551,73.051
		c-1.548,1.832-4.116,1.879-5.93,0.072c-4.794-4.776-9.577-9.564-14.352-14.36c-0.237-0.238-0.352-0.599-0.483-0.83
		c-9.688,6.214-21.1,3.474-27.101-4.469c-5.943-7.865-5.138-18.984,1.934-26.016c7.04-7,18.216-7.668,26.106-1.55
		c7.801,6.05,10.337,17.345,4.362,26.645c0.243,0.254,0.456,0.485,0.677,0.706c4.683,4.684,9.368,9.366,14.049,14.051
		c0.305,0.305,0.609,0.616,0.87,0.958C74.761,69.67,74.697,71.696,73.551,73.051z"/>
	<path fill="#FFFFFF" d="M41.621,27.611c-7.779-0.012-14.001,6.172-14.014,13.927c-0.013,7.685,6.197,13.942,13.884,13.988
		c7.672,0.046,14.012-6.255,14.038-13.956C55.554,33.916,49.284,27.622,41.621,27.611z M47.728,38.299
		c-1.325,1.016-3.337,0.913-4.605-0.237c-0.868-0.787-0.947-0.791-1.985-0.229c-1.218,0.659-2.467,0.676-3.671-0.039
		c-1.173-0.697-1.692-1.742-1.642-2.994c0.081-0.892,0.453-1.606,1.117-2.192c3.143-2.77,9.132-2.053,11.504,1.382
		C49.426,35.41,49.123,37.228,47.728,38.299z"/>
</g>
</svg>
