<?xml version="1.0" encoding="utf-8"?>
<!-- Generator: Adobe Illustrator 17.0.0, SVG Export Plug-In . SVG Version: 6.00 Build 0)  -->
<!DOCTYPE svg PUBLIC "-//W3C//DTD SVG 1.1//EN" "http://www.w3.org/Graphics/SVG/1.1/DTD/svg11.dtd">
<svg version="1.1" id="Layer_1" xmlns="http://www.w3.org/2000/svg" xmlns:xlink="http://www.w3.org/1999/xlink" x="0px" y="0px"
	 width="100px" height="100px" viewBox="0 0 100 100" enable-background="new 0 0 100 100" xml:space="preserve">
<g>
	<path fill="#FFFFFF" d="M70.595,52.694c-0.36-1.222-1.151-2.638-4.084-2.748c-0.706-0.026-1.368-0.35-1.822-0.891
		s-0.658-1.249-0.562-1.948l0.021-0.149c0.021-0.15,0.051-0.298,0.051-0.454c0-2.323-2.362-4.439-4.957-4.439
		c-0.357,0-1.022,0.057-2.159,0.329c-0.746,0.177-1.529,0.005-2.13-0.469s-0.951-1.197-0.951-1.962c0-2.448-2.019-4.44-4.5-4.44
		s-4.5,1.991-4.5,4.439c0,0.764-0.35,1.487-0.949,1.961s-1.385,0.65-2.127,0.472c-0.526-0.125-0.857-0.245-1.067-0.326
		c-2.345,0.043-4.056,1.838-4.145,4.239c0.066,0.198,0.164,0.494,0.217,0.852c0.114,0.783-0.148,1.574-0.708,2.132
		c-0.561,0.558-1.348,0.823-2.135,0.702c-0.136-0.02-0.264-0.045-0.388-0.07l-0.025-0.005c-2.519,0.36-3.914,1.596-4.38,3.879
		c-0.679,3.321,0.974,7.296,2.009,8.294H68.63C69.737,60.799,71.598,56.086,70.595,52.694z M37.654,58.597
		c-1.683-0.001-3.073-1.424-3.032-3.105c0.041-1.689,1.402-3.003,3.091-2.984c1.685,0.02,3.016,1.383,2.999,3.071
		C40.695,57.26,39.339,58.598,37.654,58.597z M41.452,46.954c0.042-1.689,1.403-3.004,3.091-2.984
		c1.685,0.02,3.016,1.383,2.999,3.071c-0.017,1.681-1.373,3.019-3.058,3.018C42.801,50.058,41.411,48.635,41.452,46.954z
		 M49.607,58.597c-1.683-0.001-3.073-1.424-3.032-3.105c0.042-1.689,1.403-3.003,3.091-2.984c1.685,0.02,3.016,1.383,2.999,3.071
		C52.648,57.26,51.292,58.598,49.607,58.597z M57.292,50.913c-1.683-0.001-3.073-1.424-3.032-3.105
		c0.041-1.69,1.403-3.004,3.091-2.984c1.685,0.02,3.016,1.383,2.999,3.071C60.333,49.576,58.977,50.914,57.292,50.913z
		 M63.268,58.597c-1.683-0.001-3.073-1.424-3.032-3.105c0.042-1.689,1.403-3.003,3.091-2.984c1.685,0.02,3.016,1.383,2.999,3.071
		C66.309,57.26,64.953,58.598,63.268,58.597z"/>
	<polygon fill="#FFFFFF" points="38.141,80.093 61.889,80.093 65.805,67.093 34.36,67.093 	"/>
	<path fill="#FFFFFF" d="M49.954,1.593C22.952,1.638,1.489,23.328,1.5,50.559c0.011,26.365,21.848,48.005,48.47,48.034
		C76.818,98.622,98.501,76.917,98.5,50.01C98.5,23.26,76.73,1.548,49.954,1.593z M48.891,12.485
		c0.093-0.139,0.249-0.223,0.416-0.223s0.323,0.083,0.416,0.223c0.31,0.465,3.028,4.594,3.028,6.321
		c0,1.899-1.545,3.445-3.444,3.445s-3.445-1.545-3.445-3.445C45.862,17.078,48.582,12.95,48.891,12.485z M71.237,66.397
		L66.14,83.314c-0.318,1.056-1.291,1.779-2.394,1.779H36.264c-1.111,0-2.09-0.734-2.4-1.802l-4.865-16.726
		c-2.779-1.656-4.714-6.378-4.855-10.603c-0.188-5.646,2.645-9.582,7.649-10.77c0.585-4.516,4.153-7.925,8.663-8.117
		c0.978-3.019,3.45-5.373,6.544-6.214v-5.914c0-0.472,0.382-0.854,0.854-0.854h3.292c0.472,0,0.854,0.382,0.854,0.854v5.914
		c3.101,0.842,5.577,3.204,6.551,6.231c0.24-0.017,0.47-0.026,0.689-0.026c4.961,0,9.214,3.652,9.869,8.215
		c3.945,0.981,6.407,4.038,6.726,8.53C76.157,58.322,74.144,64.282,71.237,66.397z"/>
</g>
</svg>
