<?xml version="1.0" encoding="utf-8"?>
<!-- Generator: Adobe Illustrator 17.0.0, SVG Export Plug-In . SVG Version: 6.00 Build 0)  -->
<!DOCTYPE svg PUBLIC "-//W3C//DTD SVG 1.1//EN" "http://www.w3.org/Graphics/SVG/1.1/DTD/svg11.dtd">
<svg version="1.1" id="Layer_1" xmlns="http://www.w3.org/2000/svg" xmlns:xlink="http://www.w3.org/1999/xlink" x="0px" y="0px"
	 width="100px" height="100px" viewBox="0 0 100 100" enable-background="new 0 0 100 100" xml:space="preserve">
<g>
	<g>
		<circle fill="#FFFFFF" cx="42.841" cy="-144.64" r="25"/>
	</g>
	<g>
		<path fill="#037DC1" d="M53.59-158.5H32.138c-1.604,0-3.638,0.441-3.638,2.045v22.751c0,1.649,2.061,3.204,3.638,3.204H53.59
			c1.577,0,2.91-1.555,2.91-3.204v-22.751C56.5-158.059,55.194-158.5,53.59-158.5z M48.914-155.003c0,0.934-0.757,1.691-1.691,1.691
			c-0.934,0-1.691-0.757-1.691-1.691c0-0.934,0.757-1.691,1.691-1.691C48.156-156.694,48.914-155.937,48.914-155.003z
			 M40.197-155.003c0,0.934-0.757,1.691-1.691,1.691c-0.934,0-1.691-0.757-1.691-1.691c0-0.934,0.757-1.691,1.691-1.691
			C39.44-156.694,40.197-155.937,40.197-155.003z M53.59-132.5H32.138c-0.788,0-1.638-1.344-1.638-2.204V-151.5h24v16.796
			C54.5-133.844,54.378-132.5,53.59-132.5z"/>
	</g>
</g>
<path fill="none" d="M72.647,21H28.353C24.85,21,22,23.85,22,27.353v44.293C22,75.149,24.85,78,28.353,78h44.294
	C76.15,78,79,75.149,79,71.646V27.353C79,23.85,76.15,21,72.647,21z M59.96,26.554c1.834,0,3.321,1.487,3.321,3.321
	c0,1.834-1.487,3.321-3.321,3.321c-1.834,0-3.321-1.487-3.321-3.321C56.639,28.041,58.126,26.554,59.96,26.554z M42.841,26.554
	c1.834,0,3.321,1.487,3.321,3.321c0,1.834-1.487,3.321-3.321,3.321c-1.834,0-3.321-1.487-3.321-3.321
	C39.52,28.041,41.007,26.554,42.841,26.554z M74,71.646C74,72.393,73.393,73,72.647,73H28.353C27.607,73,27,72.393,27,71.646V36h47
	V71.646z"/>
<circle fill="#FFFFFF" cx="59.96" cy="29.875" r="3.321"/>
<path fill="#FFFFFF" d="M27,71.646C27,72.393,27.607,73,28.353,73h44.294C73.393,73,74,72.393,74,71.646V36H27V71.646z
	 M50.46,67.608c-2.186,0-3.863-1.596-3.863-3.609c0-2.052,1.678-3.686,3.94-3.686c2.186,0,3.863,1.596,3.863,3.609
	C54.4,65.975,52.723,67.608,50.46,67.608z M50.498,40.974c2.575,0,3.941,1.521,3.941,3.686c0,1.103-0.312,2.888-0.78,5.13
	c-0.508,2.47-1.132,5.471-1.678,8.814h-2.966c-0.546-3.344-1.17-6.345-1.678-8.814c-0.468-2.242-0.78-4.027-0.78-5.13
	C46.558,42.494,47.924,40.974,50.498,40.974z"/>
<circle fill="#FFFFFF" cx="42.841" cy="29.875" r="3.321"/>
<path fill="#FFFFFF" d="M50.263,0.593c-26.786,0-48.5,21.714-48.5,48.5c0,26.786,21.714,48.5,48.5,48.5s48.5-21.714,48.5-48.5
	C98.763,22.307,77.049,0.593,50.263,0.593z M79,71.646C79,75.149,76.15,78,72.647,78H28.353C24.85,78,22,75.149,22,71.646V27.353
	C22,23.85,24.85,21,28.353,21h44.294C76.15,21,79,23.85,79,27.353V71.646z"/>
</svg>
