<?xml version="1.0" encoding="utf-8"?>
<!-- Generator: Adobe Illustrator 17.0.0, SVG Export Plug-In . SVG Version: 6.00 Build 0)  -->
<!DOCTYPE svg PUBLIC "-//W3C//DTD SVG 1.1//EN" "http://www.w3.org/Graphics/SVG/1.1/DTD/svg11.dtd">
<svg version="1.1" id="Layer_1" xmlns="http://www.w3.org/2000/svg" xmlns:xlink="http://www.w3.org/1999/xlink" x="0px" y="0px"
	 width="100px" height="100px" viewBox="0 0 100 100" enable-background="new 0 0 100 100" xml:space="preserve">
<g>
	<g>
		<path fill="#FFFFFF" d="M70.062,37.313c-0.824-0.176-1.667-0.265-2.506-0.265c-4.286,0-8.299,2.266-10.732,6.06l-0.107,0.191
			c-0.115,0.204-0.261,0.462-0.424,0.735c-0.892,1.921-2.706,3.057-4.895,3.057l-0.185-0.002c-1.272-0.035-2.864-0.028-3.855-0.02
			l-3.181,2.327c-1.086,0.794-2.571,0.769-3.628-0.065c-0.441-0.348-0.821-0.657-1.182-0.95c-0.265-0.216-0.511-0.416-0.759-0.613
			c-0.164,0.125-0.328,0.25-0.496,0.378c-0.419,0.319-0.866,0.659-1.414,1.071c-1.007,0.755-2.375,0.803-3.431,0.119
			c-0.957-0.619-1.638-1.107-2.317-1.618c-0.421,0.303-0.833,0.612-1.319,0.979l-0.643,0.482c-1.089,0.815-2.59,0.796-3.657-0.048
			l-0.829-0.661c-0.364-0.293-0.688-0.553-1.019-0.807c-1.187,0.919-2.773,2.17-3.89,3.179c0.411,0.42,0.823,0.839,1.235,1.258
			c0.843,0.857,1.687,1.716,2.52,2.582c4.889,0.023,9.778,0.052,14.668,0.081c5.045,0.03,10.09,0.06,15.134,0.083
			c1.498,0.008,2.701,0.657,3.579,1.929c0.672,0.974,1.235,1.769,1.87,2.406c2.418,2.432,5.593,3.771,8.941,3.771h0.001
			c2.045,0,4.041-0.487,5.931-1.448c4.831-2.457,7.622-7.96,6.789-13.383C79.428,42.696,75.424,38.454,70.062,37.313z
			 M72.401,53.989c-1.971-0.001-3.599-1.668-3.551-3.636c0.048-1.979,1.643-3.518,3.62-3.495c1.974,0.023,3.532,1.62,3.513,3.597
			C75.963,52.423,74.375,53.99,72.401,53.989z"/>
	</g>
</g>
<g>
	<g>
		<path fill="#FFFFFF" d="M50.306,1.501C23.521,1.332,1.67,22.909,1.501,49.694C1.332,76.479,22.909,98.33,49.694,98.499
			c26.785,0.169,48.636-21.408,48.805-48.193C98.668,23.521,77.091,1.67,50.306,1.501z M75.376,66.629
			c-2.703,1.375-5.694,2.101-8.651,2.101c-0.001,0-0.001,0-0.001,0c-4.958,0-9.645-1.968-13.195-5.539
			c-0.797-0.801-1.444-1.648-2.095-2.57c-4.755-0.023-9.513-0.051-14.27-0.079c-5.041-0.03-10.082-0.06-15.123-0.083
			c-1.386-0.007-2.569-0.515-3.519-1.51c-0.92-0.963-1.855-1.913-2.79-2.863c-0.617-0.628-1.235-1.257-1.849-1.888
			c-2.368-2.438-2.337-4.894,0.093-7.298c1.607-1.588,4.425-3.752,5.939-4.914c0.327-0.251,0.57-0.436,0.685-0.529
			c1.004-0.878,2.473-0.99,3.6-0.263c0.923,0.596,1.602,1.089,2.23,1.575c0.642-0.468,1.314-0.933,2.206-1.496
			c1.056-0.669,2.416-0.612,3.413,0.142l0.905,0.689c0.382,0.292,0.713,0.545,1.043,0.79c0.608-0.464,1.203-0.912,2.022-1.508
			c1.028-0.748,2.418-0.766,3.465-0.048c0.901,0.619,1.568,1.133,2.193,1.633l2.096-1.533c0.5-0.365,1.102-0.567,1.721-0.578
			c-0.001,0,2.675-0.044,4.754,0.002c0.002-0.004,0.005-0.008,0.007-0.012h0c0.162-0.265,0.306-0.521,0.416-0.716
			c0.126-0.224,0.226-0.396,0.285-0.488c3.544-5.522,9.444-8.819,15.783-8.819c1.258,0,2.521,0.134,3.755,0.396
			c7.824,1.665,13.665,7.854,14.88,15.766C86.596,54.937,82.484,63.014,75.376,66.629z"/>
	</g>
</g>
</svg>
