<?xml version="1.0" encoding="utf-8"?>
<!-- Generator: Adobe Illustrator 15.0.0, SVG Export Plug-In . SVG Version: 6.00 Build 0)  -->
<!DOCTYPE svg PUBLIC "-//W3C//DTD SVG 1.1//EN" "http://www.w3.org/Graphics/SVG/1.1/DTD/svg11.dtd">
<svg version="1.1" id="Layer_1" xmlns="http://www.w3.org/2000/svg" xmlns:xlink="http://www.w3.org/1999/xlink" x="0px" y="0px"
	 width="180.977px" height="85.117px" viewBox="29.511 77.442 180.977 85.117"
	 enable-background="new 29.511 77.442 180.977 85.117" xml:space="preserve">
<g>
	<path fill="#FFFFFF" d="M69.302,140.912c0,14.018-6.443,21.646-20.008,21.646c-12.83,0-19.5-7.631-19.5-20.912V139.5h12.378v2.993
		c0,5.937,2.599,8.194,6.782,8.194c4.634,0,7.234-2.261,7.234-10.229v-15.203c-2.26,4.748-6.33,7.348-12.151,7.348
		c-9.608,0-14.526-6.78-14.526-19.045V98.354c0-13.339,7.009-20.912,19.838-20.912s19.838,7.63,19.838,20.912v42.56h0.114
		L69.302,140.912L69.302,140.912z M56.247,112.482V97.505c0-5.935-2.6-8.082-6.783-8.082c-4.182,0-6.782,2.147-6.782,8.082v14.978
		c0,5.935,2.601,8.194,6.782,8.194C53.646,120.678,56.247,118.475,56.247,112.482z"/>
	<path fill="#FFFFFF" d="M97.619,115.253h18.312v26.394c0,13.34-6.669,20.912-19.5,20.912c-12.83,0-19.498-7.629-19.498-20.912
		V98.354c0-13.339,6.668-20.912,19.498-20.912c12.83,0,19.5,7.63,19.5,20.912v8.083h-12.378v-8.931c0-5.935-2.6-8.195-6.782-8.195
		s-6.783,2.261-6.783,8.195v44.988c0,5.938,2.602,8.084,6.783,8.084c4.183,0,6.782-2.146,6.782-8.084v-15.315h-5.935L97.619,115.253
		L97.619,115.253z"/>
	<path fill="#FFFFFF" d="M166.629,161.652h-13.227l-2.26-15.09H135.09l-2.26,15.09h-12.039l13.34-83.251h19.158L166.629,161.652z
		 M136.785,135.202h12.605l-6.33-42.104L136.785,135.202z"/>
	<path fill="#FFFFFF" d="M192.174,115.253h18.314v26.394c0,13.34-6.67,20.912-19.5,20.912s-19.498-7.629-19.498-20.912V98.354
		c0-13.339,6.668-20.912,19.498-20.912s19.5,7.63,19.5,20.912v8.083h-12.379v-8.931c0-5.935-2.601-8.195-6.783-8.195
		c-4.18,0-6.781,2.261-6.781,8.195v44.988c0,5.938,2.602,8.084,6.781,8.084c4.184,0,6.783-2.146,6.783-8.084v-15.315h-5.937
		L192.174,115.253L192.174,115.253z"/>
</g>
</svg>
