<?xml version="1.0" encoding="utf-8"?>
<!-- Generator: Adobe Illustrator 17.0.0, SVG Export Plug-In . SVG Version: 6.00 Build 0)  -->
<!DOCTYPE svg PUBLIC "-//W3C//DTD SVG 1.1//EN" "http://www.w3.org/Graphics/SVG/1.1/DTD/svg11.dtd">
<svg version="1.1" xmlns="http://www.w3.org/2000/svg" xmlns:xlink="http://www.w3.org/1999/xlink" x="0px" y="0px" width="100px"
	 height="100px" viewBox="0 0 100 100" enable-background="new 0 0 100 100" xml:space="preserve">
<g id="Layer_1" display="none">
	<rect display="inline" fill="#B3B3B3" width="100" height="100"/>
</g>
<g id="Layer_2">
	<g id="New_Symbol_54">
		<g id="New_Symbol_53">
			<g id="New_Symbol">
			</g>
		</g>
	</g>
	<g id="New_Symbol_13">
	</g>
	<g>
		<path fill="#FFFFFF" d="M61.538,41.835h-1.555v15.844h1.555c2.43,0,3.16-1.409,3.16-3.596v-8.604
			C64.698,43.341,63.969,41.835,61.538,41.835z"/>
		<path fill="#FFFFFF" d="M32.872,58.263v0.924c0,1.214,0.485,1.895,1.457,1.895c1.361,0,1.75-0.875,1.75-2.042v-3.548
			C33.794,55.492,32.872,56.561,32.872,58.263z"/>
		<path fill="#FFFFFF" d="M50.001,5L14.343,27.685v45.477L50.001,95l35.656-21.837V27.685L50.001,5z M46.674,66.185h-2.673
			c-3.499,0-4.957-0.971-6.075-3.597c-1.506,2.577-3.646,3.791-6.853,3.791c-4.472,0-7.339-2.43-7.339-6.659v-0.243
			c0-4.909,4.714-7.047,12.345-7.728v-2.285c0-1.312-0.34-1.993-1.457-1.993c-1.118,0-1.508,0.973-1.508,3.16h-8.214
			c-0.145-5.978,3.548-9.381,10.354-9.381c6.951,0,10.256,3.791,10.256,8.604v9.138c0,0.875,0.194,1.312,1.165,1.312V66.185z
			 M76.266,53.646c0,7.29-4.423,12.345-13.949,12.345H48.415v-32.37h13.902c9.526,0,13.949,5.637,13.949,12.929V53.646z"/>
	</g>
	<g id="New_Symbol_1_">
	</g>
	<g id="New_Symbol_24">
	</g>
</g>
</svg>
