<?xml version="1.0" encoding="utf-8"?>
<!-- Generator: Adobe Illustrator 17.0.0, SVG Export Plug-In . SVG Version: 6.00 Build 0)  -->
<!DOCTYPE svg PUBLIC "-//W3C//DTD SVG 1.1//EN" "http://www.w3.org/Graphics/SVG/1.1/DTD/svg11.dtd">
<svg version="1.1" id="Layer_1" xmlns="http://www.w3.org/2000/svg" xmlns:xlink="http://www.w3.org/1999/xlink" x="0px" y="0px"
	 width="100px" height="100px" viewBox="55 55 100 100" enable-background="new 55 55 100 100" xml:space="preserve">
<g id="Layer_1_1_">
	<g>
		<path fill="#FFFFFF" d="M132.34,89.201c-17.531,0-34.809,0-52.33,0c0.708,2.794,1.353,5.424,2.043,8.043
			c1.869,7.087,3.798,14.159,5.604,21.262c0.358,1.408,0.938,1.831,2.387,1.825c14.506-0.058,29.013-0.035,43.52-0.035
			c0.789,0,1.578,0,2.372,0c-0.167,4.699-2.888,7.348-7.326,7.349c-15.503,0.004-31.006-0.026-46.508,0.038
			c-1.765,0.007-2.538-0.421-3.029-2.259C74.824,109.523,70.44,93.658,66.1,77.782c-0.127-0.466-0.202-0.946-0.334-1.578
			c2.808,0,5.479-0.171,8.116,0.055c2.066,0.177,3.334,1.698,3.695,3.694c0.288,1.589,1.095,1.847,2.545,1.844
			c20.484-0.045,40.967-0.031,61.451-0.031c0.787,0,1.574,0,2.662,0c-0.546,1.963-0.976,3.626-1.472,5.27
			c-1.742,5.767-3.561,11.512-5.245,17.295c-1.368,4.696-4.591,8.304-11.136,8.155c-10.392-0.236-20.794-0.083-31.191-0.037
			c-1.245,0.006-1.91-0.246-2.208-1.585c-0.402-1.803-1.078-3.544-1.731-5.612c0.89,0,1.543,0,2.195,0
			c9.588,0,19.176,0.002,28.764-0.001c3.503-0.001,5.552-1.296,6.648-4.561C130.102,96.987,131.134,93.214,132.34,89.201z"/>
		<path fill="#FFFFFF" d="M85.057,128.732c3.654-0.03,6.583,2.787,6.637,6.383c0.055,3.647-2.958,6.747-6.556,6.744
			c-3.49-0.003-6.545-3.056-6.574-6.568C78.535,131.719,81.464,128.761,85.057,128.732z"/>
		<path fill="#FFFFFF" d="M128.285,128.732c3.623,0.005,6.535,2.888,6.547,6.483c0.011,3.545-2.946,6.573-6.484,6.639
			c-3.53,0.066-6.699-3.107-6.663-6.67C121.722,131.616,124.676,128.728,128.285,128.732z"/>
	</g>
</g>
<g id="press_mode" display="none">
</g>
<g id="downloading" display="none">
</g>
</svg>
