<?xml version="1.0" encoding="utf-8"?>
<!-- Generator: Adobe Illustrator 17.0.0, SVG Export Plug-In . SVG Version: 6.00 Build 0)  -->
<!DOCTYPE svg PUBLIC "-//W3C//DTD SVG 1.1//EN" "http://www.w3.org/Graphics/SVG/1.1/DTD/svg11.dtd">
<svg version="1.1" xmlns="http://www.w3.org/2000/svg" xmlns:xlink="http://www.w3.org/1999/xlink" x="0px" y="0px" width="66px"
	 height="66px" viewBox="0 0 66 66" enable-background="new 0 0 66 66" xml:space="preserve">
<g id="Blue">
</g>
<g id="Layer_2">
	<g>
		<path fill="#FF9900" d="M40.1,40.98c-4.131,1.753-8.623,2.598-12.707,2.598c-6.055,0-11.917-1.659-16.658-4.418
			c-0.414-0.243-0.723,0.182-0.378,0.494c4.393,3.968,10.2,6.353,16.65,6.353c4.6,0,9.943-1.45,13.629-4.167
			C41.246,41.389,40.724,40.715,40.1,40.98z"/>
		<path fill="#FF9900" d="M37.775,39.448c-0.326,0.226-0.271,0.541,0.091,0.497c1.187-0.141,3.832-0.458,4.302,0.144
			c0.472,0.605-0.525,3.092-0.969,4.202c-0.135,0.337,0.155,0.472,0.458,0.218c1.98-1.654,2.488-5.119,2.085-5.619
			C43.339,38.393,39.882,37.965,37.775,39.448z"/>
		<path fill="#FFFFFF" d="M44.99,35.242c-1.127-0.635-2.438-0.82-3.681-0.79l3.344-4.774c0.309-0.428,0.483-0.699,0.486-0.906
			v-1.234c0-0.215-0.166-0.364-0.373-0.364h-6.453c-0.199,0-0.364,0.146-0.364,0.364v1.441l0,0c0,0.215,0.166,0.362,0.373,0.362
			h3.371l-3.874,5.555c-0.235,0.356-0.237,0.757-0.237,0.991v1.461c0,0.21,0.235,0.453,0.458,0.331
			c2.195-1.165,4.832-1.052,6.817-0.011c0.243,0.127,0.475-0.119,0.475-0.329v-1.538C45.313,35.596,45.244,35.386,44.99,35.242z"/>
		<path fill="#FFFFFF" d="M12.448,37.973h1.963v0c0.21,0,0.378-0.163,0.378-0.364v-5.34c0-1.165-0.055-2.778,1.356-2.778
			c1.394,0,1.209,1.654,1.209,2.778l0.003,5.34c0,0.193,0.155,0.351,0.353,0.364h1.96c0.21,0,0.378-0.163,0.378-0.364v-5.34
			c0-0.572-0.019-1.422,0.182-1.93c0.202-0.508,0.699-0.826,1.173-0.826c0.569,0,1.008,0.191,1.154,0.867
			c0.094,0.403,0.055,1.463,0.055,1.889v5.34c0,0.193,0.157,0.351,0.353,0.364h1.96c0.21,0,0.378-0.163,0.378-0.364l0.003-6.359
			c0-1.08,0.127-2.311-0.494-3.159c-0.549-0.762-1.45-1.102-2.272-1.102c-1.157,0-2.237,0.594-2.711,1.867
			c-0.552-1.273-1.32-1.867-2.549-1.867c-1.209,0-2.107,0.594-2.584,1.867h-0.036v-1.317c-0.014-0.182-0.166-0.329-0.356-0.337
			h-1.831c-0.21,0-0.378,0.16-0.378,0.362v10.075C12.111,37.819,12.26,37.959,12.448,37.973z"/>
		<path fill="#FFFFFF" d="M50.695,26.989c-2.841,0-4.418,2.438-4.418,5.575c0,3.117,1.557,5.619,4.418,5.619
			c2.747,0,4.49-2.438,4.49-5.511C55.184,29.491,53.608,26.989,50.695,26.989z M50.695,36.107c-1.541,0-1.521-2.629-1.521-3.86
			c0-1.229,0.091-3.2,1.538-3.2v0c0.624,0,1.063,0.273,1.284,0.975c0.257,0.806,0.293,1.822,0.293,2.673
			C52.288,33.986,52.216,36.107,50.695,36.107z"/>
		<path fill="#FFFFFF" d="M61.91,26.989c-1.356,0-2.126,0.657-2.676,2.035h-0.036v-1.541c-0.039-0.157-0.179-0.273-0.351-0.282
			h-1.82c-0.199,0-0.362,0.144-0.378,0.329l0.003,10.078c0,0.193,0.157,0.351,0.353,0.364h1.955c0.21,0,0.381-0.163,0.384-0.364
			v-5.426c0-0.679,0.036-1.292,0.312-1.908c0.218-0.486,0.657-0.806,1.135-0.806c1.356,0,1.229,1.612,1.229,2.714v5.473
			c0.019,0.171,0.168,0.304,0.348,0.318h1.969c0.193,0,0.356-0.141,0.378-0.318v-6.342c0-0.975,0-2.33-0.514-3.137
			C63.65,27.307,62.791,26.989,61.91,26.989z"/>
		<path fill="#FFFFFF" d="M32.805,31.162c-1.138,0.13-2.626,0.213-3.692,0.682c-1.231,0.53-2.093,1.615-2.093,3.208
			c0,2.04,1.284,3.059,2.938,3.059c1.394,0,2.159-0.329,3.236-1.427c0.356,0.516,0.475,0.768,1.127,1.309
			c0.146,0.077,0.334,0.069,0.464-0.047l0.003,0.006c0.392-0.348,1.104-0.969,1.505-1.303c0.16-0.133,0.133-0.345,0.008-0.522
			c-0.359-0.497-0.74-0.9-0.74-1.82v-3.059c0-1.295,0.091-2.485-0.864-3.377c-0.754-0.723-2.002-0.977-2.957-0.977
			c-1.867,0-3.954,0.696-4.39,3.004c-0.047,0.246,0.133,0.376,0.293,0.411l1.902,0.204c0.179-0.008,0.309-0.182,0.342-0.359
			c0.163-0.795,0.828-1.179,1.577-1.179c0.406,0,0.864,0.149,1.102,0.511c0.276,0.403,0.24,0.955,0.24,1.422V31.162z M32.438,35.242
			c-0.312,0.552-0.809,0.892-1.358,0.892c-0.754,0-1.196-0.574-1.196-1.422c0-1.673,1.499-1.977,2.921-1.977v0.425l0,0
			C32.805,33.925,32.825,34.563,32.438,35.242z"/>
		<path fill="#FFFFFF" d="M10.565,36.126c-0.359-0.497-0.74-0.9-0.74-1.82v-3.059c0-1.295,0.091-2.485-0.864-3.377
			c-0.754-0.723-2.002-0.977-2.957-0.977c-1.867,0-3.951,0.696-4.39,3.004c-0.044,0.246,0.133,0.376,0.293,0.411l1.905,0.204
			c0.177-0.008,0.306-0.182,0.34-0.359c0.163-0.795,0.831-1.179,1.579-1.179c0.403,0,0.861,0.149,1.102,0.511
			c0.273,0.403,0.237,0.955,0.237,1.422v0.254c-1.138,0.13-2.626,0.213-3.692,0.682c-1.229,0.53-2.093,1.615-2.093,3.208
			c0,2.04,1.287,3.059,2.938,3.059c1.397,0,2.159-0.329,3.236-1.427c0.359,0.516,0.475,0.768,1.127,1.309
			c0.146,0.077,0.334,0.069,0.464-0.047l0.006,0.006c0.392-0.348,1.104-0.969,1.505-1.303
			C10.719,36.515,10.692,36.303,10.565,36.126z M6.702,35.242c-0.312,0.552-0.806,0.892-1.358,0.892
			c-0.754,0-1.193-0.574-1.193-1.422c0-1.673,1.499-1.977,2.919-1.977v0.425C7.069,33.925,7.088,34.563,6.702,35.242z"/>
	</g>
</g>
</svg>
