<?xml version="1.0" encoding="utf-8"?>
<!-- Generator: Adobe Illustrator 17.0.0, SVG Export Plug-In . SVG Version: 6.00 Build 0)  -->
<!DOCTYPE svg PUBLIC "-//W3C//DTD SVG 1.1//EN" "http://www.w3.org/Graphics/SVG/1.1/DTD/svg11.dtd">
<svg version="1.1" id="Layer_1" xmlns="http://www.w3.org/2000/svg" xmlns:xlink="http://www.w3.org/1999/xlink" x="0px" y="0px"
	 width="100px" height="100px" viewBox="55 55 100 100" enable-background="new 55 55 100 100" xml:space="preserve">
<g id="Layer_1_1_">
	<g>
		<g>
			<path fill="#FFFFFF" d="M95.62,83.036c-0.106,0-0.213-0.021-0.316-0.066c-0.405-0.175-0.592-0.594-0.416-0.999
				c0.091-0.209,2.285-4.801,8.13-5.199c0.005,0,0.01,0,0.016,0c0.434,0,0.79,0.296,0.798,0.732c0.009,0.441-0.342,0.78-0.783,0.789
				c-4.829,0.094-6.676,4.231-6.695,4.273C96.224,82.868,95.929,83.036,95.62,83.036z"/>
		</g>
		<g>
			<path fill="none" d="M106.091,73.832c0.148,0.154,0.298,0.306,0.459,0.451c-0.227-0.026-0.453-0.049-0.682-0.066L106.091,73.832z
				 M103.911,73.572l0.349,0.605c-0.383,0.008-0.765,0.029-1.146,0.063C103.38,74.014,103.646,73.795,103.911,73.572z"/>
			<path fill="#FFFFFF" d="M123.94,85.544c-0.557-1.778-0.94-3.31-1.51-4.769c-2.793-7.146-9.529-11.796-17.178-11.922
				C97.57,68.726,90.06,72.945,87.788,80.13c-1.532,4.847-4.079,5.931-8.564,6.324c-8.771,0.768-11.953,3.832-12.463,12.643
				c-0.517,8.921-0.391,17.912,0.039,26.844c0.333,6.925,4.791,11.019,11.713,11.086c17.607,0.171,35.218,0.15,52.827,0.015
				c5.946-0.045,10.303-3.483,11.093-9.306c0.896-6.599,1.16-13.327,1.143-19.998C143.527,88.075,139.712,87.192,123.94,85.544z
				 M91.474,84.377c0.929-6.256,6.111-9.593,11.641-10.088c-0.001,0.001-0.002-0.029-0.004-0.028c0.001,0,0.002-0.016,0.004-0.016
				c0.265-0.225,0.531-0.404,0.796-0.627l-1.414-2.409h5.158l-1.565,2.666c0.148,0.154,0.298,0.4,0.459,0.544
				c5.771,0.666,11.043,3.942,11.32,10.698c-0.491,0-0.996,0-1.512,0c-7.619,0-15.258,0-23.273,0c-0.574,0-1.139,0-1.688,0
				C91.419,84.72,91.444,84.578,91.474,84.377z M91.994,89.489h26.095c0.546,0,0.957,0.281,1.162,0.751
				c0.072,0.163,0.055,0.294,0.055,0.484v1.065c0,0.735-0.482,1.277-1.217,1.277H91.994c-0.735,0-1.697-0.541-1.697-1.277v-1.065
				c0-0.19,0.224-0.321,0.295-0.484C90.797,89.769,91.448,89.489,91.994,89.489z"/>
			<path fill="#FFFFFF" d="M103.911,73.572c-0.265,0.223-0.531,0.443-0.796,0.668c0.381-0.034,0.763-0.055,1.146-0.063
				L103.911,73.572z"/>
			<path fill="#FFFFFF" d="M106.091,73.832l-0.222,0.385c0.228,0.017,0.455,0.04,0.682,0.066
				C106.388,74.139,106.238,73.986,106.091,73.832z"/>
		</g>
	</g>
</g>
<g id="press_mode" display="none">
</g>
<g id="downloading" display="none">
</g>
</svg>
