<?xml version="1.0" encoding="utf-8"?>
<!-- Generator: Adobe Illustrator 17.0.0, SVG Export Plug-In . SVG Version: 6.00 Build 0)  -->
<!DOCTYPE svg PUBLIC "-//W3C//DTD SVG 1.1//EN" "http://www.w3.org/Graphics/SVG/1.1/DTD/svg11.dtd">
<svg version="1.1" xmlns="http://www.w3.org/2000/svg" xmlns:xlink="http://www.w3.org/1999/xlink" x="0px" y="0px" width="100px"
	 height="100px" viewBox="0 0 100 100" enable-background="new 0 0 100 100" xml:space="preserve">
<g id="Layer_1" display="none">
	<rect display="inline" fill="#B3B3B3" width="100" height="100"/>
	<g display="inline">
		<defs>
			<rect id="SVGID_1_" x="-2903" y="-1719" width="1715" height="383"/>
		</defs>
		<clipPath id="SVGID_2_">
			<use xlink:href="#SVGID_1_"  overflow="visible"/>
		</clipPath>
		<g transform="matrix(1 0 0 1 0 -2.441406e-004)" clip-path="url(#SVGID_2_)">
			
				<image overflow="visible" width="1920" height="1080" xlink:href="1A893286.jpg"  transform="matrix(6.7276 0 0 6.7276 -8325.748 -3972.9956)">
			</image>
		</g>
	</g>
</g>
<g id="Layer_2">
	<g id="New_Symbol_54">
		<g id="New_Symbol_53">
			<g id="New_Symbol">
			</g>
		</g>
	</g>
	<g id="New_Symbol_13">
	</g>
	<g id="New_Symbol_1_">
	</g>
	<g id="New_Symbol_24">
	</g>
	<g>
		<path fill="#FFFFFF" d="M39.3,62.4C19.4,64,4.7,70.2,4.7,77.6c0,5.4,7.8,9.7,19.9,12.4c1.1,0.3,2.5-0.2,2.6-1.4s-0.6-2.2-1.3-2.3
			c-8.4-1.9-14.3-5.2-14.3-8.1c0-3.4,12.1-6.5,27.8-7.5L39.3,62.4z"/>
		<path fill="#FFFFFF" d="M60.1,70.7c15.6,1,27.8,4,27.8,7.5c0,2.9-5.9,6.3-14.3,8.1c-0.7,0.2-1.4,1.1-1.3,2.3s1.5,1.6,2.6,1.4
			c12-2.7,19.9-7,19.9-12.4c0-7.4-14.7-13.6-34.6-15.2L60.1,70.7z"/>
		<g>
			<path fill="#FFFFFF" d="M15.4,12c0,0-0.7,14.6,20.1,35c20.8,20.4,23.1,28,22,35h15.1c0,0,1.4-24.3-22-40.9c0,0-16.1-14.6-18.7-26
				c0,0-7.9-0.2-13.4-4.6C18.4,10.5,15.4,8.5,15.4,12z"/>
			<g>
				<path fill="#FFFFFF" d="M47.6,44.3c4.2,3,7.5,6.1,10.3,9.4c2-2.1,4.2-4.4,6.8-6.9C85.4,26.4,84.7,12,84.7,12c0-3.4-3-1.5-3-1.5
					C76.2,14.9,68.3,15,68.3,15c-2.6,11.4-18.7,25.9-18.7,25.9c-1.1,0.8-2.1,1.6-3.1,2.4C47.1,43.9,47.6,44.3,47.6,44.3z"/>
				<path fill="#FFFFFF" d="M47.4,66.6c-2.7-3.5-6.3-7.4-11-12.3C26.7,68.2,27.5,82,27.5,82h15.1C41.9,79,42.5,73.8,47.4,66.6z"/>
			</g>
			<path fill="#FFFFFF" d="M42.5,16h15c0,0,2-0.3,1.5,2.3c-0.7,3.7-8.8,11.1-8.8,11.1s-5.9-5.5-8.5-10.6C41.6,18.8,40.5,16,42.5,16z
				"/>
		</g>
	</g>
</g>
</svg>
