<?xml version="1.0" encoding="utf-8"?>
<!-- Generator: Adobe Illustrator 17.0.0, SVG Export Plug-In . SVG Version: 6.00 Build 0)  -->
<!DOCTYPE svg PUBLIC "-//W3C//DTD SVG 1.1//EN" "http://www.w3.org/Graphics/SVG/1.1/DTD/svg11.dtd">
<svg version="1.1" xmlns="http://www.w3.org/2000/svg" xmlns:xlink="http://www.w3.org/1999/xlink" x="0px" y="0px" width="66px"
	 height="66px" viewBox="0 0 66 66" enable-background="new 0 0 66 66" xml:space="preserve">
<g id="Blue">
</g>
<g id="Layer_2">
	<g>
		<path id="e_2_" fill="#FFFFFF" d="M10.002,25.828c-4.376,0-8.022,1.857-8.022,7.458c0,4.437,2.452,7.232,8.135,7.232
			c6.69,0,7.119-4.407,7.119-4.407h-3.241c0,0-0.695,2.373-4.075,2.373c-2.753,0-4.733-1.86-4.733-4.466h12.388v-1.636
			C17.572,29.802,15.935,25.827,10.002,25.828L10.002,25.828z M9.889,27.918c2.62,0,4.407,1.605,4.407,4.011H5.256
			C5.256,29.375,7.588,27.918,9.889,27.918z"/>
		<path id="b_2_" fill="#FFFFFF" d="M17.57,20.404v17.3c0,0.982-0.07,2.361-0.07,2.361h3.092c0,0,0.111-0.99,0.111-1.895
			c0,0,1.527,2.39,5.681,2.39c4.374,0,7.345-3.036,7.345-7.387c0-4.047-2.729-7.302-7.337-7.302c-4.316,0-5.657,2.33-5.657,2.33
			v-7.797L17.57,20.404z M25.592,28.01c2.97,0,4.859,2.204,4.859,5.162c0,3.172-2.181,5.247-4.838,5.247
			c-3.17,0-4.88-2.475-4.88-5.219C20.734,30.644,22.268,28.01,25.592,28.01z"/>
		<path id="a_2_" fill="#FFFFFF" d="M41.411,25.828c-6.583,0-7.006,3.605-7.006,4.181h3.277c0,0,0.172-2.104,3.503-2.104
			c2.165,0,3.842,0.991,3.842,2.895v0.678h-3.842c-5.1,0-7.797,1.492-7.797,4.52c0,2.98,2.491,4.601,5.858,4.601
			c4.588,0,6.066-2.535,6.066-2.535c0,1.008,0.078,2.002,0.078,2.002h2.913c0,0-0.113-1.232-0.113-2.02v-6.811
			C48.191,26.767,44.588,25.828,41.411,25.828L41.411,25.828z M45.027,33.511v0.904c0,1.179-0.728,4.11-5.011,4.11
			c-2.345,0-3.351-1.171-3.351-2.528C36.666,33.527,40.052,33.511,45.027,33.511L45.027,33.511z"/>
		<path id="y_2_" fill="#FFFFFF" d="M46.426,26.393h3.686l5.29,10.599l5.278-10.599h3.339l-9.614,18.87h-3.503l2.774-5.26
			L46.426,26.393z"/>
	</g>
</g>
</svg>
