<?xml version="1.0" encoding="utf-8"?>
<!-- Generator: Adobe Illustrator 17.0.0, SVG Export Plug-In . SVG Version: 6.00 Build 0)  -->
<!DOCTYPE svg PUBLIC "-//W3C//DTD SVG 1.1//EN" "http://www.w3.org/Graphics/SVG/1.1/DTD/svg11.dtd">
<svg version="1.1" id="Layer_1" xmlns="http://www.w3.org/2000/svg" xmlns:xlink="http://www.w3.org/1999/xlink" x="0px" y="0px"
	 width="66px" height="66px" viewBox="0 0 66 66" enable-background="new 0 0 66 66" xml:space="preserve">
<g>
	<path fill="#FFFFFF" d="M56.076,25.002c0.949,2.163,1.315,4.457,1.405,6.79c0.501,12.935-8.737,23.754-21.592,25.317
		c-12.407,1.51-24.236-6.853-26.797-18.946c-0.022-0.105-0.007-0.219-0.009-0.328c0.63-0.143,1.259-0.281,1.888-0.429
		c6.691-1.573,13.387-3.127,20.068-4.737c2.125-0.513,4.211-1.187,6.32-1.769c0.279-0.077,0.702-0.375,0.808,0.185
		c0.203,1.068,0.653,2.089,0.539,3.22c-0.22,2.208-0.404,4.419-0.596,6.63c-0.182,2.092-0.357,4.186-0.536,6.286
		c0.991-0.058,1.503-0.465,1.8-1.443c1.645-5.422,3.388-10.813,5.068-16.224c0.172-0.553,0.441-0.813,0.997-0.951
		c1.279-0.317,2.544-0.692,3.806-1.075C51.572,26.821,54.017,26.432,56.076,25.002z"/>
	<path fill="#FFFFFF" d="M8.873,36.613c-0.414-1.598-0.418-3.233-0.325-4.856c0.584-10.265,7.395-18.912,17.256-21.956
		c11.397-3.519,23.851,1.758,29.131,12.344c0.111,0.222,0.182,0.463,0.273,0.695c-1.42-0.058-2.793,0.192-4.152,0.593
		c-2.181,0.643-4.38,1.222-6.558,1.878c-0.559,0.168-0.924,0.068-1.354-0.302c-4.305-3.707-8.643-7.376-12.93-11.105
		c-0.746-0.648-1.403-0.787-2.237-0.323c-0.011,0.259,0.197,0.392,0.326,0.563c2.216,2.942,4.413,5.898,6.671,8.808
		c0.857,1.104,1.474,2.287,1.952,3.596c0.282,0.775,0.036,0.905-0.614,1.084c-2.625,0.722-5.266,1.404-7.845,2.268
		C21.922,32.09,15.404,34.369,8.873,36.613z"/>
</g>
</svg>
