<?xml version="1.0" encoding="utf-8"?>
<!-- Generator: Adobe Illustrator 17.0.0, SVG Export Plug-In . SVG Version: 6.00 Build 0)  -->
<!DOCTYPE svg PUBLIC "-//W3C//DTD SVG 1.1//EN" "http://www.w3.org/Graphics/SVG/1.1/DTD/svg11.dtd">
<svg version="1.1" xmlns="http://www.w3.org/2000/svg" xmlns:xlink="http://www.w3.org/1999/xlink" x="0px" y="0px" width="100px"
	 height="100px" viewBox="0 0 100 100" enable-background="new 0 0 100 100" xml:space="preserve">
<g id="Layer_1" display="none">
	<rect display="inline" fill="#B3B3B3" width="100" height="100"/>
</g>
<g id="Layer_2">
	<g id="New_Symbol_54">
		<g id="New_Symbol_53">
			<g id="New_Symbol">
			</g>
		</g>
	</g>
	<g id="New_Symbol_13">
	</g>
	<g id="New_Symbol_1_">
		<g>
			<path fill="#FFFFFF" d="M20.03,38.736c-0.04-0.366-0.127-0.712-0.257-1.024c-0.162-0.385-0.384-0.719-0.662-0.997
				c-0.291-0.291-0.645-0.515-1.148-0.724c-0.356-0.148-0.774-0.267-1.316-0.374c-0.523-0.103-1.066-0.155-1.615-0.155
				c-1.122,0-2.138,0.168-3.02,0.5c-0.996,0.375-1.839,0.969-2.507,1.766c-0.631,0.753-1.096,1.695-1.382,2.798
				c-0.204,0.789-0.326,1.693-0.363,2.695c-0.467,0.011-0.921,0.138-1.318,0.368c-0.474,0.279-0.846,0.694-1.087,1.205
				c-0.14,0.297-0.236,0.622-0.293,0.992C5.02,46.05,5,46.345,5,46.685c0,0.792,0.19,1.401,0.448,1.916
				c0.467,0.935,1.226,1.503,2.438,1.531v11.359c0,0.575,0.105,1.119,0.435,1.572c0.293,0.403,0.66,0.714,1.158,0.923
				c0.302,0.127,0.624,0.213,1.019,0.263c0.281,0.035,0.591,0.052,0.966,0.052c0.373,0,0.687-0.017,0.968-0.052
				c0.397-0.05,0.733-0.136,1.036-0.263c0.497-0.209,0.897-0.519,1.191-0.923c0.331-0.456,0.504-0.998,0.504-1.572v-11.4h1.199
				c0.995,0,1.891-0.516,2.397-1.416c0.301-0.534,0.447-1.182,0.447-2.002c0-0.359-0.028-0.683-0.084-0.974
				c-0.073-0.378-0.185-0.704-0.344-1.005c-0.237-0.448-0.559-0.852-0.956-1.107c-0.439-0.277-0.939-0.468-1.46-0.468h-1.186
				c0.017-0.303,0.047-0.529,0.074-0.684c0.007-0.04,0.014-0.052,0.021-0.084c0.171,0.003,0.259,0.032,0.283,0.037
				c0.176,0.039,0.276,0.078,0.32,0.094c0.131,0.048,0.242,0.095,0.324,0.13c0.408,0.174,0.814,0.264,1.21,0.264
				c0.486,0,0.958-0.134,1.365-0.388c0.483-0.301,0.846-0.76,1.05-1.327c0.074-0.208,0.131-0.432,0.176-0.693
				c0.046-0.268,0.069-0.567,0.069-0.919C20.07,39.247,20.056,38.973,20.03,38.736z M18.209,40.154
				c-0.028,0.16-0.06,0.289-0.097,0.394c-0.065,0.18-0.165,0.314-0.301,0.398c-0.229,0.143-0.521,0.157-0.895-0.003
				c-0.115-0.049-0.254-0.104-0.418-0.164c-0.154-0.056-0.34-0.109-0.554-0.155c-0.203-0.045-0.446-0.067-0.723-0.067
				c-0.358,0-0.66,0.056-0.898,0.165c-0.22,0.101-0.393,0.257-0.531,0.477c-0.152,0.243-0.265,0.571-0.335,0.976
				c-0.076,0.438-0.114,0.984-0.114,1.624v1.139h3.018c0.179,0,0.339,0.094,0.476,0.18c0.133,0.085,0.243,0.237,0.332,0.404
				c0.074,0.139,0.128,0.315,0.166,0.511c0.034,0.179,0.052,0.4,0.052,0.645c0,0.499-0.07,0.848-0.214,1.104
				c-0.184,0.328-0.472,0.491-0.811,0.491h-3.018v13.219c0,0.187-0.054,0.36-0.156,0.5c-0.096,0.132-0.239,0.238-0.425,0.316
				c-0.149,0.062-0.332,0.107-0.559,0.135c-0.206,0.026-0.451,0.038-0.748,0.038c-0.294,0-0.545-0.013-0.747-0.038
				c-0.228-0.029-0.411-0.073-0.56-0.135c-0.187-0.078-0.26-0.185-0.356-0.316c-0.103-0.142-0.086-0.31-0.086-0.501V48.274H7.827
				c-0.36,0-0.651-0.167-0.821-0.507c-0.127-0.253-0.186-0.593-0.186-1.092c0-0.246,0.013-0.445,0.04-0.617
				c0.03-0.194,0.076-0.354,0.142-0.493c0.085-0.181,0.204-0.366,0.354-0.454c0.142-0.082,0.3-0.172,0.472-0.172h1.879v-1.053
				c0-1.116,0.037-2.094,0.247-2.905c0.218-0.84,0.525-1.542,0.981-2.087c0.464-0.554,1.036-0.968,1.735-1.231
				c0.677-0.254,1.469-0.383,2.372-0.383c0.43,0,0.851,0.041,1.258,0.121c0.414,0.082,0.729,0.169,0.966,0.268
				c0.273,0.114,0.445,0.216,0.56,0.332c0.11,0.11,0.201,0.249,0.27,0.413c0.063,0.151,0.106,0.327,0.128,0.524
				c0.019,0.17,0.029,0.376,0.029,0.611C18.251,39.797,18.237,39.995,18.209,40.154z"/>
			<g>
				<path fill="#FFFFFF" d="M89.317,51.687c-0.222-0.425-0.519-0.77-0.883-1.027c-0.349-0.246-0.797-0.37-1.334-0.37
					c-0.273,0-0.545,0.039-0.809,0.115c-0.262,0.076-0.535,0.206-0.812,0.386c-0.289,0.189-0.567,0.436-0.882,0.736
					c-0.295,0.28-0.616,0.635-0.919,1.054v4.908c0.606,0.717,1.152,1.272,1.695,1.65c0.539,0.376,1.066,0.559,1.64,0.559
					c0.527,0,0.953-0.12,1.318-0.367c0.374-0.254,0.68-0.596,0.915-1.017c0.246-0.44,0.426-0.942,0.538-1.492
					c0.115-0.564,0.173-1.143,0.173-1.719c0-0.639-0.05-1.269-0.148-1.871C89.715,52.649,89.549,52.13,89.317,51.687z M88,56.457
					c-0.075,0.366-0.191,0.692-0.346,0.968c-0.097,0.174-0.212,0.304-0.351,0.398c-0.07,0.047-0.221,0.054-0.305,0.054
					c-0.131,0-0.29-0.026-0.585-0.232c-0.287-0.2-0.613-0.488-0.916-0.847v-3.556c0-0.15,0.233-0.283,0.354-0.398
					c0.232-0.22,0.442-0.404,0.637-0.53c0.164-0.107,0.266-0.147,0.316-0.162c0.099-0.029,0.198-0.043,0.3-0.043
					c0.178,0,0.267,0.029,0.288,0.041c0.123,0.087,0.227,0.213,0.315,0.381c0.141,0.269,0.244,0.603,0.307,0.992
					c0.082,0.506,0.124,1.038,0.124,1.579C88.137,55.556,88.091,56.012,88,56.457z"/>
				<path fill="#FFFFFF" d="M94.657,51.658c-0.251-1.103-0.664-2.093-1.228-2.942c-0.611-0.92-1.413-1.662-2.385-2.208
					c-0.998-0.56-2.172-0.844-3.491-0.844c-0.542,0-1.043,0.056-1.544,0.168c-0.18,0.04-0.511,0.088-0.511,0.145v-3.752
					c0-0.509-0.176-1-0.454-1.419c-0.272-0.407-0.674-0.729-1.139-0.936c-0.289-0.128-0.616-0.212-0.987-0.259
					c-0.251-0.031-0.537-0.046-0.87-0.046c-0.325,0-0.604,0.015-0.851,0.046c-0.358,0.045-0.668,0.124-0.948,0.241
					c-0.534,0.225-1.031,0.593-1.306,1.065c-0.228,0.389-0.419,0.843-0.419,1.308v19.265c0,0.422,0.162,0.821,0.346,1.187
					c0.275,0.551,0.775,0.968,1.378,1.202c0.244,0.095,0.528,0.162,0.832,0.206c0.242,0.035,0.512,0.051,0.811,0.051
					c0.312,0,0.585-0.017,0.824-0.053c0.297-0.044,0.56-0.111,0.8-0.205c0.201-0.078,0.39-0.177,0.561-0.296
					c0.482,0.253,0.986,0.442,1.499,0.561c0.514,0.119,1.067,0.18,1.645,0.18c1.225,0,2.349-0.244,3.34-0.726
					c1.007-0.489,1.865-1.201,2.55-2.115c0.641-0.854,1.126-1.877,1.444-3.04C94.85,57.359,95,56.143,95,54.828
					C95,53.726,94.885,52.66,94.657,51.658z M92.8,57.963c-0.257,0.941-0.641,1.758-1.144,2.428c-0.51,0.68-1.146,1.209-1.89,1.57
					c-0.741,0.36-1.598,0.543-2.545,0.543c-0.44,0-0.854-0.045-1.232-0.132c-0.383-0.089-0.762-0.235-1.126-0.433
					c-0.356-0.193-0.702-0.44-1.056-0.734c-0.145-0.12-0.431-0.25-0.431-0.391v0.676c0,0.152-0.055,0.291-0.135,0.412
					c-0.083,0.125-0.213,0.219-0.374,0.281c-0.113,0.044-0.25,0.077-0.409,0.101c-0.15,0.022-0.333,0.033-0.555,0.033
					c-0.212,0-0.391-0.011-0.545-0.033c-0.166-0.024-0.302-0.057-0.416-0.101c-0.177-0.069-0.373-0.177-0.445-0.321
					c-0.055-0.11-0.153-0.235-0.153-0.371V42.225c0-0.145,0.104-0.277,0.172-0.393c0.075-0.13,0.234-0.232,0.403-0.303
					c0.124-0.052,0.295-0.089,0.485-0.113c0.169-0.021,0.388-0.032,0.633-0.032c0.258,0,0.471,0.01,0.642,0.032
					c0.193,0.024,0.348,0.062,0.47,0.116c0.153,0.068,0.301,0.163,0.379,0.28c0.081,0.122,0.152,0.261,0.152,0.413v6.888
					c0-0.151,0.315-0.29,0.482-0.415c0.378-0.282,0.74-0.515,1.106-0.693c0.371-0.18,0.741-0.314,1.115-0.397
					c0.372-0.083,0.765-0.125,1.175-0.125c1.003,0,1.877,0.206,2.599,0.611c0.718,0.403,1.309,0.951,1.759,1.628
					c0.442,0.665,0.767,1.452,0.969,2.339c0.198,0.87,0.298,1.801,0.298,2.766C93.181,55.981,93.053,57.036,92.8,57.963z"/>
			</g>
			<g>
				<path fill="#FFFFFF" d="M77.299,49.959c-0.291-0.965-0.749-1.797-1.416-2.473c-0.663-0.671-1.495-1.176-2.499-1.501
					c-0.882-0.285-1.916-0.43-3.087-0.43c-0.639,0-1.278,0.059-1.907,0.176c-0.596,0.111-1.157,0.256-1.672,0.429
					c-0.53,0.179-1.014,0.384-1.441,0.61c-0.518,0.275-0.895,0.533-1.185,0.812c-0.443,0.426-0.747,0.947-0.881,1.506
					c-0.076,0.315-0.114,0.678-0.114,1.105c0,0.265,0.02,0.521,0.058,0.76c0.061,0.384,0.182,0.74,0.358,1.053
					c0.219,0.391,0.514,0.713,0.875,0.952c0.174,0.116,0.355,0.21,0.544,0.28c-0.731,0.529-1.315,1.183-1.739,1.948
					c-0.487,0.88-0.734,1.895-0.734,3.017c0,0.944,0.175,1.819,0.52,2.601c0.354,0.802,0.861,1.492,1.508,2.051
					c0.622,0.538,1.367,0.949,2.213,1.221c0.779,0.25,1.641,0.377,2.56,0.377c1.076,0,2.112-0.226,3.083-0.672
					c0.304,0.188,0.655,0.322,1.048,0.398c0.296,0.057,0.634,0.085,1.034,0.085c0.431,0,0.772-0.03,1.071-0.094
					c0.459-0.099,0.808-0.278,1.15-0.534c0.653-0.49,0.97-1.248,0.97-2.081v-8.808C77.615,51.717,77.546,50.779,77.299,49.959z
					 M75.796,61.555c0,0.259-0.049,0.481-0.241,0.625c-0.133,0.099-0.267,0.168-0.469,0.212c-0.169,0.036-0.38,0.054-0.676,0.054
					c-0.283,0-0.502-0.017-0.682-0.052c-0.231-0.045-0.339-0.121-0.469-0.232c-0.118-0.101-0.192-0.289-0.192-0.606v-0.267
					c-0.606,0.314-0.879,0.58-1.32,0.793c-0.761,0.367-1.609,0.553-2.457,0.553c-0.731,0-1.421-0.098-2.02-0.29
					c-0.612-0.197-1.152-0.488-1.588-0.865c-0.441-0.381-0.793-0.855-1.037-1.408c-0.242-0.549-0.367-1.177-0.367-1.867
					c0-0.81,0.169-1.528,0.506-2.135c0.335-0.606,0.821-1.115,1.444-1.513c0.603-0.385,1.345-0.667,2.207-0.857
					c0.841-0.185,1.797-0.27,2.84-0.27h1.489V52.85c0-0.46-0.121-0.868-0.216-1.214c-0.087-0.314-0.261-0.576-0.447-0.777
					c-0.187-0.203-0.446-0.353-0.754-0.459c-0.327-0.113-0.755-0.171-1.253-0.171c-0.543,0-1.038,0.064-1.463,0.191
					c-0.444,0.133-0.839,0.28-1.169,0.439c-0.339,0.163-0.626,0.312-0.851,0.446c-0.581,0.344-0.92,0.338-1.218,0.139
					c-0.117-0.078-0.218-0.189-0.296-0.33c-0.071-0.126-0.119-0.272-0.147-0.449c-0.023-0.143-0.035-0.301-0.035-0.47
					c0-0.281,0.021-0.503,0.064-0.68c0.054-0.224,0.179-0.433,0.373-0.619c0.163-0.157,0.417-0.326,0.777-0.517
					c0.34-0.18,0.733-0.346,1.17-0.494c0.434-0.146,0.913-0.269,1.426-0.364c0.519-0.097,1.05-0.146,1.578-0.146
					c0.981,0,1.833,0.115,2.534,0.341c0.725,0.235,1.324,0.587,1.78,1.049c0.457,0.463,0.736,1.041,0.941,1.719
					c0.196,0.65,0.239,1.412,0.239,2.264V61.555z"/>
				<path fill="#FFFFFF" d="M69.418,56.257c-0.426,0.098-0.779,0.214-1.05,0.398c-0.256,0.174-0.436,0.36-0.552,0.595
					c-0.118,0.24-0.178,0.519-0.178,0.844c0,0.551,0.164,0.968,0.501,1.282c0.346,0.323,0.836,0.478,1.496,0.478
					c0.551,0,1.119-0.137,1.588-0.416c0.46-0.274,0.934-0.695,1.54-1.251v-2.031h-1.736C70.409,56.156,69.867,56.154,69.418,56.257z
					"/>
			</g>
			<path fill="#FFFFFF" d="M62.797,58.341c-0.225-0.626-0.631-1.112-1.178-1.416c-0.403-0.223-0.839-0.335-1.299-0.335
				c-0.423,0-0.853,0.097-1.279,0.288c-0.057,0.026-0.153,0.066-0.306,0.12c-0.082,0.029-0.218,0.073-0.423,0.125
				c-0.013,0.003-0.093,0.021-0.26,0.021c-0.023,0-0.003,0-0.022-0.001c-0.071-0.226-0.119-0.665-0.119-1.448v-7.724h2.219
				c1.019,0,1.938-0.523,2.457-1.448c0.32-0.569,0.47-1.236,0.47-2.129c0-0.364-0.022-0.686-0.066-0.972
				c-0.066-0.429-0.186-0.799-0.366-1.14c-0.258-0.486-0.628-0.913-1.07-1.172c-0.428-0.25-0.92-0.415-1.426-0.415h-2.219v-1.891
				c0-0.539-0.199-1.064-0.5-1.517c-0.277-0.415-0.678-0.744-1.153-0.982c-0.355-0.178-0.768-0.292-1.241-0.351
				c-0.309-0.039-0.671-0.057-1.099-0.057c-0.409,0-0.773,0.019-1.077,0.057c-0.457,0.057-0.85,0.165-1.197,0.33
				c-0.539,0.256-0.964,0.642-1.241,1.116c-0.248,0.424-0.373,0.91-0.373,1.404v1.891h-0.215c-0.485,0-0.944,0.151-1.364,0.377
				c-0.519,0.28-0.93,0.739-1.19,1.293c-0.134,0.285-0.234,0.611-0.304,0.974c-0.06,0.311-0.09,0.664-0.09,1.065
				c0,0.88,0.154,1.555,0.47,2.118c0.52,0.924,1.438,1.449,2.457,1.449h0.235v8.2c0,1.212,0.113,2.302,0.349,3.239
				c0.277,1.098,0.743,2.041,1.393,2.802c0.675,0.791,1.536,1.385,2.562,1.765c0.91,0.337,1.974,0.508,3.164,0.508
				c0.398,0,0.803-0.026,1.204-0.079c0.367-0.048,0.722-0.109,1.055-0.182c0.416-0.091,0.802-0.214,1.147-0.366
				c0.476-0.208,0.859-0.461,1.17-0.772c0.409-0.41,0.692-0.942,0.843-1.582c0.094-0.402,0.14-0.869,0.14-1.432
				c0-0.366-0.023-0.683-0.071-0.968C62.936,58.811,62.875,58.562,62.797,58.341z M61.146,61.086
				c-0.074,0.312-0.191,0.545-0.359,0.713c-0.148,0.148-0.349,0.276-0.615,0.392c-0.237,0.104-0.508,0.189-0.808,0.255
				c-0.282,0.062-0.585,0.114-0.9,0.155c-0.323,0.042-0.65,0.063-0.97,0.063c-0.973,0-1.826-0.133-2.534-0.395
				c-0.731-0.27-1.34-0.687-1.812-1.24c-0.466-0.546-0.801-1.24-1.009-2.065c-0.2-0.792-0.294-1.732-0.294-2.794V46.152h-2.054
				c-0.363,0-0.673-0.166-0.872-0.52c-0.159-0.283-0.237-0.679-0.237-1.238c0-0.283,0.019-0.512,0.058-0.713
				c0.04-0.21,0.094-0.381,0.164-0.53c0.094-0.201,0.23-0.386,0.403-0.479c0.153-0.082,0.322-0.159,0.503-0.159h2.034v-3.71
				c0-0.174,0.038-0.338,0.125-0.487c0.093-0.159,0.243-0.29,0.452-0.389c0.171-0.081,0.379-0.136,0.642-0.169
				c0.23-0.029,0.514-0.043,0.848-0.043c0.346,0,0.638,0.015,0.868,0.043c0.266,0.033,0.476,0.09,0.642,0.173
				c0.189,0.095,0.375,0.217,0.472,0.362c0.104,0.156,0.196,0.328,0.196,0.51v3.71h4.038c0.187,0,0.357,0.081,0.506,0.168
				c0.153,0.09,0.281,0.248,0.38,0.436c0.084,0.159,0.142,0.355,0.176,0.579c0.03,0.195,0.045,0.436,0.045,0.708
				c0,0.56-0.077,0.943-0.237,1.226c-0.199,0.354-0.508,0.522-0.871,0.522H56.09v9.543c0,1.141,0.122,2.001,0.443,2.554
				c0.278,0.48,0.767,0.714,1.537,0.714c0.265,0,0.491-0.025,0.691-0.075c0.222-0.056,0.416-0.115,0.586-0.175
				c0.171-0.061,0.317-0.119,0.439-0.175c0.353-0.158,0.673-0.176,0.95-0.023c0.158,0.088,0.274,0.233,0.346,0.432
				c0.043,0.121,0.078,0.27,0.109,0.455c0.031,0.186,0.046,0.405,0.046,0.669C61.237,60.492,61.207,60.824,61.146,61.086z"/>
			<path fill="#FFFFFF" d="M48.523,59.836l-0.018-0.032l-0.019-0.031l-3.128-5.002l2.921-4.649l0.01-0.016l0.01-0.016
				c0.26-0.435,0.408-0.858,0.452-1.293c0.095-0.963-0.36-1.875-1.187-2.382c-0.38-0.232-0.812-0.37-1.326-0.426
				c-0.258-0.028-0.554-0.041-0.909-0.041c-0.334,0-0.592,0.01-0.814,0.032c-0.369,0.036-0.691,0.111-0.983,0.231
				c-0.359,0.149-0.671,0.355-0.929,0.613c-0.159,0.16-0.296,0.329-0.422,0.52l-0.014,0.021l-0.013,0.022l-0.959,1.547l-0.921-1.506
				c-0.133-0.227-0.292-0.434-0.472-0.615c-0.322-0.32-0.712-0.548-1.166-0.684c-0.247-0.074-0.523-0.123-0.844-0.151
				c-0.229-0.02-0.505-0.029-0.844-0.029c-0.377,0-0.687,0.013-0.95,0.04c-0.566,0.059-1.056,0.229-1.46,0.506
				c-0.744,0.511-1.159,1.341-1.11,2.223c0.023,0.45,0.163,0.894,0.427,1.353l0.017,0.029l0.018,0.029l2.941,4.7l-3.14,4.929
				c-0.297,0.463-0.461,0.946-0.486,1.433c-0.048,0.864,0.352,1.686,1.07,2.193c0.384,0.272,0.837,0.441,1.384,0.515
				c0.281,0.037,0.596,0.055,0.969,0.055c0.337,0,0.601-0.01,0.83-0.03c0.336-0.03,0.632-0.088,0.901-0.177
				c0.435-0.144,0.809-0.372,1.113-0.676c0.187-0.187,0.35-0.398,0.482-0.625l1.051-1.747l1.049,1.736
				c0.136,0.235,0.301,0.45,0.491,0.638c0.295,0.297,0.671,0.527,1.11,0.673c0.273,0.091,0.573,0.149,0.916,0.178
				c0.231,0.02,0.504,0.029,0.857,0.029c0.386,0,0.711-0.017,0.992-0.053c0.522-0.067,0.956-0.215,1.332-0.452
				c0.749-0.475,1.193-1.274,1.193-2.14C48.944,60.813,48.806,60.331,48.523,59.836z M46.781,61.909
				c-0.148,0.093-0.341,0.154-0.591,0.186c-0.202,0.026-0.459,0.039-0.764,0.039c-0.296,0-0.526-0.007-0.703-0.023
				c-0.2-0.017-0.362-0.047-0.496-0.091c-0.166-0.055-0.302-0.135-0.403-0.237c-0.078-0.078-0.148-0.17-0.206-0.271l-2.621-4.337
				l-2.615,4.347c-0.052,0.091-0.121,0.183-0.201,0.262c-0.102,0.102-0.237,0.181-0.401,0.236c-0.133,0.044-0.293,0.074-0.488,0.091
				c-0.173,0.015-0.391,0.023-0.669,0.023c-0.288,0-0.531-0.013-0.724-0.039c-0.25-0.034-0.439-0.099-0.58-0.199
				c-0.206-0.145-0.316-0.369-0.303-0.613c0.009-0.169,0.075-0.349,0.204-0.549l3.756-5.897l-3.55-5.674
				c-0.121-0.21-0.179-0.384-0.187-0.547c-0.013-0.245,0.104-0.472,0.323-0.622c0.153-0.105,0.355-0.169,0.616-0.196
				c0.198-0.02,0.456-0.03,0.766-0.03c0.286,0,0.511,0.007,0.689,0.023c0.195,0.017,0.351,0.043,0.476,0.081
				c0.165,0.05,0.299,0.125,0.399,0.225c0.076,0.077,0.143,0.165,0.2,0.264l2.472,4.045l2.516-4.058
				c0.06-0.091,0.122-0.167,0.19-0.235c0.089-0.089,0.202-0.162,0.336-0.218c0.123-0.051,0.275-0.084,0.466-0.103
				c0.159-0.016,0.368-0.023,0.637-0.023c0.283,0,0.523,0.01,0.712,0.031c0.242,0.026,0.429,0.082,0.572,0.169
				c0.232,0.142,0.354,0.385,0.328,0.65c-0.016,0.163-0.082,0.339-0.202,0.539l-3.527,5.614l3.732,5.969
				c0.125,0.219,0.181,0.4,0.181,0.57C47.125,61.551,46.999,61.77,46.781,61.909z"/>
			<g>
				<path fill="#FFFFFF" d="M29.141,51.606c-0.262-0.414-0.609-0.734-1.059-0.976c-0.447-0.241-1.024-0.363-1.714-0.363
					c-0.637,0-1.187,0.112-1.633,0.333c-0.442,0.219-0.811,0.533-1.096,0.933c-0.297,0.415-0.521,0.917-0.667,1.493
					c-0.151,0.595-0.227,1.256-0.227,1.966c0,0.688,0.063,1.342,0.188,1.941c0.12,0.576,0.319,1.083,0.594,1.506
					c0.267,0.412,0.617,0.73,1.069,0.974c0.447,0.241,1.024,0.363,1.714,0.363c0.629,0,1.176-0.112,1.627-0.334
					c0.453-0.222,0.814-0.525,1.104-0.926c0.295-0.408,0.517-0.907,0.658-1.481c0.147-0.596,0.221-1.264,0.221-1.984
					c0-0.678-0.063-1.326-0.188-1.927C29.611,52.546,29.412,52.036,29.141,51.606z M27.931,56.6
					c-0.085,0.346-0.208,0.632-0.365,0.849c-0.116,0.161-0.245,0.268-0.432,0.36c-0.137,0.067-0.391,0.148-0.825,0.148
					c-0.525,0-0.771-0.102-0.852-0.145c-0.183-0.099-0.305-0.207-0.405-0.362c-0.152-0.234-0.266-0.532-0.339-0.886
					c-0.099-0.479-0.15-1.007-0.15-1.571c0-0.559,0.058-1.07,0.171-1.519c0.09-0.355,0.219-0.652,0.384-0.882
					c0.112-0.157,0.251-0.275,0.426-0.362c0.186-0.092,0.479-0.143,0.824-0.143c0.525,0,0.771,0.102,0.852,0.145
					c0.175,0.094,0.29,0.198,0.384,0.347c0.154,0.244,0.271,0.552,0.346,0.915c0.1,0.479,0.15,1.003,0.15,1.557
					C28.1,55.625,28.043,56.146,27.931,56.6z"/>
				<path fill="#FFFFFF" d="M34.629,51.261c-0.358-1.182-0.913-2.214-1.652-3.067c-0.766-0.887-1.729-1.569-2.86-2.026
					c-1.065-0.43-2.295-0.649-3.655-0.649c-1.419,0-2.704,0.246-3.818,0.73c-1.148,0.499-2.125,1.217-2.905,2.135
					c-0.755,0.888-1.323,1.946-1.688,3.143c-0.34,1.114-0.512,2.334-0.512,3.627c0,1.326,0.163,2.548,0.485,3.632
					c0.352,1.185,0.906,2.221,1.647,3.078c0.767,0.887,1.729,1.569,2.86,2.026c1.065,0.43,2.295,0.649,3.656,0.649
					c1.412,0,2.696-0.249,3.817-0.74c1.15-0.504,2.128-1.223,2.907-2.139c0.753-0.886,1.322-1.94,1.692-3.132
					c0.347-1.117,0.522-2.341,0.522-3.637C35.125,53.57,34.958,52.349,34.629,51.261z M32.865,57.988
					c-0.297,0.957-0.748,1.796-1.341,2.494c-0.598,0.704-1.355,1.259-2.25,1.651c-0.889,0.389-1.928,0.587-3.087,0.587
					c-1.126,0-2.126-0.174-2.974-0.516c-0.861-0.348-1.59-0.862-2.166-1.529c-0.571-0.661-1.002-1.47-1.28-2.407
					c-0.272-0.916-0.41-1.964-0.41-3.115c0-1.113,0.146-2.155,0.433-3.096c0.292-0.958,0.741-1.798,1.334-2.496
					c0.599-0.704,1.354-1.258,2.244-1.644c0.884-0.384,1.925-0.579,3.093-0.579c1.125,0,2.126,0.174,2.974,0.516
					c0.861,0.348,1.59,0.862,2.166,1.529c0.571,0.66,1.003,1.469,1.287,2.404c0.277,0.917,0.418,1.961,0.418,3.102
					C33.306,56.003,33.157,57.046,32.865,57.988z"/>
			</g>
		</g>
	</g>
	<g id="New_Symbol_24">
	</g>
</g>
</svg>
