<?xml version="1.0" encoding="utf-8"?>
<!-- Generator: Adobe Illustrator 17.0.0, SVG Export Plug-In . SVG Version: 6.00 Build 0)  -->
<!DOCTYPE svg PUBLIC "-//W3C//DTD SVG 1.1//EN" "http://www.w3.org/Graphics/SVG/1.1/DTD/svg11.dtd">
<svg version="1.1" xmlns="http://www.w3.org/2000/svg" xmlns:xlink="http://www.w3.org/1999/xlink" x="0px" y="0px" width="100px"
	 height="100px" viewBox="0 0 100 100" enable-background="new 0 0 100 100" xml:space="preserve">
<g id="Layer_1" display="none">
	<rect display="inline" fill="#B3B3B3" width="100" height="100"/>
</g>
<g id="Layer_2">
	<g id="New_Symbol_54">
		<g id="New_Symbol_53">
			<g id="New_Symbol">
			</g>
		</g>
	</g>
	<g id="New_Symbol_13">
		<g>
			<path fill="#FFFFFF" d="M50,17.343c23.879,0,43.236,12.355,43.236,27.598c0,14.294-17.024,26.049-38.836,27.456
				c-3.533,3.289-10.769,8.694-21.419,10.261c0,0,10.002-3.202,7.989-10.724C21.426,69.282,6.764,58.206,6.764,44.94
				C6.764,29.698,26.121,17.343,50,17.343 M50,15.579c-11.881,0-23.076,2.969-31.522,8.36C9.787,29.487,5,36.945,5,44.94
				c0,6.916,3.713,13.616,10.454,18.868c6.177,4.812,14.66,8.229,23.999,9.686c0.34,5.035-6.693,7.381-7.013,7.484
				c-0.872,0.283-1.383,1.187-1.174,2.08c0.189,0.807,0.907,1.362,1.714,1.362c0.085,0,0.171-0.006,0.258-0.019
				c10.747-1.581,18.183-6.945,21.898-10.288C77.906,72.441,95,59.97,95,44.94c0-7.995-4.787-15.453-13.478-21.001
				C73.076,18.548,61.881,15.579,50,15.579L50,15.579z"/>
			<ellipse fill="#FFFFFF" cx="45.86" cy="41.951" rx="3.22" ry="3.909"/>
			<path fill="#FFFFFF" d="M65.639,29.302c-5.701,0-10.675,3.331-13.408,8.292c-1.814-9.271-8.096-16.111-15.57-16.111
				c-8.891,0-16.098,9.679-16.098,21.618c0,11.94,7.207,21.618,16.098,21.618c6.348,0,11.836-4.936,14.457-12.104
				c2.301,6.28,7.929,10.724,14.521,10.724c8.637,0,15.639-7.62,15.639-17.019C81.278,36.921,74.276,29.302,65.639,29.302z
				 M43.101,55.52c-4.319,0-7.819-4.119-7.819-9.2c0-5.08,3.5-9.199,7.819-9.199c4.318,0,7.819,4.119,7.819,9.199
				C50.92,51.401,47.419,55.52,43.101,55.52z M58.291,55.06c-3.563,0-6.451-3.398-6.451-7.589c0-4.192,2.888-7.59,6.451-7.59
				c3.562,0,6.451,3.398,6.451,7.59C64.742,51.662,61.854,55.06,58.291,55.06z"/>
			<ellipse fill="#FFFFFF" cx="60.568" cy="43.865" rx="2.656" ry="3.226"/>
		</g>
	</g>
	<g id="New_Symbol_1_">
	</g>
	<g id="New_Symbol_24">
	</g>
</g>
</svg>
