<?xml version="1.0" encoding="utf-8"?>
<!-- Generator: Adobe Illustrator 17.0.0, SVG Export Plug-In . SVG Version: 6.00 Build 0)  -->
<!DOCTYPE svg PUBLIC "-//W3C//DTD SVG 1.1//EN" "http://www.w3.org/Graphics/SVG/1.1/DTD/svg11.dtd">
<svg version="1.1" xmlns="http://www.w3.org/2000/svg" xmlns:xlink="http://www.w3.org/1999/xlink" x="0px" y="0px" width="66px"
	 height="66px" viewBox="0 0 66 66" enable-background="new 0 0 66 66" xml:space="preserve">
<g id="Background">
	<g id="Frame">
	</g>
	<g id="Text">
	</g>
</g>
<g id="White">
</g>
<g id="Blue">
	<g>
		<g>
			<path fill="#E75A4D" d="M53.711,16.074c2.233,0,4.06,1.827,4.06,4.06v1.177l-5.64,4.029L32.929,38.566L13.728,25.205v26.721
				h-1.445c-2.233,0-4.06-1.827-4.06-4.06V20.135c0-2.233,1.827-4.06,4.06-4.06l20.646,15.308L53.71,16.075L53.711,16.074z"/>
			<polygon fill="#E7E4D7" points="13.728,25.205 13.728,51.926 52.131,51.926 52.131,25.339 32.929,38.566 			"/>
			<polygon fill="#B8B7AE" points="13.728,51.926 32.929,38.566 32.842,38.504 13.728,51.632 			"/>
			<polygon fill="#B7B6AD" points="52.131,25.339 52.142,51.926 32.929,38.566 			"/>
			<path fill="#B2392F" d="M57.77,21.31l0.007,26.559c-0.097,2.952-1.376,4.006-5.635,4.055l-0.011-26.587l5.64-4.029L57.77,21.31z"
				/>
			<polygon fill="#F7F5ED" points="12.283,16.074 32.929,31.382 53.711,16.074 			"/>
		</g>
	</g>
</g>
</svg>
