<?xml version="1.0" encoding="utf-8"?>
<!-- Generator: Adobe Illustrator 17.0.0, SVG Export Plug-In . SVG Version: 6.00 Build 0)  -->
<!DOCTYPE svg PUBLIC "-//W3C//DTD SVG 1.1//EN" "http://www.w3.org/Graphics/SVG/1.1/DTD/svg11.dtd">
<svg version="1.1" id="Layer_1" xmlns="http://www.w3.org/2000/svg" xmlns:xlink="http://www.w3.org/1999/xlink" x="0px" y="0px"
	 width="66px" height="66px" viewBox="0 0 66 66" enable-background="new 0 0 66 66" xml:space="preserve">
<g id="Blue">
</g>
<path fill="#FFFFFF" d="M34.067,37.433c-1.695-1.97-2.466-4.129-1.249-6.731c-1.038,0-1.975,0.038-2.909-0.006
	c-5.155-0.246-9.185-3.714-9.994-8.751c-0.601-3.743,0.629-6.989,3.192-9.715c2.36-2.511,5.348-3.845,8.739-4.22
	c1.948-0.215,3.914-0.324,5.874-0.353c3.655-0.054,7.312-0.016,10.968-0.016c0.269,0,0.538,0,0.807,0
	c0.014,0.049,0.029,0.097,0.043,0.146c-0.108,0.089-0.212,0.182-0.324,0.264c-0.074,0.054-0.162,0.088-0.24,0.138
	c-2.203,1.39-4.466,2.556-7.256,1.806c-0.015,0.086-0.03,0.172-0.044,0.258c0.22,0.205,0.443,0.407,0.66,0.614
	c3.281,3.124,4.458,6.873,3.286,11.282c-0.523,1.968-1.777,3.476-3.266,4.808c-0.929,0.831-1.861,1.658-2.778,2.502
	c-1.225,1.126-1.311,3.329,0.126,4.471c1.683,1.337,3.315,2.738,4.941,4.145c1.587,1.372,2.855,2.998,3.338,5.076
	c0.976,4.197-0.343,7.709-3.427,10.592c-2.398,2.242-5.33,3.485-8.51,4.09c-4.353,0.828-8.685,0.798-12.91-0.756
	c-1.714-0.631-3.262-1.543-4.517-2.888c-3.687-3.952-2.108-9.239,0.717-11.894c2.297-2.159,5.131-3.27,8.161-3.868
	C29.639,38.002,31.819,37.766,34.067,37.433z M34.124,55.366c1.78,0.057,3.721-0.175,5.545-1.007
	c4.444-2.027,5.271-7.245,2.291-10.297c-1.14-1.167-2.532-2.083-3.721-3.207c-1.236-1.167-2.658-1.467-4.266-1.265
	c-0.413,0.052-0.828,0.087-1.242,0.126c-2.222,0.207-4.379,0.661-6.389,1.677c-3.122,1.578-4.557,4.676-3.623,7.921
	c0.647,2.248,2.246,3.668,4.265,4.67C29.167,55.066,31.509,55.391,34.124,55.366z M40.107,21.952
	c-0.126-0.958-0.198-1.928-0.389-2.873c-0.599-2.96-1.76-5.639-4.085-7.686c-3.337-2.937-8.745-1.176-9.566,3.179
	c-0.256,1.359-0.27,2.806-0.134,4.187c0.271,2.735,1.235,5.236,2.992,7.404c2.978,3.675,7.282,2.973,9.602,0.623
	C39.86,25.437,40.005,23.721,40.107,21.952z"/>
</svg>
