<?xml version="1.0" encoding="utf-8"?>
<!-- Generator: Adobe Illustrator 17.0.0, SVG Export Plug-In . SVG Version: 6.00 Build 0)  -->
<!DOCTYPE svg PUBLIC "-//W3C//DTD SVG 1.1//EN" "http://www.w3.org/Graphics/SVG/1.1/DTD/svg11.dtd">
<svg version="1.1" xmlns="http://www.w3.org/2000/svg" xmlns:xlink="http://www.w3.org/1999/xlink" x="0px" y="0px" width="100px"
	 height="100px" viewBox="0 0 100 100" enable-background="new 0 0 100 100" xml:space="preserve">
<g id="Layer_1" display="none">
	<rect display="inline" fill="#B3B3B3" width="100" height="100"/>
</g>
<g id="Layer_2">
	<g id="New_Symbol_54">
		<g id="New_Symbol_53">
			<g id="New_Symbol">
			</g>
		</g>
	</g>
	<g id="New_Symbol_13">
		<path fill="#FFFFFF" d="M50.001,5L14.343,27.685v45.477L50.001,95l35.656-21.837V27.685L50.001,5z M39.942,66.161h-9.479V41.81
			h9.479V66.161z M39.942,40.255h-9.479v-6.951h9.479V40.255z M69.537,47.01H59.234v-3.013c0-1.506-0.875-2.577-2.673-2.577
			c-1.847,0-2.577,1.167-2.577,3.257v10.595c0,2.091,0.729,3.256,2.577,3.256c1.799,0,2.673-1.069,2.673-2.575v-3.013h10.303v3.256
			c0,5.637-4.714,10.887-13.22,10.887c-9.477,0-14.143-5.298-14.143-12.298v-9.624c0-6.998,4.666-12.247,14.143-12.247
			c8.506,0,13.22,5.2,13.22,10.839V47.01z"/>
	</g>
	<g id="New_Symbol_1_">
	</g>
	<g id="New_Symbol_24">
	</g>
</g>
</svg>
