<?xml version="1.0" encoding="utf-8"?>
<!-- Generator: Adobe Illustrator 17.0.0, SVG Export Plug-In . SVG Version: 6.00 Build 0)  -->
<!DOCTYPE svg PUBLIC "-//W3C//DTD SVG 1.1//EN" "http://www.w3.org/Graphics/SVG/1.1/DTD/svg11.dtd">
<svg version="1.1" xmlns="http://www.w3.org/2000/svg" xmlns:xlink="http://www.w3.org/1999/xlink" x="0px" y="0px" width="100px"
	 height="100px" viewBox="0 0 100 100" enable-background="new 0 0 100 100" xml:space="preserve">
<g id="Layer_1" display="none">
	<rect display="inline" fill="#B3B3B3" width="100" height="100"/>
</g>
<g id="Layer_2">
	<g id="New_Symbol_54">
		<g id="New_Symbol_53">
			<g id="New_Symbol">
			</g>
		</g>
	</g>
	<path fill="#FFFFFF" d="M5,5v90h90V5H5z M38.282,48.798c0,5.346-1.767,8.345-5.684,9.441c4.095,1.649,5.684,4.615,5.684,10.902
		v9.262l-15.975-0.105v-12.09c0-2.424-2.08-3.196-6.24-3.718v-8.614c3.996-0.514,6.24-1.19,6.24-3.1V37.978h15.975V48.798z
		 M38.282,35.628H22.149V23.195h16.132V35.628z M61.826,80.085c-14.314,0-21.163-7.652-21.163-17.302V59.85h16.032v1.262
		c0,3.17,1.63,5.334,4.745,5.334c2.879,0,4.278-1.331,4.278-3.585c0-6.403-24.51-5.326-24.51-23.21
		c0-9.647,6.073-18.056,21.243-18.056c13.617,0,20.385,7.652,20.385,17.311v3.144H66.808v-1.818c0-2.577-1.326-5.157-4.357-5.157
		c-2.411,0-3.811,1.328-3.811,3.494c0,7.073,24.504,5.244,24.504,23.129C83.144,71.347,76.765,80.085,61.826,80.085z"/>
	<g id="New_Symbol_13">
	</g>
	<g id="New_Symbol_1_">
	</g>
	<g id="New_Symbol_24">
	</g>
</g>
</svg>
