<?xml version="1.0" encoding="utf-8"?>
<!-- Generator: Adobe Illustrator 17.0.0, SVG Export Plug-In . SVG Version: 6.00 Build 0)  -->
<!DOCTYPE svg PUBLIC "-//W3C//DTD SVG 1.1//EN" "http://www.w3.org/Graphics/SVG/1.1/DTD/svg11.dtd">
<svg version="1.1" xmlns="http://www.w3.org/2000/svg" xmlns:xlink="http://www.w3.org/1999/xlink" x="0px" y="0px" width="100px"
	 height="100px" viewBox="0 0 100 100" enable-background="new 0 0 100 100" xml:space="preserve">
<g id="Layer_1" display="none">
	<rect display="inline" fill="#B3B3B3" width="100" height="100"/>
</g>
<g id="Layer_2">
	<g id="New_Symbol_54">
		<g id="New_Symbol_53">
			<g id="New_Symbol">
			</g>
		</g>
	</g>
	<g id="New_Symbol_13">
		<g>
			<g>
				<rect x="8.15" y="74.26" fill="none" width="83.7" height="10.24"/>
				<path fill="#FFFFFF" d="M11.495,74.255v3.594c0.391-0.255,0.788-0.446,1.191-0.574c0.403-0.127,0.811-0.191,1.223-0.191
					c1.109,0,2.049,0.383,2.82,1.148c0.771,0.766,1.156,1.69,1.156,2.773c0,1.037-0.367,1.902-1.102,2.598s-1.703,1.043-2.906,1.043
					c-0.427,0-0.839-0.055-1.234-0.164c-0.396-0.109-0.779-0.271-1.148-0.484v0.391H9.62c-0.386,0-0.66-0.074-0.824-0.223
					s-0.246-0.342-0.246-0.582c0-0.234,0.083-0.426,0.25-0.574s0.44-0.223,0.82-0.223h0.273v-6.93H9.62
					c-0.386,0-0.66-0.074-0.824-0.223s-0.246-0.342-0.246-0.582c0-0.234,0.082-0.426,0.246-0.574s0.438-0.223,0.824-0.223H11.495z
					 M16.284,81.052c0-0.661-0.232-1.221-0.695-1.68c-0.464-0.458-1.031-0.688-1.703-0.688c-0.667,0-1.232,0.229-1.695,0.688
					c-0.464,0.458-0.695,1.011-0.695,1.656c0,0.589,0.208,1.072,0.625,1.449c0.417,0.378,1.005,0.566,1.766,0.566
					c0.76,0,1.35-0.188,1.77-0.566C16.074,82.101,16.284,81.625,16.284,81.052z"/>
				<path fill="#FFFFFF" d="M23.269,77.294v5.492h1.922c0.385,0,0.66,0.074,0.824,0.223s0.246,0.343,0.246,0.582
					c0,0.234-0.082,0.426-0.246,0.574s-0.439,0.223-0.824,0.223h-5.445c-0.386,0-0.66-0.074-0.824-0.223s-0.246-0.342-0.246-0.582
					c0-0.234,0.082-0.426,0.246-0.574s0.438-0.223,0.824-0.223h1.922v-3.891h-1.289c-0.38,0-0.654-0.074-0.82-0.223
					c-0.167-0.148-0.25-0.342-0.25-0.582c0-0.234,0.082-0.426,0.246-0.574s0.438-0.223,0.824-0.223H23.269z M23.05,74.255v1.695
					h-1.906v-1.695H23.05z"/>
				<path fill="#FFFFFF" d="M30.574,82.787h2.813c0.016-0.297,0.098-0.52,0.246-0.668s0.332-0.223,0.551-0.223
					c0.239,0,0.434,0.082,0.582,0.246s0.223,0.439,0.223,0.824v1.422h-6.969V83.06l4.219-4.164h-2.453v0.156
					c0,0.38-0.074,0.652-0.223,0.816s-0.343,0.246-0.582,0.246c-0.24,0-0.434-0.082-0.582-0.246s-0.223-0.436-0.223-0.816
					l0.008-1.758h6.625v1.313L30.574,82.787z"/>
				<path fill="#FFFFFF" d="M52.496,77.583c0.192-0.182,0.391-0.273,0.594-0.273c0.229,0,0.418,0.082,0.566,0.246
					s0.223,0.437,0.223,0.816v1.031c0,0.386-0.074,0.659-0.223,0.82c-0.148,0.162-0.343,0.242-0.582,0.242
					c-0.219,0-0.404-0.063-0.555-0.188c-0.109-0.094-0.195-0.285-0.258-0.574s-0.214-0.504-0.453-0.645
					c-0.422-0.25-0.961-0.375-1.617-0.375c-0.755,0-1.361,0.222-1.816,0.664c-0.456,0.443-0.684,1.003-0.684,1.68
					c0,0.625,0.219,1.119,0.656,1.48c0.438,0.362,1.164,0.543,2.18,0.543c0.667,0,1.211-0.067,1.633-0.203
					c0.25-0.083,0.487-0.225,0.711-0.426c0.224-0.2,0.427-0.301,0.609-0.301c0.219,0,0.407,0.081,0.566,0.242
					c0.159,0.162,0.238,0.352,0.238,0.57c0,0.354-0.242,0.69-0.727,1.008c-0.719,0.474-1.771,0.711-3.156,0.711
					c-1.245,0-2.214-0.258-2.906-0.773c-0.938-0.692-1.406-1.641-1.406-2.844c0-1.141,0.38-2.084,1.141-2.832
					c0.76-0.747,1.752-1.121,2.977-1.121c0.442,0,0.854,0.042,1.234,0.125C51.821,77.292,52.173,77.417,52.496,77.583z"/>
				<path fill="#FFFFFF" d="M60.403,84.388v-0.375c-0.401,0.214-0.844,0.374-1.328,0.48s-0.925,0.16-1.32,0.16
					c-0.859,0-1.558-0.228-2.094-0.684c-0.537-0.456-0.805-0.959-0.805-1.512c0-0.672,0.342-1.295,1.027-1.871
					c0.685-0.575,1.631-0.863,2.84-0.863c0.484,0,1.044,0.052,1.68,0.156v-0.383c0-0.239-0.103-0.435-0.309-0.586
					c-0.206-0.151-0.598-0.227-1.176-0.227c-0.474,0-1.089,0.094-1.844,0.281c-0.281,0.068-0.5,0.102-0.656,0.102
					c-0.214,0-0.395-0.077-0.543-0.23c-0.148-0.153-0.223-0.35-0.223-0.59c0-0.135,0.026-0.252,0.078-0.352
					c0.052-0.099,0.125-0.178,0.219-0.238c0.094-0.06,0.289-0.131,0.586-0.215c0.396-0.109,0.799-0.196,1.211-0.262
					c0.411-0.065,0.784-0.098,1.117-0.098c0.995,0,1.767,0.215,2.316,0.645c0.549,0.43,0.824,1.017,0.824,1.762v3.297h0.273
					c0.385,0,0.66,0.074,0.824,0.223s0.246,0.343,0.246,0.582c0,0.234-0.082,0.426-0.246,0.574s-0.439,0.223-0.824,0.223H60.403z
					 M60.403,81.521c-0.641-0.125-1.232-0.188-1.773-0.188c-0.651,0-1.211,0.159-1.68,0.477c-0.292,0.203-0.438,0.409-0.438,0.617
					c0,0.151,0.07,0.273,0.211,0.367c0.26,0.172,0.617,0.258,1.07,0.258c0.385,0,0.821-0.075,1.309-0.227
					c0.487-0.151,0.92-0.356,1.301-0.617V81.521z"/>
				<path fill="#FFFFFF" d="M67.911,77.294v1c0.672-0.484,1.202-0.807,1.59-0.969c0.388-0.161,0.751-0.242,1.09-0.242
					c0.521,0,1.026,0.193,1.516,0.578c0.333,0.261,0.5,0.526,0.5,0.797c0,0.229-0.08,0.423-0.238,0.582
					c-0.159,0.159-0.351,0.238-0.574,0.238c-0.198,0-0.406-0.099-0.625-0.297c-0.219-0.198-0.414-0.297-0.586-0.297
					c-0.224,0-0.559,0.141-1.004,0.422s-1.001,0.703-1.668,1.266v2.414h2.281c0.385,0,0.66,0.074,0.824,0.223
					s0.246,0.343,0.246,0.582c0,0.234-0.082,0.426-0.246,0.574s-0.439,0.223-0.824,0.223h-4.836c-0.386,0-0.66-0.074-0.824-0.223
					s-0.246-0.342-0.246-0.582c0-0.234,0.082-0.426,0.246-0.574s0.438-0.223,0.824-0.223h0.953v-3.891h-0.578
					c-0.386,0-0.66-0.074-0.824-0.223s-0.246-0.342-0.246-0.582c0-0.234,0.082-0.426,0.246-0.574s0.438-0.223,0.824-0.223H67.911z"
					/>
				<path fill="#FFFFFF" d="M80.88,74.255v8.531h0.273c0.38,0,0.653,0.074,0.82,0.223c0.167,0.148,0.25,0.343,0.25,0.582
					c0,0.234-0.082,0.426-0.246,0.574s-0.439,0.223-0.824,0.223h-1.875v-0.391c-0.365,0.214-0.746,0.375-1.145,0.484
					s-0.812,0.164-1.238,0.164c-1.203,0-2.172-0.348-2.906-1.043s-1.102-1.561-1.102-2.598c0-1.083,0.385-2.008,1.156-2.773
					c0.771-0.766,1.711-1.148,2.82-1.148c0.417,0,0.825,0.064,1.227,0.191c0.401,0.128,0.797,0.319,1.188,0.574v-1.992h-0.273
					c-0.386,0-0.66-0.074-0.824-0.223s-0.246-0.34-0.246-0.574c0-0.239,0.082-0.434,0.246-0.582s0.438-0.223,0.824-0.223H80.88z
					 M79.278,81.052c0-0.661-0.232-1.221-0.695-1.68c-0.464-0.458-1.031-0.688-1.703-0.688c-0.667,0-1.232,0.229-1.695,0.688
					c-0.464,0.458-0.695,1.011-0.695,1.656c0,0.589,0.208,1.072,0.625,1.449c0.417,0.378,1.005,0.566,1.766,0.566
					c0.755,0,1.344-0.188,1.766-0.566C79.067,82.101,79.278,81.625,79.278,81.052z"/>
				<path fill="#FFFFFF" d="M88.216,79.169c-0.261-0.161-0.534-0.282-0.82-0.363c-0.287-0.081-0.586-0.121-0.898-0.121
					c-0.62,0-1.112,0.102-1.477,0.305c-0.162,0.089-0.242,0.185-0.242,0.289c0,0.12,0.109,0.237,0.328,0.352
					c0.167,0.083,0.539,0.164,1.117,0.242c1.063,0.146,1.802,0.292,2.219,0.438c0.547,0.193,0.969,0.479,1.266,0.859
					c0.297,0.38,0.445,0.781,0.445,1.203c0,0.573-0.253,1.052-0.758,1.438c-0.724,0.558-1.664,0.836-2.82,0.836
					c-0.464,0-0.892-0.041-1.285-0.121c-0.394-0.081-0.754-0.199-1.082-0.355c-0.078,0.068-0.162,0.12-0.25,0.156
					c-0.089,0.037-0.18,0.055-0.273,0.055c-0.25,0-0.449-0.082-0.598-0.246s-0.223-0.438-0.223-0.824v-0.539
					c0-0.385,0.074-0.66,0.223-0.824s0.342-0.246,0.582-0.246c0.192,0,0.354,0.054,0.484,0.16c0.13,0.107,0.231,0.291,0.305,0.551
					c0.245,0.208,0.539,0.366,0.883,0.473c0.344,0.107,0.739,0.16,1.188,0.16c0.734,0,1.305-0.114,1.711-0.344
					c0.192-0.114,0.289-0.234,0.289-0.359c0-0.208-0.138-0.38-0.414-0.516c-0.276-0.135-0.847-0.25-1.711-0.344
					c-1.287-0.135-2.146-0.396-2.578-0.781c-0.433-0.38-0.648-0.849-0.648-1.406c0-0.573,0.242-1.049,0.727-1.43
					c0.656-0.521,1.516-0.781,2.578-0.781c0.37,0,0.725,0.035,1.066,0.105c0.341,0.07,0.668,0.179,0.98,0.324
					c0.099-0.073,0.191-0.127,0.277-0.164c0.086-0.036,0.165-0.055,0.238-0.055c0.219,0,0.401,0.082,0.547,0.246
					c0.146,0.164,0.219,0.439,0.219,0.824v0.391c0,0.349-0.042,0.586-0.125,0.711c-0.167,0.24-0.394,0.359-0.68,0.359
					c-0.193,0-0.362-0.06-0.508-0.18C88.352,79.526,88.258,79.368,88.216,79.169z"/>
			</g>
			<path fill="#FFFFFF" d="M23.898,15.5v52.204h52.204V15.5H23.898z M43.203,40.905c0,3.101-1.025,4.841-3.297,5.477
				c2.375,0.957,3.297,2.677,3.297,6.324v5.372l-9.266-0.061v-7.013c0-1.406-1.207-1.854-3.62-2.157v-4.997
				c2.318-0.298,3.62-0.69,3.62-1.798v-7.423h9.266V40.905z M43.203,33.266h-9.357v-7.212h9.357V33.266z M56.86,59.053
				c-8.303,0-12.275-4.439-12.275-10.036v-1.701h9.299v0.732c0,1.839,0.945,3.094,2.752,3.094c1.67,0,2.481-0.772,2.481-2.079
				c0-3.714-14.217-3.089-14.217-13.463c0-5.596,3.523-10.473,12.322-10.473c7.898,0,11.824,4.439,11.824,10.041v1.824H59.75v-1.055
				c0-1.495-0.769-2.991-2.527-2.991c-1.399,0-2.21,0.77-2.21,2.027c0,4.103,14.214,3.042,14.214,13.416
				C69.225,53.985,65.525,59.053,56.86,59.053z"/>
		</g>
	</g>
	<g id="New_Symbol_1_">
	</g>
	<g id="New_Symbol_24">
	</g>
</g>
</svg>
