<?xml version="1.0" encoding="utf-8"?>
<!-- Generator: Adobe Illustrator 17.0.0, SVG Export Plug-In . SVG Version: 6.00 Build 0)  -->
<!DOCTYPE svg PUBLIC "-//W3C//DTD SVG 1.1//EN" "http://www.w3.org/Graphics/SVG/1.1/DTD/svg11.dtd">
<svg version="1.1" xmlns="http://www.w3.org/2000/svg" xmlns:xlink="http://www.w3.org/1999/xlink" x="0px" y="0px" width="100px"
	 height="100px" viewBox="0 0 100 100" enable-background="new 0 0 100 100" xml:space="preserve">
<g id="Layer_1" display="none">
	<rect display="inline" fill="#B3B3B3" width="100" height="100"/>
</g>
<g id="Layer_2">
	<g id="New_Symbol_54">
		<g id="New_Symbol_53">
			<g id="New_Symbol">
			</g>
		</g>
	</g>
	<g>
		<path fill="#FFFFFF" d="M88.813,51.958H85.48v9.58h-6.091v-9.58h-2.363V47.41h2.363v-2.896c0-3.798,1.577-6.052,6.053-6.052h4.221
			v4.532h-2.319c-1.742,0-1.857,0.648-1.857,1.864L85.48,47.41h3.829L88.813,51.958z"/>
		<path fill="#FFFFFF" d="M60.877,49.356c2.416,0,2.756-1.327,2.756-2.518c0-0.954-0.136-1.905-0.272-2.858
			c-0.136-0.954-0.272-1.871-0.272-2.825c0-3.132,2.043-4.459,4.936-4.459h0.715v1.871h-0.612c-2.008,0-2.69,1.089-2.69,2.927
			c0,0.782,0.102,1.6,0.239,2.416c0.136,0.851,0.238,1.669,0.238,2.587c0.034,2.178-0.919,3.267-2.451,3.676v0.067
			c1.531,0.376,2.485,1.531,2.451,3.71c0,0.92-0.102,1.772-0.238,2.587c-0.137,0.851-0.239,1.634-0.239,2.452
			c0,1.905,0.784,2.961,2.69,2.961h0.612v1.871h-0.715c-2.825,0-4.936-1.225-4.936-4.663c0-0.918,0.137-1.871,0.272-2.789
			c0.137-0.92,0.272-1.838,0.272-2.758c0-1.053-0.34-2.518-2.756-2.518V49.356z"/>
		<g>
			<g>
				<path fill="#FFFFFF" d="M10.337,29v42h44.53V29H10.337z M25.972,48.58c0,2.863-0.951,4.475-3.042,5.063
					c2.19,0.885,3.042,2.464,3.042,5.843v4.956l-8.556-0.057v-6.478c0-1.294-1.408-1.448-2.573-1.848v-4.637
					c1.165-0.388,2.573-0.761,2.573-1.786V42.79h8.556V48.58z M25.972,41.53h-8.637v-6.666h8.637V41.53z M38.58,65.345
					c-7.659,0-11.333-4.097-11.333-9.277v-1.567h8.589v0.68c0,1.693,0.875,2.851,2.542,2.851c1.54,0,2.295-0.716,2.295-1.917
					c0-3.424-13.135-2.851-13.135-12.434c0-5.167,3.254-9.671,11.38-9.671c7.296,0,10.924,4.104,10.924,9.269v1.686h-8.585v-0.968
					c0-1.389-0.716-2.777-2.34-2.777c-1.291,0-2.038,0.723-2.038,1.881c0,3.786,13.127,2.816,13.127,12.394
					C50.006,60.668,46.589,65.345,38.58,65.345z"/>
			</g>
		</g>
	</g>
	<g id="New_Symbol_13">
	</g>
	<g id="New_Symbol_1_">
	</g>
	<g id="New_Symbol_24">
	</g>
</g>
</svg>
