<?xml version="1.0" encoding="utf-8"?>
<!-- Generator: Adobe Illustrator 17.0.0, SVG Export Plug-In . SVG Version: 6.00 Build 0)  -->
<!DOCTYPE svg PUBLIC "-//W3C//DTD SVG 1.1//EN" "http://www.w3.org/Graphics/SVG/1.1/DTD/svg11.dtd">
<svg version="1.1" xmlns="http://www.w3.org/2000/svg" xmlns:xlink="http://www.w3.org/1999/xlink" x="0px" y="0px" width="100px"
	 height="100px" viewBox="0 0 100 100" enable-background="new 0 0 100 100" xml:space="preserve">
<g id="Layer_1" display="none">
	<rect display="inline" fill="#B3B3B3" width="100" height="100"/>
	<g display="inline">
		<defs>
			<rect id="SVGID_1_" x="-3058" y="-1719" width="1715" height="383"/>
		</defs>
		<clipPath id="SVGID_2_">
			<use xlink:href="#SVGID_1_"  overflow="visible"/>
		</clipPath>
		<g transform="matrix(1 0 0 1 0 -2.441406e-004)" clip-path="url(#SVGID_2_)">
			
				<image overflow="visible" width="1920" height="1080" xlink:href="D49786D1.jpg"  transform="matrix(6.7276 0 0 6.7276 -8480.748 -3972.9956)">
			</image>
		</g>
	</g>
</g>
<g id="Layer_2">
	<g id="New_Symbol_54">
		<g id="New_Symbol_53">
			<g id="New_Symbol">
			</g>
		</g>
	</g>
	<g>
		<path fill="#FFFFFF" d="M55,53.7c2.4,0,2.8-1.3,2.8-2.5c0-1-0.1-1.9-0.3-2.9c-0.1-1-0.3-1.9-0.3-2.8c0-3.1,2-4.5,4.9-4.5h0.7v1.9
			h-0.6c-2,0-2.7,1.1-2.7,2.9c0,0.8,0.1,1.6,0.2,2.4c0.1,0.9,0.2,1.7,0.2,2.6c0,2.2-0.9,3.3-2.5,3.7v0.1c1.5,0.4,2.5,1.5,2.5,3.7
			c0,0.9-0.1,1.8-0.2,2.6c-0.1,0.9-0.2,1.6-0.2,2.5c0,1.9,0.8,3,2.7,3h0.6v1.9h-0.7c-2.8,0-4.9-1.2-4.9-4.7c0-0.9,0.1-1.9,0.3-2.8
			c0.1-0.9,0.3-1.8,0.3-2.8c0-1.1-0.3-2.5-2.8-2.5V53.7z"/>
		<g>
			<g>
				<path fill="#FFFFFF" d="M4.4,33.4v42H49v-42H4.4z M20.1,52.9c0,2.9-1,4.5-3,5.1c2.2,0.9,3,2.5,3,5.8v5l-8.6-0.1v-6.5
					c0-1.3-1.4-1.4-2.6-1.8v-4.6c1.2-0.4,2.6-0.8,2.6-1.8v-6.8h8.6V52.9z M20.1,45.9h-8.6v-6.7h8.6V45.9z M32.7,69.7
					c-7.7,0-11.3-4.1-11.3-9.3v-1.6h8.6v0.7c0,1.7,0.9,2.9,2.5,2.9c1.5,0,2.3-0.7,2.3-1.9c0-3.4-13.1-2.9-13.1-12.4
					c0-5.2,3.3-9.7,11.4-9.7c7.3,0,10.9,4.1,10.9,9.3v1.7h-8.6v-1c0-1.4-0.7-2.8-2.3-2.8c-1.3,0-2,0.7-2,1.9
					c0,3.8,13.1,2.8,13.1,12.4C44.1,65,40.7,69.7,32.7,69.7z"/>
			</g>
		</g>
		<g>
			<path fill="#FFFFFF" d="M79.1,53.6c0-1.5,3.3-1.9,3.3-5.5c0-2.1-0.2-3.4-1.9-4.1c0-0.5,2.9-0.2,2.9-1.2c-0.5,0-6.4,0-6.4,0
				s-6.5,0.2-6.5,5.7c0,5.5,5.7,4.9,5.7,4.9s0,0.8,0,1.4c0,0.6,0.8,0.4,0.9,1.5c-0.4,0-7.9-0.2-7.9,4.8c0,5,6.6,4.8,6.6,4.8
				s7.7,0.4,7.7-5.9C83.5,56.3,79.1,55.1,79.1,53.6z M73.5,48.8c-0.6-2.2,0.2-4.4,1.8-4.8c1.6-0.4,3.4,1,4,3.2
				c0.6,2.2-0.2,4.4-1.8,4.8C75.9,52.5,74.1,51.1,73.5,48.8z M76.8,64.3c-2.7,0.2-4.9-1.2-5.1-3.2c-0.1-1.9,1.9-3.7,4.6-3.8
				c2.7-0.2,4.9,1.2,5.1,3.2C81.5,62.4,79.5,64.1,76.8,64.3z"/>
			<polygon fill="#FFFFFF" points="95.6,47.3 95.6,48.6 91.1,48.6 91.1,53.1 89.8,53.1 89.8,48.6 85.3,48.6 85.3,47.3 89.8,47.3 
				89.8,42.8 91.1,42.8 91.1,47.3 			"/>
		</g>
	</g>
	<g id="New_Symbol_13">
	</g>
	<g id="New_Symbol_1_">
	</g>
	<g id="New_Symbol_24">
	</g>
</g>
</svg>
