<?xml version="1.0" encoding="utf-8"?>
<!-- Generator: Adobe Illustrator 17.0.0, SVG Export Plug-In . SVG Version: 6.00 Build 0)  -->
<!DOCTYPE svg PUBLIC "-//W3C//DTD SVG 1.1//EN" "http://www.w3.org/Graphics/SVG/1.1/DTD/svg11.dtd">
<svg version="1.1" xmlns="http://www.w3.org/2000/svg" xmlns:xlink="http://www.w3.org/1999/xlink" x="0px" y="0px" width="100px"
	 height="100px" viewBox="0 0 100 100" enable-background="new 0 0 100 100" xml:space="preserve">
<g id="Layer_1" display="none">
	<rect display="inline" fill="#B3B3B3" width="100" height="100"/>
</g>
<g id="Layer_2">
	<g id="New_Symbol_54">
		<g id="New_Symbol_53">
			<g id="New_Symbol">
			</g>
		</g>
	</g>
	<g id="New_Symbol_13">
		<g>
			<g>
				<rect x="23.67" y="74.26" fill="none" width="52.661" height="10.24"/>
				<path fill="#FFFFFF" d="M34.457,77.294v0.539c0.292-0.25,0.613-0.438,0.965-0.563s0.733-0.188,1.145-0.188
					c0.948,0,1.698,0.294,2.25,0.883c0.438,0.469,0.656,1.083,0.656,1.844v2.977c0.338,0,0.588,0.074,0.75,0.223
					c0.161,0.148,0.242,0.343,0.242,0.582c0,0.234-0.082,0.426-0.246,0.574s-0.439,0.223-0.824,0.223h-1.445
					c-0.386,0-0.66-0.074-0.824-0.223s-0.246-0.342-0.246-0.582c0-0.234,0.081-0.426,0.242-0.574
					c0.161-0.148,0.411-0.223,0.75-0.223v-3.023c0-0.349-0.094-0.604-0.281-0.766c-0.245-0.208-0.612-0.313-1.102-0.313
					c-0.37,0-0.694,0.072-0.973,0.215c-0.279,0.144-0.632,0.447-1.059,0.91v2.977c0.411,0,0.677,0.039,0.797,0.117
					c0.255,0.156,0.383,0.386,0.383,0.688c0,0.234-0.082,0.426-0.246,0.574s-0.439,0.223-0.824,0.223h-1.82
					c-0.386,0-0.66-0.074-0.824-0.223s-0.246-0.342-0.246-0.582c0-0.292,0.125-0.518,0.375-0.68
					c0.125-0.078,0.393-0.117,0.805-0.117v-3.891c-0.339,0-0.589-0.075-0.75-0.227c-0.162-0.151-0.242-0.344-0.242-0.578
					s0.082-0.426,0.246-0.574s0.438-0.223,0.824-0.223H34.457z"/>
				<path fill="#FFFFFF" d="M49.379,81.653h-6.57c0.167,0.417,0.462,0.753,0.887,1.008c0.424,0.255,0.999,0.383,1.723,0.383
					c0.594,0,1.383-0.127,2.367-0.383c0.406-0.104,0.688-0.156,0.844-0.156c0.213,0,0.393,0.076,0.539,0.227
					c0.146,0.151,0.219,0.341,0.219,0.57c0,0.208-0.078,0.386-0.234,0.531c-0.208,0.193-0.716,0.376-1.523,0.551
					c-0.808,0.174-1.583,0.262-2.328,0.262c-1.281,0-2.306-0.362-3.074-1.086c-0.769-0.724-1.152-1.614-1.152-2.672
					c0-1.125,0.415-2.04,1.246-2.746c0.831-0.706,1.788-1.059,2.871-1.059c0.651,0,1.249,0.115,1.793,0.344
					c0.544,0.229,0.949,0.477,1.215,0.742c0.375,0.386,0.685,0.862,0.93,1.43c0.167,0.396,0.25,0.854,0.25,1.375V81.653z
					 M47.605,80.052c-0.245-0.458-0.565-0.801-0.961-1.027c-0.396-0.227-0.867-0.34-1.414-0.34c-0.542,0-1.011,0.113-1.406,0.34
					c-0.396,0.227-0.719,0.569-0.969,1.027H47.605z"/>
				<path fill="#FFFFFF" d="M54.652,81.435l-1.109,2.953h-1.508l-1.344-5.492c-0.292-0.016-0.512-0.098-0.66-0.246
					s-0.223-0.334-0.223-0.559c0-0.234,0.082-0.426,0.246-0.574s0.438-0.223,0.824-0.223h1.492c0.385,0,0.66,0.074,0.824,0.223
					s0.246,0.343,0.246,0.582c0,0.24-0.094,0.443-0.281,0.609c-0.141,0.125-0.417,0.188-0.828,0.188l0.609,2.539l0.992-2.602h1.422
					l1,2.602l0.625-2.539c-0.396,0-0.656-0.039-0.781-0.117c-0.25-0.161-0.375-0.391-0.375-0.688c0-0.234,0.082-0.426,0.246-0.574
					s0.438-0.223,0.824-0.223h1.508c0.385,0,0.66,0.074,0.824,0.223s0.246,0.343,0.246,0.582c0,0.214-0.072,0.395-0.215,0.543
					c-0.144,0.148-0.355,0.233-0.637,0.254l-1.313,5.492h-1.484L54.652,81.435z"/>
				<path fill="#FFFFFF" d="M65.653,79.169c-0.261-0.161-0.534-0.282-0.82-0.363c-0.287-0.081-0.586-0.121-0.898-0.121
					c-0.62,0-1.112,0.102-1.477,0.305c-0.162,0.089-0.242,0.185-0.242,0.289c0,0.12,0.109,0.237,0.328,0.352
					c0.167,0.083,0.539,0.164,1.117,0.242c1.063,0.146,1.802,0.292,2.219,0.438c0.547,0.193,0.969,0.479,1.266,0.859
					c0.297,0.38,0.445,0.781,0.445,1.203c0,0.573-0.253,1.052-0.758,1.438c-0.724,0.558-1.664,0.836-2.82,0.836
					c-0.464,0-0.892-0.041-1.285-0.121c-0.394-0.081-0.754-0.199-1.082-0.355c-0.078,0.068-0.162,0.12-0.25,0.156
					c-0.089,0.037-0.18,0.055-0.273,0.055c-0.25,0-0.449-0.082-0.598-0.246s-0.223-0.438-0.223-0.824v-0.539
					c0-0.385,0.074-0.66,0.223-0.824s0.342-0.246,0.582-0.246c0.192,0,0.354,0.054,0.484,0.16c0.13,0.107,0.231,0.291,0.305,0.551
					c0.245,0.208,0.539,0.366,0.883,0.473c0.344,0.107,0.739,0.16,1.188,0.16c0.734,0,1.305-0.114,1.711-0.344
					c0.192-0.114,0.289-0.234,0.289-0.359c0-0.208-0.138-0.38-0.414-0.516c-0.276-0.135-0.847-0.25-1.711-0.344
					c-1.287-0.135-2.146-0.396-2.578-0.781c-0.433-0.38-0.648-0.849-0.648-1.406c0-0.573,0.242-1.049,0.727-1.43
					c0.656-0.521,1.516-0.781,2.578-0.781c0.37,0,0.725,0.035,1.066,0.105c0.341,0.07,0.668,0.179,0.98,0.324
					c0.099-0.073,0.191-0.127,0.277-0.164c0.086-0.036,0.165-0.055,0.238-0.055c0.219,0,0.401,0.082,0.547,0.246
					c0.146,0.164,0.219,0.439,0.219,0.824v0.391c0,0.349-0.042,0.586-0.125,0.711c-0.167,0.24-0.394,0.359-0.68,0.359
					c-0.193,0-0.362-0.06-0.508-0.18C65.788,79.526,65.694,79.367,65.653,79.169z"/>
			</g>
			<path fill="#FFFFFF" d="M23.898,15.5v52.204h52.204V15.5H23.898z M43.203,40.905c0,3.101-1.025,4.841-3.297,5.477
				c2.375,0.957,3.297,2.677,3.297,6.324v5.372l-9.266-0.061v-7.013c0-1.406-1.207-1.854-3.62-2.157v-4.997
				c2.318-0.298,3.62-0.69,3.62-1.798v-7.423h9.266V40.905z M43.203,33.266h-9.357v-7.212h9.357V33.266z M56.86,59.053
				c-8.303,0-12.275-4.439-12.275-10.036v-1.701h9.299v0.732c0,1.839,0.945,3.094,2.752,3.094c1.67,0,2.481-0.772,2.481-2.079
				c0-3.714-14.217-3.089-14.217-13.463c0-5.596,3.523-10.473,12.322-10.473c7.898,0,11.824,4.439,11.824,10.041v1.824H59.75v-1.055
				c0-1.495-0.769-2.991-2.527-2.991c-1.399,0-2.21,0.77-2.21,2.027c0,4.103,14.214,3.042,14.214,13.416
				C69.225,53.985,65.525,59.053,56.86,59.053z"/>
		</g>
	</g>
	<g id="New_Symbol_1_">
	</g>
	<g id="New_Symbol_24">
	</g>
</g>
</svg>
