<?xml version="1.0" encoding="utf-8"?>
<!-- Generator: Adobe Illustrator 17.0.0, SVG Export Plug-In . SVG Version: 6.00 Build 0)  -->
<!DOCTYPE svg PUBLIC "-//W3C//DTD SVG 1.1//EN" "http://www.w3.org/Graphics/SVG/1.1/DTD/svg11.dtd">
<svg version="1.1" xmlns="http://www.w3.org/2000/svg" xmlns:xlink="http://www.w3.org/1999/xlink" x="0px" y="0px" width="100px"
	 height="100px" viewBox="0 0 100 100" enable-background="new 0 0 100 100" xml:space="preserve">
<g id="Layer_1" display="none">
	<rect display="inline" fill="#B3B3B3" width="100" height="100"/>
</g>
<g id="Layer_2">
	<g id="New_Symbol_54">
		<g id="New_Symbol_53">
			<g id="New_Symbol">
			</g>
		</g>
	</g>
	<g id="New_Symbol_13">
		<g>
			<g>
				<rect x="5.305" y="74.26" fill="none" width="89.39" height="10.24"/>
				<path fill="#FFFFFF" d="M15.564,79.168c-0.261-0.161-0.534-0.282-0.82-0.363c-0.287-0.081-0.586-0.121-0.898-0.121
					c-0.62,0-1.112,0.102-1.477,0.305c-0.162,0.089-0.242,0.185-0.242,0.289c0,0.12,0.109,0.237,0.328,0.352
					c0.167,0.083,0.539,0.164,1.117,0.242c1.063,0.146,1.802,0.292,2.219,0.438c0.547,0.193,0.969,0.479,1.266,0.859
					c0.297,0.38,0.445,0.781,0.445,1.203c0,0.573-0.253,1.052-0.758,1.438c-0.724,0.558-1.664,0.836-2.82,0.836
					c-0.464,0-0.892-0.041-1.285-0.121c-0.394-0.081-0.754-0.199-1.082-0.355c-0.078,0.068-0.162,0.12-0.25,0.156
					c-0.089,0.037-0.18,0.055-0.273,0.055c-0.25,0-0.449-0.082-0.598-0.246s-0.223-0.438-0.223-0.824V82.77
					c0-0.385,0.074-0.66,0.223-0.824s0.342-0.246,0.582-0.246c0.192,0,0.354,0.054,0.484,0.16c0.13,0.107,0.231,0.291,0.305,0.551
					c0.245,0.208,0.539,0.366,0.883,0.473c0.344,0.107,0.739,0.16,1.188,0.16c0.734,0,1.305-0.114,1.711-0.344
					c0.192-0.114,0.289-0.234,0.289-0.359c0-0.208-0.138-0.38-0.414-0.516c-0.276-0.135-0.847-0.25-1.711-0.344
					c-1.287-0.135-2.146-0.396-2.578-0.781c-0.433-0.38-0.648-0.849-0.648-1.406c0-0.573,0.242-1.049,0.727-1.43
					c0.656-0.521,1.516-0.781,2.578-0.781c0.37,0,0.725,0.035,1.066,0.105c0.341,0.07,0.668,0.179,0.98,0.324
					c0.099-0.073,0.191-0.127,0.277-0.164c0.086-0.036,0.165-0.055,0.238-0.055c0.219,0,0.401,0.082,0.547,0.246
					c0.146,0.164,0.219,0.439,0.219,0.824v0.391c0,0.349-0.042,0.586-0.125,0.711c-0.167,0.24-0.394,0.359-0.68,0.359
					c-0.193,0-0.362-0.06-0.508-0.18C15.7,79.525,15.606,79.367,15.564,79.168z"/>
				<path fill="#FFFFFF" d="M23.269,77.293v5.492h1.922c0.385,0,0.66,0.074,0.824,0.223s0.246,0.343,0.246,0.582
					c0,0.234-0.082,0.426-0.246,0.574s-0.439,0.223-0.824,0.223h-5.445c-0.386,0-0.66-0.074-0.824-0.223s-0.246-0.342-0.246-0.582
					c0-0.234,0.082-0.426,0.246-0.574s0.438-0.223,0.824-0.223h1.922v-3.891h-1.289c-0.38,0-0.654-0.074-0.82-0.223
					c-0.167-0.148-0.25-0.342-0.25-0.582c0-0.234,0.082-0.426,0.246-0.574s0.438-0.223,0.824-0.223H23.269z M23.05,74.254v1.695
					h-1.906v-1.695H23.05z"/>
				<path fill="#FFFFFF" d="M32.879,77.77v-0.477h1.875c0.385,0,0.66,0.074,0.824,0.223s0.246,0.343,0.246,0.582
					c0,0.234-0.082,0.426-0.246,0.574s-0.439,0.223-0.824,0.223H34.48v5.828c0,0.563-0.119,1.053-0.355,1.473
					c-0.237,0.419-0.601,0.78-1.09,1.082c-0.49,0.302-1.042,0.453-1.656,0.453h-1.813c-0.386,0-0.66-0.074-0.824-0.223
					s-0.246-0.34-0.246-0.574c0-0.24,0.082-0.434,0.246-0.582s0.438-0.223,0.824-0.223h1.766c0.489,0,0.87-0.133,1.141-0.398
					c0.271-0.266,0.406-0.602,0.406-1.008v-0.781c-0.354,0.229-0.715,0.401-1.082,0.516s-0.744,0.172-1.129,0.172
					c-1.089,0-2-0.363-2.734-1.09s-1.102-1.624-1.102-2.691c0-1.073,0.367-1.973,1.102-2.699s1.646-1.09,2.734-1.09
					c0.406,0,0.793,0.059,1.16,0.176S32.545,77.531,32.879,77.77z M32.871,80.84c0-0.588-0.218-1.099-0.652-1.531
					c-0.435-0.432-0.957-0.648-1.566-0.648s-1.132,0.216-1.566,0.648c-0.435,0.433-0.652,0.943-0.652,1.531
					c0,0.594,0.217,1.105,0.652,1.535c0.435,0.43,0.957,0.645,1.566,0.645s1.131-0.215,1.566-0.645
					C32.653,81.946,32.871,81.434,32.871,80.84z"/>
				<path fill="#FFFFFF" d="M39.417,77.293v0.539c0.292-0.25,0.613-0.438,0.965-0.563s0.733-0.188,1.145-0.188
					c0.948,0,1.698,0.294,2.25,0.883c0.438,0.469,0.656,1.083,0.656,1.844v2.977c0.338,0,0.588,0.074,0.75,0.223
					c0.161,0.148,0.242,0.343,0.242,0.582c0,0.234-0.082,0.426-0.246,0.574s-0.439,0.223-0.824,0.223H42.91
					c-0.386,0-0.66-0.074-0.824-0.223s-0.246-0.342-0.246-0.582c0-0.234,0.081-0.426,0.242-0.574
					c0.161-0.148,0.411-0.223,0.75-0.223v-3.023c0-0.349-0.094-0.604-0.281-0.766c-0.245-0.208-0.612-0.313-1.102-0.313
					c-0.37,0-0.694,0.072-0.973,0.215c-0.279,0.144-0.632,0.447-1.059,0.91v2.977c0.411,0,0.677,0.039,0.797,0.117
					c0.255,0.156,0.383,0.386,0.383,0.688c0,0.234-0.082,0.426-0.246,0.574s-0.439,0.223-0.824,0.223h-1.82
					c-0.386,0-0.66-0.074-0.824-0.223s-0.246-0.342-0.246-0.582c0-0.292,0.125-0.518,0.375-0.68
					c0.125-0.078,0.393-0.117,0.805-0.117v-3.891c-0.339,0-0.589-0.075-0.75-0.227c-0.162-0.151-0.242-0.344-0.242-0.578
					s0.082-0.426,0.246-0.574s0.438-0.223,0.824-0.223H39.417z"/>
				<path fill="#FFFFFF" d="M51.761,84.387v-0.375c-0.401,0.214-0.844,0.374-1.328,0.48s-0.925,0.16-1.32,0.16
					c-0.859,0-1.558-0.228-2.094-0.684c-0.537-0.456-0.805-0.959-0.805-1.512c0-0.672,0.342-1.295,1.027-1.871
					c0.685-0.575,1.631-0.863,2.84-0.863c0.484,0,1.044,0.052,1.68,0.156v-0.383c0-0.239-0.103-0.435-0.309-0.586
					c-0.206-0.151-0.598-0.227-1.176-0.227c-0.474,0-1.089,0.094-1.844,0.281c-0.281,0.068-0.5,0.102-0.656,0.102
					c-0.214,0-0.395-0.077-0.543-0.23c-0.148-0.153-0.223-0.35-0.223-0.59c0-0.135,0.026-0.252,0.078-0.352
					c0.052-0.099,0.125-0.178,0.219-0.238c0.094-0.06,0.289-0.131,0.586-0.215c0.396-0.109,0.799-0.196,1.211-0.262
					c0.411-0.065,0.784-0.098,1.117-0.098c0.995,0,1.767,0.215,2.316,0.645c0.549,0.43,0.824,1.017,0.824,1.762v3.297h0.273
					c0.385,0,0.66,0.074,0.824,0.223s0.246,0.343,0.246,0.582c0,0.234-0.082,0.426-0.246,0.574s-0.439,0.223-0.824,0.223H51.761z
					 M51.761,81.52c-0.641-0.125-1.232-0.188-1.773-0.188c-0.651,0-1.211,0.159-1.68,0.477c-0.292,0.203-0.438,0.409-0.438,0.617
					c0,0.151,0.07,0.273,0.211,0.367c0.26,0.172,0.617,0.258,1.07,0.258c0.385,0,0.821-0.075,1.309-0.227
					c0.487-0.151,0.92-0.356,1.301-0.617V81.52z"/>
				<path fill="#FFFFFF" d="M57.927,78.895v3.211c0,0.344,0.07,0.57,0.211,0.68c0.219,0.172,0.609,0.258,1.172,0.258
					c0.817,0,1.573-0.174,2.266-0.523c0.266-0.135,0.474-0.203,0.625-0.203c0.208,0,0.389,0.078,0.543,0.234
					c0.153,0.156,0.23,0.347,0.23,0.57c0,0.208-0.083,0.388-0.25,0.539c-0.255,0.245-0.759,0.47-1.512,0.676
					c-0.753,0.206-1.387,0.309-1.902,0.309c-0.995,0-1.741-0.215-2.238-0.645c-0.498-0.43-0.746-0.957-0.746-1.582v-3.523h-0.578
					c-0.386,0-0.66-0.074-0.824-0.223s-0.246-0.342-0.246-0.582c0-0.234,0.082-0.426,0.246-0.574s0.438-0.223,0.824-0.223h0.578
					v-1.445c0-0.385,0.074-0.66,0.223-0.824s0.342-0.246,0.582-0.246c0.234,0,0.426,0.082,0.574,0.246s0.223,0.439,0.223,0.824
					v1.445h2.961c0.385,0,0.66,0.074,0.824,0.223s0.246,0.343,0.246,0.582c0,0.234-0.082,0.426-0.246,0.574
					s-0.439,0.223-0.824,0.223H57.927z"/>
				<path fill="#FFFFFF" d="M71.005,77.293v5.492c0.338,0,0.588,0.076,0.75,0.227c0.161,0.151,0.242,0.344,0.242,0.578
					s-0.082,0.426-0.246,0.574s-0.439,0.223-0.824,0.223h-1.523V84.02c-0.458,0.208-0.896,0.365-1.313,0.469
					c-0.417,0.104-0.813,0.156-1.188,0.156c-0.526,0-0.982-0.111-1.367-0.332c-0.386-0.221-0.69-0.527-0.914-0.918
					c-0.162-0.281-0.242-0.633-0.242-1.055v-3.445h-0.273c-0.386,0-0.66-0.074-0.824-0.223s-0.246-0.342-0.246-0.582
					c0-0.234,0.082-0.426,0.246-0.574s0.438-0.223,0.824-0.223h1.875v4.766c0,0.339,0.082,0.587,0.246,0.746
					c0.164,0.159,0.415,0.238,0.754,0.238c0.323,0,0.67-0.063,1.043-0.191c0.372-0.127,0.832-0.358,1.379-0.691v-3.266h-0.578
					c-0.386,0-0.66-0.074-0.824-0.223s-0.246-0.342-0.246-0.582c0-0.234,0.082-0.426,0.246-0.574s0.438-0.223,0.824-0.223H71.005z"
					/>
				<path fill="#FFFFFF" d="M76.552,77.293v1c0.672-0.484,1.202-0.807,1.59-0.969c0.388-0.161,0.751-0.242,1.09-0.242
					c0.521,0,1.026,0.193,1.516,0.578c0.333,0.261,0.5,0.526,0.5,0.797c0,0.229-0.08,0.423-0.238,0.582
					c-0.159,0.159-0.351,0.238-0.574,0.238c-0.198,0-0.406-0.099-0.625-0.297c-0.219-0.198-0.414-0.297-0.586-0.297
					c-0.224,0-0.559,0.141-1.004,0.422s-1.001,0.703-1.668,1.266v2.414h2.281c0.385,0,0.66,0.074,0.824,0.223
					s0.246,0.343,0.246,0.582c0,0.234-0.082,0.426-0.246,0.574s-0.439,0.223-0.824,0.223h-4.836c-0.386,0-0.66-0.074-0.824-0.223
					s-0.246-0.342-0.246-0.582c0-0.234,0.082-0.426,0.246-0.574s0.438-0.223,0.824-0.223h0.953v-3.891h-0.578
					c-0.386,0-0.66-0.074-0.824-0.223s-0.246-0.342-0.246-0.582c0-0.234,0.082-0.426,0.246-0.574s0.438-0.223,0.824-0.223H76.552z"
					/>
				<path fill="#FFFFFF" d="M90.186,81.653h-6.57c0.167,0.417,0.462,0.753,0.887,1.008c0.424,0.255,0.999,0.383,1.723,0.383
					c0.594,0,1.383-0.127,2.367-0.383c0.406-0.104,0.688-0.156,0.844-0.156c0.213,0,0.393,0.076,0.539,0.227
					c0.146,0.151,0.219,0.341,0.219,0.57c0,0.208-0.078,0.386-0.234,0.531c-0.208,0.193-0.716,0.376-1.523,0.551
					c-0.808,0.174-1.583,0.262-2.328,0.262c-1.281,0-2.306-0.362-3.074-1.086c-0.769-0.724-1.152-1.614-1.152-2.672
					c0-1.125,0.415-2.04,1.246-2.746c0.831-0.706,1.788-1.059,2.871-1.059c0.651,0,1.249,0.115,1.793,0.344
					c0.544,0.229,0.949,0.477,1.215,0.742c0.375,0.386,0.685,0.862,0.93,1.43c0.167,0.396,0.25,0.854,0.25,1.375V81.653z
					 M88.412,80.051c-0.245-0.458-0.565-0.801-0.961-1.027c-0.396-0.227-0.867-0.34-1.414-0.34c-0.542,0-1.011,0.113-1.406,0.34
					c-0.396,0.227-0.719,0.569-0.969,1.027H88.412z"/>
			</g>
			<path fill="#FFFFFF" d="M23.898,15.5v52.204h52.204V15.5H23.898z M43.203,40.905c0,3.101-1.025,4.841-3.297,5.477
				c2.375,0.957,3.297,2.677,3.297,6.324v5.372l-9.266-0.061v-7.013c0-1.406-1.207-1.854-3.62-2.157v-4.997
				c2.318-0.298,3.62-0.69,3.62-1.798v-7.423h9.266V40.905z M43.203,33.266h-9.357v-7.212h9.357V33.266z M56.86,59.053
				c-8.303,0-12.275-4.439-12.275-10.036v-1.701h9.299v0.732c0,1.839,0.945,3.094,2.752,3.094c1.67,0,2.481-0.772,2.481-2.079
				c0-3.714-14.217-3.089-14.217-13.463c0-5.596,3.523-10.473,12.322-10.473c7.898,0,11.824,4.439,11.824,10.041v1.824H59.75v-1.055
				c0-1.495-0.769-2.991-2.527-2.991c-1.399,0-2.21,0.77-2.21,2.027c0,4.103,14.214,3.042,14.214,13.416
				C69.225,53.985,65.525,59.053,56.86,59.053z"/>
		</g>
	</g>
	<g id="New_Symbol_1_">
	</g>
	<g id="New_Symbol_24">
	</g>
</g>
</svg>
