<?xml version="1.0" encoding="utf-8"?>
<!-- Generator: Adobe Illustrator 17.0.0, SVG Export Plug-In . SVG Version: 6.00 Build 0)  -->
<!DOCTYPE svg PUBLIC "-//W3C//DTD SVG 1.1//EN" "http://www.w3.org/Graphics/SVG/1.1/DTD/svg11.dtd">
<svg version="1.1" xmlns="http://www.w3.org/2000/svg" xmlns:xlink="http://www.w3.org/1999/xlink" x="0px" y="0px" width="100px"
	 height="100px" viewBox="0 0 100 100" enable-background="new 0 0 100 100" xml:space="preserve">
<g id="Layer_1" display="none">
	<rect display="inline" fill="#B3B3B3" width="100" height="100"/>
</g>
<g id="Layer_2">
	<g id="New_Symbol_54">
		<g id="New_Symbol_53">
			<g id="New_Symbol">
			</g>
		</g>
	</g>
	<g>
		<path fill="#FFFFFF" d="M16.432,27.752c0,0-0.64,13.871,19.479,33.624C56.029,81.129,58.315,89,57.218,95H71.85
			c0,0,1.33-23.225-21.349-39.32c0,0-15.612-14.036-18.156-25.061c0,0-7.685-0.08-13.032-4.38
			C19.311,26.238,16.428,24.433,16.432,27.752z"/>
		<g>
			<path fill="#FFFFFF" d="M47.574,59.092c4.04,2.867,7.306,5.953,9.965,9.088c1.94-2.069,4.112-4.29,6.55-6.684
				c20.118-19.753,19.479-33.745,19.479-33.745c0.004-3.319-2.88-1.484-2.88-1.484c-5.347,4.301-13.032,4.411-13.032,4.411
				C65.112,41.703,49.499,55.8,49.499,55.8c-1.057,0.75-2.045,1.52-3,2.299C47.175,58.736,47.574,59.092,47.574,59.092z"/>
			<path fill="#FFFFFF" d="M47.381,80.4c-2.596-3.357-6.059-7.349-10.64-12.03C27.4,81.795,28.15,95,28.15,95h14.632
				C42.132,92,42.67,87.394,47.381,80.4z"/>
		</g>
		<path fill="#FFFFFF" d="M42.631,32h14.497c0,0,1.894-0.419,1.432,2.089c-0.657,3.567-8.483,10.718-8.483,10.718
			s-5.722-5.2-8.27-10.19C41.807,34.617,40.778,32,42.631,32z"/>
		<circle fill="#FFFFFF" cx="69.097" cy="16.703" r="6.335"/>
		<circle fill="#FFFFFF" cx="31.786" cy="16.703" r="6.335"/>
		<circle fill="#FFFFFF" cx="50.807" cy="11.582" r="6.335"/>
	</g>
	<g id="New_Symbol_13">
	</g>
	<g id="New_Symbol_1_">
	</g>
	<g id="New_Symbol_24">
	</g>
</g>
</svg>
