<?xml version="1.0" encoding="utf-8"?>
<!-- Generator: Adobe Illustrator 17.0.0, SVG Export Plug-In . SVG Version: 6.00 Build 0)  -->
<!DOCTYPE svg PUBLIC "-//W3C//DTD SVG 1.1//EN" "http://www.w3.org/Graphics/SVG/1.1/DTD/svg11.dtd">
<svg version="1.1" xmlns="http://www.w3.org/2000/svg" xmlns:xlink="http://www.w3.org/1999/xlink" x="0px" y="0px" width="66px"
	 height="66px" viewBox="0 0 66 66" enable-background="new 0 0 66 66" xml:space="preserve">
<g id="Background">
	<g id="Frame">
	</g>
	<g id="Text">
	</g>
</g>
<g id="White">
</g>
<g id="Blue">
	<g>
		<g>
			<g>
				<path fill="#FFFFFF" d="M35.303,27.599c2.339-3.543,5.66-4.777,9.682-4.495c1.522,0.107,3.002,0.397,4.379,1.087
					c2.32,1.163,3.599,3.137,4.288,5.557c0.592,2.081,0.757,4.218,0.761,6.369c0.011,5.222,0.004,10.443,0.003,15.665
					c0,0.547-0.002,0.548-0.567,0.549c-2.597,0.001-5.194,0.001-7.791,0c-0.626,0-0.627-0.001-0.627-0.612
					c0-4.745,0.018-9.489-0.014-14.233c-0.006-1.031-0.116-2.076-0.315-3.088c-0.436-2.232-1.736-3.295-4-3.4
					c-2.236-0.104-3.88,0.74-4.64,2.503c-0.323,0.748-0.542,1.571-0.637,2.381c-0.14,1.194-0.164,2.407-0.169,3.61
					c-0.019,4.099-0.013,8.197,0.002,12.297c0.002,0.413-0.092,0.557-0.533,0.554c-2.639-0.02-5.278-0.017-7.917-0.002
					c-0.398,0.002-0.537-0.108-0.536-0.519c0.009-9.18,0.009-18.36,0.001-27.54c-0.001-0.405,0.135-0.533,0.536-0.531
					c2.527,0.013,5.053,0.014,7.58-0.001c0.402-0.002,0.533,0.119,0.524,0.527C35.286,25.366,35.303,26.457,35.303,27.599z"/>
				<path fill="#FFFFFF" d="M21.301,38.032c0,4.562,0,9.123,0,13.684c0,0.613-0.002,0.613-0.593,0.613
					c-2.639,0.001-5.277-0.008-7.916,0.008c-0.403,0.002-0.53-0.116-0.53-0.523c0.009-9.179,0.009-18.359,0-27.538
					c-0.001-0.408,0.138-0.531,0.536-0.529c2.653,0.013,5.305,0.014,7.959-0.002c0.424-0.002,0.554,0.135,0.553,0.557
					C21.296,28.881,21.301,33.456,21.301,38.032z"/>
				<path fill="#FFFFFF" d="M16.777,9.657c2.871-0.003,5.207,2.315,5.211,5.169c0.004,2.867-2.361,5.23-5.221,5.216
					c-2.86-0.014-5.185-2.348-5.185-5.206C11.581,11.977,13.905,9.66,16.777,9.657z"/>
			</g>
		</g>
	</g>
</g>
</svg>
