<?xml version="1.0" encoding="utf-8"?>
<!-- Generator: Adobe Illustrator 17.0.0, SVG Export Plug-In . SVG Version: 6.00 Build 0)  -->
<!DOCTYPE svg PUBLIC "-//W3C//DTD SVG 1.1//EN" "http://www.w3.org/Graphics/SVG/1.1/DTD/svg11.dtd">
<svg version="1.1" xmlns="http://www.w3.org/2000/svg" xmlns:xlink="http://www.w3.org/1999/xlink" x="0px" y="0px" width="100px"
	 height="100px" viewBox="0 0 100 100" enable-background="new 0 0 100 100" xml:space="preserve">
<g id="Layer_1" display="none">
	<rect display="inline" fill="#B3B3B3" width="100" height="100"/>
</g>
<g id="Layer_2">
	<g id="New_Symbol_54">
		<g id="New_Symbol_53">
			<g id="New_Symbol">
			</g>
		</g>
	</g>
	<g id="New_Symbol_13">
		<path fill="#FFFFFF" d="M50,5L13.263,27.5V72.5L50,95l36.737-22.5V27.5L50,5z M51.706,61.623h-7.827V48.309
			c0-1.049-0.282-1.735-1.129-1.735c-0.969,0-1.372,0.766-1.372,1.855v13.193h-7.544V48.309c0-1.049-0.364-1.735-1.17-1.735
			c-0.969,0-1.331,0.766-1.331,1.855v13.193h-7.869V41.41h6.899l0.283,3.107c1.372-2.34,3.106-3.43,5.447-3.43
			c2.501,0,4.074,1.412,4.72,3.55c1.331-2.38,3.59-3.55,5.931-3.55c3.468,0,4.961,2.3,4.961,5.528V61.623z M76.115,45.727h-8.554
			v-2.5c0-1.251-0.727-2.139-2.219-2.139c-1.533,0-2.139,0.968-2.139,2.703v8.795c0,1.735,0.606,2.703,2.139,2.703
			c1.492,0,2.219-0.888,2.219-2.139V50.65h8.554v2.703c0,4.68-3.914,9.037-10.974,9.037c-7.868,0-11.741-4.397-11.741-10.207v-7.988
			c0-5.81,3.873-10.167,11.741-10.167c7.06,0,10.974,4.317,10.974,8.997V45.727z"/>
	</g>
	<g id="New_Symbol_1_">
	</g>
	<g id="New_Symbol_24">
	</g>
</g>
</svg>
