<?xml version="1.0" encoding="utf-8"?>
<!-- Generator: Adobe Illustrator 15.0.0, SVG Export Plug-In . SVG Version: 6.00 Build 0)  -->
<!DOCTYPE svg PUBLIC "-//W3C//DTD SVG 1.1//EN" "http://www.w3.org/Graphics/SVG/1.1/DTD/svg11.dtd">
<svg version="1.1" id="Layer_1" xmlns="http://www.w3.org/2000/svg" xmlns:xlink="http://www.w3.org/1999/xlink" x="0px" y="0px"
	 width="168.998px" height="51.401px" viewBox="35.5 94.3 168.998 51.401" enable-background="new 35.5 94.3 168.998 51.401"
	 xml:space="preserve">
<g>
	<path fill="#FFFFFF" d="M169.001,94.3h-0.3H162.4v42.399l5.301,4.9l6.3,0.5v-43L169.001,94.3z M168.201,136.199
		c-2.801-0.199-4.399-0.299-4.399-0.299V95.5h4.399V136.199z"/>
	<path fill="#FFFFFF" d="M104.8,94.3h-0.4H88.5v6.1c0,0,4.2,3.3,4.801,3.8c0,0.801,0,31.7,0,31.7l5.301,4.199L105,139.9
		c0,0,0-34.102,0-35.701c1.2,0,4.7,0,4.7,0v-4.5L104.8,94.3z M104,99.6h-4.8v35.201c-3.3,0.1-4.399,0.199-4.399,0.199V99.6H90v-4.1
		h14V99.6z"/>
	<path fill="#FFFFFF" d="M55,94.3h-6.8v0.9c0,0,0,1.5,0,2.9c-1.3-1.5-3.399-3.7-3.399-3.7H35.5v46.1l5.4,4.199L46.5,144
		c0,0,0-2.4,0-4.1c1.801,1.5,4.301,3.6,4.301,3.6l9.101-0.9V99.1L55,94.3z M54.102,137.6c-5.9,0.602-7.602,0.801-7.602,0.801
		l-5.1-32.898h-0.3l0.3,33.398c-3,0.301-4.4,0.5-4.4,0.5V95.5h7.102l5.3,35h0.3l-0.2-35h4.5v42.1H54.102z"/>
	<path fill="#FFFFFF" d="M199.701,120.2c0.101-0.3,3.8-20.7,3.8-20.7l-5.101-5.2H191.8c0,0-0.301,2.1-0.601,3.5
		c-1.301-1.4-3.2-3.5-3.2-3.5h-6.8c0,0,3.9,20.399,3.9,20.7c0,0.3-3.701,23.199-3.701,23.199l7.201,5.5l4.299,0.5c0,0,0-2.5,0-3.898
		c1.801,1.398,5.898,4.6,5.898,4.6l5.699,0.801C204.604,145.699,199.801,120.5,199.701,120.2z M197.801,139.199l-5.197-0.6
		l-2.4-19.202h-0.301l-2.4,18.702l-4.699-0.399l3.699-22.7l-3.8-19.4h4.899l2.601,15.7h0.3l2.5-15.7h4.9l-3.801,20L197.801,139.199z
		"/>
	<path fill="#FFFFFF" d="M157.001,135.5c0,0-4.3-4.801-5.5-6.1c0-2.701,0-30.4,0-30.4l-5-4.7h-6.699v41.399l5.302,4.602l12.101,0.6
		L157.001,135.5z M151.4,135.199c-7.199-0.299-10.199-0.398-10.199-0.398V95.5h4.398V131c5,0.199,5.801,0.301,5.801,0.301V135.199z"
		/>
	<path fill="#FFFFFF" d="M84.201,122.5v-4.8c0,0-4.8-4.8-5.3-5.3c0-0.6,0-7.6,0-9c1.2,0,5.2,0,5.2,0V99l-5-4.7h-0.3H67.2v43
		l5.2,4.101l11.6-0.7v-4.8c0,0-4.8-5.301-5.199-5.701c0-0.6,0-6.299,0-7.699C80.201,122.5,84.201,122.5,84.201,122.5z M78.8,99.6
		h-5.699V114H78.8v4.1h-5.699v14.099l5.699-0.398v4c-7.5,0.5-10.101,0.699-10.101,0.699V95.6H78.8V99.6z"/>
	<path fill="#FFFFFF" d="M127.501,112.5c0-0.601,0-7.601,0-9c1.2,0,5.2,0,5.2,0v-4.4l-5-4.7H127.4H115.8v41.1l5.302,4.4h6.397
		c0,0,0-15.701,0-17.301c1.2,0,5.301,0,5.301,0v-4.801C132.701,117.7,127.9,112.9,127.501,112.5z M127.301,99.6h-5.699V114h5.699
		v4.1h-5.699v16.5h-4.399v-39h10.101L127.301,99.6L127.301,99.6z"/>
</g>
</svg>
