<?xml version="1.0" encoding="utf-8"?>
<!-- Generator: Adobe Illustrator 15.0.0, SVG Export Plug-In . SVG Version: 6.00 Build 0)  -->
<!DOCTYPE svg PUBLIC "-//W3C//DTD SVG 1.1//EN" "http://www.w3.org/Graphics/SVG/1.1/DTD/svg11.dtd">
<svg version="1.1" id="Layer_1" xmlns="http://www.w3.org/2000/svg" xmlns:xlink="http://www.w3.org/1999/xlink" x="0px" y="0px"
	 width="172.2px" height="172.2px" viewBox="33.9 33.9 172.2 172.2" enable-background="new 33.9 33.9 172.2 172.2"
	 xml:space="preserve">
<g>
	<path fill="#FFFFFF" d="M199.062,85.492C203.645,95.99,206.1,107.716,206.1,120c0,47.572-38.414,86.1-86.1,86.1
		c-47.571,0-86.1-38.639-86.1-86.1c0-8.265,1.117-16.416,3.461-24.121c0,0,6.477,1.452,13.625,8.265
		c0,0,30.934,41.766,68.566,38.861c0,0-13.623,10.05-26.354,10.497c0,0,7.259,11.167,41.767-6.479
		c11.503-5.808,26.688-7.369,26.354-7.705c-7.258-4.577-20.438-3.573-20.438-3.573C166.791,129.604,199.062,85.492,199.062,85.492
		L199.062,85.492L199.062,85.492z"/>
	<g>
		<path fill="#FFFFFF" d="M131.279,72.204h-4.355c-0.445,0-0.893,0.335-0.893,0.67v4.914h6.252v-4.914
			C132.283,72.539,131.838,72.204,131.279,72.204z"/>
		<path fill="#FFFFFF" d="M113.3,71.757h-4.356c-0.445,0-0.78,0.335-0.78,0.782v13.849c0,0.335,0.334,0.78,0.78,0.78h4.356
			c0.447,0,0.892-0.445,0.892-0.78V72.539C114.191,71.98,113.746,71.757,113.3,71.757z"/>
		<path fill="#FFFFFF" d="M150.264,72.315h-4.578c-0.445,0-0.895,0.335-0.895,0.671v4.913h6.253v-4.913
			C151.044,72.65,150.6,72.315,150.264,72.315z"/>
		<path fill="#FFFFFF" d="M120,33.9c-29.594,0-55.948,15.076-71.358,37.969c0,0,14.405,1.897,31.268,27.024
			c27.807,41.767,46.123,36.964,46.123,36.964C155.066,132.73,164,96.438,164,96.438c5.919-21.441,25.238-27.918,25.238-27.918
			C173.491,47.523,148.253,33.9,120,33.9z M100.122,90.184h-5.024V72.986c0,0-0.447-0.896-1.117-0.782h-3.239
			c0,0-0.894,0-0.894,0.782v17.309h-4.355V68.52h10.945c3.014,0.11,3.795,4.242,3.795,4.242v17.422H100.122L100.122,90.184z
			 M118.436,86.609c0,2.011-1.675,3.574-3.795,3.574h-7.26c-1.898,0-3.572-1.562-3.572-3.574v-14.74
			c0-2.011,1.674-3.573,3.572-3.573h7.26c2.01,0,3.795,1.562,3.795,3.573V86.609z M136.641,90.184h-4.582v-9.045h-5.807v9.045
			h-4.242V71.98c0-2.011,1.562-3.573,3.572-3.573h7.259c2.011,0,3.796,1.563,3.796,3.573v18.203L136.641,90.184L136.641,90.184z
			 M155.289,90.519h-4.354v-9.27h-5.81v9.27h-4.245V72.204c0-1.897,1.562-3.574,3.574-3.574h7.258c2.012,0,3.574,1.677,3.574,3.574
			L155.289,90.519L155.289,90.519z"/>
	</g>
</g>
</svg>
