<?xml version="1.0" encoding="utf-8"?>
<!-- Generator: Adobe Illustrator 15.0.0, SVG Export Plug-In . SVG Version: 6.00 Build 0)  -->
<!DOCTYPE svg PUBLIC "-//W3C//DTD SVG 1.1//EN" "http://www.w3.org/Graphics/SVG/1.1/DTD/svg11.dtd">
<svg version="1.1" id="Layer_1" xmlns="http://www.w3.org/2000/svg" xmlns:xlink="http://www.w3.org/1999/xlink" x="0px" y="0px"
	 width="122.805px" height="172.117px" viewBox="58.597 33.941 122.805 172.117"
	 enable-background="new 58.597 33.941 122.805 172.117" xml:space="preserve">
<path fill="#FFFFFF" d="M105.335,159.614V98.797l-18.247,8.294c0,0-4.7,10.506-3.87,25.705c0.551,11.89,7.187,25.986,12.44,32.072
	L105.335,159.614 M158.688,34.106c4.424,0.276,11.612,2.487,16.861,7.188c5.809,5.528,6.912,13.821,4.977,21.561
	c-1.656,6.636-3.868,10.23-10.779,14.93c-6.911,4.699-15.479,4.421-15.479,4.421v29.304l14.377,11.611l-14.379,11.613v40.084
	c0,0,14.377-8.293,23.223-26.539c0,0,0.272-1.105,1.107-2.766c0.827,4.976,0.272,14.926-5.256,27.644
	c-4.146,9.677-11.887,18.799-21.285,24.052c-16.861,9.396-29.58,10.227-43.404,7.463c-16.033-3.314-30.409-12.161-40.36-27.92
	c-6.912-11.059-9.952-23.773-9.677-37.596c0.554-27.091,20.734-50.313,43.957-59.16c2.764-1.104,3.868-1.658,8.015-2.21
	c-1.936,1.382-3.868,2.764-6.633,4.699C96.488,87.461,90.13,97.137,87.366,104.6l45.06-20.18v63.029l-36.491,18.244
	c4.147,5.806,16.863,14.375,27.372,15.759c18.241,1.937,29.024-6.084,29.024-6.084v-40.912l-14.103-11.612l14.103-11.608V81.933
	c-7.743-0.831-17.14-3.318-22.67-4.7c-8.019-1.937-35.108-9.676-39.255-10.229c-4.146-0.552-9.4-0.552-12.715,2.489
	c-3.042,2.765-5.254,7.741-3.872,12.44c0.829,2.488,2.489,4.147,3.872,5.529c0,0-1.66,0-4.424-1.935
	c-4.976-3.042-8.849-9.123-9.399-16.311c-0.554-9.675,3.316-18.245,11.334-24.327c6.911-4.422,14.651-7.187,23.772-6.081
	c13.272,1.934,31.242,9.398,46.999,13.269c6.082,1.383,11.058,1.937,15.204-0.552c1.935-1.382,5.526-5.253,2.765-10.228
	c-3.313-5.807-9.951-5.807-15.479-6.635C154.266,33.831,155.371,33.831,158.688,34.106z"/>
</svg>
