<?xml version="1.0" encoding="utf-8"?>
<!-- Generator: Adobe Illustrator 17.0.0, SVG Export Plug-In . SVG Version: 6.00 Build 0)  -->
<!DOCTYPE svg PUBLIC "-//W3C//DTD SVG 1.1//EN" "http://www.w3.org/Graphics/SVG/1.1/DTD/svg11.dtd">
<svg version="1.1" xmlns="http://www.w3.org/2000/svg" xmlns:xlink="http://www.w3.org/1999/xlink" x="0px" y="0px" width="100px"
	 height="100px" viewBox="0 0 100 100" enable-background="new 0 0 100 100" xml:space="preserve">
<g id="Layer_1" display="none">
	<rect display="inline" fill="#B3B3B3" width="100" height="100"/>
</g>
<g id="Layer_2">
	<g id="New_Symbol_54">
		<g id="New_Symbol_53">
			<g id="New_Symbol">
			</g>
		</g>
	</g>
	<g id="New_Symbol_13">
		<g>
			<path fill="#FFFFFF" d="M48.744,42.631l3.198,0.005c1.612-5.423,4.067-8.132,7.033-8.132c2.368,0,3.672,1.416,3.672,2.439
				c0,0.478-0.306,0.784-0.819,0.784c-1.432,0-1.287-2.506-3.16-2.506c-2.043,0-3.147,2.473-4.512,7.403l2.857,0.007l-0.204,0.799
				h-2.9l-3.703,12.228c-1.842,6.041-3.72,9.862-8.359,9.862c-2.081,0-3.583-0.955-3.583-2.355c0-0.648,0.478-1.126,1.125-1.126
				c0.681,0,1.092,0.444,1.092,1.228c0,0.205-0.069,0.443-0.069,0.683c0,0.41,0.581,0.854,1.569,0.854
				c2.867,0,4.231-3.344,6.107-9.521l3.636-11.853h-3.174L48.744,42.631"/>
			<path fill="#FFFFFF" d="M61.09,53.361c-1.258,0-2.034-0.51-2.652-1.394c-0.857-1.231-1.017-2.25-1.017-3.75
				c0-2.036,0.373-3.132,1.418-4.203c0.644-0.697,1.34-0.857,2.064-0.857c1.365,0,3.534,1.873,3.534,4.847
				C64.437,50.869,63.125,53.361,61.09,53.361 M60.769,54.163c3.294,0,5.917-2.974,5.917-5.891c0-1.742-0.616-3.134-1.821-4.365
				c-0.802-0.804-2.276-1.553-3.748-1.553c-0.884,0-2.196,0.213-3.59,1.284c-1.579,1.233-2.302,2.947-2.302,4.313
				c0,1.901,0.24,2.893,1.471,4.364C57.821,53.654,59.483,54.163,60.769,54.163"/>
			<path fill="#FFFFFF" d="M69.15,46.718c0-1.721-0.506-2.013-0.773-2.113c-0.193-0.072-0.626-0.16-0.7-0.19
				c-0.077-0.027-0.214-0.08-0.214-0.188v-0.16c0-0.107,0.073-0.207,0.214-0.241c0.251-0.06,1.5-0.606,2.652-1.366
				c0.201-0.132,0.562-0.267,0.562,0.215l0.134,1.849h0.107c0.803-1.233,2.063-2.331,3.215-2.331c0.909,0,1.365,0.562,1.365,1.178
				c0,0.777-0.644,1.311-1.125,1.311c-0.294,0-0.563-0.106-0.777-0.214c-0.214-0.133-0.534-0.213-0.883-0.213
				c-0.429,0-1.125,0.269-1.58,1.123c-0.162,0.296-0.268,0.778-0.268,0.857v5.624c0,0.832,0.188,1.099,0.749,1.099h1.26
				c0.159,0,0.188,0.08,0.188,0.241v0.482c0,0.161-0.029,0.24-0.134,0.24c-0.16,0-1.393-0.08-2.838-0.08
				c-1.661,0-2.787,0.08-2.947,0.08c-0.107,0-0.161-0.053-0.161-0.269v-0.454c0-0.188,0.054-0.241,0.295-0.241h1.045
				c0.401,0,0.589-0.162,0.589-0.508c0.027-0.884,0.027-1.821,0.027-3.214V46.718z"/>
			<path fill="#FFFFFF" d="M77.297,47.36c0,1.447,0.643,3.08,1.367,4.071c0.883,1.15,2.008,1.366,2.918,1.366
				c1.34,0,2.035-0.295,2.946-1.151c0.052-0.054,0.134-0.08,0.213,0l0.27,0.269c0.107,0.105,0.133,0.187,0,0.347
				c-0.777,0.883-2.492,1.901-4.313,1.901c-1.419,0-2.918-0.321-4.151-1.875c-0.99-1.313-1.205-2.438-1.205-3.643
				c0-3.132,2.196-6.291,5.732-6.291c2.784,0,3.641,1.606,3.641,2.17c-0.026,0.614-0.427,0.935-0.989,0.935
				c-0.617,0-1.073-0.347-1.474-1.072c-0.59-1.096-1.153-1.177-1.793-1.177C78.93,43.21,77.297,44.603,77.297,47.36"/>
			<path fill="#FFFFFF" d="M87.473,45.914c0.508-1.981,1.634-2.757,2.812-2.757c1.74,0,2.063,1.768,2.063,2.382
				c0,0.242-0.215,0.375-0.723,0.375H87.473z M93.981,46.718c0.428,0,0.75-0.054,0.75-0.428c0-1.046-0.857-3.936-3.936-3.936
				c-1.34,0-2.679,0.24-3.832,1.418c-1.417,1.419-1.686,3.215-1.686,4.259c0,1.874,0.241,2.865,1.179,4.231
				c0.992,1.446,2.678,1.901,4.205,1.901c2.383,0,3.775-1.847,4.259-2.918c0.132-0.295,0.079-0.376,0-0.403l-0.35-0.187
				c-0.08-0.026-0.188,0.027-0.242,0.134c-0.455,0.884-1.606,1.82-3.24,1.82c-2.142,0-3.802-1.981-3.802-4.605
				c0-0.616,0.025-1.043,0.08-1.286H93.981z"/>
			<path fill="#FFFFFF" d="M27.298,45.861c0,1.394,0,5.436,0.027,6.266c0.026,0.455,0.133,0.831,0.696,0.831h1.204
				c0.241,0,0.295,0.08,0.295,0.241v0.455c0,0.161-0.054,0.268-0.16,0.268c-0.187,0-1.365-0.08-3.026-0.08
				c-1.715,0-1.958,0.08-2.197,0.08c-0.133,0-0.187-0.107-0.187-0.268v-0.455c0-0.188,0.054-0.241,0.347-0.241h0.457
				c0.296,0,0.563-0.187,0.591-0.67c0.026-0.831,0.026-5.436,0.026-6.99v-1.687c0-1.901-0.026-4.338-0.08-5.034
				c-0.088-1.491-0.026-1.494-1.152-1.688c-0.282-0.049-0.62-0.086-0.723-0.106c-0.104-0.021-0.161-0.081-0.161-0.134v-0.214
				c0-0.081,0.081-0.133,0.241-0.187c1.188-0.4,2.149-0.806,3.134-1.553c0.231-0.175,0.401-0.214,0.562-0.214
				c0.188,0,0.241,0.133,0.214,0.482c-0.026,1.473-0.107,7.043-0.107,8.516V45.861z"/>
			<path fill="#FFFFFF" d="M31.86,45.914c0.509-1.981,1.634-2.757,2.811-2.757c1.742,0,2.063,1.768,2.063,2.382
				c0,0.242-0.214,0.375-0.723,0.375H31.86z M38.367,46.718c0.428,0,0.748-0.054,0.748-0.428c0-1.046-0.856-3.936-3.936-3.936
				c-1.34,0-2.679,0.24-3.829,1.418c-1.42,1.419-1.688,3.215-1.688,4.259c0,1.874,0.241,2.865,1.178,4.231
				c0.991,1.446,2.678,1.901,4.204,1.901c2.385,0,3.777-1.847,4.258-2.918c0.134-0.295,0.081-0.376,0-0.403l-0.347-0.187
				c-0.081-0.026-0.19,0.027-0.242,0.134c-0.455,0.884-1.606,1.82-3.24,1.82c-2.142,0-3.803-1.981-3.803-4.605
				c0-0.616,0.027-1.043,0.081-1.286H38.367z"/>
			<path fill="#FFFFFF" d="M40.884,53.386c-0.133-0.081-0.133-0.242-0.161-0.376l-0.454-2.543c-0.027-0.133,0.052-0.189,0.16-0.215
				l0.349-0.08c0.105-0.026,0.186,0.027,0.239,0.162l0.671,1.31c0.535,0.992,0.91,1.661,2.329,1.661
				c0.938,0,2.116-0.562,2.116-1.819c0-1.207-0.589-1.902-2.598-2.465c-1.579-0.455-3.159-1.285-3.159-3.401
				c0-1.848,1.742-3.267,3.749-3.267c1.287,0,1.984,0.322,2.464,0.563c0.401,0.187,0.455,0.321,0.482,0.482l0.402,1.875
				c0,0.106-0.054,0.187-0.188,0.24l-0.322,0.107c-0.105,0.027-0.16,0-0.239-0.134l-0.911-1.231c-0.32-0.509-0.83-1.044-1.875-1.044
				c-1.017,0-2.062,0.616-2.062,1.767c0,1.552,1.259,1.85,2.571,2.222c1.954,0.562,3.186,1.366,3.213,3.43
				c-0.027,2.168-1.794,3.534-4.071,3.534C42.277,54.163,41.205,53.628,40.884,53.386"/>
			<path fill="#FFFFFF" d="M19.935,51.406c0,0.722-1.419,1.589-2.195,1.552c-0.802-0.041-1.393-0.551-1.393-1.542
				c0-2.222,2.625-2.629,3.588-3.305V51.406z M21.89,49.335v-4.203c0-0.721-0.027-1.34-0.591-1.93
				c-0.374-0.366-0.883-0.766-2.141-0.828c-1.205-0.061-2.143,0.339-3.266,0.953c-1.098,0.589-1.849,1.569-1.849,2.425
				c0,0.617,0.214,0.868,0.642,0.889c1.099,0.054,1.42-0.519,1.42-1.456c0-0.481-0.24-0.895,0.133-1.224
				c0.375-0.33,1.205-0.682,1.742-0.656c0.776,0.039,1.312,0.306,1.607,0.669c0.293,0.363,0.321,1.06,0.374,1.518v1.818
				c-0.429,0.355-1.821,0.928-3.025,1.403c-2.117,0.833-2.679,1.877-2.679,3.109c0,1.687,0.963,2.27,1.607,2.302
				c0.589,0.028,1.072,0.052,1.579-0.083c1.206-0.342,2.088-0.861,2.652-1.501l0.053,0.002c0.242,1.109,0.936,1.604,1.902,1.604
				c1.161,0,1.607-0.817,1.821-1.208c0.16-0.26,0.108-0.397,0.027-0.481l-0.269-0.227c-0.105-0.088-0.159-0.036-0.267,0.092
				c-0.133,0.181-0.24,0.376-0.669,0.355c-0.482-0.023-0.803-0.238-0.803-1.765V49.335z"/>
			<path fill="#FFFFFF" d="M27.298,45.861c0,1.394,0,5.436,0.027,6.266c0.026,0.455,0.133,0.831,0.696,0.831h1.204
				c0.241,0,0.295,0.08,0.295,0.241v0.455c0,0.161-0.054,0.268-0.16,0.268c-0.187,0-1.365-0.08-3.026-0.08
				c-1.715,0-1.958,0.08-2.197,0.08c-0.133,0-0.187-0.107-0.187-0.268v-0.455c0-0.188,0.054-0.241,0.347-0.241h0.457
				c0.296,0,0.563-0.187,0.591-0.67c0.026-0.831,0.026-5.436,0.026-6.99v-1.687c0-1.901-0.026-4.338-0.08-5.034
				c-0.088-1.491-0.026-1.494-1.152-1.688c-0.282-0.049-0.62-0.086-0.723-0.106c-0.104-0.021-0.161-0.081-0.161-0.134v-0.214
				c0-0.081,0.081-0.133,0.241-0.187c1.188-0.4,2.149-0.806,3.134-1.553c0.231-0.175,0.401-0.214,0.562-0.214
				c0.188,0,0.241,0.133,0.214,0.482c-0.026,1.473-0.107,7.043-0.107,8.516V45.861z"/>
			<path fill="#FFFFFF" d="M31.86,45.914c0.509-1.981,1.634-2.757,2.811-2.757c1.742,0,2.063,1.768,2.063,2.382
				c0,0.242-0.214,0.375-0.723,0.375H31.86z M38.367,46.718c0.428,0,0.748-0.054,0.748-0.428c0-1.046-0.856-3.936-3.936-3.936
				c-1.34,0-2.679,0.24-3.829,1.418c-1.42,1.419-1.688,3.215-1.688,4.259c0,1.874,0.241,2.865,1.178,4.231
				c0.991,1.446,2.678,1.901,4.204,1.901c2.385,0,3.777-1.847,4.258-2.918c0.134-0.295,0.081-0.376,0-0.403l-0.347-0.187
				c-0.081-0.026-0.19,0.027-0.242,0.134c-0.455,0.884-1.606,1.82-3.24,1.82c-2.142,0-3.803-1.981-3.803-4.605
				c0-0.616,0.027-1.043,0.081-1.286H38.367z"/>
			<path fill="#FFFFFF" d="M40.884,53.386c-0.133-0.081-0.133-0.242-0.161-0.376l-0.454-2.543c-0.027-0.133,0.052-0.189,0.16-0.215
				l0.349-0.08c0.105-0.026,0.186,0.027,0.239,0.162l0.671,1.31c0.535,0.992,0.91,1.661,2.329,1.661
				c0.938,0,2.116-0.562,2.116-1.819c0-1.207-0.589-1.902-2.598-2.465c-1.579-0.455-3.159-1.285-3.159-3.401
				c0-1.848,1.742-3.267,3.749-3.267c1.287,0,1.984,0.322,2.464,0.563c0.401,0.187,0.455,0.321,0.482,0.482l0.402,1.875
				c0,0.106-0.054,0.187-0.188,0.24l-0.322,0.107c-0.105,0.027-0.16,0-0.239-0.134l-0.911-1.231c-0.32-0.509-0.83-1.044-1.875-1.044
				c-1.017,0-2.062,0.616-2.062,1.767c0,1.552,1.259,1.85,2.571,2.222c1.954,0.562,3.186,1.366,3.213,3.43
				c-0.027,2.168-1.794,3.534-4.071,3.534C42.277,54.163,41.205,53.628,40.884,53.386"/>
			<path fill="#FFFFFF" d="M5.62,53.386c-0.133-0.081-0.133-0.242-0.161-0.376l-0.454-2.543c-0.027-0.133,0.052-0.189,0.16-0.215
				l0.349-0.08c0.105-0.026,0.186,0.027,0.239,0.162l0.671,1.31c0.535,0.992,0.91,1.661,2.329,1.661
				c0.938,0,2.116-0.562,2.116-1.819c0-1.207-0.589-1.902-2.598-2.465c-1.579-0.455-3.159-1.285-3.159-3.401
				c0-1.848,1.742-3.267,3.749-3.267c1.287,0,1.984,0.322,2.464,0.563c0.401,0.187,0.455,0.321,0.482,0.482l0.402,1.875
				c0,0.106-0.054,0.187-0.188,0.24l-0.322,0.107c-0.105,0.027-0.16,0-0.239-0.134l-0.911-1.231c-0.32-0.509-0.83-1.044-1.875-1.044
				c-1.017,0-2.062,0.616-2.062,1.767c0,1.552,1.259,1.85,2.571,2.222c1.954,0.562,3.186,1.366,3.213,3.43
				c-0.027,2.168-1.794,3.534-4.071,3.534C7.013,54.163,5.941,53.628,5.62,53.386"/>
			<path fill="#FFFFFF" d="M19.935,51.406c0,0.722-1.419,1.589-2.195,1.552c-0.802-0.041-1.393-0.551-1.393-1.542
				c0-2.222,2.625-2.629,3.588-3.305V51.406z M21.89,49.335v-4.203c0-0.721-0.027-1.34-0.591-1.93
				c-0.374-0.366-0.883-0.766-2.141-0.828c-1.205-0.061-2.143,0.339-3.266,0.953c-1.098,0.589-1.849,1.569-1.849,2.425
				c0,0.617,0.214,0.868,0.642,0.889c1.099,0.054,1.42-0.519,1.42-1.456c0-0.481-0.24-0.895,0.133-1.224
				c0.375-0.33,1.205-0.682,1.742-0.656c0.776,0.039,1.312,0.306,1.607,0.669c0.293,0.363,0.321,1.06,0.374,1.518v1.818
				c-0.429,0.355-1.821,0.928-3.025,1.403c-2.117,0.833-2.679,1.877-2.679,3.109c0,1.687,0.963,2.27,1.607,2.302
				c0.589,0.028,1.072,0.052,1.579-0.083c1.206-0.342,2.088-0.861,2.652-1.501l0.053,0.002c0.242,1.109,0.936,1.604,1.902,1.604
				c1.161,0,1.607-0.817,1.821-1.208c0.16-0.26,0.108-0.397,0.027-0.481l-0.269-0.227c-0.105-0.088-0.159-0.036-0.267,0.092
				c-0.133,0.181-0.24,0.376-0.669,0.355c-0.482-0.023-0.803-0.238-0.803-1.765V49.335z"/>
		</g>
	</g>
	<g id="New_Symbol_1_">
	</g>
	<g id="New_Symbol_24">
	</g>
</g>
</svg>
