<?xml version="1.0" encoding="utf-8"?>
<!-- Generator: Adobe Illustrator 17.0.0, SVG Export Plug-In . SVG Version: 6.00 Build 0)  -->
<!DOCTYPE svg PUBLIC "-//W3C//DTD SVG 1.1//EN" "http://www.w3.org/Graphics/SVG/1.1/DTD/svg11.dtd">
<svg version="1.1" xmlns="http://www.w3.org/2000/svg" xmlns:xlink="http://www.w3.org/1999/xlink" x="0px" y="0px" width="66px"
	 height="66px" viewBox="0 0 66 66" enable-background="new 0 0 66 66" xml:space="preserve">
<g id="Blue">
</g>
<g id="Layer_2">
	<g>
		<g>
			<circle fill="#E86050" cx="8.811" cy="13.072" r="2.529"/>
			<g>
				<path fill="#FFFFFF" d="M55.547,23.346c-0.456-0.956-1.284-0.964-2.107-0.986H52.89c-0.285,0.065-0.567,0.073-0.847,0h-2.123
					c-1.444,0.054-2.888,0.098-4.329,0h-2.874c-0.182,0.023-0.365,0.026-0.546,0h-4.507c-1.435,0.038-2.872,0.025-4.309,0h-2.5
					c-0.273,0.011-0.546,0.013-0.819,0h-2.104c-0.644,0.145-1.309,0.064-1.972,0h-2.812h2.812c-0.394-0.038-0.788-0.069-1.176-0.037
					c-2.191,0.11-2.205,0.112-2.578-2.064c-0.254-1.476-0.463-2.96-0.693-4.441c-0.576-2.981-1.565-3.785-4.63-3.805
					c-1.964-0.013-3.928-0.053-5.893-0.082c-0.676,0.025-1.353,0.04-2.028,0.077c-0.591,0.033-0.99,0.326-1.052,0.94
					c-0.07,0.697,0.337,1.102,0.964,1.201c0.664,0.104,1.348,0.082,2.023,0.115c2.138-0.013,4.276-0.009,6.413-0.047
					c0.961-0.017,1.669,0.295,1.821,1.303c0.645,4.266,1.259,8.536,1.885,12.805c0.943,4.518,1.539,9.094,2.26,13.648
					c0.105,0.665-0.132,1.051-0.74,1.349c-1.509,0.738-2.265,1.978-2.09,3.665c0.166,1.607,1.086,2.653,2.635,3.134
					c0.502-0.906,1.291-1.503,2.164-2.009c-0.156-0.01-0.311-0.026-0.467-0.031c-0.994-0.031-1.995-0.187-2.071-1.409
					c-0.072-1.158,0.869-1.318,1.79-1.52c9.744-2.138,19.478-4.324,29.225-6.45c1.292-0.282,1.847-0.859,1.83-2.219
					C55.5,32.104,55.542,27.725,55.547,23.346z"/>
			</g>
			<g>
				<path fill="#FFFFFF" d="M37.84,29.992c-0.12,0.322-0.14,0.625,0.162,0.868c-0.081,2.558,0.434,5.068,0.611,7.606
					c0.036,0.521,0.23,0.921,0.845,0.888c0.74-0.039,0.788-0.575,0.732-1.12c-0.278-2.681-0.573-5.36-0.862-8.04
					c-0.02-0.111-0.041-0.222-0.061-0.332c-0.015-0.316-0.029-0.632-0.044-0.949c0.484-0.729-0.514-1.097-0.422-1.73
					c0.044-0.611,0.127-1.222,0.121-1.832c-0.005-0.522-0.073-1.101-0.838-0.983c-0.721,0.111-1.148,0.521-0.896,1.284
					c0.174,0.525,0.093,1.147,0.552,1.571c-0.004,0.206-0.008,0.411-0.012,0.617C37.611,28.565,37.619,29.284,37.84,29.992z
					 M33.096,29.945c-0.162,0.449-0.208,0.881,0.192,1.244c0.307,2.624,0.618,5.248,0.92,7.873c0.066,0.575,0.059,1.248,0.857,1.228
					c0.968-0.024,0.793-0.805,0.726-1.393c-0.316-2.784-0.668-5.563-1.006-8.345c0.106-0.406,0.555-0.88-0.223-1.108
					c-0.179-1.154,0.357-2.39-0.401-3.476c0.052-0.5,0.552-1.248-0.366-1.321c-0.738-0.059-1.492,0.319-1.366,1.298
					c0.092,0.716,0.333,1.413,0.507,2.118C32.99,28.691,33.043,29.318,33.096,29.945z M27.159,41.344
					c-0.559-3.47-1.063-6.61-1.571-9.75c-0.324-2.007-0.647-4.014-0.984-6.019c-0.092-0.55-0.306-1.068-0.998-0.929
					c-0.739,0.149-0.576,0.694-0.471,1.236c0.178,0.918,0.284,1.85,0.429,2.775c0.645,4.112,1.275,8.227,1.962,12.332
					c0.087,0.518-0.002,1.421,0.988,1.256C27.202,42.131,27.21,41.575,27.159,41.344z M31.506,40.218
					c-0.62-4.328-1.235-8.656-1.864-12.983c-0.089-0.613-0.226-1.222-0.38-1.823c-0.124-0.485-0.378-0.918-0.975-0.749
					c-0.576,0.163-0.574,0.644-0.494,1.146c0.165,1.027,0.31,2.056,0.456,3.086c0.532,3.757,1.063,7.515,1.588,11.273
					c0.085,0.606,0.201,1.173,1.006,1.084C31.472,41.183,31.544,40.736,31.506,40.218z M42.75,33.362
					c-0.036,0.003-0.072,0.006-0.108,0.009c0.112,1.299,0.232,2.598,0.333,3.898c0.047,0.604,0.085,1.204,0.929,1.119
					c0.764-0.077,0.69-0.682,0.658-1.189c-0.153-2.5-0.334-4.998-0.503-7.497c-0.095-1.404-0.156-2.811-0.301-4.21
					c-0.04-0.386,0.041-1.03-0.726-0.947c-0.633,0.069-0.932,0.425-0.921,1.039c0.007,0.416,0.061,0.832,0.096,1.248
					C42.387,29.009,42.569,31.186,42.75,33.362z M48.721,26.083c-0.208-0.366,0.051-1.442-0.954-1.442
					c-1.149,0.001-0.801,0.981-0.778,1.66c0.111,3.281,0.238,6.562,0.364,9.843c0.024,0.634,0.003,1.364,0.938,1.275
					c0.864-0.082,0.63-0.815,0.649-1.346C49.054,32.82,48.432,29.576,48.721,26.083z M53.325,30.662c0-1.669,0.001-3.338,0-5.007
					c0-0.683-0.285-1.134-1.027-1.044c-0.654,0.079-0.672,0.52-0.658,1.119c0.074,3.201,0.07,6.403,0.098,9.605
					c0.005,0.6,0.058,1.238,0.866,1.193c0.699-0.039,0.725-0.629,0.725-1.172C53.328,33.791,53.328,32.226,53.325,30.662z"/>
				<path fill="#FAFCFD" d="M29.835,50.305c-0.538-0.964-1.322-1.672-2.282-2.197c7.746,0.005,15.492,0.009,23.238,0.014
					c-0.936,0.529-1.758,1.174-2.227,2.18C42.321,50.302,36.078,50.303,29.835,50.305z"/>
				<path fill="#FAFCFD" d="M55.215,49.896c-0.755-0.598-1.509-1.197-2.264-1.795C55.166,48.018,55.315,48.136,55.215,49.896z"/>
				<path fill="#52BFF4" d="M27.159,41.344c0.051,0.231,0.043,0.788-0.645,0.902c-0.989,0.165-0.901-0.738-0.988-1.256
					c-0.688-4.105-1.317-8.22-1.962-12.332c-0.145-0.925-0.251-1.857-0.429-2.775c-0.105-0.543-0.267-1.088,0.471-1.236
					c0.692-0.139,0.905,0.379,0.998,0.929c0.337,2.005,0.66,4.012,0.984,6.019C26.096,34.734,26.6,37.874,27.159,41.344z"/>
				<path fill="#52BFF4" d="M31.506,40.218c0.038,0.518-0.034,0.965-0.663,1.035c-0.804,0.089-0.921-0.478-1.006-1.084
					c-0.525-3.758-1.056-7.516-1.588-11.273c-0.146-1.03-0.291-2.059-0.456-3.086c-0.081-0.502-0.082-0.983,0.494-1.146
					c0.597-0.169,0.852,0.264,0.975,0.749c0.153,0.601,0.291,1.209,0.38,1.823C30.271,31.562,30.887,35.89,31.506,40.218z"/>
				<path fill="#52BFF4" d="M42.75,33.362c-0.181-2.176-0.363-4.353-0.544-6.529c-0.035-0.416-0.088-0.832-0.096-1.248
					c-0.011-0.614,0.288-0.97,0.921-1.039c0.767-0.083,0.686,0.561,0.726,0.947c0.146,1.399,0.206,2.806,0.301,4.21
					c0.169,2.499,0.349,4.997,0.503,7.497c0.031,0.506,0.106,1.111-0.658,1.189c-0.843,0.085-0.881-0.515-0.929-1.119
					c-0.101-1.3-0.221-2.599-0.333-3.898C42.678,33.368,42.714,33.365,42.75,33.362z"/>
				<path fill="#52BFF4" d="M48.721,26.083c-0.289,3.493,0.333,6.737,0.219,9.991c-0.019,0.531,0.215,1.264-0.649,1.346
					c-0.935,0.088-0.914-0.641-0.938-1.275c-0.126-3.281-0.253-6.562-0.364-9.843c-0.023-0.679-0.371-1.659,0.778-1.66
					C48.771,24.64,48.512,25.717,48.721,26.083z"/>
				<path fill="#52BFF4" d="M53.326,30.662c0.002,1.565,0.002,3.129,0.002,4.694c0,0.543-0.026,1.133-0.725,1.172
					c-0.808,0.045-0.861-0.593-0.866-1.193c-0.027-3.202-0.024-6.404-0.098-9.605c-0.014-0.598,0.004-1.039,0.658-1.119
					c0.742-0.09,1.026,0.361,1.027,1.044C53.326,27.324,53.325,28.993,53.326,30.662z"/>
				<path fill="#52BFF4" d="M37.739,27.223c-0.46-0.424-0.379-1.046-0.552-1.571c-0.252-0.763,0.175-1.173,0.896-1.284
					c0.765-0.118,0.834,0.461,0.838,0.983c0.006,0.61-0.077,1.221-0.121,1.832C38.447,27.202,38.083,26.953,37.739,27.223z"/>
				<path fill="#52BFF4" d="M37.727,27.84c0.499,0.359,0.998,0.717,1.496,1.075c0.013,0.315,0.028,0.631,0.044,0.947
					c-0.475,0.043-0.952,0.087-1.428,0.13C37.619,29.284,37.611,28.565,37.727,27.84z"/>
				<circle fill="#394E64" cx="51.949" cy="51.689" r="3.769"/>
				<circle fill="#FFFFFF" cx="51.949" cy="51.689" r="1.893"/>
			</g>
			<g>
				<polygon fill="#FFFFFF" points="22.134,23.768 25.267,43.821 54.094,37.241 54.094,23.768 				"/>
			</g>
			<circle fill="#394E64" cx="26.555" cy="51.689" r="3.769"/>
			<circle fill="#FFFFFF" cx="26.555" cy="51.689" r="1.893"/>
		</g>
		<g>
			<path fill="#00A3D3" d="M49.081,36.494c0,0.586-0.421,1.061-0.94,1.061l0,0c-0.519,0-0.94-0.475-0.94-1.061V24.828
				c0-0.586,0.421-1.061,0.94-1.061l0,0c0.519,0,0.94,0.475,0.94,1.061V36.494z"/>
			<path fill="#00A3D3" d="M44.529,37.323c0.023,0.625-0.379,1.148-0.897,1.167l0,0c-0.519,0.019-0.958-0.472-0.981-1.097
				L42.188,24.94c-0.023-0.625,0.379-1.148,0.897-1.167l0,0c0.519-0.019,0.958,0.472,0.981,1.097L44.529,37.323z"/>
			<path fill="#00A3D3" d="M40.118,38.138c0.053,0.657-0.323,1.224-0.84,1.266l0,0c-0.517,0.042-0.98-0.457-1.034-1.114
				l-1.066-13.09c-0.054-0.657,0.323-1.224,0.84-1.266l0,0c0.517-0.042,0.98,0.457,1.034,1.114L40.118,38.138z"/>
			<path fill="#00A3D3" d="M35.959,38.987c0.081,0.689-0.272,1.297-0.788,1.357l0,0c-0.516,0.06-0.999-0.449-1.08-1.138
				L32.485,25.48c-0.081-0.689,0.272-1.297,0.788-1.357l0,0c0.516-0.06,0.999,0.449,1.08,1.138L35.959,38.987z"/>
			<path fill="#00A3D3" d="M31.564,39.875c0.086,0.732-0.263,1.375-0.778,1.435l0,0c-0.516,0.06-1.003-0.484-1.089-1.216
				L27.989,25.51c-0.086-0.732,0.263-1.375,0.778-1.435l0,0c0.516-0.06,1.003,0.484,1.089,1.216L31.564,39.875z"/>
			<path fill="#00A3D3" d="M27.752,40.709c0.112,0.754-0.213,1.427-0.726,1.503l0,0c-0.513,0.077-1.021-0.472-1.133-1.226
				l-2.24-15.008c-0.112-0.754,0.213-1.427,0.726-1.503l0,0c0.513-0.077,1.021,0.472,1.133,1.226L27.752,40.709z"/>
			<path fill="#00A3D3" d="M53.467,35.626c0,0.546-0.421,0.988-0.94,0.988l0,0c-0.519,0-0.94-0.442-0.94-0.988v-10.87
				c0-0.546,0.421-0.988,0.94-0.988l0,0c0.519,0,0.94,0.442,0.94,0.988V35.626z"/>
		</g>
	</g>
</g>
</svg>
