<?xml version="1.0" encoding="utf-8"?>
<!-- Generator: Adobe Illustrator 15.0.0, SVG Export Plug-In . SVG Version: 6.00 Build 0)  -->
<!DOCTYPE svg PUBLIC "-//W3C//DTD SVG 1.1//EN" "http://www.w3.org/Graphics/SVG/1.1/DTD/svg11.dtd">
<svg version="1.1" id="Layer_1" xmlns="http://www.w3.org/2000/svg" xmlns:xlink="http://www.w3.org/1999/xlink" x="0px" y="0px"
	 width="131.7px" height="131.7px" viewBox="54.15 54.15 131.7 131.7" enable-background="new 54.15 54.15 131.7 131.7"
	 xml:space="preserve">
<g>
	<path fill="#FFFFFF" d="M110.2,137.311c0,1.281,0.731,2.016,1.832,2.016c1.1,0,2.196-0.916,2.382-1.832c0-0.184,0-0.551,0-0.916
		v-1.832C112.032,134.744,110.2,135.479,110.2,137.311z"/>
	<path fill="#FFFFFF" d="M158.008,129.066c-2.014,0-2.748,2.016-2.93,3.297h5.494C160.756,131.266,160.207,129.066,158.008,129.066z
		"/>
	<path fill="#FFFFFF" d="M104.339,168.266c0,1.281,0.729,2.018,1.832,2.018c1.099,0,2.197-0.916,2.381-1.832
		c0-0.186,0.183-0.551,0.183-0.916v-1.832C106.171,165.701,104.339,166.436,104.339,168.266z"/>
	<path fill="#FFFFFF" d="M96.829,129.066c-2.015,0-2.748,2.016-2.931,3.297h5.494C99.393,131.266,99.027,129.066,96.829,129.066z"/>
	<path fill="#FFFFFF" d="M105.438,98.111c-2.015,0-2.748,2.018-2.931,3.299h5.495C108.002,100.126,107.453,98.111,105.438,98.111z"
		/>
	<path fill="#FFFFFF" d="M159.105,160.023c-2.016,0-2.746,2.014-2.932,3.297h5.496C161.672,162.221,161.305,160.023,159.105,160.023
		z"/>
	<path fill="#FFFFFF" d="M54.15,54.15v131.7h131.7V54.15H54.15z M121.189,126.137h2.016v-3.113l4.58-1.465v4.395h3.297v3.85h-3.297
		v6.047c0,2.014,0.367,2.93,1.832,2.93c0.732,0,0.916,0,1.465-0.186v3.848c-0.549,0.186-1.646,0.367-2.93,0.367
		c-1.467,0-2.748-0.551-3.482-1.467c-0.916-0.916-1.281-2.562-1.281-4.943v-6.777h-2.016v-3.48h-0.184V126.137L121.189,126.137z
		 M105.621,94.631c4.763,0,6.595,4.03,6.595,8.243c0,0.916,0,1.647-0.184,2.015h-9.708c0.185,2.197,2.017,3.113,4.214,3.113
		c1.646,0,2.931-0.184,4.214-0.732l0.549,3.48c-1.465,0.732-3.48,1.098-5.494,1.098c-5.129,0-8.061-3.296-8.061-8.425
		C98.111,99.21,100.493,94.631,105.621,94.631z M81.076,87.671h4.58v9.341l0,0c0.549-0.732,1.099-1.281,1.832-1.646
		c0.732-0.365,1.647-0.55,2.381-0.55c2.933,0,5.312,2.197,5.312,7.145v9.525h-4.579v-8.978c0-2.198-0.733-3.663-2.383-3.663
		c-1.281,0-2.017,0.916-2.382,1.832c-0.184,0.366-0.184,0.733-0.184,1.098v9.711h-4.579L81.076,87.671L81.076,87.671L81.076,87.671z
		 M63.126,88.953h15.936v4.214h-5.679v18.317h-4.578V93.167H63.31v-4.214H63.126z M68.254,119.909l1.648,9.341
		c0.365,2.748,0.916,5.682,1.281,7.877l0,0c0.365-2.562,0.916-5.129,1.281-8.059l1.832-9.158h4.946l1.648,9.525
		c0.55,2.562,0.729,5.129,1.099,7.51l0,0c0.367-2.562,0.733-5.129,1.283-7.877l1.646-9.158h4.766l-5.313,22.529h-5.128l-1.832-9.707
		c-0.367-2.199-0.731-4.396-0.916-6.961l0,0c-0.367,2.562-0.731,4.762-1.282,6.961l-2.014,9.707H68.07l-4.945-22.529L68.254,119.909
		L68.254,119.909L68.254,119.909z M75.214,169.547c1.467,0,2.934-0.365,3.85-0.729l0.729,4.025c-0.916,0.365-2.747,0.916-5.31,0.916
		c-7.145,0-10.808-4.941-10.808-11.354c0-7.693,4.946-11.906,11.175-11.906c2.382,0,4.214,0.549,5.13,0.916l-0.916,4.029
		c-0.916-0.365-2.198-0.916-3.85-0.916c-3.664,0-6.593,2.383-6.593,7.51C68.621,166.799,71.186,169.547,75.214,169.547z
		 M97.012,173.395h-4.578v-8.977c0-2.197-0.733-3.662-2.383-3.662c-1.28,0-2.017,0.916-2.382,1.832
		c-0.184,0.365-0.184,0.732-0.184,1.1v9.709h-4.579v-23.812h4.579v9.342l0,0c0.549-0.729,1.099-1.28,1.832-1.646
		c0.732-0.365,1.647-0.551,2.381-0.551c2.933,0,5.312,2.195,5.312,7.143v9.523h0.001v-0.002H97.012z M89.502,134.381
		c0-4.215,2.383-8.795,7.512-8.795c4.762,0,6.594,4.215,6.594,8.242c0,0.916-0.183,1.648-0.183,2.018h-9.708
		c0.184,2.197,2.016,3.113,4.213,3.113c1.646,0,2.93-0.186,4.213-0.732l0.549,3.48c-1.465,0.73-3.479,1.098-5.496,1.098
		C92.434,142.805,89.502,139.691,89.502,134.381z M109.102,173.395l-0.367-1.646h-0.183c-0.916,1.279-2.562,2.018-4.213,2.018
		c-3.114,0-4.765-2.385-4.765-4.943c0-4.215,3.48-6.229,8.794-6.229v-0.184c0-0.916-0.366-2.197-2.748-2.197
		c-1.466,0-3.113,0.549-4.214,1.281l-0.916-3.3c1.101-0.551,3.113-1.467,5.861-1.467c4.944,0,6.596,3.299,6.596,7.146v5.678
		c0,1.468,0,3.115,0.184,4.031h-4.029V173.395z M114.779,140.791L114.779,140.791c-1.102,1.281-2.563,2.014-4.396,2.014
		c-3.114,0-4.763-2.381-4.763-4.945c0-4.213,3.479-6.227,8.793-6.227v-0.186c0-0.914-0.366-2.197-2.747-2.197
		c-1.467,0-3.114,0.551-4.214,1.283l-0.916-3.297c1.1-0.551,3.111-1.465,5.859-1.465c4.945,0,6.597,3.295,6.597,7.143v5.678
		c0,1.465,0,3.115,0.183,4.031h-4.213L114.779,140.791z M131.082,173.395h-4.58v-9.158c0-2.197-0.73-3.479-2.381-3.479
		c-1.283,0-2.016,0.916-2.381,1.832c-0.186,0.365-0.186,0.73-0.186,1.281v9.523h-4.762v-11.174c0-2.014,0-3.664-0.185-5.309h4.029
		l0.187,2.195h0.184c0.55-1.102,2.197-2.562,4.578-2.562c3.115,0,5.312,2.197,5.312,7.143v9.709h0.185L131.082,173.395
		L131.082,173.395z M133.646,118.626h4.58v9.342l0,0c0.549-0.729,1.098-1.28,1.83-1.646c0.73-0.367,1.646-0.551,2.381-0.551
		c2.932,0,5.312,2.195,5.312,7.143v9.523h-4.58v-8.975c0-2.197-0.731-3.664-2.381-3.664c-1.281,0-2.017,0.916-2.384,1.832
		c-0.182,0.365-0.182,0.729-0.182,1.1v9.707h-4.58v-23.812L133.646,118.626L133.646,118.626z M149.031,173.395h-4.762v-9.158
		c0-2.197-0.732-3.479-2.381-3.479c-1.281,0-2.018,0.916-2.383,1.832c-0.188,0.365-0.188,0.73-0.188,1.281v9.523h-4.578v-11.174
		c0-2.014,0-3.664-0.184-5.309h4.029l0.184,2.195h0.186c0.551-1.102,2.195-2.562,4.578-2.562c3.111,0,5.312,2.197,5.312,7.143v9.709
		h0.185L149.031,173.395L149.031,173.395z M158.375,125.771c4.762,0,6.594,4.211,6.594,8.242c0,0.916-0.184,1.646-0.184,2.014
		h-9.707c0.182,2.199,2.014,3.115,4.213,3.115c1.646,0,2.93-0.186,4.211-0.734l0.551,3.48c-1.465,0.732-3.479,1.1-5.496,1.1
		c-5.129,0-8.059-3.297-8.059-8.426C150.682,130.35,153.246,125.771,158.375,125.771z M165.883,166.984h-9.707
		c0.184,2.197,2.014,3.113,4.213,3.113c1.648,0,2.932-0.188,4.213-0.732l0.551,3.479c-1.467,0.729-3.479,1.099-5.494,1.099
		c-5.131,0-8.061-3.297-8.061-8.424c0-4.215,2.381-8.795,7.512-8.795c4.766,0,6.598,4.027,6.598,8.242
		C166.068,165.701,165.883,166.436,165.883,166.984z M173.578,173.395h-4.58v-23.812h4.58V173.395z M177.059,130.717
		c-0.367,0-0.732-0.186-1.283-0.186c-1.646,0-2.932,0.916-3.111,2.562c0,0.365-0.186,0.73-0.186,1.1v8.244H167.9v-10.99
		c0-2.381,0-4.029-0.188-5.312h4.031l0.184,3.113h0.185c0.731-2.383,2.563-3.479,4.031-3.479c0.364,0,0.549,0,0.916,0.183V130.717
		L177.059,130.717z"/>
</g>
</svg>
