<?xml version="1.0" encoding="utf-8"?>
<!-- Generator: Adobe Illustrator 15.0.0, SVG Export Plug-In . SVG Version: 6.00 Build 0)  -->
<!DOCTYPE svg PUBLIC "-//W3C//DTD SVG 1.1//EN" "http://www.w3.org/Graphics/SVG/1.1/DTD/svg11.dtd">
<svg version="1.1" id="Layer_1" xmlns="http://www.w3.org/2000/svg" xmlns:xlink="http://www.w3.org/1999/xlink" x="0px" y="0px"
	 width="182.648px" height="125.65px" viewBox="28.676 57.175 182.648 125.65"
	 enable-background="new 28.676 57.175 182.648 125.65" xml:space="preserve">
<g>
	<path fill="#FFFFFF" d="M93.314,93.456c-2.768,0-4.965,2.196-4.965,4.965s2.197,4.965,4.965,4.965c2.769,0,4.964-2.196,4.964-4.965
		C98.279,95.748,96.083,93.456,93.314,93.456"/>
	<path fill="#FFFFFF" d="M154.421,93.456c-2.769,0-4.966,2.196-4.966,4.965s2.197,4.965,4.966,4.965s4.964-2.196,4.964-4.965
		S157.189,93.456,154.421,93.456"/>
	<path fill="#FFFFFF" d="M94.078,83.718c-8.115,0-14.703,6.588-14.703,14.799c0,8.116,6.588,14.799,14.703,14.799
		c8.116,0,14.799-6.586,14.799-14.799C108.877,90.306,102.193,83.718,94.078,83.718 M94.078,108.638
		c-5.632,0-10.215-4.583-10.215-10.216c0-5.634,4.583-10.216,10.215-10.216c5.633,0,10.217,4.583,10.217,10.216
		C104.295,104.055,99.711,108.638,94.078,108.638 M185.832,68.537h-20.336c-10.408-6.97-24.538-11.362-40.771-11.362
		c-16.23,0-31.316,4.394-41.724,11.362h-19.38c3.15,3.722,5.538,8.688,6.11,12.126c-3.627,4.964-5.824,11.17-5.824,17.854
		c0,16.806,13.654,30.363,30.363,30.363c9.549,0,18.045-4.394,23.582-11.268c2.292,2.675,6.018,8.021,6.78,9.548
		c0,0,4.392-6.493,6.778-9.548c5.537,6.875,14.035,11.171,23.584,11.171c16.804,0,30.361-13.653,30.361-30.361
		c0-6.684-2.195-12.794-5.824-17.854C180.391,77.226,182.682,72.26,185.832,68.537 M94.46,122.959
		c-13.558,0-24.442-10.979-24.442-24.443c0-13.462,10.98-24.442,24.442-24.442c13.463,0,24.442,10.98,24.442,24.442
		C118.902,112.075,107.923,122.959,94.46,122.959 M94.46,68.155c8.688-3.819,19.478-5.824,30.362-5.824
		c10.883,0,20.718,2.005,29.406,5.824c-16.326,0.478-29.406,13.941-29.406,30.362C124.822,81.713,111.265,68.155,94.46,68.155
		 M155.186,122.959c-13.559,0-24.442-10.979-24.442-24.443c0-13.462,10.979-24.442,24.442-24.442
		c13.558,0,24.441,10.98,24.441,24.442C179.723,112.075,168.742,122.959,155.186,122.959 M155.186,83.623
		c-8.117,0-14.703,6.588-14.703,14.799c0,8.115,6.586,14.799,14.703,14.799c8.114,0,14.799-6.588,14.799-14.799
		C169.982,90.211,163.395,83.623,155.186,83.623 M155.186,108.638c-5.634,0-10.217-4.583-10.217-10.216
		c0-5.634,4.583-10.216,10.217-10.216c5.631,0,10.215,4.583,10.215,10.216C165.4,104.055,160.816,108.638,155.186,108.638"/>
	<path fill="#FFFFFF" d="M41.565,157.046v-3.342h-5.441v-4.968l-4.202,1.242v3.726h-3.246v3.342h3.246v10.693
		c0,4.771,1.91,7.159,5.729,7.159c1.337,0,2.578-0.188,3.533-0.571h0.096l-0.191-3.246l-0.19,0.097
		c-0.573,0.19-1.337,0.285-2.196,0.285c-0.955,0-1.623-0.285-2.006-0.857c-0.478-0.574-0.667-1.621-0.667-2.961v-10.406h5.538
		L41.565,157.046L41.565,157.046z"/>
	<path fill="#FFFFFF" d="M55.982,153.32c-0.478-0.096-0.764-0.096-1.051-0.096c-1.241,0-2.483,0.381-3.532,1.24
		c-0.955,0.67-1.623,1.624-2.197,2.768l-0.19-3.528h-3.819v0.188c0.095,1.723,0.19,3.818,0.19,6.494v14.035h4.296v-10.979
		c0-2.006,0.477-3.533,1.528-4.584c0.955-1.051,2.196-1.623,3.533-1.623c0.478,0,0.955,0,1.336,0.098h0.19v-4.105L55.982,153.32z"/>
	<rect x="59.897" y="153.704" fill="#FFFFFF" width="4.296" height="20.717"/>
	<path fill="#FFFFFF" d="M61.997,150.361c0.765,0,1.432-0.288,1.91-0.767c0.477-0.478,0.765-1.144,0.765-1.909
		c0-0.764-0.288-1.336-0.765-1.91c-0.478-0.478-1.145-0.762-1.91-0.762c-0.764,0-1.432,0.284-1.91,0.762
		c-0.477,0.479-0.763,1.146-0.763,1.91c0,0.767,0.286,1.336,0.763,1.909C60.565,150.075,61.233,150.361,61.997,150.361"/>
	<path fill="#FFFFFF" d="M84.817,156.091c-1.624-2.006-3.724-2.961-6.302-2.961c-3.056,0-5.442,1.146-7.065,3.531l-0.191-3.056
		h-3.915v0.285c0.096,1.724,0.191,3.916,0.191,6.685v22.25h4.296v-10.601c0.574,0.765,1.336,1.433,2.291,1.908
		c1.146,0.575,2.387,0.859,3.723,0.859c2.674,0,4.965-1.051,6.684-3.055c1.813-2.006,2.674-4.773,2.674-8.211
		C87.299,160.673,86.535,158.096,84.817,156.091 M74.409,157.809c0.955-0.666,1.91-0.953,2.96-0.953c1.719,0,3.056,0.67,4.106,2.004
		c1.05,1.338,1.527,3.058,1.527,5.156c0,2.289-0.573,4.105-1.623,5.442c-1.051,1.336-2.387,2.005-4.2,2.005
		c-1.433,0-2.674-0.572-3.724-1.624c-1.05-1.05-1.527-2.387-1.527-3.914v-3.247c0-0.57,0.19-1.335,0.572-2.289
		C72.882,159.241,73.455,158.479,74.409,157.809"/>
	<path fill="#FFFFFF" d="M106.395,174.23c-0.189-1.244-0.381-2.862-0.381-4.871v-7.446c0-2.771-0.667-4.965-2.1-6.396
		c-1.338-1.527-3.438-2.291-6.111-2.291c-2.768,0-5.155,0.666-7.161,1.91l-0.095,0.096l0.955,2.863l0.19-0.095
		c1.623-1.053,3.438-1.528,5.442-1.528c1.528,0,2.673,0.383,3.438,1.146c0.764,0.764,1.146,1.813,1.146,3.246v0.188
		c-4.01,0-7.161,0.667-9.357,2.008c-2.197,1.334-3.342,3.244-3.342,5.822c0,1.622,0.574,3.055,1.813,4.297
		c1.146,1.146,2.769,1.814,4.774,1.814c2.673,0,4.774-0.955,6.302-2.864l0.381,2.388h3.914L106.395,174.23z M100.379,170.314
		c-0.955,0.859-2.196,1.338-3.628,1.338c-1.051,0-1.814-0.284-2.387-0.858c-0.574-0.573-0.86-1.435-0.86-2.389
		c0-1.335,0.573-2.289,1.814-3.056c1.241-0.765,3.437-1.145,6.586-1.145v3.244C101.908,168.405,101.43,169.359,100.379,170.314"/>
	<path fill="#FFFFFF" d="M127.973,174.518v-0.283c-0.096-1.244-0.188-3.059-0.188-5.351v-24.919h-4.298v11.646
		c-0.571-0.668-1.241-1.241-2.101-1.622c-1.146-0.574-2.387-0.859-3.819-0.859c-2.578,0-4.869,1.052-6.586,3.147
		c-1.72,2.104-2.675,4.774-2.675,8.117c0,3.058,0.86,5.633,2.483,7.543c1.719,2.004,3.818,3.058,6.302,3.058
		c1.528,0,2.96-0.384,4.2-1.147c0.955-0.57,1.814-1.337,2.389-2.291l0.189,2.961H127.973z M123.484,162.2v3.245
		c0,1.721-0.572,3.152-1.623,4.199c-1.051,1.054-2.292,1.529-3.627,1.529c-1.814,0-3.152-0.668-4.106-2.007
		c-0.955-1.335-1.528-3.054-1.528-5.153c0-2.195,0.573-4.01,1.623-5.349c1.051-1.337,2.387-2.005,4.105-2.005
		c1.432,0,2.578,0.479,3.629,1.525C123.008,159.241,123.484,160.577,123.484,162.2"/>
	<path fill="#FFFFFF" d="M145.445,153.704c0,0-5.35,10.883-5.729,12.028c-0.478-1.433-5.729-12.028-5.729-12.028h-4.584
		l10.406,20.717l10.217-20.717H145.445z"/>
	<rect x="152.033" y="153.704" fill="#FFFFFF" width="4.297" height="20.717"/>
	<path fill="#FFFFFF" d="M154.134,150.361c0.765,0,1.433-0.288,1.909-0.767c0.479-0.478,0.766-1.144,0.766-1.909
		c0-0.764-0.287-1.336-0.766-1.91c-0.479-0.478-1.145-0.762-1.909-0.762c-0.764,0-1.433,0.284-1.909,0.762
		c-0.479,0.479-0.765,1.146-0.765,1.91c0,0.767,0.286,1.336,0.765,1.909C152.701,150.075,153.369,150.361,154.134,150.361"/>
	<path fill="#FFFFFF" d="M173.134,164.777c-0.858-0.954-2.292-1.812-4.296-2.577c-1.624-0.572-2.676-1.052-3.152-1.527
		c-0.477-0.479-0.666-1.052-0.666-1.717c0-0.769,0.285-1.338,0.857-1.813c0.572-0.479,1.336-0.766,2.387-0.766
		c1.435,0,2.865,0.38,4.297,1.241l0.19,0.096l1.051-3.149l-0.097-0.098c-1.432-0.857-3.245-1.24-5.346-1.24
		c-2.197,0-4.012,0.573-5.442,1.813c-1.337,1.237-2.007,2.672-2.007,4.485c0,2.675,1.91,4.584,5.729,5.92
		c1.434,0.479,2.389,0.955,2.961,1.527c0.573,0.479,0.764,1.146,0.764,2.006c0,0.858-0.285,1.527-0.953,2.006
		s-1.623,0.764-2.864,0.764c-1.72,0-3.438-0.479-5.062-1.527l-0.19-0.097l-1.05,3.342l0.096,0.099
		c1.814,0.953,3.818,1.433,6.016,1.433c2.483,0,4.395-0.574,5.826-1.718c1.432-1.146,2.194-2.771,2.194-4.586
		C174.471,167.07,173.994,165.732,173.134,164.777"/>
	<path fill="#FFFFFF" d="M193.947,156.186c-1.812-2.004-4.199-2.959-7.16-2.959s-5.348,1.051-7.354,2.959
		c-1.908,2.006-2.863,4.68-2.863,8.021c0,3.148,0.955,5.729,2.77,7.638c1.91,2.005,4.297,2.96,7.161,2.96
		c1.813,0,3.532-0.478,5.155-1.337c1.621-0.856,2.863-2.196,3.723-3.817c0.859-1.623,1.336-3.631,1.336-5.824
		C196.717,160.77,195.764,158.189,193.947,156.186 M186.596,171.652c-1.621,0-3.055-0.668-4.104-2.101
		c-1.146-1.433-1.623-3.247-1.623-5.442c0-2.194,0.573-4.01,1.623-5.44c1.052-1.435,2.483-2.196,4.297-2.196
		s3.246,0.766,4.201,2.196c1.051,1.433,1.622,3.246,1.622,5.349c0,2.289-0.573,4.104-1.719,5.537
		C189.65,170.891,188.221,171.652,186.596,171.652"/>
	<path fill="#FFFFFF" d="M211.039,153.32c-0.479-0.096-0.764-0.096-1.051-0.096c-1.242,0-2.482,0.381-3.532,1.24
		c-0.954,0.67-1.623,1.624-2.196,2.768l-0.189-3.528h-3.818v0.188c0.096,1.723,0.189,3.818,0.189,6.494v14.035h4.295v-10.979
		c0-2.006,0.479-3.533,1.529-4.584c0.955-1.051,2.196-1.623,3.532-1.623c0.478,0,0.955,0,1.336,0.098h0.19v-4.105L211.039,153.32z"
		/>
</g>
</svg>
