<?xml version="1.0" encoding="utf-8"?>
<!-- Generator: Adobe Illustrator 17.0.0, SVG Export Plug-In . SVG Version: 6.00 Build 0)  -->
<!DOCTYPE svg PUBLIC "-//W3C//DTD SVG 1.1//EN" "http://www.w3.org/Graphics/SVG/1.1/DTD/svg11.dtd">
<svg version="1.1" id="Layer_1" xmlns="http://www.w3.org/2000/svg" xmlns:xlink="http://www.w3.org/1999/xlink" x="0px" y="0px"
	 width="66px" height="66px" viewBox="0 0 66 66" enable-background="new 0 0 66 66" xml:space="preserve">
<g>
	<path fill="#FFFFFF" d="M35.162,27.277c-0.016,0.185-0.041,0.337-0.041,0.489c-0.002,4.188-0.031,8.376,0.017,12.563
		c0.014,1.193,0.208,2.391,0.407,3.572c0.064,0.38,0.34,0.786,0.634,1.054c1.462,1.332,3.203,1.728,5.102,1.271
		c1.434-0.345,2.84-0.806,4.258-1.216c0.079-0.023,0.159-0.042,0.237-0.065c0.17-0.05,0.258,0.013,0.262,0.19
		c0.002,0.072,0.002,0.144,0.002,0.216c0,2.963-0.005,5.927,0.007,8.89c0.001,0.319-0.111,0.446-0.405,0.536
		c-1.723,0.523-3.475,0.889-5.265,1.092c-1.508,0.171-3.02,0.201-4.526,0.046c-2.515-0.26-4.982-0.728-7.185-2.07
		c-1.926-1.173-3.172-2.89-3.894-5.004c-0.455-1.333-0.659-2.698-0.64-4.115c0.036-2.685,0.014-5.371,0.003-8.056
		c-0.011-2.86-0.034-5.719-0.057-8.579c-0.002-0.256-0.033-0.511-0.054-0.813c-0.121,0-0.24,0-0.36,0c-1.348,0-2.696,0.001-4.044,0
		c-0.391,0-0.424-0.031-0.424-0.422c-0.001-2.5-0.001-5.001,0-7.501c0-0.381,0.019-0.398,0.407-0.383
		c1.37,0.054,2.573-0.445,3.72-1.123c2.274-1.344,3.72-3.323,4.414-5.85c0.24-0.876,0.372-1.782,0.555-2.674
		c0.029-0.14,0.042-0.297,0.116-0.411c0.071-0.109,0.211-0.246,0.321-0.247c2.027-0.015,4.054-0.008,6.081-0.014
		c0.312-0.001,0.308,0.191,0.308,0.411c-0.002,2.315-0.001,4.63-0.001,6.945c0,0.803-0.002,1.605,0.002,2.408
		c0.001,0.161,0.025,0.322,0.041,0.512c0.149,0,0.271,0,0.392,0c3.2,0,6.4,0,9.6,0c0.062,0,0.124,0.002,0.185,0
		c0.278-0.009,0.402,0.099,0.398,0.402c-0.014,1.276-0.006,2.552-0.006,3.827c0,1.204,0,2.408,0,3.612
		c0,0.509-0.001,0.509-0.524,0.509c-3.221,0-6.441,0-9.662,0C35.435,27.277,35.323,27.277,35.162,27.277z"/>
</g>
</svg>
