<?xml version="1.0" encoding="utf-8"?>
<!-- Generator: Adobe Illustrator 17.0.0, SVG Export Plug-In . SVG Version: 6.00 Build 0)  -->
<!DOCTYPE svg PUBLIC "-//W3C//DTD SVG 1.1//EN" "http://www.w3.org/Graphics/SVG/1.1/DTD/svg11.dtd">
<svg version="1.1" xmlns="http://www.w3.org/2000/svg" xmlns:xlink="http://www.w3.org/1999/xlink" x="0px" y="0px" width="100px"
	 height="100px" viewBox="0 0 100 100" enable-background="new 0 0 100 100" xml:space="preserve">
<g id="Layer_1" display="none">
	<rect display="inline" fill="#B3B3B3" width="100" height="100"/>
	<g display="inline">
		<defs>
			<rect id="SVGID_1_" x="-3218" y="-1719" width="1715" height="383"/>
		</defs>
		<clipPath id="SVGID_2_">
			<use xlink:href="#SVGID_1_"  overflow="visible"/>
		</clipPath>
		<g transform="matrix(1 0 0 1 0 -2.441406e-004)" clip-path="url(#SVGID_2_)">
			
				<image overflow="visible" width="1920" height="1080" xlink:href="8EA5DB18.jpg"  transform="matrix(6.7276 0 0 6.7276 -8640.748 -3972.9956)">
			</image>
		</g>
	</g>
</g>
<g id="Layer_2">
	<g id="New_Symbol_54">
		<g id="New_Symbol_53">
			<g id="New_Symbol">
			</g>
		</g>
	</g>
	<g id="New_Symbol_13">
	</g>
	<g id="New_Symbol_1_">
	</g>
	<g id="New_Symbol_24">
	</g>
	<g>
		<g>
			<path fill="#FFFFFF" d="M26.5,60.3c0,0.2,0.4,0.8,0.8,0.8l4.2,0c0.5,0,0.9-0.3,1.2-0.7l0.1-0.2c3.5-9.8,4.7-13.5,9-21.1
				c0.1-0.1,0.1-0.2,0.1-0.3c0-0.3-0.2-0.6-0.5-0.6H39c-0.6,0-1.1,0.5-1.1,0.5c-0.1,0.1-0.2,0.2-0.3,0.4c-3.3,5.1-5.2,10.1-7.9,17.2
				c-0.1,0.2-0.2,0.4-0.2,0.3c-0.1-0.1-0.4-1.6-1.9-5.5c2.1-6.5,5-11.8,5-12c0-0.1,0.1-0.2,0.1-0.3c0-0.3-0.2-0.6-0.5-0.6h-2.3
				c-0.6,0-1,0.4-1,0.4s-0.4,0.3-0.6,0.7c-3,5.7-4.4,9.4-6.8,17.1c0,0.1-0.1,0.2-0.1,0.2c0,0-1.7-3.8-2.3-5.4
				c-0.1-0.4-0.4-0.4-0.6-0.4c0,0-2.4,0-3.1,0c-0.6,0-0.4,0.7-0.4,0.7l3.2,9c0,0.2,0.3,0.8,0.8,0.8l4.2,0c0.5,0,1-0.4,1.4-1
				c0.4-0.6,0.7-2.5,0.9-3.1c0,0,0.4,1,0.7,1.7C26.3,59.7,26.5,60.3,26.5,60.3z"/>
			<path fill="#FFFFFF" d="M5.8,48.4C5.2,48.4,5,48,5,47.5c0-0.3,0.7-2.2,0.8-2.4c0.1-0.3,0.5-0.6,0.9-0.6h11.2
				c0.5,0,0.8,0.2,0.8,0.6c0,0.1,0,0.3-0.1,0.4l-0.5,2.1c-0.2,0.4-0.7,1-1.3,1h-3.1c0,0-0.7,4.3-1.3,7c-0.7,3.6-0.8,5-0.8,5
				c-0.2,0.6-0.6,1-1.3,1H7.5c-0.7,0-0.9-0.4-0.9-0.9c0,0,0.3-2.4,1-5.7c0.8-4,1.4-6.5,1.4-6.5H5.8z"/>
			<path fill="#FFFFFF" d="M67.5,60.2c0,0.2-0.1,0.6-0.1,0.7c0,0.4,0.4,0.6,0.7,0.6h2.9c0.7,0,1-0.2,1.2-0.9l1.5-7.5
				c0,0,0.7,2.5,1.2,4.1c0.4,1.8,1.1,3.6,1.1,3.6c0.2,0.4,0.7,0.7,1.2,0.7h3.1c0.3,0,0.7-0.3,0.7-0.6c0,0,0-0.1,0-0.3
				c-2.6-5.6-3.2-8.4-3.2-8.4s3.3-4,6.8-7c0.1-0.1,0.1-0.3,0.1-0.4c0-0.2-0.1-0.3-0.6-0.3h-3.4c-0.7,0-1.1,0.2-1.6,0.7
				c-2.1,1.9-3.2,3.3-5,5.7l1.1-5.5c0-0.4-0.2-0.9-0.6-0.9h-2.8c-0.5,0-0.9,0.4-1.1,0.9L67.5,60.2z"/>
			<path fill="#FFFFFF" d="M53.2,54.3c-1.3,1.4-3,2.1-3.8,2.5C49,57,48.8,57,48.8,57l0,0c-1.1,0.3-2.2,0.7-3.5,0.8
				c-2.4,0-3-0.9-3.1-2.1c0,0,3.6-0.3,5.4-1c0.7-0.2,1.3-0.5,1.8-0.7c2.9-1.6,3.4-4.3,3.2-5.6c-0.2-2.4-1.3-3.7-3.2-4.3
				c-0.6-0.2-1.3-0.3-2.1-0.3c-5.5,0-8.2,4.5-9.5,8.8c-1.6,6.1,1,8.9,5.8,8.9c2.2,0,3.4-0.2,5.1-0.9c0.3-0.1,0.5-0.2,0.7-0.3
				c2.9-1.3,3.9-2.9,3.9-2.9L53.2,54.3z M46.3,47.5c1.5-0.1,1.9,0.8,1.7,2c-0.1,1-1.6,1.9-2.8,2.3c-2.2,0.6-2.4,0.4-2.4,0.4
				C43.4,49.7,44.9,47.6,46.3,47.5z"/>
			<path fill="#FFFFFF" d="M68.4,54.6c-1.1,1.1-2.4,1.9-3.5,2.4c0,0,0,0,0-0.1l1.2-5.6c0.6-3.1,1.3-7.2-5.2-7.2
				c-1.5,0-3.7,0.4-5,0.8c-0.6,0.2-0.9,0.5-0.8,1.1l0.1,2c0,0.5,0.4,0.8,1,0.6c0.9-0.3,2.4-0.6,3.7-0.6c2,0,2.2,0.7,1.8,2.6L59,50.7
				c-4.4,0.2-6.7,2.6-7.3,5.6c-0.7,3.4,0.4,5.5,3.7,5.5c2.2,0,3.9-0.8,5.1-2.1l0,0.8c0,0.6,0.2,1,0.8,1h2.3c0.3,0,0.5-0.1,0.7-0.2
				c0,0,0,0,0.1,0c0.2-0.1,2.9-1.5,4.7-4.1C70.5,55.1,71.3,51.7,68.4,54.6z M60.6,55.8c-0.2,1.1-1.6,2.3-3.2,2.3
				c-0.6,0-1.4-0.6-1.1-1.8c0.4-1.8,1.6-2.6,3.2-2.7l1.6-0.1L60.6,55.8z"/>
			<path fill="#FFFFFF" d="M94.2,45c-1.4-0.6-2.3-0.9-4-0.9c-3.4,0-6.5,2.3-6.3,5.6c0.1,2.5,1.3,3.5,3.4,4.7c1.2,0.6,2.3,1,2.4,1.9
				c0.1,1-0.8,1.7-1.7,1.7c-1.4,0-2.7-0.6-4.1-1c-0.2,0-0.5-0.1-0.6-0.1c-0.3,0-0.4,0.1-0.7,0.7l-0.7,1.8c-0.1,0.3-0.1,0.4-0.1,0.6
				c0,0.2,0.2,0.3,0.3,0.4l0.8,0.3c2.5,0.9,3.4,1.1,4.8,1.1c4.4,0,6.3-2.7,6.6-5.4c0-0.3,0-0.6,0-0.9c-0.1-2.5-1.8-3.5-3.3-4.2
				c-0.9-0.5-2.4-0.9-2.5-2.1c0-0.8,0.4-1.5,1.5-1.5c1.1,0,2,0.4,2.7,0.6c0.1,0,0.2,0,0.2,0c0.3,0,0.7-0.3,0.9-0.7l0.8-1.4
				c0.1-0.2,0.2-0.3,0.2-0.5C95,45.5,94.6,45.2,94.2,45L94.2,45z"/>
		</g>
	</g>
</g>
</svg>
