<?xml version="1.0" encoding="utf-8"?>
<!-- Generator: Adobe Illustrator 17.0.0, SVG Export Plug-In . SVG Version: 6.00 Build 0)  -->
<!DOCTYPE svg PUBLIC "-//W3C//DTD SVG 1.1//EN" "http://www.w3.org/Graphics/SVG/1.1/DTD/svg11.dtd">
<svg version="1.1" id="Layer_1" xmlns="http://www.w3.org/2000/svg" xmlns:xlink="http://www.w3.org/1999/xlink" x="0px" y="0px"
	 width="66px" height="66px" viewBox="0 0 66 66" enable-background="new 0 0 66 66" xml:space="preserve">
<g>
	<g>
		<path fill="#FFFFFF" d="M43.615,14.883c0.555,0,1.11,0,1.664,0c0.064,0.012,0.128,0.03,0.192,0.037
			c2.495,0.232,4.624,1.244,6.393,3.013c0.128,0.128,0.238,0.168,0.42,0.13c2.113-0.45,4.108-1.211,5.984-2.282
			c0.07-0.04,0.136-0.103,0.262-0.099c-0.807,2.388-2.278,4.222-4.37,5.575c1.436-0.162,2.826-0.485,4.178-0.961
			c0.528-0.186,1.049-0.396,1.572-0.595c0,0.015,0,0.03,0,0.044c-0.03,0.03-0.066,0.057-0.089,0.092
			c-1.338,1.959-2.96,3.644-4.872,5.048c-0.124,0.091-0.128,0.193-0.128,0.32c0.003,0.708,0.024,1.417-0.001,2.123
			c-0.095,2.633-0.555,5.203-1.356,7.712c-1.597,5-4.243,9.352-8.099,12.931c-4.914,4.561-10.774,6.928-17.432,7.4
			c-0.264,0.019-0.535-0.009-0.792,0.079c-0.861,0-1.724,0-2.585,0c-0.032-0.04-0.078-0.035-0.12-0.036
			c-0.495-0.009-0.986-0.051-1.479-0.094c-0.895-0.078-1.786-0.192-2.666-0.366c-1.502-0.298-2.981-0.68-4.422-1.213
			c-1.95-0.721-3.814-1.614-5.577-2.716c-0.07-0.044-0.16-0.069-0.204-0.177c2.692,0.304,5.332,0.093,7.928-0.632
			c2.393-0.668,6.602-2.828,7.054-3.605c-1.372-0.097-2.157-0.227-3.126-0.589c-3.046-1.135-5.133-3.233-6.261-6.281
			c-0.094-0.253-0.084-0.262,0.18-0.212c0.416,0.08,0.836,0.127,1.256,0.143c0.905,0.035,1.803-0.057,2.687-0.261
			c0.097-0.022,0.213-0.013,0.297-0.108c-5.562-1.262-8.261-6.268-8.057-10.143c0.7,0.365,1.412,0.673,2.166,0.881
			c0.758,0.209,1.526,0.349,2.323,0.365c-0.023-0.092-0.084-0.11-0.128-0.143c-0.866-0.627-1.629-1.356-2.272-2.214
			c-1.354-1.803-1.999-3.847-2.053-6.083c-0.013-0.535,0.042-1.071,0.127-1.603c0.195-1.222,0.586-2.374,1.184-3.458
			c0.082-0.147,0.128-0.128,0.222-0.014c0.714,0.869,1.477,1.693,2.29,2.472c2.047,1.962,4.325,3.602,6.843,4.906
			c1.763,0.913,3.604,1.626,5.512,2.164c0.861,0.243,1.736,0.442,2.621,0.591c0.606,0.102,1.214,0.195,1.825,0.271
			c0.562,0.07,1.126,0.092,1.688,0.158c0.146,0.017,0.177-0.053,0.149-0.182c-0.183-0.834-0.264-1.676-0.22-2.534
			c0.021-0.405,0.039-0.812,0.104-1.21c0.168-1.028,0.479-2.014,0.941-2.949c0.618-1.248,1.463-2.32,2.517-3.233
			c0.648-0.562,1.354-1.028,2.115-1.412c0.831-0.419,1.709-0.695,2.621-0.877C42.95,14.991,43.294,15.003,43.615,14.883z"/>
	</g>
</g>
</svg>
