<?xml version="1.0" encoding="utf-8"?>
<!-- Generator: Adobe Illustrator 15.0.0, SVG Export Plug-In . SVG Version: 6.00 Build 0)  -->
<!DOCTYPE svg PUBLIC "-//W3C//DTD SVG 1.1//EN" "http://www.w3.org/Graphics/SVG/1.1/DTD/svg11.dtd">
<svg version="1.1" id="Layer_1" xmlns="http://www.w3.org/2000/svg" xmlns:xlink="http://www.w3.org/1999/xlink" x="0px" y="0px"
	 width="192.085px" height="114.203px" viewBox="23.957 62.899 192.085 114.203"
	 enable-background="new 23.957 62.899 192.085 114.203" xml:space="preserve">
<g>
	<polyline fill="#FFFFFF" points="23.957,140.703 29.042,140.703 35.016,157.652 41.552,139.654 41.956,139.654 48.572,157.652 
		54.465,140.703 59.146,140.703 48.572,169.594 48.089,169.594 41.552,152.164 35.016,169.594 34.612,169.594 23.957,140.703 	"/>
	<path fill="#FFFFFF" d="M60.034,158.457c0.484-2.742,2.26-4.277,4.762-4.277c2.26,0,3.874,1.453,3.874,3.633c0,0.08,0,0.16,0,0.242
		L60.034,158.457 M72.222,163.623c-2.583,1.373-4.761,2.18-6.94,2.18c-3.229,0-5.164-1.777-5.408-4.842l12.511-0.404l0.402-0.727
		c0.082-0.646,0.082-1.291,0.082-1.775c0-4.602-3.229-7.586-8.232-7.586c-5.327,0-9.443,3.873-9.443,9.441
		c0,5.57,4.035,9.443,9.443,9.443c2.26,0,4.519-0.566,7.021-1.611L72.222,163.623z"/>
	<path fill="#FFFFFF" d="M87.556,164.674c-1.453,0.807-2.663,1.209-3.713,1.209c-3.066,0-4.923-2.018-4.923-5.408
		c0-3.953,2.259-6.455,5.406-6.455c0.888,0,1.938,0.32,3.228,1.047L87.556,164.674 M88.766,168.707h5.165
		c-1.452-1.291-1.775-3.389-1.775-5.326v-12.104l-4.116,0.398c-1.614-0.727-3.149-1.049-4.6-1.049c-4.843,0-9.119,4.035-9.119,9.686
		c0,5.328,3.47,9.121,8.877,9.121c1.453,0,3.148-0.402,5.085-1.293L88.766,168.707z"/>
	<path fill="#FFFFFF" d="M97.967,155.148h-4.116v-3.793h4.116v-5.246l4.681-0.811v6.057h4.197v3.793h-4.197v5.729
		c0,0.242,0,0.482,0,0.811c0,3.309,0.082,5.002,2.986,7.1h-5.327c-2.34-1.451-2.26-2.982-2.26-6.211c0-0.244,0-0.566,0-0.889v-6.537
		"/>
	<path fill="#FFFFFF" d="M113.06,140.139v13.721c1.856-2.02,3.954-3.066,6.375-3.066c3.872,0,5.974,2.1,5.974,6.215v11.621h-4.603
		v-10.654c0-2.1-1.048-3.229-3.146-3.229c-2.905,0-4.762,1.373-4.762,4.195v9.686h-4.601l0.082-27.842L113.06,140.139"/>
	<path fill="#FFFFFF" d="M131.783,158.457c0.482-2.742,2.26-4.277,4.762-4.277c2.26,0,3.873,1.453,3.873,3.633
		c0,0.08,0,0.16,0,0.242L131.783,158.457 M144.049,163.623c-2.582,1.373-4.762,2.18-6.939,2.18c-3.227,0-5.164-1.777-5.407-4.842
		l12.512-0.404l0.402-0.727c0-0.646,0.082-1.291,0.082-1.775c0-4.602-3.229-7.586-8.232-7.586c-5.327,0-9.44,3.873-9.44,9.441
		c0,5.57,4.035,9.443,9.44,9.443c2.263,0,4.521-0.566,7.021-1.611L144.049,163.623z"/>
	<path fill="#FFFFFF" d="M151.314,159.508v9.121h-4.603v-17.352h4.279v2.904c2.02-2.424,4.192-3.393,6.534-3.393
		c0.082,0,0.162,0,0.324,0v4.926C152.041,155.795,151.314,156.117,151.314,159.508"/>
	<path fill="#FFFFFF" d="M164.146,152.322v-7.908h2.662c3.633,0,5.407,1.129,5.407,3.795c0,2.502-1.854,4.195-5.245,4.195h-2.824
		 M159.467,168.629h7.586c7.104,0,10.652-2.664,10.652-8.154c0-3.469-1.855-5.973-5.084-6.775c2.986-1.133,4.438-3.15,4.438-5.975
		c0-4.6-3.146-7.104-9.281-7.104h-8.312v28.01L159.467,168.629L159.467,168.629z M164.146,164.754v-8.715h3.473
		c3.471,0,5.246,1.613,5.246,4.275c0,2.824-1.859,4.438-5.166,4.438L164.146,164.754L164.146,164.754z"/>
	<path fill="#FFFFFF" d="M184.002,151.277v10.812c0,2.1,1.453,3.311,3.551,3.311c2.906,0,4.357-0.244,4.357-4.197v-9.926h4.6
		c0,0,0.082,2.176,0,11.055c0,3.148,0.244,4.844,2.504,6.375c-3.631,0-4.035,0-5.568,0c-0.319-0.162-0.645-0.566-0.645-0.566
		c-1.613,0.646-2.826,1.051-6.621,1.051c-3.871,0-6.617-2.098-6.617-6.213v-11.783h4.439"/>
	<path fill="#FFFFFF" d="M211.846,164.674c-1.375,0.807-2.664,1.209-4.037,1.209c-3.065,0-4.922-2.018-4.922-5.408
		c0-3.953,2.258-6.455,5.406-6.455c1.211,0,2.34,0.32,3.551,1.047L211.846,164.674 M199.658,171.451l0.242,4.117
		c2.021,0.967,4.279,1.533,6.701,1.533c3.95,0,6.858-1.375,8.312-3.637c1.129-1.773,1.129-3.631,1.129-5.646
		c0-0.163,0-0.243,0-0.403v-16.062l-4.115,0.401c-1.612-0.729-3.149-1.049-4.602-1.049c-4.845,0-9.117,4.033-9.117,9.685
		c0,5.325,3.467,9.121,8.877,9.121c1.293,0,2.906-0.404,4.683-1.132v1.132c0,2.5-1.695,3.952-4.603,3.952
		C204.822,173.391,202.4,172.662,199.658,171.451z"/>
	<path fill="#FFFFFF" d="M144.131,75.248l-0.24-0.242c-3.147-2.664-6.781-4.761-10.815-6.053l1.049-2.019c0.082,0,0.162,0,0.319,0
		c1.052,0,1.857-0.808,1.857-1.856c0-1.05-0.807-1.855-1.857-1.855c-1.049,0-1.854,0.809-1.854,1.855
		c0,0.484,0.162,0.888,0.484,1.292l-1.132,2.259c-2.821-0.807-5.811-1.291-8.959-1.291c-3.065,0-6.052,0.404-8.876,1.21
		l-1.292-2.502c0.322-0.323,0.484-0.808,0.484-1.292c0-1.049-0.808-1.855-1.857-1.855c-1.049,0-1.856,0.808-1.856,1.855
		c0,1.05,0.807,1.856,1.856,1.856c0.081,0,0.162,0,0.242,0l1.213,2.341C99.9,73.229,90.539,85.416,90.539,99.783
		c0,17.836,14.528,32.443,32.363,32.443c17.841,0,32.447-14.525,32.447-32.443C155.35,89.937,150.992,81.139,144.131,75.248z
		 M120.564,127.627c-14.365-1.211-25.746-13.235-25.746-27.924c0-7.991,3.389-15.253,8.797-20.339h16.948V127.627z M124.924,127.627
		V79.284h17.27c5.408,5.085,8.8,12.349,8.8,20.337C150.992,114.472,139.451,126.58,124.924,127.627z"/>
	<path fill="#FFFFFF" d="M106.603,100.429c-3.148,0-5.165-2.018-4.6-4.519c0.808-3.552,4.278-8.232,4.762-9.767
		c0.403,1.533,3.794,6.215,4.438,9.767C111.687,98.493,109.83,100.429,106.603,100.429z"/>
	<path fill="#FFFFFF" d="M112.814,119.879c-2.258,0-3.712-1.454-3.307-3.229c0.564-2.584,3.067-5.894,3.47-7.021
		c0.243,1.128,2.742,4.438,3.228,7.021C116.529,118.427,115.155,119.879,112.814,119.879z"/>
	<polygon fill="#FFFFFF" points="143.891,88.324 142.113,89.211 143.646,90.017 143,91.147 141.549,90.26 141.709,92.276 
		140.418,91.552 140.258,89.534 138.158,88.324 138.158,90.745 139.771,91.792 139.771,93.327 138.158,92.195 138.158,93.973 
		136.867,93.973 136.867,92.276 135.252,93.407 135.252,91.875 136.867,90.745 136.867,88.242 134.688,89.534 134.525,91.552 
		133.232,92.276 133.396,90.26 132.023,91.066 131.379,89.937 132.75,89.211 130.975,88.242 132.348,87.516 134.043,88.402 
		136.223,87.193 134.043,85.981 132.268,86.871 130.975,86.062 132.75,85.255 131.459,84.449 132.023,83.399 133.396,84.125 
		133.314,82.189 134.607,82.996 134.688,84.932 136.867,86.143 136.867,83.642 135.252,82.512 135.252,80.979 136.867,82.106 
		136.867,80.575 138.158,80.575 138.158,82.106 139.771,81.06 139.771,82.593 138.158,83.642 138.158,86.062 140.176,84.853 
		140.258,82.915 141.549,82.189 141.467,84.125 143,83.236 143.566,84.368 142.113,85.175 143.971,86.062 142.68,86.789 
		140.82,85.981 138.643,87.193 140.82,88.482 142.596,87.516 	"/>
	<polygon fill="#FFFFFF" points="133.396,105.755 132.348,106.239 133.232,106.806 132.912,107.37 132.023,106.885 132.104,108.096 
		131.379,107.611 131.299,106.481 130.088,105.755 130.088,107.209 130.975,107.773 131.057,108.66 130.088,108.016 
		130.088,108.983 129.361,108.983 129.361,108.016 128.393,108.66 128.393,107.854 129.361,107.209 129.361,105.675 
		128.068,106.481 127.986,107.611 127.182,108.016 127.262,106.885 126.537,107.37 126.133,106.725 126.939,106.239 
		125.891,105.755 126.697,105.353 127.666,105.836 128.959,105.108 127.666,104.384 126.619,104.948 125.891,104.465 
		126.939,103.979 126.213,103.495 126.537,102.93 127.344,103.334 127.262,102.204 127.986,102.688 128.068,103.818 
		129.361,104.544 129.361,103.091 128.393,102.366 128.393,101.559 129.361,102.204 129.361,101.315 130.088,101.315 
		130.088,102.204 131.057,101.559 130.975,102.447 130.088,103.091 130.088,104.465 131.217,103.818 131.299,102.688 
		132.023,102.204 132.023,103.334 132.832,102.851 133.232,103.495 132.348,103.979 133.396,104.465 132.668,104.868 
		131.621,104.384 130.33,105.108 131.621,105.836 132.592,105.353 	"/>
	<polygon fill="#FFFFFF" points="145.18,111.565 144.213,112.052 145.018,112.536 144.695,113.181 143.807,112.695 143.891,113.827 
		143.162,113.422 143.084,112.292 141.873,111.565 141.873,112.938 142.84,113.583 142.84,114.472 141.873,113.827 141.873,114.793 
		141.145,114.793 141.145,113.827 140.176,114.472 140.176,113.583 141.145,112.938 141.145,111.485 139.854,112.211 
		139.771,113.422 139.047,113.827 139.127,112.695 138.32,113.101 137.998,112.536 138.725,112.052 137.754,111.565 
		138.479,111.081 139.531,111.646 140.742,110.921 139.531,110.194 138.479,110.678 137.674,110.274 138.725,109.791 
		137.998,109.307 138.32,108.66 139.127,109.146 139.047,108.016 139.854,108.42 139.854,109.549 141.145,110.274 141.145,108.823 
		140.176,108.176 140.176,107.29 141.145,107.935 141.145,107.046 141.873,107.046 141.873,108.016 142.84,107.37 142.84,108.257 
		141.873,108.823 141.873,110.274 143.084,109.549 143.084,108.42 143.891,108.016 143.807,109.146 144.695,108.66 145.018,109.226 
		144.213,109.711 145.18,110.274 144.455,110.678 143.402,110.194 142.191,110.921 143.402,111.646 144.455,111.081 	"/>
</g>
</svg>
