<?xml version="1.0" encoding="utf-8"?>
<!-- Generator: Adobe Illustrator 17.0.0, SVG Export Plug-In . SVG Version: 6.00 Build 0)  -->
<!DOCTYPE svg PUBLIC "-//W3C//DTD SVG 1.1//EN" "http://www.w3.org/Graphics/SVG/1.1/DTD/svg11.dtd">
<svg version="1.1" xmlns="http://www.w3.org/2000/svg" xmlns:xlink="http://www.w3.org/1999/xlink" x="0px" y="0px" width="66px"
	 height="66px" viewBox="0 0 66 66" enable-background="new 0 0 66 66" xml:space="preserve">
<g id="Blue">
</g>
<g id="Layer_2">
	<g>
		<path fill="#FFFFFF" d="M64.355,26.704L64.355,26.704c0,0-0.123-0.017-0.206-0.017c-0.471,0-0.938,0.277-0.938,0.984
			c-0.28,3.547-0.572,7.104-1.051,10.489l-0.002,0.002h0.002h0.002c0.29-0.049,0.513,0.025,0.731,0.113v-0.003
			c0.542-3.436,1.834-8.586,2.165-10.044c0.049-0.206,0.118-0.447,0.118-0.619C65.177,27.089,64.848,26.787,64.355,26.704"/>
		<path fill="#FFFFFF" d="M30.206,28.103c0.096,1.831,0.147,3.665,0.152,5.501c-2.197,0.052-4.394,0.054-6.588,0
			c0.007-1.836,0.059-3.67,0.155-5.501c-0.646,0.155-1.299,0.16-1.966,0c0.172,3.935,0.157,7.865,0,11.787
			c0.638-0.155,1.291-0.162,1.964,0l-0.005-0.002l0.007,0.002c-0.098-1.829-0.147-3.657-0.155-5.484
			c2.197-0.03,4.394-0.032,6.588-0.003c-0.005,1.829-0.056,3.655-0.152,5.486l0.007-0.002l-0.005,0.002
			c0.67-0.162,1.323-0.155,1.961,0c-0.155-3.922-0.169-7.852,0-11.787C31.505,28.263,30.849,28.258,30.206,28.103"/>
		<path fill="#FFFFFF" d="M16.195,28.099h-0.002H16.195c-0.491,0.169-0.889,0.162-1.37,0h-0.002
			c-1.581,3.969-3.405,8.449-5.042,11.79v0.002l0.007-0.002H9.781l0.012-0.002l-0.005,0.002c0.749-0.187,1.463-0.13,1.937-0.002
			h-0.002h0.002c0.417-1.056,0.893-2.251,1.37-3.456l0.002,0.002c1.61-0.047,3.22-0.052,4.831,0
			c0.459,1.151,0.918,2.305,1.365,3.459c0.719-0.187,1.433-0.137,1.961-0.005h-0.002C20.071,37.682,17.699,31.911,16.195,28.099
			 M15.508,30.131c0.65,1.817,1.367,3.645,2.096,5.479h-0.005c-1.394,0.047-2.786,0.049-4.18,0
			C14.27,33.448,15.08,31.361,15.508,30.131"/>
		<path fill="#FFFFFF" d="M12.625,26.532h-0.002H12.625c-0.709,0.16-1.348,0.167-1.981,0c-0.557,1.041-2.617,4.406-3.927,6.561
			c-1.33-2.202-2.904-4.745-3.93-6.561c-0.812,0.174-1.154,0.184-1.964,0c1.61,2.425,4.19,7.047,5.069,8.564l-0.118,6.326
			c0,0,0.565-0.096,0.943-0.096c0.42,0,0.943,0.096,0.943,0.096l-0.118-6.326C9.178,32.222,11.883,27.536,12.625,26.532"/>
		<path fill="#FFFFFF" d="M39.091,27.943c-4.168,0-6.353,2.644-6.353,6.068c0,3.751,2.386,6.036,6.345,6.036
			c4.283,0,6.375-2.577,6.375-5.997C45.458,30.238,42.959,27.943,39.091,27.943 M39.103,39.379c-2.779,0-4.411-1.991-4.411-5.349
			c0-3.797,2.013-5.324,4.296-5.371c0.037-0.003,0.074,0,0.11,0c2.548,0,4.421,1.735,4.421,5.361
			C43.519,37.644,41.648,39.379,39.103,39.379"/>
		<path fill="#FFFFFF" d="M53.478,27.236c-4.151,0-7.322,2.356-7.322,6.735c0,3.611,2.109,6.787,7.357,6.787
			c4.44,0,7.342-2.44,7.342-6.721C60.854,30,58.149,27.236,53.478,27.236 M48.117,33.947c0-4.615,2.838-5.979,5.366-5.979
			c3.115,0,5.41,1.893,5.41,6.07c0,4.539-2.776,6.009-5.405,6.009C50.677,40.046,48.117,38.397,48.117,33.947"/>
		<path fill="#FFFFFF" d="M62.1,39.585c-0.619,0-0.925,0.471-0.925,0.98c0,0.596,0.476,0.903,1.068,0.903
			c0.425,0,0.891-0.26,0.891-0.965C63.134,39.939,62.692,39.585,62.1,39.585"/>
	</g>
</g>
</svg>
