<?xml version="1.0" encoding="utf-8"?>
<!-- Generator: Adobe Illustrator 17.0.0, SVG Export Plug-In . SVG Version: 6.00 Build 0)  -->
<!DOCTYPE svg PUBLIC "-//W3C//DTD SVG 1.1//EN" "http://www.w3.org/Graphics/SVG/1.1/DTD/svg11.dtd">
<svg version="1.1" xmlns="http://www.w3.org/2000/svg" xmlns:xlink="http://www.w3.org/1999/xlink" x="0px" y="0px" width="66px"
	 height="66px" viewBox="0 0 66 66" enable-background="new 0 0 66 66" xml:space="preserve">
<g id="Blue">
</g>
<g id="Layer_2">
	<g>
		<g>
			<polyline fill="#E8E7E8" points="40.514,33.519 27.677,24.947 42.315,32.584 40.514,33.519 			"/>
			<path fill="#FFFFFF" d="M27.679,40.168l-0.002-15.221l14.638,7.637L27.679,40.168L27.679,40.168z M59.818,22.31
				c0,0-0.529-3.733-2.154-5.377c-2.06-2.158-4.369-2.168-5.428-2.295c-7.581-0.548-18.952-0.548-18.952-0.548H33.26
				c0,0-11.371,0-18.952,0.548c-1.059,0.126-3.367,0.137-5.428,2.295c-1.624,1.644-2.153,5.377-2.153,5.377
				s-0.542,4.384-0.542,8.768v4.11c0,4.384,0.542,8.768,0.542,8.768s0.529,3.733,2.153,5.377c2.061,2.158,4.768,2.089,5.973,2.316
				c4.334,0.416,18.419,0.544,18.419,0.544s11.383-0.017,18.964-0.565c1.059-0.126,3.368-0.137,5.428-2.295
				c1.624-1.644,2.154-5.377,2.154-5.377s0.541-4.384,0.541-8.768v-4.11C60.359,26.694,59.818,22.31,59.818,22.31L59.818,22.31z"/>
		</g>
	</g>
</g>
</svg>
